<svg id="root" viewBox="0 0 1100 620" width="100%" height="100%" preserveAspectRatio="xMidYMid meet" xmlns="http://www.w3.org/2000/svg" font-family="'Inter','Helvetica Neue',Arial,sans-serif">
<defs>
  <clipPath id="chartclip">
    <rect x="68" y="96" width="782" height="412"/>
  </clipPath>
  <linearGradient id="wavegrad" x1="0" y1="0" x2="1" y2="0" gradientUnits="objectBoundingBox">
    <stop offset="0%"   stop-color="#20D0E0"/>
    <stop offset="28%"  stop-color="#18A870"/>
    <stop offset="55%"  stop-color="#E8A020"/>
    <stop offset="78%"  stop-color="#E04060"/>
    <stop offset="100%" stop-color="#607080"/>
  </linearGradient>

  <!-- Area fills — light mode: original strong values -->
  <linearGradient id="a1" x1="0" y1="0" x2="0" y2="1">
    <stop offset="0%"   stop-color="#20D0E0" stop-opacity="0.72"/>
    <stop offset="100%" stop-color="#20D0E0" stop-opacity="0.12"/>
  </linearGradient>
  <linearGradient id="a2" x1="0" y1="0" x2="0" y2="1">
    <stop offset="0%"   stop-color="#18A870" stop-opacity="0.65"/>
    <stop offset="100%" stop-color="#18A870" stop-opacity="0.10"/>
  </linearGradient>
  <linearGradient id="a3" x1="0" y1="0" x2="0" y2="1">
    <stop offset="0%"   stop-color="#E8A020" stop-opacity="0.62"/>
    <stop offset="100%" stop-color="#E8A020" stop-opacity="0.10"/>
  </linearGradient>
  <linearGradient id="a4" x1="0" y1="0" x2="0" y2="1">
    <stop offset="0%"   stop-color="#E04060" stop-opacity="0.58"/>
    <stop offset="100%" stop-color="#E04060" stop-opacity="0.08"/>
  </linearGradient>
  <linearGradient id="a5" x1="0" y1="0" x2="0" y2="1">
    <stop offset="0%"   stop-color="#607080" stop-opacity="0.78"/>
    <stop offset="100%" stop-color="#607080" stop-opacity="0.22"/>
  </linearGradient>

  <!-- Dark mode area fills -->
  <linearGradient id="a1d" x1="0" y1="0" x2="0" y2="1">
    <stop offset="0%"   stop-color="#20D0E0" stop-opacity="0.50"/>
    <stop offset="100%" stop-color="#20D0E0" stop-opacity="0.04"/>
  </linearGradient>
  <linearGradient id="a2d" x1="0" y1="0" x2="0" y2="1">
    <stop offset="0%"   stop-color="#18A870" stop-opacity="0.46"/>
    <stop offset="100%" stop-color="#18A870" stop-opacity="0.04"/>
  </linearGradient>
  <linearGradient id="a3d" x1="0" y1="0" x2="0" y2="1">
    <stop offset="0%"   stop-color="#E8A020" stop-opacity="0.44"/>
    <stop offset="100%" stop-color="#E8A020" stop-opacity="0.04"/>
  </linearGradient>
  <linearGradient id="a4d" x1="0" y1="0" x2="0" y2="1">
    <stop offset="0%"   stop-color="#E04060" stop-opacity="0.40"/>
    <stop offset="100%" stop-color="#E04060" stop-opacity="0.04"/>
  </linearGradient>
  <linearGradient id="a5d" x1="0" y1="0" x2="0" y2="1">
    <stop offset="0%"   stop-color="#607080" stop-opacity="0.56"/>
    <stop offset="100%" stop-color="#607080" stop-opacity="0.10"/>
  </linearGradient>

  <radialGradient id="c1" cx="50%" cy="50%" r="50%" fx="50%" fy="50%">
    <stop offset="0%"   stop-color="#006880"/>
    <stop offset="55%"  stop-color="#20D0E0"/>
    <stop offset="100%" stop-color="#80F9FF"/>
  </radialGradient>
  <radialGradient id="c2" cx="50%" cy="50%" r="50%" fx="50%" fy="50%">
    <stop offset="0%"   stop-color="#056645"/>
    <stop offset="55%"  stop-color="#18A870"/>
    <stop offset="100%" stop-color="#6EF5C8"/>
  </radialGradient>
  <radialGradient id="c3" cx="50%" cy="50%" r="50%" fx="50%" fy="50%">
    <stop offset="0%"   stop-color="#8C5200"/>
    <stop offset="55%"  stop-color="#E8A020"/>
    <stop offset="100%" stop-color="#FDD47A"/>
  </radialGradient>
  <radialGradient id="c4" cx="50%" cy="50%" r="50%" fx="50%" fy="50%">
    <stop offset="0%"   stop-color="#A01535"/>
    <stop offset="55%"  stop-color="#E04060"/>
    <stop offset="100%" stop-color="#FECDD3"/>
  </radialGradient>
  <radialGradient id="c5" cx="50%" cy="50%" r="50%" fx="50%" fy="50%">
    <stop offset="0%"   stop-color="#3D4E62"/>
    <stop offset="55%"  stop-color="#607080"/>
    <stop offset="100%" stop-color="#8090A0"/>
  </radialGradient>

  <linearGradient id="wg" x1="68" y1="0" x2="850" y2="0" gradientUnits="userSpaceOnUse">
    <stop offset="0%"   stop-color="#20D0E0"/>
    <stop offset="28%"  stop-color="#18A870"/>
    <stop offset="55%"  stop-color="#E8A020"/>
    <stop offset="78%"  stop-color="#E04060"/>
    <stop offset="100%" stop-color="#607080"/>
  </linearGradient>
  <linearGradient id="lgd-wg" x1="0" y1="0" x2="1" y2="0" gradientUnits="objectBoundingBox">
    <stop offset="0%"   stop-color="#20D0E0"/>
    <stop offset="28%"  stop-color="#18A870"/>
    <stop offset="55%"  stop-color="#E8A020"/>
    <stop offset="78%"  stop-color="#E04060"/>
    <stop offset="100%" stop-color="#607080"/>
  </linearGradient>

  <filter id="tipshadow" x="-40%" y="-80%" width="180%" height="320%">
    <feDropShadow dx="0" dy="2" stdDeviation="4" flood-color="rgba(0,0,0,0.20)"/>
  </filter>

  <style>
    .bg-main   { fill:#fdf8f2; filter:drop-shadow(0 4px 12px rgba(0,0,0,0.10)) drop-shadow(0 1px 3px rgba(0,0,0,0.08)); }
    .ct        { font-size:22px; font-weight:900; fill:#1a120a; letter-spacing:-0.4px; }
    .cs        { font-size:11px; fill:#6a5540; font-weight:400; }
    .an        { font-size:10px; fill:#a89880; font-weight:300; }
    .al        { font-size:10px; fill:#705840; font-weight:400; }
    .lt        { font-size:11px; fill:#705840; font-weight:400; }
    .lv        { font-size:11px; fill:#705840; font-weight:700; }
    .lp        { font-size:10px; fill:#a89880; font-weight:400; }
    .gl        { stroke:#d8d0c4; stroke-width:1; fill:none; }
    .bl        { stroke:#c0b8a8; stroke-width:1.5; fill:none; }
    .lgd-bg    { fill:rgba(255,250,244,0.92); stroke:#d8cfc4; }
    .lgd-div   { stroke:#e8e0d4; stroke-width:1; }
    .lgd-ttl   { font-size:10px; fill:#a89880; font-weight:400; letter-spacing:0.5px; }
    .footer    { font-size:10px; fill:#c0b0a0; font-weight:300; }
    .t-wrap    { cursor:pointer; }
    .t-track   { fill:#b8a898; transition:fill 0.3s; }
    .t-thumb   { fill:#ffffff; }
    .t-label   { font-size:11px; font-weight:500; fill:#605040; }
    .pt-track  { fill:#b8a898; transition:fill 0.3s; }
    .pt-thumb  { fill:#ffffff; }
    .pt-label  { font-size:11px; font-weight:500; fill:#605040; }
    .lgd-val   { opacity:0; transition:opacity 0.2s; }
    svg.print .lgd-val  { opacity:1; }
    svg.print .pt-track { fill:#d97316; }
    .tip-div   { stroke:#e0d8cc; stroke-width:1; }
    .crosshair { stroke:#c0b8a8; stroke-width:1; stroke-dasharray:4,3; opacity:0; transition:opacity 0.15s; pointer-events:none; }
    .tip       { opacity:0; pointer-events:none; transition:opacity 0.15s ease; }
    svg.print .tip { opacity:0 !important; }
    .bub-bg    { fill:#ffffff; }
    .bub-bdr   { fill:none; stroke:#c8b898; stroke-width:1; }
    .bub-val   { fill:#1a120a; font-size:13px; font-weight:700; }
    .bub-lbl   { fill:#5a4030; font-size:10px; font-weight:500; }
    @keyframes drawWave { from{stroke-dashoffset:var(--len,2000);} to{stroke-dashoffset:0;} }
    .wave-edge { stroke-dasharray:var(--len,2000); stroke-dashoffset:var(--len,2000); animation: drawWave 1.5s cubic-bezier(0.4,0,0.2,1) both; }
    .w1{animation-delay:0.00s;} .w2{animation-delay:0.18s;} .w3{animation-delay:0.34s;} .w4{animation-delay:0.50s;} .w5{animation-delay:0.66s;}
    @keyframes washIn { from{opacity:0;} to{opacity:1;} }
    .area-fill { animation: washIn 1.2s cubic-bezier(0.4,0,0.2,1) both; }
    .f1{animation-delay:0.00s;} .f2{animation-delay:0.18s;} .f3{animation-delay:0.34s;} .f4{animation-delay:0.50s;} .f5{animation-delay:0.66s;}
    svg.dark .bg-main   { fill:#151825; filter:drop-shadow(0 4px 16px rgba(0,0,0,0.5)); }
    svg.dark .ct        { fill:rgba(255,255,255,0.92); }
    svg.dark .cs        { fill:rgba(255,255,255,0.65); }
    svg.dark .an        { fill:rgba(255,255,255,0.25); }
    svg.dark .al        { fill:rgba(255,255,255,0.42); }
    svg.dark .lt        { fill:rgba(255,255,255,0.60); }
    svg.dark .lv        { fill:rgba(255,255,255,0.80); }
    svg.dark .lp        { fill:rgba(255,255,255,0.30); }
    svg.dark .gl        { stroke:rgba(255,255,255,0.07); }
    svg.dark .bl        { stroke:rgba(255,255,255,0.20); }
    svg.dark .lgd-bg    { fill:rgba(255,255,255,0.05); stroke:rgba(255,255,255,0.10); }
    svg.dark .lgd-div   { stroke:rgba(255,255,255,0.08); }
    svg.dark .lgd-ttl   { fill:rgba(255,255,255,0.28); }
    svg.dark .footer    { fill:rgba(255,255,255,0.15); }
    svg.dark .t-track   { fill:#3a4560; }
    svg.dark .t-label   { fill:rgba(255,255,255,0.55); }
    svg.dark .pt-track  { fill:#3a4560; }
    svg.dark .pt-label  { fill:rgba(255,255,255,0.55); }
    svg.dark.print .pt-track { fill:#d97316; }
    svg.dark .crosshair { stroke:rgba(255,255,255,0.20); }
    svg.dark .bub-bg    { fill:#1e2030; }
    svg.dark .bub-bdr   { fill:none; stroke:rgba(255,255,255,0.15); }
    svg.dark .bub-val   { fill:rgba(255,255,255,0.92); font-size:13px; font-weight:700; }
    svg.dark .bub-lbl   { fill:rgba(255,255,255,0.50); font-size:10px; font-weight:500; }
    svg.dark .tip-div   { stroke:rgba(255,255,255,0.12); }
    .border-dark      { display:none; }
    .border-light     { display:block; }
    svg.dark .border-dark  { display:block; }
    svg.dark .border-light { display:none; }
    .inner-glow-dark  { display:none; pointer-events:none; }
    .inner-glow-light { display:block; pointer-events:none; }
    svg.dark .inner-glow-dark  { display:block; }
    svg.dark .inner-glow-light { display:none; }
    .rim-dark { display:none; }
    svg.dark .rim-dark { display:block; }
  </style>

  <filter id="rim-glow-dark" x="-5%" y="-300%" width="110%" height="800%">
    <feGaussianBlur stdDeviation="6" result="blur"/>
    <feFlood flood-color="rgba(255,255,255,0.9)" result="color"/>
    <feComposite in="color" in2="blur" operator="in"/>
  </filter>
  <linearGradient id="top-dark" x1="40" y1="0" x2="1060" y2="0" gradientUnits="userSpaceOnUse">
    <stop offset="0%"   stop-color="rgba(255,255,255,0.0)"/>
    <stop offset="14%"  stop-color="rgba(255,255,255,0.38)"/>
    <stop offset="50%"  stop-color="rgba(255,255,255,0.72)"/>
    <stop offset="86%"  stop-color="rgba(255,255,255,0.38)"/>
    <stop offset="100%" stop-color="rgba(255,255,255,0.0)"/>
  </linearGradient>
  <linearGradient id="top-light" x1="40" y1="0" x2="1060" y2="0" gradientUnits="userSpaceOnUse">
    <stop offset="0%"   stop-color="rgba(0,0,0,0.0)"/>
    <stop offset="14%"  stop-color="rgba(0,0,0,0.08)"/>
    <stop offset="50%"  stop-color="rgba(0,0,0,0.18)"/>
    <stop offset="86%"  stop-color="rgba(0,0,0,0.08)"/>
    <stop offset="100%" stop-color="rgba(0,0,0,0.0)"/>
  </linearGradient>
  <linearGradient id="inner-glow-dark" x1="0" y1="0" x2="0" y2="1">
    <stop offset="0%"   stop-color="rgba(0,242,255,0.08)"/>
    <stop offset="15%"  stop-color="rgba(255,255,255,0.06)"/>
    <stop offset="40%"  stop-color="rgba(255,255,255,0.01)"/>
    <stop offset="100%" stop-color="rgba(255,255,255,0)"/>
  </linearGradient>
  <linearGradient id="inner-glow-light" x1="0" y1="0" x2="0" y2="1">
    <stop offset="0%"   stop-color="rgba(0,0,0,0.06)"/>
    <stop offset="10%"  stop-color="rgba(0,0,0,0.02)"/>
    <stop offset="25%"  stop-color="rgba(0,0,0,0)"/>
    <stop offset="100%" stop-color="rgba(0,0,0,0)"/>
  </linearGradient>
</defs>

<rect class="bg-main" width="1100" height="620" rx="18"/>

<g class="border-dark">
  <rect x="0.75" y="0.75" width="1098.5" height="618.5" rx="17.5" fill="none" stroke="rgba(0,242,255,0.22)" stroke-width="1.5"/>
  <line x1="40" y1="1" x2="1060" y2="1" stroke="url(#top-dark)" stroke-width="2.5" stroke-linecap="round"/>
</g>
<g class="border-light">
  <rect x="0.75" y="0.75" width="1098.5" height="618.5" rx="17.5" fill="none" stroke="rgba(0,0,0,0.12)" stroke-width="1.5"/>
  <line x1="40" y1="1" x2="1060" y2="1" stroke="url(#top-light)" stroke-width="2" stroke-linecap="round"/>
</g>
<rect class="inner-glow-dark"  x="1" y="1" width="1098" height="111" rx="17" fill="url(#inner-glow-dark)"/>
<rect class="inner-glow-light" x="1" y="1" width="1098" height="111" rx="17" fill="url(#inner-glow-light)"/>
<line class="rim-dark" x1="100" y1="1" x2="1000" y2="1" stroke="rgba(255,255,255,0.9)" stroke-width="3" stroke-linecap="round" filter="url(#rim-glow-dark)"/>

<text x="68" y="50" class="ct">Revenue by Quarter</text>
<text x="68" y="70" class="cs">5 product lines · stacked · gradient wave edges</text>

<g class="t-wrap" id="dark-toggle" transform="translate(930,52)">
  <rect x="0" y="-13" width="68" height="26" rx="13" class="t-track"/>
  <circle id="tthumb" cx="16" cy="0" r="10" class="t-thumb"/>
  <text id="tlabel" x="44" y="4" class="t-label" text-anchor="middle">Dark</text>
</g>
<g class="t-wrap" id="print-toggle" transform="translate(1012,52)">
  <rect x="0" y="-13" width="68" height="26" rx="13" class="pt-track"/>
  <circle id="pthumb" cx="16" cy="0" r="10" class="pt-thumb"/>
  <text id="plabel" x="44" y="4" class="pt-label" text-anchor="middle">Print</text>
</g>

<line x1="68" y1="504" x2="850" y2="504" class="bl"/>
<line x1="68" y1="423" x2="850" y2="423" class="gl"/>
<line x1="68" y1="342" x2="850" y2="342" class="gl"/>
<line x1="68" y1="261" x2="850" y2="261" class="gl"/>
<line x1="68" y1="180" x2="850" y2="180" class="gl"/>
<line x1="68" y1="100" x2="850" y2="100" class="gl"/>
<line x1="68" y1="100" x2="68"  y2="504" class="bl"/>

<text x="56" y="508" class="an" text-anchor="end">$0</text>
<text x="56" y="427" class="an" text-anchor="end">$50M</text>
<text x="56" y="346" class="an" text-anchor="end">$100M</text>
<text x="56" y="265" class="an" text-anchor="end">$150M</text>
<text x="56" y="184" class="an" text-anchor="end">$200M</text>
<text x="56" y="104" class="an" text-anchor="end">$250M</text>

<text x="68"  y="522" class="al" text-anchor="middle">Q1 '22</text>
<text x="180" y="522" class="al" text-anchor="middle">Q2 '22</text>
<text x="291" y="522" class="al" text-anchor="middle">Q3 '22</text>
<text x="403" y="522" class="al" text-anchor="middle">Q4 '22</text>
<text x="515" y="522" class="al" text-anchor="middle">Q1 '23</text>
<text x="627" y="522" class="al" text-anchor="middle">Q2 '23</text>
<text x="738" y="522" class="al" text-anchor="middle">Q3 '23</text>
<text x="850" y="522" class="al" text-anchor="middle">Q4 '23</text>

<line x1="459" y1="100" x2="459" y2="514" stroke="#c0b8a8" stroke-width="1" stroke-dasharray="5,4" opacity="0.6"/>
<text x="263" y="90" class="an" text-anchor="middle">2022</text>
<text x="654" y="90" class="an" text-anchor="middle">2023</text>

<g clip-path="url(#chartclip)">
<path class="area-fill f5" fill="url(#a5)"
  d="M68,504 L68,487.8 C124,487.8 124,483.0 180,483.0 C235,483.0 235,486.2 291,486.2 C347,486.2 347,480.2 403,480.2 C459,480.2 459,483.0 515,483.0 C571,483.0 571,477.5 627,477.5 C682,477.5 682,480.2 738,480.2 C794,480.2 794,473.3 850,473.3 L850,504 Z"/>
<path class="area-fill f4" fill="url(#a4)"
  d="M68,487.8 C124,487.8 124,483.0 180,483.0 C235,483.0 235,486.2 291,486.2 C347,486.2 347,480.2 403,480.2 C459,480.2 459,483.0 515,483.0 C571,483.0 571,477.5 627,477.5 C682,477.5 682,480.2 738,480.2 C794,480.2 794,473.3 850,473.3 L850,437.7 C794,437.7 794,453.9 738,453.9 C682,453.9 682,444.2 627,444.2 C571,444.2 571,455.5 515,455.5 C459,455.5 459,457.1 403,457.1 C347,457.1 347,457.1 291,457.1 C235,457.1 235,459.3 180,459.3 C124,459.3 124,468.3 68,468.3 Z"/>
<path class="area-fill f3" fill="url(#a3)"
  d="M68,468.3 C124,468.3 124,459.3 180,459.3 C235,459.3 235,457.1 291,457.1 C347,457.1 347,457.1 403,457.1 C459,457.1 459,455.5 515,455.5 C571,455.5 571,444.2 627,444.2 C682,444.2 682,453.9 738,453.9 C794,453.9 794,437.7 850,437.7 L850,381.6 C794,381.6 794,403.8 738,403.8 C682,403.8 682,399.6 627,399.6 C571,399.6 571,415.3 515,415.3 C459,415.3 459,410.5 403,410.5 C347,410.5 347,416.9 291,416.9 C235,416.9 235,423.2 180,423.2 C124,423.2 124,439.4 68,439.4 Z"/>
<path class="area-fill f2" fill="url(#a2)"
  d="M68,439.4 C124,439.4 124,423.2 180,423.2 C235,423.2 235,416.9 291,416.9 C347,416.9 347,410.5 403,410.5 C459,410.5 459,415.3 515,415.3 C571,415.3 571,399.6 627,399.6 C682,399.6 682,403.8 738,403.8 C794,403.8 794,381.6 850,381.6 L850,281.4 C794,281.4 794,315.6 738,315.6 C682,315.6 682,320.2 627,320.2 C571,320.2 571,344.2 515,344.2 C459,344.2 459,346.4 403,346.4 C347,346.4 347,360.8 291,360.8 C235,360.8 235,373.9 180,373.9 C124,373.9 124,394.1 68,394.1 Z"/>
<path class="area-fill f1" fill="url(#a1)"
  d="M68,394.1 C124,394.1 124,373.9 180,373.9 C235,373.9 235,360.8 291,360.8 C347,360.8 347,346.4 403,346.4 C459,346.4 459,344.2 515,344.2 C571,344.2 571,320.2 627,320.2 C682,320.2 682,315.6 738,315.6 C794,315.6 794,281.4 850,281.4 L850,165.6 C794,165.6 794,205.0 738,205.0 C682,205.0 682,221.8 627,221.8 C571,221.8 571,261.2 515,261.2 C459,261.2 459,268.1 403,268.1 C347,268.1 347,294.1 291,294.1 C235,294.1 235,311.7 180,311.7 C124,311.7 124,342.4 68,342.4 Z"/>

<path class="wave-edge w5" style="--len:900" fill="none" stroke="url(#wg)" stroke-width="1.5" stroke-linecap="round" stroke-dasharray="5,6" opacity="0.55"
  d="M68,487.8 C124,487.8 124,483.0 180,483.0 C235,483.0 235,486.2 291,486.2 C347,486.2 347,480.2 403,480.2 C459,480.2 459,483.0 515,483.0 C571,483.0 571,477.5 627,477.5 C682,477.5 682,480.2 738,480.2 C794,480.2 794,473.3 850,473.3"/>
<path class="wave-edge w4" style="--len:900" fill="none" stroke="url(#wg)" stroke-width="2" stroke-linecap="round" opacity="0.72"
  d="M68,468.3 C124,468.3 124,459.3 180,459.3 C235,459.3 235,457.1 291,457.1 C347,457.1 347,457.1 403,457.1 C459,457.1 459,455.5 515,455.5 C571,455.5 571,444.2 627,444.2 C682,444.2 682,453.9 738,453.9 C794,453.9 794,437.7 850,437.7"/>
<path class="wave-edge w3" style="--len:900" fill="none" stroke="url(#wg)" stroke-width="2.5" stroke-linecap="round" opacity="0.82"
  d="M68,439.4 C124,439.4 124,423.2 180,423.2 C235,423.2 235,416.9 291,416.9 C347,416.9 347,410.5 403,410.5 C459,410.5 459,415.3 515,415.3 C571,415.3 571,399.6 627,399.6 C682,399.6 682,403.8 738,403.8 C794,403.8 794,381.6 850,381.6"/>
<path class="wave-edge w2" style="--len:900" fill="none" stroke="url(#wg)" stroke-width="2.5" stroke-linecap="round" opacity="0.90"
  d="M68,394.1 C124,394.1 124,373.9 180,373.9 C235,373.9 235,360.8 291,360.8 C347,360.8 347,346.4 403,346.4 C459,346.4 459,344.2 515,344.2 C571,344.2 571,320.2 627,320.2 C682,320.2 682,315.6 738,315.6 C794,315.6 794,281.4 850,281.4"/>
<path class="wave-edge w1" style="--len:900" fill="none" stroke="url(#wg)" stroke-width="3.5" stroke-linecap="round" opacity="1"
  d="M68,342.4 C124,342.4 124,311.7 180,311.7 C235,311.7 235,294.1 291,294.1 C347,294.1 347,268.1 403,268.1 C459,268.1 459,261.2 515,261.2 C571,261.2 571,221.8 627,221.8 C682,221.8 682,205.0 738,205.0 C794,205.0 794,165.6 850,165.6"/>
</g>

<g id="crosshairs">
  <line id="ch0" class="crosshair" x1="68"  y1="100" x2="68"  y2="504"/>
  <line id="ch1" class="crosshair" x1="180" y1="100" x2="180" y2="504"/>
  <line id="ch2" class="crosshair" x1="291" y1="100" x2="291" y2="504"/>
  <line id="ch3" class="crosshair" x1="403" y1="100" x2="403" y2="504"/>
  <line id="ch4" class="crosshair" x1="515" y1="100" x2="515" y2="504"/>
  <line id="ch5" class="crosshair" x1="627" y1="100" x2="627" y2="504"/>
  <line id="ch6" class="crosshair" x1="738" y1="100" x2="738" y2="504"/>
  <line id="ch7" class="crosshair" x1="850" y1="100" x2="850" y2="504"/>
</g>

<g id="hit-layer"></g>
<g id="tip-layer"></g>

<rect x="870" y="100" width="210" height="310" rx="14" class="lgd-bg" stroke-width="1"/>
<text x="888" y="124" class="lgd-ttl">SERIES</text>
<g transform="translate(888,140)">
  <rect x="0" y="0" width="14" height="14" rx="3" fill="url(#c1)"/>
  <text x="22" y="11" class="lt">Cyan</text>
  <text x="188" y="11" class="lv lgd-val" text-anchor="end">$72M</text>
</g>
<g transform="translate(888,170)">
  <rect x="0" y="0" width="14" height="14" rx="3" fill="url(#c2)"/>
  <text x="22" y="11" class="lt">Emerald</text>
  <text x="188" y="11" class="lv lgd-val" text-anchor="end">$62M</text>
</g>
<g transform="translate(888,200)">
  <rect x="0" y="0" width="14" height="14" rx="3" fill="url(#c3)"/>
  <text x="22" y="11" class="lt">Amber</text>
  <text x="188" y="11" class="lv lgd-val" text-anchor="end">$35M</text>
</g>
<g transform="translate(888,230)">
  <rect x="0" y="0" width="14" height="14" rx="3" fill="url(#c4)"/>
  <text x="22" y="11" class="lt">Rose</text>
  <text x="188" y="11" class="lv lgd-val" text-anchor="end">$22M</text>
</g>
<g transform="translate(888,260)">
  <rect x="0" y="0" width="14" height="14" rx="3" fill="url(#c5)"/>
  <text x="22" y="11" class="lt">Other</text>
  <text x="188" y="11" class="lv lgd-val" text-anchor="end">$19M</text>
</g>
<line x1="888" y1="290" x2="1062" y2="290" class="lgd-div"/>
<rect x="888" y="300" width="174" height="4" rx="2" fill="url(#lgd-wg)" opacity="0.85"/>
<text x="888" y="322" class="lp">Wave edge gradient</text>
<line x1="888" y1="334" x2="1062" y2="334" class="lgd-div"/>
<text x="888" y="352" class="lt">Q4 2023 total</text>
<text x="888" y="370" class="lv lgd-val">$210M</text>
<text x="888" y="388" class="lp">Hover columns to inspect</text>

<text x="68" y="600" class="footer">Revenue by Quarter · 5 series · stacked area chart</text>

<script type="text/javascript">
//<![CDATA[
(function() {
  var svg = document.getElementById('root');
  var ns  = 'http://www.w3.org/2000/svg';

  document.getElementById('dark-toggle').addEventListener('click', function() {
    var thumb = document.getElementById('tthumb'), lbl = document.getElementById('tlabel');
    if (svg.classList.toggle('dark')) { thumb.setAttribute('cx','52'); lbl.textContent='Light'; swapFills(true); }
    else                              { thumb.setAttribute('cx','16'); lbl.textContent='Dark';  swapFills(false); }
  });
  function swapFills(dark) {
    svg.querySelectorAll('path[fill]').forEach(function(p) {
      var f = p.getAttribute('fill') || '';
      var m = f.match(/url\(#(a[1-5])(d?)\)/);
      if (!m) return;
      p.setAttribute('fill', dark ? 'url(#' + m[1] + 'd)' : 'url(#' + m[1] + ')');
    });
  }
  document.getElementById('print-toggle').addEventListener('click', function() {
    var thumb = document.getElementById('pthumb'), lbl = document.getElementById('plabel');
    if (svg.classList.toggle('print')) { thumb.setAttribute('cx','52'); lbl.textContent='Screen'; }
    else                               { thumb.setAttribute('cx','16'); lbl.textContent='Print';  }
  });

  var quarters = ["Q1 '22","Q2 '22","Q3 '22","Q4 '22","Q1 '23","Q2 '23","Q3 '23","Q4 '23"];
  var xs = [68,180,291,403,515,627,738,850];
  var colW = 50;
  var series = [
    { label:'Cyan',    color:'#20D0E0', vals:[32,38,41,48,52,61,68,72] },
    { label:'Emerald', color:'#18A870', vals:[28,31,35,40,44,49,55,62] },
    { label:'Amber',   color:'#E8A020', vals:[18,22,25,29,25,28,31,35] },
    { label:'Rose',    color:'#E04060', vals:[12,15,18,14,17,20,16,22] },
    { label:'Other',   color:'#607080', vals:[10,13,11,15,13,17,15,19] },
  ];
  var totals = xs.map(function(_,qi){ return series.reduce(function(s,sr){ return s+sr.vals[qi]; },0); });

  var hitLayer = document.getElementById('hit-layer');
  var tipLayer = document.getElementById('tip-layer');
  var allTips  = {};

  function el(tag, attrs) {
    var e = document.createElementNS(ns, tag);
    Object.keys(attrs).forEach(function(k){ e.setAttribute(k, attrs[k]); });
    return e;
  }

  xs.forEach(function(x, qi) {
    var bw=168, bh=146, hw=bw/2, bCx=x, bCy=200;
    if (bCx-hw < 72)  bCx = 72+hw;
    if (bCx+hw > 846) bCx = 846-hw;

    var tipG = el('g', { 'class':'tip', id:'tip_'+qi });
    tipLayer.appendChild(tipG);
    allTips[qi] = tipG;

    tipG.appendChild(el('rect', { x:bCx-hw, y:bCy-12, width:bw, height:bh+12, rx:10, 'class':'bub-bg', filter:'url(#tipshadow)' }));
    tipG.appendChild(el('rect', { x:bCx-hw, y:bCy-12, width:bw, height:bh+12, rx:10, 'class':'bub-bdr' }));

    var qLbl = el('text', { x:bCx, y:bCy+5, 'text-anchor':'middle', 'dominant-baseline':'central', 'class':'bub-lbl' });
    qLbl.textContent = quarters[qi];
    tipG.appendChild(qLbl);
    tipG.appendChild(el('line', { x1:bCx-hw+8, y1:bCy+15, x2:bCx+hw-8, y2:bCy+15, 'class':'tip-div' }));

    series.forEach(function(s, si) {
      var rowY = bCy+28+si*18;
      tipG.appendChild(el('circle', { cx:bCx-hw+14, cy:rowY, r:4, fill:s.color }));
      var sLbl = el('text', { x:bCx-hw+24, y:rowY, 'dominant-baseline':'central', 'class':'bub-lbl' });
      sLbl.textContent = s.label;
      tipG.appendChild(sLbl);
      var sVal = el('text', { x:bCx+hw-8, y:rowY, 'text-anchor':'end', 'dominant-baseline':'central', 'class':'bub-val', 'font-size':'11' });
      sVal.textContent = '$'+s.vals[qi]+'M';
      tipG.appendChild(sVal);
    });

    tipG.appendChild(el('line', { x1:bCx-hw+8, y1:bCy+118, x2:bCx+hw-8, y2:bCy+118, 'class':'tip-div' }));
    var totLbl = el('text', { x:bCx-hw+8, y:bCy+130, 'dominant-baseline':'central', 'class':'bub-lbl' });
    totLbl.textContent = 'Total';
    tipG.appendChild(totLbl);
    var totVal = el('text', { x:bCx+hw-8, y:bCy+130, 'text-anchor':'end', 'dominant-baseline':'central', 'class':'bub-val' });
    totVal.textContent = '$'+totals[qi]+'M';
    tipG.appendChild(totVal);

    var hitX1 = Math.max(68, x-colW), hitX2 = Math.min(850, x+colW);
    var hit = el('rect', { x:hitX1, y:100, width:hitX2-hitX1, height:404, fill:'transparent', cursor:'crosshair' });
    hitLayer.appendChild(hit);

    var ch = document.getElementById('ch'+qi);
    hit.addEventListener('mouseenter', function() { allTips[qi].style.opacity='1'; if(ch) ch.style.opacity='1'; });
    hit.addEventListener('mouseleave', function() { allTips[qi].style.opacity='';  if(ch) ch.style.opacity=''; });
  });

  /* ── URL param: ?theme=dark|light sets initial mode ── */
  (function() {
    var params = new URLSearchParams(window.location.search);
    if (params.get('theme') === 'dark') {
      svg.classList.add('dark');
      var thumb = document.getElementById('tthumb'), lbl = document.getElementById('tlabel');
      if (thumb) thumb.setAttribute('cx','52');
      if (lbl)   lbl.textContent = 'Light';
      swapFills(true);
    }
  })();

})();
//]]>
</script>
</svg>
