



<svg id="root" class="chart-standard" viewBox="-40 88 1120 455" width="100%" height="100%" preserveAspectRatio="xMidYMid meet" xmlns="http://www.w3.org/2000/svg" font-family="'Roboto','Helvetica Neue',Arial,sans-serif">
<defs>
  <clipPath id="chartclip">
    <rect x="68" y="100" width="772" height="400"/>
  </clipPath>
  <style>
    @import url('chart-shared.css');

    .crosshair { stroke:#79747E; stroke-width:1; stroke-dasharray:4,3; opacity:0; transition:opacity 0.15s; }
    svg.dark .crosshair { stroke:#938F99; }
    .tip       { opacity:0; pointer-events:none; transition:opacity 0.15s ease; }
    svg.print .tip { opacity:0 !important; }

    @keyframes drawWave { from{stroke-dashoffset:var(--len,900);} to{stroke-dashoffset:0;} }
    .wave-edge         { stroke-dasharray:var(--len,900); stroke-dashoffset:var(--len,900);
                         opacity:0; transition: opacity 0.2s ease; }
    .wave-edge.visible { opacity:1; stroke-dashoffset:0; }
    .w1{animation-delay:0.00s;} .w2{animation-delay:0.25s;}
    .w3{animation-delay:0.50s;} .w4{animation-delay:0.75s;} .w5{animation-delay:1.00s;}

    .area-fill         { opacity:0; transition:opacity 0.2s ease; }
    .area-fill.visible { opacity:1; }
    .f1{animation-delay:0.00s;} .f2{animation-delay:0.25s;}
    .f3{animation-delay:0.50s;} .f4{animation-delay:0.75s;} .f5{animation-delay:1.00s;}

    .dot-g     { cursor:pointer; }
    @keyframes popDot { from{transform:scale(0);opacity:0} to{transform:scale(1);opacity:1} }
    .dot-inner         { opacity:0; cursor:pointer; transition:opacity 0.2s ease; }
    .dot-inner.visible { opacity:0; }
    .area-fill  { pointer-events: none; }
    .data-layer.ready.hovering .wave-edge.visible                 { opacity: 0.20; }
    .data-layer.ready.hovering .wave-edge.visible.active          { opacity: 1; }
    .data-layer.ready.hovering .area-fill.visible                 { opacity: 0.20; }
    .data-layer.ready.hovering .area-fill.visible.active          { opacity: 1; }
    .data-layer.ready.hovering .dot-inner.visible                 { opacity: 0; }
    .data-layer.ready.hovering .dot-inner.visible.active          { opacity: 0; }

  </style>
</defs>

<line x1="68" y1="500" x2="832" y2="500" class="axis-line"/>
<line x1="68" y1="403" x2="832" y2="403" class="grid-line"/>
<line x1="68" y1="302" x2="832" y2="302" class="grid-line"/>
<line x1="68" y1="201" x2="832" y2="201" class="grid-line"/>
<line x1="68" y1="100" x2="832" y2="100" class="grid-line"/>
<line x1="68" y1="100" x2="68"  y2="500" class="axis-line"/>

<text x="56" y="508" class="tick-label" text-anchor="end">$0</text>
<text x="56" y="407" class="tick-label" text-anchor="end">$25M</text>
<text x="56" y="306" class="tick-label" text-anchor="end">$50M</text>
<text x="56" y="205" class="tick-label" text-anchor="end">$75M</text>
<text x="56" y="104" class="tick-label" text-anchor="end">$100M</text>

<text x="68"  y="530" class="category-label" text-anchor="middle">Q1 '22</text>
<text x="171" y="530" class="category-label" text-anchor="middle">Q2 '22</text>
<text x="274" y="530" class="category-label" text-anchor="middle">Q3 '22</text>
<text x="377" y="530" class="category-label" text-anchor="middle">Q4 '22</text>
<text x="480" y="530" class="category-label" text-anchor="middle">Q1 '23</text>
<text x="583" y="530" class="category-label" text-anchor="middle">Q2 '23</text>
<text x="686" y="530" class="category-label" text-anchor="middle">Q3 '23</text>
<text x="789" y="530" class="category-label" text-anchor="middle">Q4 '23</text>

<line x1="429" y1="100" x2="429" y2="500" stroke="#c0b8a8" stroke-width="1" stroke-dasharray="5,4" opacity="0.6"/>
<text x="223" y="90" class="tick-label" text-anchor="middle">2022</text>
<text x="635" y="90" class="tick-label" text-anchor="middle">2023</text>

<g class="data-layer" id="data-layer">
<g clip-path="url(#chartclip)">
  <!-- Areas: Cyan starts Q3'22, Emerald ends Q3'23, others full range -->
  <path id="area-1" class="area-fill series-1 f1" data-series="1" fill-opacity="0.20" stroke="none"
    d="M274,504 L274,504.0 C325.5,504.0 325.5,281.8 377,281.8 C428.5,281.8 428.5,180.8 480,180.8 C531.5,180.8 531.5,221.2 583,221.2 C634.5,221.2 634.5,302.0 686,302.0 C737.5,302.0 737.5,241.4 789,241.4 L789,504 Z"/>
  <path id="area-2" class="area-fill series-2 f2" data-series="2" fill-opacity="0.20" stroke="none"
    d="M68,504 L68,423.2 C119.5,423.2 119.5,322.2 171,322.2 C222.5,322.2 222.5,221.2 274,221.2 C325.5,221.2 325.5,281.8 377,281.8 C428.5,281.8 428.5,362.6 480,362.6 C531.5,362.6 531.5,201.0 583,201.0 C634.5,201.0 634.5,160.6 686,160.6 C737.5,160.6 737.5,213.1 789,213.1 L789,504 Z"/>
  <path id="area-3" class="area-fill series-3 f3" data-series="3" fill-opacity="0.20" stroke="none"
    d="M68,504 L68,504.0 C119.5,504.0 119.5,382.8 171,382.8 C222.5,382.8 222.5,281.8 274,281.8 C325.5,281.8 325.5,180.8 377,180.8 C428.5,180.8 428.5,261.6 480,261.6 C531.5,261.6 531.5,342.4 583,342.4 C634.5,342.4 634.5,504.0 686,504.0 L686,504 Z"/>
  <path id="area-4" class="area-fill series-4 f4" data-series="4" fill-opacity="0.20" stroke="none"
    d="M68,504 L68,443.4 C119.5,443.4 119.5,302.0 171,302.0 C222.5,302.0 222.5,431.3 274,431.3 C325.5,431.3 325.5,403.0 377,403.0 C428.5,403.0 428.5,281.8 480,281.8 C531.5,281.8 531.5,382.8 583,382.8 C634.5,382.8 634.5,322.2 686,322.2 C737.5,322.2 737.5,261.6 789,261.6 L789,504 Z"/>
  <path id="area-5" class="area-fill series-5 f5" data-series="5" fill-opacity="0.20" stroke="none"
    d="M68,504 L68,281.8 C119.5,281.8 119.5,403.0 171,403.0 C222.5,403.0 222.5,411.1 274,411.1 C325.5,411.1 325.5,399.0 377,399.0 C428.5,399.0 428.5,407.0 480,407.0 C531.5,407.0 531.5,394.9 583,394.9 C634.5,394.9 634.5,415.1 686,415.1 C737.5,415.1 737.5,403.0 789,403.0 L789,504 Z"/>

  <!-- Wave edges — all stroke-width 2 for consistency -->
<path id="we1" class="wave-edge series-1 use-series-stroke w1" data-series="1" style="fill:none"
    stroke-width="2" stroke-linecap="round"
    d="M377,281.8 C428.5,281.8 428.5,180.8 480,180.8 C531.5,180.8 531.5,221.2 583,221.2 C634.5,221.2 634.5,302.0 686,302.0 C737.5,302.0 737.5,241.4 789,241.4"/>
<path id="we2" class="wave-edge series-2 use-series-stroke w2" data-series="2" style="fill:none"
    stroke-width="2" stroke-linecap="round"
    d="M68,423.2 C119.5,423.2 119.5,322.2 171,322.2 C222.5,322.2 222.5,221.2 274,221.2 C325.5,221.2 325.5,281.8 377,281.8 C428.5,281.8 428.5,362.6 480,362.6 C531.5,362.6 531.5,201.0 583,201.0 C634.5,201.0 634.5,160.6 686,160.6 C737.5,160.6 737.5,213.1 789,213.1"/>
<path id="we3" class="wave-edge series-3 use-series-stroke w3" data-series="3" style="fill:none"
    stroke-width="2" stroke-linecap="round"
    d="M171,382.8 C222.5,382.8 222.5,281.8 274,281.8 C325.5,281.8 325.5,180.8 377,180.8 C428.5,180.8 428.5,261.6 480,261.6 C531.5,261.6 531.5,342.4 583,342.4 C634.5,342.4 634.5,504.0 686,504.0"/>
<path id="we4" class="wave-edge series-4 use-series-stroke w4" data-series="4" style="fill:none"
    stroke-width="2" stroke-linecap="round"
    d="M68,443.4 C119.5,443.4 119.5,302.0 171,302.0 C222.5,302.0 222.5,431.3 274,431.3 C325.5,431.3 325.5,403.0 377,403.0 C428.5,403.0 428.5,281.8 480,281.8 C531.5,281.8 531.5,382.8 583,382.8 C634.5,382.8 634.5,322.2 686,322.2 C737.5,322.2 737.5,261.6 789,261.6"/>
<path id="we5" class="wave-edge series-5 use-series-stroke w5" data-series="5" style="fill:none"
    stroke-width="2" stroke-linecap="round" stroke-dasharray="7,4"
    d="M68,281.8 C119.5,281.8 119.5,403.0 171,403.0 C222.5,403.0 222.5,411.1 274,411.1 C325.5,411.1 325.5,399.0 377,399.0 C428.5,399.0 428.5,407.0 480,407.0 C531.5,407.0 531.5,394.9 583,394.9 C634.5,394.9 634.5,415.1 686,415.1 C737.5,415.1 737.5,403.0 789,403.0"/>
</g>

<g id="crosshairs">
  <line id="ch0" class="crosshair" x1="68"  y1="100" x2="68"  y2="500"/>
  <line id="ch1" class="crosshair" x1="171" y1="100" x2="171" y2="500"/>
  <line id="ch2" class="crosshair" x1="274" y1="100" x2="274" y2="500"/>
  <line id="ch3" class="crosshair" x1="377" y1="100" x2="377" y2="500"/>
  <line id="ch4" class="crosshair" x1="480" y1="100" x2="480" y2="500"/>
  <line id="ch5" class="crosshair" x1="583" y1="100" x2="583" y2="500"/>
  <line id="ch6" class="crosshair" x1="686" y1="100" x2="686" y2="500"/>
  <line id="ch7" class="crosshair" x1="789" y1="100" x2="789" y2="500"/>
</g>
<g id="dots-layer"></g>
<g id="hit-layer"></g>
<g id="tip-layer"></g>
</g>

<rect x="858" y="88" width="214" height="455" rx="18" class="legend-bg"/>
<text x="878" y="118" class="legend-title">SERIES</text>
<g transform="translate(878,146)"><rect class="series-1" x="0" y="0" width="14" height="14" rx="3"/><text x="22" y="7" class="legend-label" dominant-baseline="middle">Cyan</text><text x="174" y="7" class="legend-value" text-anchor="end" dominant-baseline="middle">$65M</text></g>
<g transform="translate(878,194)"><rect class="series-2" x="0" y="0" width="14" height="14" rx="3"/><text x="22" y="7" class="legend-label" dominant-baseline="middle">Emerald</text><text x="174" y="7" class="legend-value" text-anchor="end" dominant-baseline="middle">$72M</text></g>
<g transform="translate(878,242)"><rect class="series-3" x="0" y="0" width="14" height="14" rx="3"/><text x="22" y="7" class="legend-label" dominant-baseline="middle">Amber</text><text x="174" y="7" class="legend-value" text-anchor="end" dominant-baseline="middle">$50M</text></g>
<g transform="translate(878,290)"><rect class="series-4" x="0" y="0" width="14" height="14" rx="3"/><text x="22" y="7" class="legend-label" dominant-baseline="middle">Rose</text><text x="174" y="7" class="legend-value" text-anchor="end" dominant-baseline="middle">$60M</text></g>
<g transform="translate(878,338)"><rect class="series-5" x="0" y="0" width="14" height="14" rx="3"/><text x="22" y="7" class="legend-label" dominant-baseline="middle">Violet</text><text x="174" y="7" class="legend-value" text-anchor="end" dominant-baseline="middle">$25M</text></g>

<script href="chart-shared.js"></script>
<script type="text/javascript"><![CDATA[
(function () {
  var svg = document.documentElement;
  svg._chartInit = function (svgEl, ctx) {
    var ns          = 'http://www.w3.org/2000/svg';
    var dataLayerEl = svgEl.querySelector('#data-layer');
    var dotsL       = svgEl.querySelector('#dots-layer');
    var tipLayer    = svgEl.querySelector('#tip-layer');
    var defs        = svgEl.querySelector('defs');
    var clipRect    = svgEl.querySelector('#chartclip rect');

    var series = [
      { id:1, cls:'series-1', label:'Cyan',
        vals:[0,0,0,55,80,70,50,65], ys:[504.0,504.0,504.0,281.8,180.8,221.2,302.0,241.4] },
      { id:2, cls:'series-2', label:'Emerald',
        vals:[20,45,70,55,35,75,85,72], ys:[423.2,322.2,221.2,281.8,362.6,201.0,160.6,213.1] },
      { id:3, cls:'series-3', label:'Amber',
        vals:[0,30,55,80,60,40,0,0], ys:[504.0,382.8,281.8,180.8,261.6,342.4,504.0,504.0] },
      { id:4, cls:'series-4', label:'Rose',
        vals:[15,50,18,25,55,30,45,60], ys:[443.4,302.0,431.3,403.0,281.8,382.8,322.2,261.6] },
      { id:5, cls:'series-5', label:'Violet',
        vals:[55,25,23,26,24,27,22,25], ys:[281.8,403.0,411.1,399.0,407.0,394.9,415.1,403.0] },
    ];

    var quarters = ["Q1 '22","Q2 '22","Q3 '22","Q4 '22","Q1 '23","Q2 '23","Q3 '23","Q4 '23"];
    var xs   = [68,171,274,377,480,583,686,789];
    var allTips = {};
    var waveDelays = [0, 0.25, 0.50, 0.75, 1.00];
    var plotL = 42, plotR = 840, plotT = 100, plotB = 500;

    var el = ctx.el;

    function setHover(activeSid) {
      dataLayerEl.classList.add('hovering');
      series.forEach(function(s) {
        var wave = svgEl.querySelector('.wave-edge[data-series="'+s.id+'"]');
        var area = svgEl.querySelector('.area-fill[data-series="'+s.id+'"]');
        if (wave) wave.classList.remove('active');
        if (area) area.classList.remove('active');
        xs.forEach(function(_, qi) {
          var inner = svgEl.querySelector('#d'+s.id+'_'+qi+' .dot-inner');
          if (inner) inner.classList.remove('active');
        });
      });
      series.forEach(function(s) {
        var isActive = (s.id === activeSid);
        var wave = svgEl.querySelector('.wave-edge[data-series="'+s.id+'"]');
        var area = svgEl.querySelector('.area-fill[data-series="'+s.id+'"]');
        if (wave) wave.classList.toggle('active', isActive);
        if (area) area.classList.toggle('active', isActive);
        xs.forEach(function(_, qi) {
          var inner = svgEl.querySelector('#d'+s.id+'_'+qi+' .dot-inner');
          if (inner) inner.classList.toggle('active', isActive);
        });
      });
    }
    function clearHover() {
      dataLayerEl.classList.remove('hovering');
      series.forEach(function(s) {
        var wave = svgEl.querySelector('.wave-edge[data-series="'+s.id+'"]');
        var area = svgEl.querySelector('.area-fill[data-series="'+s.id+'"]');
        if (wave) wave.classList.remove('active');
        if (area) area.classList.remove('active');
        xs.forEach(function(_, qi) {
          var inner = svgEl.querySelector('#d'+s.id+'_'+qi+' .dot-inner');
          if (inner) inner.classList.remove('active');
        });
      });
    }

    series.forEach(function(s) {
      xs.forEach(function(x, qi) {
        var y=s.ys[qi], key=s.id+'_'+qi;
        var delay=((s.id-1)*0.25+qi*0.06)+'s';

        var dg=el('g',{'class':'dot-g',id:'d'+key});
        var inner=el('g',{'class':'dot-inner',style:'transform-origin:'+x+'px '+y+'px'});
        inner.classList.add('visible');
        var dot=el('circle',{cx:x,cy:y,r:5,'class':s.cls,stroke:'none'});
        inner.appendChild(dot); dg.appendChild(inner); dotsL.appendChild(dg);

        var tipG=el('g',{'class':'tip',id:'t'+key});
        tipLayer.appendChild(tipG); allTips[key]=tipG;
        ctx.layoutSideTooltip(tipG, {
          anchorX: x,
          anchorY: y,
          plotL: plotL,
          plotR: plotR,
          plotT: plotT,
          plotB: plotB,
          lines: [
            { text: '$'+s.vals[qi]+'M', className: 'tip-value' },
            { text: s.label+' - '+quarters[qi], className: 'tip-label' }
          ],
          lineHeights: [70, 70],
          minWidth: 220,
          paddingX: 20,
          paddingY: 30
        });

        var ch=svgEl.querySelector('#ch'+qi);
        dg.addEventListener('mouseenter',function(){
          allTips[key].style.opacity='1';
          if(ch) ch.style.opacity='1';
          dot.setAttribute('r','7');
          setHover(s.id);
        });
        dg.addEventListener('mouseleave',function(){
          allTips[key].style.opacity='';
          if(ch) ch.style.opacity='';
          dot.setAttribute('r','5');
          clearHover();
        });
      });
    });

    series.forEach(function(s, i) {
      var area = svgEl.querySelector('#area-' + s.id);
      if (!area) return;
      var areaClip = el('clipPath', { id:'area-reveal-' + s.id, clipPathUnits:'userSpaceOnUse' });
      var revealRect = el('rect', {
        x:clipRect.getAttribute('x'),
        y:clipRect.getAttribute('y'),
        width:clipRect.getAttribute('width'),
        height:clipRect.getAttribute('height')
      });
      revealRect.setAttribute('width', '0');
      areaClip.appendChild(revealRect);
      defs.appendChild(areaClip);
      area.setAttribute('clip-path', 'url(#area-reveal-' + s.id + ')');
      area.classList.add('visible');
      (function(rect, delay) {
        var startAt = performance.now() + delay * 1000;
        var duration = 1200;
        var fullWidth = parseFloat(clipRect.getAttribute('width'));
        function ease(t) {
          return 1 - Math.pow(1 - t, 3);
        }
        function tick(now) {
          if (now < startAt) {
            requestAnimationFrame(tick);
            return;
          }
          var p = Math.min((now - startAt) / duration, 1);
          rect.setAttribute('width', String(fullWidth * ease(p)));
          if (p < 1) requestAnimationFrame(tick);
        }
        requestAnimationFrame(tick);
      }(revealRect, waveDelays[i]));
    });

    /* wire animationend + .visible for wave-edges */
    var waveEls = svgEl.querySelectorAll('.wave-edge');
    waveEls.forEach(function(el, i) {
      el.style.animation = 'drawWave 1.2s cubic-bezier(0.4,0,0.2,1) ' + waveDelays[i] + 's';
      el.addEventListener('animationend', function() {
        el.style.animation = 'none';
        el.classList.add('visible');
      }, { once: true });
    });

    setTimeout(function() { dataLayerEl.classList.add('ready'); }, (1.00 + 1.2) * 1000 + 100);
  };
  if (window.bootstrapChart) { window.bootstrapChart(svg); }
}());
]]></script>
</svg>
