



<svg id="root" viewBox="40 88 1040 455" width="100%" height="100%" preserveAspectRatio="xMidYMid meet" xmlns="http://www.w3.org/2000/svg" font-family="'Roboto','Helvetica Neue',Arial,sans-serif">
<defs>
  <clipPath id="chartclip">
    <rect x="68" y="100" width="782" height="400"/>
  </clipPath>
  <style>
    @import url('chart-shared.css');

    .series-1 { fill:#00D4E8; stroke:#00D4E8; } .series-2 { fill:#8B5CF6; stroke:#8B5CF6; }
    .series-3 { fill:#00B87A; stroke:#00B87A; } .series-4 { fill:#F59E0B; stroke:#F59E0B; }
    .series-5 { fill:#64748B; stroke:#64748B; }

    svg.dark .series-1 { fill:#22D3EE; stroke:#22D3EE; } svg.dark .series-2 { fill:#A78BFA; stroke:#A78BFA; }
    svg.dark .series-3 { fill:#10B981; stroke:#10B981; } svg.dark .series-4 { fill:#FBB724; stroke:#FBB724; }
    svg.dark .series-5 { fill:#94A3B8; stroke:#94A3B8; }

    .crosshair { stroke:#79747E; stroke-width:1; stroke-dasharray:4,3; opacity:0; transition:opacity 0.15s; }
    svg.dark .crosshair { stroke:#938F99; }
    .tip       { opacity:0; pointer-events:none; transition:opacity 0.15s ease; }
    svg.print .tip { opacity:0 !important; }
    .tip-divider { stroke:#79747E; stroke-width:0.5; opacity:0.3; }
    svg.dark .tip-divider { stroke:#938F99; }

    @keyframes drawWave { from{stroke-dashoffset:var(--len,900);} to{stroke-dashoffset:0;} }
    .wave-edge         { stroke-dasharray:var(--len,900); stroke-dashoffset:var(--len,900);
                         opacity:0; transition: opacity 0.2s ease; }
    .wave-edge.visible { opacity:1; stroke-dashoffset:0; }
    .w1{animation-delay:0.00s;} .w2{animation-delay:0.25s;}
    .w3{animation-delay:0.50s;} .w4{animation-delay:0.75s;} .w5{animation-delay:1.00s;}

    @keyframes dataFadeIn { from{opacity:0;} to{opacity:1;} }
    .area-fill         { opacity:0; transition:opacity 0.2s ease; }
    .area-fill.visible { opacity:1; }
    .f1{animation-delay:0.00s;} .f2{animation-delay:0.25s;}
    .f3{animation-delay:0.50s;} .f4{animation-delay:0.75s;} .f5{animation-delay:1.00s;}

    .area-fill  { pointer-events: none; }
    .data-layer.ready.hovering .wave-edge.visible                 { opacity: 0.20; }
    .data-layer.ready.hovering .wave-edge.visible.active          { opacity: 1; }
    .data-layer.ready.hovering .area-fill.visible                 { opacity: 0.20; }
    .data-layer.ready.hovering .area-fill.visible.active          { opacity: 1; }
    .col-dot { opacity:0; transition:opacity 0.2s ease; pointer-events:none; }
    .data-layer.ready.hovering .col-dot.active { opacity:1; }

    .tip-value { fill:#1C1B1F; font-size:28px; font-weight:700; }
    .tip-label { fill:#49454F; font-size:22px; font-weight:400; }
    svg.dark .tip-value { fill:#E6E0E9; }
    svg.dark .tip-label { fill:#CAC4D0; }
  </style>
</defs>

<line x1="68" y1="500" x2="850" y2="500" class="axis-line"/>
<line x1="68" y1="403" x2="850" y2="403" class="grid-line"/>
<line x1="68" y1="302" x2="850" y2="302" class="grid-line"/>
<line x1="68" y1="201" x2="850" y2="201" class="grid-line"/>
<line x1="68" y1="100" x2="850" y2="100" class="grid-line"/>
<line x1="68" y1="100" x2="68"  y2="500" class="axis-line"/>

<text x="56" y="508" class="tick-label" text-anchor="end">$0</text>
<text x="56" y="407" class="tick-label" text-anchor="end">$25M</text>
<text x="56" y="306" class="tick-label" text-anchor="end">$50M</text>
<text x="56" y="205" class="tick-label" text-anchor="end">$75M</text>
<text x="56" y="104" class="tick-label" text-anchor="end">$100M</text>

<text x="68"  y="522" class="category-label" text-anchor="middle">Q1 '22</text>
<text x="180" y="522" class="category-label" text-anchor="middle">Q2 '22</text>
<text x="291" y="522" class="category-label" text-anchor="middle">Q3 '22</text>
<text x="403" y="522" class="category-label" text-anchor="middle">Q4 '22</text>
<text x="515" y="522" class="category-label" text-anchor="middle">Q1 '23</text>
<text x="627" y="522" class="category-label" text-anchor="middle">Q2 '23</text>
<text x="738" y="522" class="category-label" text-anchor="middle">Q3 '23</text>
<text x="850" y="522" class="category-label" text-anchor="middle">Q4 '23</text>

<line x1="459" y1="100" x2="459" y2="500" stroke="#c0b8a8" stroke-width="1" stroke-dasharray="5,4" opacity="0.6"/>
<text x="263" y="90" class="tick-label" text-anchor="middle">2022</text>
<text x="654" y="90" class="tick-label" text-anchor="middle">2023</text>

<g class="data-layer" id="data-layer">
<g clip-path="url(#chartclip)">
  <!-- Areas: Cyan starts Q3'22, Emerald ends Q3'23, others full range -->
  <path id="area-1" class="area-fill series-1 f1" data-series="1" fill-opacity="0.20" stroke="none"
    d="M291,504 L291,504.0 C347,504.0 347,281.8 403,281.8 C459,281.8 459,180.8 515,180.8 C571,180.8 571,221.2 627,221.2 C682,221.2 682,302.0 738,302.0 C794,302.0 794,241.4 850,241.4 L850,504 Z"/>
  <path id="area-2" class="area-fill series-2 f2" data-series="2" fill-opacity="0.20" stroke="none"
    d="M68,504 L68,423.2 C124,423.2 124,322.2 180,322.2 C235,322.2 235,221.2 291,221.2 C347,221.2 347,281.8 403,281.8 C459,281.8 459,362.6 515,362.6 C571,362.6 571,201.0 627,201.0 C682,201.0 682,160.6 738,160.6 C794,160.6 794,213.1 850,213.1 L850,504 Z"/>
  <path id="area-3" class="area-fill series-3 f3" data-series="3" fill-opacity="0.20" stroke="none"
    d="M68,504 L68,504.0 C124,504.0 124,382.8 180,382.8 C235,382.8 235,281.8 291,281.8 C347,281.8 347,180.8 403,180.8 C459,180.8 459,261.6 515,261.6 C571,261.6 571,342.4 627,342.4 C682,342.4 682,504.0 738,504.0 L738,504 Z"/>
  <path id="area-4" class="area-fill series-4 f4" data-series="4" fill-opacity="0.20" stroke="none"
    d="M68,504 L68,443.4 C124,443.4 124,302.0 180,302.0 C235,302.0 235,431.3 291,431.3 C347,431.3 347,403.0 403,403.0 C459,403.0 459,281.8 515,281.8 C571,281.8 571,382.8 627,382.8 C682,382.8 682,322.2 738,322.2 C794,322.2 794,261.6 850,261.6 L850,504 Z"/>
  <path id="area-5" class="area-fill series-5 f5" data-series="5" fill-opacity="0.20" stroke="none"
    d="M68,504 L68,281.8 C124,281.8 124,403.0 180,403.0 C235,403.0 235,411.1 291,411.1 C347,411.1 347,399.0 403,399.0 C459,399.0 459,407.0 515,407.0 C571,407.0 571,394.9 627,394.9 C682,394.9 682,415.1 738,415.1 C794,415.1 794,403.0 850,403.0 L850,504 Z"/>

  <!-- Wave edges — all stroke-width 2 for consistency -->
  <path id="we1" class="wave-edge series-1 w1" data-series="1" style="fill:none"
    stroke-width="2" stroke-linecap="round"
    d="M403,281.8 C459,281.8 459,180.8 515,180.8 C571,180.8 571,221.2 627,221.2 C682,221.2 682,302.0 738,302.0 C794,302.0 794,241.4 850,241.4"/>
  <path id="we2" class="wave-edge series-2 w2" data-series="2" style="fill:none"
    stroke-width="2" stroke-linecap="round"
    d="M68,423.2 C124,423.2 124,322.2 180,322.2 C235,322.2 235,221.2 291,221.2 C347,221.2 347,281.8 403,281.8 C459,281.8 459,362.6 515,362.6 C571,362.6 571,201.0 627,201.0 C682,201.0 682,160.6 738,160.6 C794,160.6 794,213.1 850,213.1"/>
  <path id="we3" class="wave-edge series-3 w3" data-series="3" style="fill:none"
    stroke-width="2" stroke-linecap="round"
    d="M180,382.8 C235,382.8 235,281.8 291,281.8 C347,281.8 347,180.8 403,180.8 C459,180.8 459,261.6 515,261.6 C571,261.6 571,342.4 627,342.4 C682,342.4 682,504.0 738,504.0"/>
  <path id="we4" class="wave-edge series-4 w4" data-series="4" style="fill:none"
    stroke-width="2" stroke-linecap="round"
    d="M68,443.4 C124,443.4 124,302.0 180,302.0 C235,302.0 235,431.3 291,431.3 C347,431.3 347,403.0 403,403.0 C459,403.0 459,281.8 515,281.8 C571,281.8 571,382.8 627,382.8 C682,382.8 682,322.2 738,322.2 C794,322.2 794,261.6 850,261.6"/>
  <path id="we5" class="wave-edge series-5 w5" data-series="5" style="fill:none"
    stroke-width="2" stroke-linecap="round" stroke-dasharray="7,4"
    d="M68,281.8 C124,281.8 124,403.0 180,403.0 C235,403.0 235,411.1 291,411.1 C347,411.1 347,399.0 403,399.0 C459,399.0 459,407.0 515,407.0 C571,407.0 571,394.9 627,394.9 C682,394.9 682,415.1 738,415.1 C794,415.1 794,403.0 850,403.0"/>
</g>

<g id="crosshairs">
  <line id="ch0" class="crosshair" x1="68"  y1="100" x2="68"  y2="500"/>
  <line id="ch1" class="crosshair" x1="180" y1="100" x2="180" y2="500"/>
  <line id="ch2" class="crosshair" x1="291" y1="100" x2="291" y2="500"/>
  <line id="ch3" class="crosshair" x1="403" y1="100" x2="403" y2="500"/>
  <line id="ch4" class="crosshair" x1="515" y1="100" x2="515" y2="500"/>
  <line id="ch5" class="crosshair" x1="627" y1="100" x2="627" y2="500"/>
  <line id="ch6" class="crosshair" x1="738" y1="100" x2="738" y2="500"/>
  <line id="ch7" class="crosshair" x1="850" y1="100" x2="850" y2="500"/>
</g>
<g id="dots-layer"></g>
<g id="hit-layer"></g>
<g id="tip-layer"></g>
</g>

<rect x="870" y="100" width="210" height="262" rx="14" class="legend-bg" stroke-width="1"/>
<text x="888" y="124" class="legend-title">SERIES</text>
<g transform="translate(888,140)"><rect class="series-1" x="0" y="0" width="14" height="14" rx="3"/><text x="22" y="11" class="legend-label">Cyan</text><text x="188" y="11" class="legend-value" text-anchor="end">$65M</text></g>
<g transform="translate(888,170)"><rect class="series-2" x="0" y="0" width="14" height="14" rx="3"/><text x="22" y="11" class="legend-label">Violet</text><text x="188" y="11" class="legend-value" text-anchor="end">$72M</text></g>
<g transform="translate(888,200)"><rect class="series-3" x="0" y="0" width="14" height="14" rx="3"/><text x="22" y="11" class="legend-label">Emerald</text><text x="188" y="11" class="legend-value" text-anchor="end">$50M</text></g>
<g transform="translate(888,230)"><rect class="series-4" x="0" y="0" width="14" height="14" rx="3"/><text x="22" y="11" class="legend-label">Amber</text><text x="188" y="11" class="legend-value" text-anchor="end">$60M</text></g>
<g transform="translate(888,260)"><rect class="series-5" x="0" y="0" width="14" height="14" rx="3"/><text x="22" y="11" class="legend-label">Slate</text><text x="188" y="11" class="legend-value" text-anchor="end">$25M</text></g>
<line x1="888" y1="286" x2="1062" y2="286" class="legend-divider"/>
<text x="888" y="306" class="legend-label">Q4 2023 values</text>
<text x="888" y="324" class="legend-note">Hover columns to inspect</text>

<script href="chart-shared.js"></script>
<script type="text/javascript"><![CDATA[
(function () {
  var svg = document.documentElement;
  svg._chartInit = function (svgEl, ctx) {
    var ns          = 'http://www.w3.org/2000/svg';
    var dataLayerEl = svgEl.querySelector('#data-layer');
    var dotsL       = svgEl.querySelector('#dots-layer');
    var hitLayer    = svgEl.querySelector('#hit-layer');
    var tipLayer    = svgEl.querySelector('#tip-layer');

    var series = [
      { id:1, cls:'series-1', label:'Cyan',
        vals:[0,0,0,55,80,70,50,65], ys:[504.0,504.0,504.0,281.8,180.8,221.2,302.0,241.4] },
      { id:2, cls:'series-2', label:'Violet',
        vals:[20,45,70,55,35,75,85,72], ys:[423.2,322.2,221.2,281.8,362.6,201.0,160.6,213.1] },
      { id:3, cls:'series-3', label:'Emerald',
        vals:[0,30,55,80,60,40,0,0], ys:[504.0,382.8,281.8,180.8,261.6,342.4,504.0,504.0] },
      { id:4, cls:'series-4', label:'Amber',
        vals:[15,50,18,25,55,30,45,60], ys:[443.4,302.0,431.3,403.0,281.8,382.8,322.2,261.6] },
      { id:5, cls:'series-5', label:'Slate',
        vals:[55,25,23,26,24,27,22,25], ys:[281.8,403.0,411.1,399.0,407.0,394.9,415.1,403.0] },
    ];

    var quarters = ["Q1 '22","Q2 '22","Q3 '22","Q4 '22","Q1 '23","Q2 '23","Q3 '23","Q4 '23"];
    var xs   = [68,180,291,403,515,627,738,850];
    var colW = 56;
    var allTips = {};

    var totals = xs.map(function(_,qi){
      return series.reduce(function(s,sr){ return s + sr.vals[qi]; }, 0);
    });

    function el(tag, attrs) {
      var e = document.createElementNS(ns, tag);
      Object.keys(attrs).forEach(function(k){ e.setAttribute(k, attrs[k]); });
      return e;
    }

    function setSeriesActive(qi, mouseY) {
      svgEl.querySelectorAll('.wave-edge, .area-fill').forEach(function(e) { e.classList.remove('active'); });
      var bestSid = series[0].id, bestDist = Infinity;
      series.forEach(function(s) {
        var dist = Math.abs(s.ys[qi] - mouseY);
        if (dist < bestDist) { bestDist = dist; bestSid = s.id; }
      });
      var we = svgEl.querySelector('.wave-edge[data-series="'+bestSid+'"]');
      var af = svgEl.querySelector('.area-fill[data-series="'+bestSid+'"]');
      if (we) we.classList.add('active');
      if (af) af.classList.add('active');
      dotsL.querySelectorAll('.col-dot[data-col="'+qi+'"]').forEach(function(d) { d.classList.add('active'); });
    }
    function clearSeriesActive() {
      svgEl.querySelectorAll('.wave-edge, .area-fill').forEach(function(e) { e.classList.remove('active'); });
    }

    xs.forEach(function(x, qi) {
      series.forEach(function(s) {
        var dot = el('circle', {
          cx:x, cy:s.ys[qi], r:4,
          'class':'col-dot ' + s.cls,
          style:'stroke:none', 'data-col':qi
        });
        dotsL.appendChild(dot);
      });
    });

    xs.forEach(function(x, qi) {
      var PAD = 14, DOT_R = 5, DOT_X = 16, LBL_X = 28, rx = 12;
      var rowH = 34, hdrH = 30, divH = 8, totH = 36;
      var TAIL = 14, tw = 10;
      var bh = hdrH + divH + series.length * rowH + divH + totH + PAD;

      var tipG = el('g', { 'class':'tip', id:'tip_'+qi });
      tipLayer.appendChild(tipG);
      allTips[qi] = tipG;

      var qLbl = el('text', { x:'0', y:'0',
        'text-anchor':'middle', 'dominant-baseline':'central', 'class':'tip-label' });
      qLbl.textContent = quarters[qi];
      tipG.appendChild(qLbl);

      var rowEls = [];
      series.forEach(function(s, si) {
        var dot  = el('circle', { cx:'0', cy:'0', r:DOT_R, 'class':s.cls, style:'stroke:none' });
        var sLbl = el('text', { x:'0', y:'0', 'dominant-baseline':'central', 'class':'tip-label' });
        sLbl.textContent = s.label;
        var sVal = el('text', { x:'0', y:'0', 'text-anchor':'end', 'dominant-baseline':'central',
          'class':'tip-value', 'font-size':'16' });
        sVal.textContent = '$'+s.vals[qi]+'M';
        tipG.appendChild(dot); tipG.appendChild(sLbl); tipG.appendChild(sVal);
        rowEls.push({ dot:dot, sLbl:sLbl, sVal:sVal });
      });

      var totLbl = el('text', { x:'0', y:'0', 'dominant-baseline':'central', 'class':'tip-label' });
      totLbl.textContent = 'Total';
      var totVal = el('text', { x:'0', y:'0', 'text-anchor':'end', 'dominant-baseline':'central', 'class':'tip-value' });
      totVal.textContent = '$'+totals[qi]+'M';
      tipG.appendChild(totLbl); tipG.appendChild(totVal);

      var maxLblW = 0;
      rowEls.forEach(function(r) { maxLblW = Math.max(maxLblW, LBL_X + r.sLbl.getBBox().width + 8); });
      maxLblW = Math.max(maxLblW, LBL_X + totLbl.getBBox().width + 8);
      var maxValW = 0;
      rowEls.forEach(function(r) { maxValW = Math.max(maxValW, r.sVal.getBBox().width); });
      maxValW = Math.max(maxValW, totVal.getBBox().width);
      var hw = Math.max((maxLblW + maxValW) / 2 + PAD, 160);
      var bw = hw * 2;

      var spaceR = 850 - x, spaceL = x - 68;
      var goRight = spaceR >= spaceL;
      var bL, bR;
      if (goRight) { bL = x + TAIL; bR = bL + bw; }
      else          { bR = x - TAIL; bL = bR - bw; }

      var bT = 300 - bh / 2, bB = bT + bh;
      if (bT < 100) { bT = 100; bB = bT + bh; }
      if (bB > 500) { bB = 500; bT = bB - bh; }
      var ancY = 300;
      var tY = Math.max(bT + rx + tw, Math.min(bB - rx - tw, ancY));

      qLbl.setAttribute('x', String(bL + hw));
      qLbl.setAttribute('y', String(bT + hdrH / 2));
      rowEls.forEach(function(r, si) {
        var rowY = bT + hdrH + divH + si * rowH + rowH / 2;
        r.dot.setAttribute('cx', String(bL + DOT_X));
        r.dot.setAttribute('cy', String(rowY));
        r.sLbl.setAttribute('x', String(bL + LBL_X));
        r.sLbl.setAttribute('y', String(rowY));
        r.sVal.setAttribute('x', String(bR - 8));
        r.sVal.setAttribute('y', String(rowY));
      });
      var totY = bT + hdrH + divH + series.length * rowH + divH + totH / 2;
      totLbl.setAttribute('x', String(bL + LBL_X));
      totLbl.setAttribute('y', String(totY));
      totVal.setAttribute('x', String(bR - 8));
      totVal.setAttribute('y', String(totY));

      var div1Y = bT + hdrH + divH / 2;
      var div2Y = bT + hdrH + divH + series.length * rowH + divH / 2;
      tipG.insertBefore(el('line', { x1:bL+8, y1:div1Y, x2:bR-8, y2:div1Y, 'class':'tip-divider' }), qLbl.nextSibling);
      tipG.appendChild(el('line',  { x1:bL+8, y1:div2Y, x2:bR-8, y2:div2Y, 'class':'tip-divider' }));

      tipG.insertBefore(el('rect', { x:bL, y:bT, width:bw, height:bh, rx:rx, 'class':'tip-bg' }), tipG.firstChild);

      var borderPath, tailPath;
      if (goRight) {
        borderPath = 'M'+bL+','+(tY-tw)
          +' L'+bL+','+(bT+rx)+' Q'+bL+','+bT+' '+(bL+rx)+','+bT
          +' L'+(bR-rx)+','+bT+' Q'+bR+','+bT+' '+bR+','+(bT+rx)
          +' L'+bR+','+(bB-rx)+' Q'+bR+','+bB+' '+(bR-rx)+','+bB
          +' L'+(bL+rx)+','+bB+' Q'+bL+','+bB+' '+bL+','+(bB-rx)
          +' L'+bL+','+(tY+tw);
        tailPath = 'M'+bL+','+(tY+tw)+' L'+x+','+ancY+' L'+bL+','+(tY-tw);
      } else {
        borderPath = 'M'+bR+','+(tY+tw)
          +' L'+bR+','+(bB-rx)+' Q'+bR+','+bB+' '+(bR-rx)+','+bB
          +' L'+(bL+rx)+','+bB+' Q'+bL+','+bB+' '+bL+','+(bB-rx)
          +' L'+bL+','+(bT+rx)+' Q'+bL+','+bT+' '+(bL+rx)+','+bT
          +' L'+(bR-rx)+','+bT+' Q'+bR+','+bT+' '+bR+','+(bT+rx)
          +' L'+bR+','+(tY-tw);
        tailPath = 'M'+bR+','+(tY-tw)+' L'+x+','+ancY+' L'+bR+','+(tY+tw);
      }
      tipG.insertBefore(el('path', { d:borderPath, 'class':'tip-border' }), tipG.children[1]);
      tipG.insertBefore(el('path', { d:tailPath,   'class':'tip-tail' }),   tipG.children[2]);

      var hx1 = Math.max(68,  x - colW);
      var hx2 = Math.min(850, x + colW);
      var hit = el('rect', { x:hx1, y:100, width:hx2-hx1, height:400,
        fill:'transparent', cursor:'crosshair', id:'hit'+qi });
      hitLayer.appendChild(hit);

      var ch = svgEl.querySelector('#ch' + qi);
      var colDots = dotsL.querySelectorAll('.col-dot[data-col="'+qi+'"]');

      hit.addEventListener('mouseenter', function(e) {
        var pt = svgEl.createSVGPoint(); pt.x = e.clientX; pt.y = e.clientY;
        var sp = pt.matrixTransform(svgEl.getScreenCTM().inverse());
        dataLayerEl.classList.add('hovering');
        dotsL.querySelectorAll('.col-dot').forEach(function(d) { d.classList.remove('active'); });
        setSeriesActive(qi, sp.y);
        allTips[qi].style.opacity = '1';
        if (ch) ch.style.opacity = '1';
      });
      hit.addEventListener('mousemove', function(e) {
        var pt = svgEl.createSVGPoint(); pt.x = e.clientX; pt.y = e.clientY;
        var sp = pt.matrixTransform(svgEl.getScreenCTM().inverse());
        setSeriesActive(qi, sp.y);
      });
      hit.addEventListener('mouseleave', function() {
        dataLayerEl.classList.remove('hovering');
        colDots.forEach(function(d) { d.classList.remove('active'); });
        clearSeriesActive();
        allTips[qi].style.opacity = '';
        if (ch) ch.style.opacity = '';
      });
    });

    /* wire animationend + .visible for wave-edges */
    var waveEls = svgEl.querySelectorAll('.wave-edge');
    var waveDelays = [0, 0.25, 0.50, 0.75, 1.00];
    waveEls.forEach(function(el, i) {
      el.style.animation = 'drawWave 1.2s cubic-bezier(0.4,0,0.2,1) ' + waveDelays[i] + 's';
      el.addEventListener('animationend', function() {
        el.style.animation = 'none';
        el.classList.add('visible');
      }, { once: true });
    });

    /* wire animationend + .visible for each area-fill */
    var areaEls = svgEl.querySelectorAll('.area-fill');
    var areaDelays = [0, 0.25, 0.50, 0.75, 1.00];
    areaEls.forEach(function(el, i) {
      el.style.animation = 'dataFadeIn 0.8s cubic-bezier(0.4,0,0.2,1) ' + areaDelays[areaEls.length - 1 - i] + 's';
      el.addEventListener('animationend', function() {
        el.style.animation = 'none';
        el.classList.add('visible');
      }, { once: true });
    });

    setTimeout(function() { dataLayerEl.classList.add('ready'); }, (1.00 + 0.8) * 1000 + 100);
  };
  if (window.bootstrapChart) { window.bootstrapChart(svg); }
}());
]]></script>
</svg>


