



<svg id="root" class="chart-standard" viewBox="-40 88 1120 455" width="100%" height="100%" preserveAspectRatio="xMidYMid meet" xmlns="http://www.w3.org/2000/svg" font-family="'Roboto','Helvetica Neue',Arial,sans-serif">
  <script type="text/javascript">
    <![CDATA[
    (function () {
      if (window.location.href.indexOf('theme=dark') !== -1) {
       document.documentElement.classList.add('dark');
      }
    }());
    ]]>
  </script>
<defs>
  <clipPath id="chartclip">
    <rect x="68" y="96" width="772" height="412"/>
  </clipPath>
  <style>
    @import url('chart-shared.css');
    /* prevent first paint in wrong color before shared css load */
    svg {
    --critical-tick-fill: #79747E;
    --critical-grid-stroke: #E7E0EC;
    --critical-axis-stroke: #79747E;
    }
    svg.dark {
    --critical-tick-fill: #938F99;
    --critical-grid-stroke: #3A3940;
    --critical-axis-stroke: #938F99;
    }
    .tick-label, .category-label { fill: var(--critical-tick-fill); }
    .grid-line { stroke: var(--critical-grid-stroke); }
    .axis-line { stroke: var(--critical-axis-stroke); }

    .data-layer.ready.hovering .col-dot.active { opacity:0; }
  </style>
</defs>

<line x1="68" y1="504" x2="832" y2="504" class="axis-line"/>
<line x1="68" y1="423" x2="832" y2="423" class="grid-line"/>
<line x1="68" y1="342" x2="832" y2="342" class="grid-line"/>
<line x1="68" y1="261" x2="832" y2="261" class="grid-line"/>
<line x1="68" y1="180" x2="832" y2="180" class="grid-line"/>
<line x1="68" y1="100" x2="832" y2="100" class="grid-line"/>
<line x1="68" y1="100" x2="68"  y2="504" class="axis-line"/>

<text x="56" y="508" class="tick-label" text-anchor="end">$0</text>
<text x="56" y="427" class="tick-label" text-anchor="end">$50M</text>
<text x="56" y="346" class="tick-label" text-anchor="end">$100M</text>
<text x="56" y="265" class="tick-label" text-anchor="end">$150M</text>
<text x="56" y="184" class="tick-label" text-anchor="end">$200M</text>
<text x="56" y="104" class="tick-label" text-anchor="end">$250M</text>

<text x="68"  y="530" class="category-label" text-anchor="middle">Q1 '22</text>
<text x="171" y="530" class="category-label" text-anchor="middle">Q2 '22</text>
<text x="274" y="530" class="category-label" text-anchor="middle">Q3 '22</text>
<text x="377" y="530" class="category-label" text-anchor="middle">Q4 '22</text>
<text x="480" y="530" class="category-label" text-anchor="middle">Q1 '23</text>
<text x="583" y="530" class="category-label" text-anchor="middle">Q2 '23</text>
<text x="686" y="530" class="category-label" text-anchor="middle">Q3 '23</text>
<text x="789" y="530" class="category-label" text-anchor="middle">Q4 '23</text>

<line x1="429" y1="100" x2="429" y2="504" stroke="#c0b8a8" stroke-width="1" stroke-dasharray="5,4" opacity="0.6"/>
<text x="223" y="90" class="tick-label" text-anchor="middle">2022</text>
<text x="635" y="90" class="tick-label" text-anchor="middle">2023</text>

<g class="data-layer" id="data-layer">
<g clip-path="url(#chartclip)">
  <path id="area-5" class="area-path series-5" data-series="5" fill-opacity="0.17"
d="M68,504 L68,487.8 C119.5,487.8 119.5,483.0 171,483.0 C222.5,483.0 222.5,486.2 274,486.2 C325.5,486.2 325.5,480.2 377,480.2 C428.5,480.2 428.5,483.0 480,483.0 C531.5,483.0 531.5,477.5 583,477.5 C634.5,477.5 634.5,480.2 686,480.2 C737.5,480.2 737.5,473.3 789,473.3 L789,504 Z"/>
  <path id="area-4" class="area-path series-4" data-series="4" fill-opacity="0.24"
d="M68,487.8 C119.5,487.8 119.5,483.0 171,483.0 C222.5,483.0 222.5,486.2 274,486.2 C325.5,486.2 325.5,480.2 377,480.2 C428.5,480.2 428.5,483.0 480,483.0 C531.5,483.0 531.5,477.5 583,477.5 C634.5,477.5 634.5,480.2 686,480.2 C737.5,480.2 737.5,473.3 789,473.3 L789,437.7 C737.5,437.7 737.5,453.9 686,453.9 C634.5,453.9 634.5,444.2 583,444.2 C531.5,444.2 531.5,455.5 480,455.5 C428.5,455.5 428.5,457.1 377,457.1 C325.5,457.1 325.5,457.1 274,457.1 C222.5,457.1 222.5,459.3 171,459.3 C119.5,459.3 119.5,468.3 68,468.3 Z"/>
  <path id="area-3" class="area-path series-3" data-series="3" fill-opacity="0.33"
d="M68,468.3 C119.5,468.3 119.5,459.3 171,459.3 C222.5,459.3 222.5,457.1 274,457.1 C325.5,457.1 325.5,457.1 377,457.1 C428.5,457.1 428.5,455.5 480,455.5 C531.5,455.5 531.5,444.2 583,444.2 C634.5,444.2 634.5,453.9 686,453.9 C737.5,453.9 737.5,437.7 789,437.7 L789,381.6 C737.5,381.6 737.5,403.8 686,403.8 C634.5,403.8 634.5,399.6 583,399.6 C531.5,399.6 531.5,415.3 480,415.3 C428.5,415.3 428.5,410.5 377,410.5 C325.5,410.5 325.5,416.9 274,416.9 C222.5,416.9 222.5,423.2 171,423.2 C119.5,423.2 119.5,439.4 68,439.4 Z"/>
  <path id="area-2" class="area-path series-2" data-series="2" fill-opacity="0.43"
d="M68,439.4 C119.5,439.4 119.5,423.2 171,423.2 C222.5,423.2 222.5,416.9 274,416.9 C325.5,416.9 325.5,410.5 377,410.5 C428.5,410.5 428.5,415.3 480,415.3 C531.5,415.3 531.5,399.6 583,399.6 C634.5,399.6 634.5,403.8 686,403.8 C737.5,403.8 737.5,381.6 789,381.6 L789,281.4 C737.5,281.4 737.5,315.6 686,315.6 C634.5,315.6 634.5,320.2 583,320.2 C531.5,320.2 531.5,344.2 480,344.2 C428.5,344.2 428.5,346.4 377,346.4 C325.5,346.4 325.5,360.8 274,360.8 C222.5,360.8 222.5,373.9 171,373.9 C119.5,373.9 119.5,394.1 68,394.1 Z"/>
  <path id="area-1" class="area-path series-1" data-series="1" fill-opacity="0.55"
d="M68,394.1 C119.5,394.1 119.5,373.9 171,373.9 C222.5,373.9 222.5,360.8 274,360.8 C325.5,360.8 325.5,346.4 377,346.4 C428.5,346.4 428.5,344.2 480,344.2 C531.5,344.2 531.5,320.2 583,320.2 C634.5,320.2 634.5,315.6 686,315.6 C737.5,315.6 737.5,281.4 789,281.4 L789,165.6 C737.5,165.6 737.5,205.0 686,205.0 C634.5,205.0 634.5,221.8 583,221.8 C531.5,221.8 531.5,261.2 480,261.2 C428.5,261.2 428.5,268.1 377,268.1 C325.5,268.1 325.5,294.1 274,294.1 C222.5,294.1 222.5,311.7 171,311.7 C119.5,311.7 119.5,342.4 68,342.4 Z"/>

  <!-- style="fill:none" overrides .series-N fill on stroke-only paths -->
  <path id="we5" class="line-path weight-5 series-5 use-series-stroke" data-series="5" style="fill:none"
    stroke-width="1.5" stroke-linecap="round" stroke-dasharray="7,4"
d="M68,487.8 C119.5,487.8 119.5,483.0 171,483.0 C222.5,483.0 222.5,486.2 274,486.2 C325.5,486.2 325.5,480.2 377,480.2 C428.5,480.2 428.5,483.0 480,483.0 C531.5,483.0 531.5,477.5 583,477.5 C634.5,477.5 634.5,480.2 686,480.2 C737.5,480.2 737.5,473.3 789,473.3"/>
  <path id="we4" class="line-path weight-4 series-4 use-series-stroke" data-series="4" style="fill:none"
    stroke-width="2" stroke-linecap="round"
d="M68,468.3 C119.5,468.3 119.5,459.3 171,459.3 C222.5,459.3 222.5,457.1 274,457.1 C325.5,457.1 325.5,457.1 377,457.1 C428.5,457.1 428.5,455.5 480,455.5 C531.5,455.5 531.5,444.2 583,444.2 C634.5,444.2 634.5,453.9 686,453.9 C737.5,453.9 737.5,437.7 789,437.7"/>
  <path id="we3" class="line-path weight-3 series-3 use-series-stroke" data-series="3" style="fill:none"
    stroke-width="2.5" stroke-linecap="round"
d="M68,439.4 C119.5,439.4 119.5,423.2 171,423.2 C222.5,423.2 222.5,416.9 274,416.9 C325.5,416.9 325.5,410.5 377,410.5 C428.5,410.5 428.5,415.3 480,415.3 C531.5,415.3 531.5,399.6 583,399.6 C634.5,399.6 634.5,403.8 686,403.8 C737.5,403.8 737.5,381.6 789,381.6"/>
  <path id="we2" class="line-path weight-2 series-2 use-series-stroke" data-series="2" style="fill:none"
    stroke-width="2.5" stroke-linecap="round"
d="M68,394.1 C119.5,394.1 119.5,373.9 171,373.9 C222.5,373.9 222.5,360.8 274,360.8 C325.5,360.8 325.5,346.4 377,346.4 C428.5,346.4 428.5,344.2 480,344.2 C531.5,344.2 531.5,320.2 583,320.2 C634.5,320.2 634.5,315.6 686,315.6 C737.5,315.6 737.5,281.4 789,281.4"/>
  <path id="we1" class="line-path weight-1 series-1 use-series-stroke" data-series="1" style="fill:none"
    stroke-width="3.5" stroke-linecap="round"
d="M68,342.4 C119.5,342.4 119.5,311.7 171,311.7 C222.5,311.7 222.5,294.1 274,294.1 C325.5,294.1 325.5,268.1 377,268.1 C428.5,268.1 428.5,261.2 480,261.2 C531.5,261.2 531.5,221.8 583,221.8 C634.5,221.8 634.5,205.0 686,205.0 C737.5,205.0 737.5,165.6 789,165.6"/>
</g>

<g id="crosshairs">
  <line id="ch0" class="crosshair" x1="68"  y1="100" x2="68"  y2="504"/>
  <line id="ch1" class="crosshair" x1="171" y1="100" x2="171" y2="504"/>
  <line id="ch2" class="crosshair" x1="274" y1="100" x2="274" y2="504"/>
  <line id="ch3" class="crosshair" x1="377" y1="100" x2="377" y2="504"/>
  <line id="ch4" class="crosshair" x1="480" y1="100" x2="480" y2="504"/>
  <line id="ch5" class="crosshair" x1="583" y1="100" x2="583" y2="504"/>
  <line id="ch6" class="crosshair" x1="686" y1="100" x2="686" y2="504"/>
  <line id="ch7" class="crosshair" x1="789" y1="100" x2="789" y2="504"/>
</g>
<g id="dots-layer"></g>
<g id="hit-layer"></g>
<g id="tip-layer"></g>
</g>

<rect x="858" y="88" width="214" height="455" rx="18" class="legend-bg legend-panel"/>
<text x="878" y="118" class="legend-title legend-heading">SERIES</text>
<g class="legend-row" transform="translate(878,146)"><rect class="series-1" x="0" y="0" width="14" height="14" rx="3"/><text x="22" y="7" class="legend-label legend-row-label" dominant-baseline="middle">Cyan</text><text x="174" y="7" class="legend-value legend-row-value" text-anchor="end" dominant-baseline="middle">$72M</text></g>
<g class="legend-row" transform="translate(878,194)"><rect class="series-2" x="0" y="0" width="14" height="14" rx="3"/><text x="22" y="7" class="legend-label legend-row-label" dominant-baseline="middle">Emerald</text><text x="174" y="7" class="legend-value legend-row-value" text-anchor="end" dominant-baseline="middle">$62M</text></g>
<g class="legend-row" transform="translate(878,242)"><rect class="series-3" x="0" y="0" width="14" height="14" rx="3"/><text x="22" y="7" class="legend-label legend-row-label" dominant-baseline="middle">Amber</text><text x="174" y="7" class="legend-value legend-row-value" text-anchor="end" dominant-baseline="middle">$35M</text></g>
<g class="legend-row" transform="translate(878,290)"><rect class="series-4" x="0" y="0" width="14" height="14" rx="3"/><text x="22" y="7" class="legend-label legend-row-label" dominant-baseline="middle">Rose</text><text x="174" y="7" class="legend-value legend-row-value" text-anchor="end" dominant-baseline="middle">$22M</text></g>
<g class="legend-row" transform="translate(878,338)"><rect class="series-5" x="0" y="0" width="14" height="14" rx="3"/><text x="22" y="7" class="legend-label legend-row-label" dominant-baseline="middle">Violet</text><text x="174" y="7" class="legend-value legend-row-value" text-anchor="end" dominant-baseline="middle">$19M</text></g>

<script href="chart-shared.js"></script>
<script type="text/javascript"><![CDATA[
(function () {
  var svg = document.documentElement;
  svg._chartInit = function (svgEl, ctx) {
    var ns          = 'http://www.w3.org/2000/svg';
    var dataLayerEl = svgEl.querySelector('#data-layer');
    var dotsL       = svgEl.querySelector('#dots-layer');
    var hitLayer    = svgEl.querySelector('#hit-layer');
    var tipLayer    = svgEl.querySelector('#tip-layer');
    var defs        = svgEl.querySelector('defs');
    var clipRect    = svgEl.querySelector('#chartclip rect');

    var series = [
      { id:1, cls:'series-1', label:'Cyan',
        vals:[38,42,46,50,55,60,66,72], ys:[342.4,311.7,294.1,268.1,261.2,221.8,205.0,165.6] },
      { id:2, cls:'series-2', label:'Emerald',
        vals:[32,35,38,41,45,50,56,62], ys:[394.1,373.9,360.8,346.4,344.2,320.2,315.6,281.4] },
      { id:3, cls:'series-3', label:'Amber',
        vals:[18,20,21,23,25,27,31,35], ys:[439.4,423.2,416.9,410.5,415.3,399.6,403.8,381.6] },
      { id:4, cls:'series-4', label:'Rose',
        vals:[11,12,13,14,15,17,19,22], ys:[468.3,459.3,457.1,457.1,455.5,444.2,453.9,437.7] },
      { id:5, cls:'series-5', label:'Violet',
        vals:[10,11,12,13,14,16,17,19], ys:[487.8,483.0,486.2,480.2,483.0,477.5,480.2,473.3] },
    ];

    var quarters = ["Q1 '22","Q2 '22","Q3 '22","Q4 '22","Q1 '23","Q2 '23","Q3 '23","Q4 '23"];
    var xs   = [68,171,274,377,480,583,686,789];
    var colW = 56;
    var plotT = 100, plotB = 504;
    var waveDelays = series.map(function(_, i) {
      return ctx.getStaggerDelay(i, series.length, null, svgEl);
    });

    var totals = xs.map(function(_,qi){
      return series.reduce(function(s,sr){ return s + sr.vals[qi]; }, 0);
    });

    var el = ctx.el;

    // Highlight the nearest stacked area boundary for the hovered quarter.
    function setSeriesActive(qi, mouseY) {
      var bestSid = ctx.getNearestSeriesIdAtColumn(series, qi, mouseY);
      ctx.setSeriesHoverState({
        activeSid: bestSid,
        seriesIds: series.map(function(s) { return s.id; }),
        lineSelector: '.line-path.series-{id}',
        areaSelector: '.area-path[data-series="{id}"]'
      });
    }
    // Remove the stacked-area series highlight after the column hover ends.
    function clearSeriesActive() {
      ctx.setSeriesHoverState({
        activeSid: null,
        seriesIds: series.map(function(s) { return s.id; }),
        lineSelector: '.line-path.series-{id}',
        areaSelector: '.area-path[data-series="{id}"]'
      });
    }

    xs.forEach(function(x, qi) {
      series.forEach(function(s) {
        var dot = el('circle', {
          cx:x, cy:s.ys[qi], r:4,
          'class':'col-dot ' + s.cls,
          style:'stroke:none', 'data-col':qi
        });
        dotsL.appendChild(dot);
      });
    });

    ctx.initStackedColumnHover({
      xs: xs,
      quarters: quarters,
      series: series,
      totals: totals,
      tipLayer: tipLayer,
      hitLayer: hitLayer,
      plotL: 42,
      plotR: 840,
      plotT: plotT,
      plotB: plotB,
      anchorY: 304,
      hitTop: 100,
      hitHeight: 404,
      hitHalfWidth: colW,
      hitMinX: 68,
      hitMaxX: 832,
      hitIdPrefix: 'hit',
      onEnter: function(qi, sp, tipG, ch) {
        var colDots = dotsL.querySelectorAll('.col-dot[data-col="'+qi+'"]');
        dataLayerEl.classList.add('hovering');
        ctx.setElementsActive(dotsL.querySelectorAll('.col-dot'), function(d) {
          return Array.prototype.indexOf.call(colDots, d) !== -1;
        });
        setSeriesActive(qi, sp.y);
        ctx.setOpacity(tipG, 1);
        ctx.setOpacity(ch, 1);
      },
      onMove: function(qi, sp) {
        setSeriesActive(qi, sp.y);
      },
      onLeave: function(qi, tipG, ch) {
        var colDots = dotsL.querySelectorAll('.col-dot[data-col="'+qi+'"]');
        clearSeriesActive();
        dataLayerEl.classList.remove('hovering');
        ctx.setClassState(colDots, 'active', false);
        ctx.setOpacity(tipG, null);
        ctx.setOpacity(ch, null);
      }
    });

    series.forEach(function(s, i) {
      var area = svgEl.querySelector('#area-' + s.id);
      if (!area) return;
      ctx.initAreaClipReveal({
        defs: defs,
        area: area,
        clipId: 'area-reveal-' + s.id,
        clipRect: clipRect,
        delay: waveDelays[i],
        duration: 1200
      });
    });

   /* Bottom-to-top wave reveal to match the stacked layer order. */
    ctx.initRevealSequence(svgEl.querySelectorAll('.line-path'), {
      animationName: 'drawWave',
      duration: 1.2,
      easing: 'cubic-bezier(0.4,0,0.2,1)',
      delays: waveDelays,
      reverse: true
    });

    setTimeout(function() {
      dataLayerEl.classList.add('ready');
    }, ctx.getRevealReadyDelayMs({ delays: waveDelays, duration: 1.2, buffer: 0.1 }));
  };
  if (window.bootstrapChart) { window.bootstrapChart(svg); }
}());
]]></script>
</svg>
