



<svg id="root" viewBox="40 88 1040 455" width="100%" height="100%" preserveAspectRatio="xMidYMid meet" xmlns="http://www.w3.org/2000/svg" font-family="'Roboto','Helvetica Neue',Arial,sans-serif">
<defs>
  <clipPath id="chartclip">
    <rect x="68" y="96" width="782" height="412"/>
  </clipPath>
  <style>
    @import url('chart-shared.css');

    .series-1 { fill:#00D4E8; stroke:#00D4E8; } .series-2 { fill:#8B5CF6; stroke:#8B5CF6; }
    .series-3 { fill:#00B87A; stroke:#00B87A; } .series-4 { fill:#F59E0B; stroke:#F59E0B; }
    .series-5 { fill:#64748B; stroke:#64748B; }

    svg.dark .series-1 { fill:#22D3EE; stroke:#22D3EE; } svg.dark .series-2 { fill:#A78BFA; stroke:#A78BFA; }
    svg.dark .series-3 { fill:#10B981; stroke:#10B981; } svg.dark .series-4 { fill:#FBB724; stroke:#FBB724; }
    svg.dark .series-5 { fill:#94A3B8; stroke:#94A3B8; }

    .crosshair { stroke:#79747E; stroke-width:1; stroke-dasharray:4,3; opacity:0; transition:opacity 0.15s; }
    svg.dark .crosshair { stroke:#938F99; }
    .tip       { opacity:0; pointer-events:none; transition:opacity 0.15s ease; }
    svg.print .tip { opacity:0 !important; }
    .tip-divider { stroke:#79747E; stroke-width:0.5; opacity:0.3; }
    svg.dark .tip-divider { stroke:#938F99; }

    @keyframes drawWave { from{stroke-dashoffset:var(--len,900);} to{stroke-dashoffset:0;} }
    .wave-edge         { stroke-dasharray:var(--len,900); stroke-dashoffset:var(--len,900);
                         opacity:0; transition:opacity 0.2s ease; }
    .wave-edge.visible { stroke-dashoffset:0; }
    .we-w1.visible { opacity:1.00; }
    .we-w2.visible { opacity:0.90; }
    .we-w3.visible { opacity:0.82; }
    .we-w4.visible { opacity:0.72; }
    .we-w5.visible { opacity:0.55; }

    @keyframes dataFadeIn { from{opacity:0;} to{opacity:1;} }
    .area-fill         { opacity:0; transition:opacity 0.2s ease; }
    .area-fill.visible { opacity:1; }
    .f1{animation-delay:0.00s;} .f2{animation-delay:0.25s;}
    .f3{animation-delay:0.50s;} .f4{animation-delay:0.75s;} .f5{animation-delay:1.00s;}

    .data-layer.ready.hovering .wave-edge.visible              { opacity: 0.20; }
    .data-layer.ready.hovering .wave-edge.visible.active       { opacity: 1; }
    .data-layer.ready.hovering .wave-edge.visible.we-w2.active { opacity: 0.90; }
    .data-layer.ready.hovering .wave-edge.visible.we-w3.active { opacity: 0.82; }
    .data-layer.ready.hovering .wave-edge.visible.we-w4.active { opacity: 0.72; }
    .data-layer.ready.hovering .wave-edge.visible.we-w5.active { opacity: 0.55; }
    .data-layer.ready.hovering .area-fill.visible              { opacity: 0.20; }
    .data-layer.ready.hovering .area-fill.visible.active       { opacity: 1; }
    .col-dot { opacity:0; transition:opacity 0.2s ease; pointer-events:none; }
    .data-layer.ready.hovering .col-dot.active { opacity:1; }
  </style>
</defs>

<line x1="68" y1="504" x2="850" y2="504" class="axis-line"/>
<line x1="68" y1="423" x2="850" y2="423" class="grid-line"/>
<line x1="68" y1="342" x2="850" y2="342" class="grid-line"/>
<line x1="68" y1="261" x2="850" y2="261" class="grid-line"/>
<line x1="68" y1="180" x2="850" y2="180" class="grid-line"/>
<line x1="68" y1="100" x2="850" y2="100" class="grid-line"/>
<line x1="68" y1="100" x2="68"  y2="504" class="axis-line"/>

<text x="56" y="508" class="tick-label" text-anchor="end">$0</text>
<text x="56" y="427" class="tick-label" text-anchor="end">$50M</text>
<text x="56" y="346" class="tick-label" text-anchor="end">$100M</text>
<text x="56" y="265" class="tick-label" text-anchor="end">$150M</text>
<text x="56" y="184" class="tick-label" text-anchor="end">$200M</text>
<text x="56" y="104" class="tick-label" text-anchor="end">$250M</text>

<text x="68"  y="522" class="category-label" text-anchor="middle">Q1 '22</text>
<text x="180" y="522" class="category-label" text-anchor="middle">Q2 '22</text>
<text x="291" y="522" class="category-label" text-anchor="middle">Q3 '22</text>
<text x="403" y="522" class="category-label" text-anchor="middle">Q4 '22</text>
<text x="515" y="522" class="category-label" text-anchor="middle">Q1 '23</text>
<text x="627" y="522" class="category-label" text-anchor="middle">Q2 '23</text>
<text x="738" y="522" class="category-label" text-anchor="middle">Q3 '23</text>
<text x="850" y="522" class="category-label" text-anchor="middle">Q4 '23</text>

<line x1="459" y1="100" x2="459" y2="504" stroke="#c0b8a8" stroke-width="1" stroke-dasharray="5,4" opacity="0.6"/>
<text x="263" y="90" class="tick-label" text-anchor="middle">2022</text>
<text x="654" y="90" class="tick-label" text-anchor="middle">2023</text>

<g class="data-layer" id="data-layer">
<g clip-path="url(#chartclip)">
  <path id="area-5" class="area-fill f5"
    d="M68,504 L68,487.8 C124,487.8 124,483.0 180,483.0 C235,483.0 235,486.2 291,486.2 C347,486.2 347,480.2 403,480.2 C459,480.2 459,483.0 515,483.0 C571,483.0 571,477.5 627,477.5 C682,477.5 682,480.2 738,480.2 C794,480.2 794,473.3 850,473.3 L850,504 Z"/>
  <path id="area-4" class="area-fill f4"
    d="M68,487.8 C124,487.8 124,483.0 180,483.0 C235,483.0 235,486.2 291,486.2 C347,486.2 347,480.2 403,480.2 C459,480.2 459,483.0 515,483.0 C571,483.0 571,477.5 627,477.5 C682,477.5 682,480.2 738,480.2 C794,480.2 794,473.3 850,473.3 L850,437.7 C794,437.7 794,453.9 738,453.9 C682,453.9 682,444.2 627,444.2 C571,444.2 571,455.5 515,455.5 C459,455.5 459,457.1 403,457.1 C347,457.1 347,457.1 291,457.1 C235,457.1 235,459.3 180,459.3 C124,459.3 124,468.3 68,468.3 Z"/>
  <path id="area-3" class="area-fill f3"
    d="M68,468.3 C124,468.3 124,459.3 180,459.3 C235,459.3 235,457.1 291,457.1 C347,457.1 347,457.1 403,457.1 C459,457.1 459,455.5 515,455.5 C571,455.5 571,444.2 627,444.2 C682,444.2 682,453.9 738,453.9 C794,453.9 794,437.7 850,437.7 L850,381.6 C794,381.6 794,403.8 738,403.8 C682,403.8 682,399.6 627,399.6 C571,399.6 571,415.3 515,415.3 C459,415.3 459,410.5 403,410.5 C347,410.5 347,416.9 291,416.9 C235,416.9 235,423.2 180,423.2 C124,423.2 124,439.4 68,439.4 Z"/>
  <path id="area-2" class="area-fill f2"
    d="M68,439.4 C124,439.4 124,423.2 180,423.2 C235,423.2 235,416.9 291,416.9 C347,416.9 347,410.5 403,410.5 C459,410.5 459,415.3 515,415.3 C571,415.3 571,399.6 627,399.6 C682,399.6 682,403.8 738,403.8 C794,403.8 794,381.6 850,381.6 L850,281.4 C794,281.4 794,315.6 738,315.6 C682,315.6 682,320.2 627,320.2 C571,320.2 571,344.2 515,344.2 C459,344.2 459,346.4 403,346.4 C347,346.4 347,360.8 291,360.8 C235,360.8 235,373.9 180,373.9 C124,373.9 124,394.1 68,394.1 Z"/>
  <path id="area-1" class="area-fill f1"
    d="M68,394.1 C124,394.1 124,373.9 180,373.9 C235,373.9 235,360.8 291,360.8 C347,360.8 347,346.4 403,346.4 C459,346.4 459,344.2 515,344.2 C571,344.2 571,320.2 627,320.2 C682,320.2 682,315.6 738,315.6 C794,315.6 794,281.4 850,281.4 L850,165.6 C794,165.6 794,205.0 738,205.0 C682,205.0 682,221.8 627,221.8 C571,221.8 571,261.2 515,261.2 C459,261.2 459,268.1 403,268.1 C347,268.1 347,294.1 291,294.1 C235,294.1 235,311.7 180,311.7 C124,311.7 124,342.4 68,342.4 Z"/>

  <!-- style="fill:none" overrides .series-N fill on stroke-only paths -->
  <path id="we5" class="wave-edge we-w5 series-5 w5" style="fill:none"
    stroke-width="1.5" stroke-linecap="round" stroke-dasharray="7,4"
    d="M68,487.8 C124,487.8 124,483.0 180,483.0 C235,483.0 235,486.2 291,486.2 C347,486.2 347,480.2 403,480.2 C459,480.2 459,483.0 515,483.0 C571,483.0 571,477.5 627,477.5 C682,477.5 682,480.2 738,480.2 C794,480.2 794,473.3 850,473.3"/>
  <path id="we4" class="wave-edge we-w4 series-4 w4" style="fill:none"
    stroke-width="2" stroke-linecap="round"
    d="M68,468.3 C124,468.3 124,459.3 180,459.3 C235,459.3 235,457.1 291,457.1 C347,457.1 347,457.1 403,457.1 C459,457.1 459,455.5 515,455.5 C571,455.5 571,444.2 627,444.2 C682,444.2 682,453.9 738,453.9 C794,453.9 794,437.7 850,437.7"/>
  <path id="we3" class="wave-edge we-w3 series-3 w3" style="fill:none"
    stroke-width="2.5" stroke-linecap="round"
    d="M68,439.4 C124,439.4 124,423.2 180,423.2 C235,423.2 235,416.9 291,416.9 C347,416.9 347,410.5 403,410.5 C459,410.5 459,415.3 515,415.3 C571,415.3 571,399.6 627,399.6 C682,399.6 682,403.8 738,403.8 C794,403.8 794,381.6 850,381.6"/>
  <path id="we2" class="wave-edge we-w2 series-2 w2" style="fill:none"
    stroke-width="2.5" stroke-linecap="round"
    d="M68,394.1 C124,394.1 124,373.9 180,373.9 C235,373.9 235,360.8 291,360.8 C347,360.8 347,346.4 403,346.4 C459,346.4 459,344.2 515,344.2 C571,344.2 571,320.2 627,320.2 C682,320.2 682,315.6 738,315.6 C794,315.6 794,281.4 850,281.4"/>
  <path id="we1" class="wave-edge we-w1 series-1 w1" style="fill:none"
    stroke-width="3.5" stroke-linecap="round"
    d="M68,342.4 C124,342.4 124,311.7 180,311.7 C235,311.7 235,294.1 291,294.1 C347,294.1 347,268.1 403,268.1 C459,268.1 459,261.2 515,261.2 C571,261.2 571,221.8 627,221.8 C682,221.8 682,205.0 738,205.0 C794,205.0 794,165.6 850,165.6"/>
</g>

<g id="crosshairs">
  <line id="ch0" class="crosshair" x1="68"  y1="100" x2="68"  y2="504"/>
  <line id="ch1" class="crosshair" x1="180" y1="100" x2="180" y2="504"/>
  <line id="ch2" class="crosshair" x1="291" y1="100" x2="291" y2="504"/>
  <line id="ch3" class="crosshair" x1="403" y1="100" x2="403" y2="504"/>
  <line id="ch4" class="crosshair" x1="515" y1="100" x2="515" y2="504"/>
  <line id="ch5" class="crosshair" x1="627" y1="100" x2="627" y2="504"/>
  <line id="ch6" class="crosshair" x1="738" y1="100" x2="738" y2="504"/>
  <line id="ch7" class="crosshair" x1="850" y1="100" x2="850" y2="504"/>
</g>
<g id="dots-layer"></g>
<g id="hit-layer"></g>
<g id="tip-layer"></g>
</g>

<rect x="870" y="100" width="210" height="310" rx="14" class="legend-bg" stroke-width="1"/>
<text x="888" y="124" class="legend-title">SERIES</text>
<g transform="translate(888,140)"><rect class="series-1" x="0" y="0" width="14" height="14" rx="3"/><text x="22" y="11" class="legend-label">Cyan</text><text x="188" y="11" class="legend-value" text-anchor="end">$72M</text></g>
<g transform="translate(888,170)"><rect class="series-2" x="0" y="0" width="14" height="14" rx="3"/><text x="22" y="11" class="legend-label">Violet</text><text x="188" y="11" class="legend-value" text-anchor="end">$62M</text></g>
<g transform="translate(888,200)"><rect class="series-3" x="0" y="0" width="14" height="14" rx="3"/><text x="22" y="11" class="legend-label">Emerald</text><text x="188" y="11" class="legend-value" text-anchor="end">$35M</text></g>
<g transform="translate(888,230)"><rect class="series-4" x="0" y="0" width="14" height="14" rx="3"/><text x="22" y="11" class="legend-label">Amber</text><text x="188" y="11" class="legend-value" text-anchor="end">$22M</text></g>
<g transform="translate(888,260)"><rect class="series-5" x="0" y="0" width="14" height="14" rx="3"/><text x="22" y="11" class="legend-label">Slate</text><text x="188" y="11" class="legend-value" text-anchor="end">$19M</text></g>
<line x1="888" y1="290" x2="1062" y2="290" class="legend-divider"/>
<text x="888" y="308" class="legend-label">Q4 2023 total</text>
<text x="1062" y="308" class="legend-value" text-anchor="end">$210M</text>
<text x="888" y="328" class="legend-note">Hover columns to inspect</text>

<script href="chart-shared.js"></script>
<script type="text/javascript"><![CDATA[
(function () {
  var svg = document.documentElement;
  svg._chartInit = function (svgEl, ctx) {
    var ns          = 'http://www.w3.org/2000/svg';
    var dataLayerEl = svgEl.querySelector('#data-layer');
    var dotsL       = svgEl.querySelector('#dots-layer');
    var hitLayer    = svgEl.querySelector('#hit-layer');
    var tipLayer    = svgEl.querySelector('#tip-layer');
    var defs        = svgEl.querySelector('defs');

    var series = [
      { id:1, cls:'series-1', label:'Cyan',
        vals:[38,42,46,50,55,60,66,72], ys:[342.4,311.7,294.1,268.1,261.2,221.8,205.0,165.6] },
      { id:2, cls:'series-2', label:'Violet',
        vals:[32,35,38,41,45,50,56,62], ys:[394.1,373.9,360.8,346.4,344.2,320.2,315.6,281.4] },
      { id:3, cls:'series-3', label:'Emerald',
        vals:[18,20,21,23,25,27,31,35], ys:[439.4,423.2,416.9,410.5,415.3,399.6,403.8,381.6] },
      { id:4, cls:'series-4', label:'Amber',
        vals:[11,12,13,14,15,17,19,22], ys:[468.3,459.3,457.1,457.1,455.5,444.2,453.9,437.7] },
      { id:5, cls:'series-5', label:'Slate',
        vals:[10,11,12,13,14,16,17,19], ys:[487.8,483.0,486.2,480.2,483.0,477.5,480.2,473.3] },
    ];

    var aOpacity = [0.85, 0.75, 0.65, 0.55, 0.45];
    var quarters = ["Q1 '22","Q2 '22","Q3 '22","Q4 '22","Q1 '23","Q2 '23","Q3 '23","Q4 '23"];
    var xs   = [68,180,291,403,515,627,738,850];
    var colW = 56;
    var allTips = {};

    var totals = xs.map(function(_,qi){
      return series.reduce(function(s,sr){ return s + sr.vals[qi]; }, 0);
    });

    function el(tag, attrs) {
      var e = document.createElementNS(ns, tag);
      Object.keys(attrs).forEach(function(k){ e.setAttribute(k, attrs[k]); });
      return e;
    }

    function buildGradients() {
      var probe = document.createElementNS(ns, 'rect');
      probe.style.visibility = 'hidden';
      svgEl.appendChild(probe);
      series.forEach(function(s, i) {
        probe.setAttribute('class', s.cls);
        var color = window.getComputedStyle(probe).fill;
        var gradId = 'ag' + s.id;
        var existing = svgEl.querySelector('#' + gradId);
        if (existing) existing.parentNode.removeChild(existing);
        var grad = document.createElementNS(ns, 'linearGradient');
        grad.setAttribute('id', gradId);
        var stop = document.createElementNS(ns, 'stop');
        stop.setAttribute('offset', '0%');
        stop.setAttribute('stop-color', color);
        stop.setAttribute('stop-opacity', aOpacity[i]);
        grad.appendChild(stop);
        defs.appendChild(grad);
        var area = svgEl.querySelector('#area-' + s.id);
        if (area) area.setAttribute('fill', 'url(#' + gradId + ')');
      });
      svgEl.removeChild(probe);
    }

    xs.forEach(function(x, qi) {
      series.forEach(function(s) {
        var dot = el('circle', {
          cx:x, cy:s.ys[qi], r:4,
          'class':'col-dot ' + s.cls,
          style:'stroke:none', 'data-col':qi
        });
        dotsL.appendChild(dot);
      });
    });

    xs.forEach(function(x, qi) {
      var PAD = 16, DOT_R = 4, DOT_X = 14, LBL_X = 26, bCy = 200, rxB = 10;
      var rowH = 18, hdrH = 20, divH = 8, totH = 20;
      var bh = hdrH + divH + series.length * rowH + divH + totH + PAD;

      var tipG = el('g', { 'class':'tip', id:'tip_'+qi });
      tipLayer.appendChild(tipG);
      allTips[qi] = tipG;

      var qLbl = el('text', { x:0, y:bCy + hdrH/2,
        'text-anchor':'middle', 'dominant-baseline':'central', 'class':'tip-label' });
      qLbl.textContent = quarters[qi];
      tipG.appendChild(qLbl);

      var rowEls = [];
      series.forEach(function(s, si) {
        var rowY = bCy + hdrH + divH + si * rowH + rowH/2;
        var dot  = el('circle', { cx:0, cy:rowY, r:DOT_R, 'class':s.cls, style:'stroke:none' });
        var sLbl = el('text', { x:LBL_X, y:rowY, 'dominant-baseline':'central', 'class':'tip-label' });
        sLbl.textContent = s.label;
        var sVal = el('text', { x:0, y:rowY, 'text-anchor':'end', 'dominant-baseline':'central',
          'class':'tip-value', 'font-size':'11' });
        sVal.textContent = '$'+s.vals[qi]+'M';
        tipG.appendChild(dot); tipG.appendChild(sLbl); tipG.appendChild(sVal);
        rowEls.push({ dot:dot, sLbl:sLbl, sVal:sVal });
      });

      var totY = bCy + hdrH + divH + series.length * rowH + divH + totH/2;
      var totLbl = el('text', { x:LBL_X, y:totY, 'dominant-baseline':'central', 'class':'tip-label' });
      totLbl.textContent = 'Total';
      var totVal = el('text', { x:0, y:totY, 'text-anchor':'end', 'dominant-baseline':'central', 'class':'tip-value' });
      totVal.textContent = '$'+totals[qi]+'M';
      tipG.appendChild(totLbl); tipG.appendChild(totVal);

      var maxLblW = 0;
      rowEls.forEach(function(r) { maxLblW = Math.max(maxLblW, LBL_X + r.sLbl.getBBox().width + 8); });
      maxLblW = Math.max(maxLblW, LBL_X + totLbl.getBBox().width + 8);
      var maxValW = 0;
      rowEls.forEach(function(r) { maxValW = Math.max(maxValW, r.sVal.getBBox().width); });
      maxValW = Math.max(maxValW, totVal.getBBox().width);
      var hw = Math.max((maxLblW + maxValW) / 2 + PAD, 80);

      var bCx = Math.max(hw + 8, Math.min(x, 1100 - hw - 8));

      tipG.setAttribute('transform', 'translate('+bCx+',0)');
      qLbl.setAttribute('x', '0');
      rowEls.forEach(function(r) {
        r.dot.setAttribute('cx',  String(-hw + DOT_X));
        r.sLbl.setAttribute('x', String(-hw + LBL_X));
        r.sVal.setAttribute('x', String(hw - 8));
      });
      totLbl.setAttribute('x', String(-hw + LBL_X));
      totVal.setAttribute('x', String(hw - 8));

      var div1Y = bCy + hdrH + divH/2;
      var div2Y = bCy + hdrH + divH + series.length * rowH + divH/2;
      tipG.insertBefore(el('line', { x1:-hw+8, y1:div1Y, x2:hw-8, y2:div1Y, 'class':'tip-divider' }), qLbl.nextSibling);
      tipG.appendChild(el('line',  { x1:-hw+8, y1:div2Y, x2:hw-8, y2:div2Y, 'class':'tip-divider' }));

      var ty = bCy - PAD/2, by = ty + bh;
      tipG.insertBefore(el('rect', { x:-hw, y:ty, width:hw*2, height:bh, rx:rxB, 'class':'tip-bg' }), tipG.firstChild);

      var borderPath = 'M'+(-(hw-rxB))+','+ty
        +' L'+(hw-rxB)+','+ty+' Q'+hw+','+ty+' '+hw+','+(ty+rxB)
        +' L'+hw+','+(by-rxB)+' Q'+hw+','+by+' '+(hw-rxB)+','+by
        +' L'+(-(hw-rxB))+','+by+' Q'+(-hw)+','+by+' '+(-hw)+','+(by-rxB)
        +' L'+(-hw)+','+(ty+rxB)+' Q'+(-hw)+','+ty+' '+(-(hw-rxB))+','+ty+' Z';
      tipG.insertBefore(el('path', { d:borderPath, 'class':'tip-border' }), tipG.children[1]);

      var hx1 = Math.max(68,  x - colW);
      var hx2 = Math.min(850, x + colW);
      var hit = el('rect', { x:hx1, y:100, width:hx2-hx1, height:404,
        fill:'transparent', cursor:'crosshair', id:'hit'+qi });
      hitLayer.appendChild(hit);

      var ch = svgEl.querySelector('#ch' + qi);
      var colDots = dotsL.querySelectorAll('.col-dot[data-col="'+qi+'"]');

      hit.addEventListener('mouseenter', function() {
        dataLayerEl.classList.add('hovering');
        dotsL.querySelectorAll('.col-dot').forEach(function(d) { d.classList.remove('active'); });
        colDots.forEach(function(d) { d.classList.add('active'); });
        allTips[qi].style.opacity = '1';
        if (ch) ch.style.opacity = '1';
      });
      hit.addEventListener('mouseleave', function() {
        dataLayerEl.classList.remove('hovering');
        colDots.forEach(function(d) { d.classList.remove('active'); });
        allTips[qi].style.opacity = '';
        if (ch) ch.style.opacity = '';
      });
    });

    svgEl._onModeChange = function() { buildGradients(); };
    buildGradients();

    /* wave-edges are ordered we5,we4,we3,we2,we1 in markup — stagger bottom-to-top */
    var waveEls    = svgEl.querySelectorAll('.wave-edge');
    var waveDelays = [0, 0.25, 0.50, 0.75, 1.00];
    waveEls.forEach(function(el, i) {
      var delay = waveDelays[waveEls.length - 1 - i];
      el.style.animation = 'drawWave 1.2s cubic-bezier(0.4,0,0.2,1) ' + delay.toFixed(2) + 's';
      el.addEventListener('animationend', function() {
        el.style.animation = 'none';
        el.classList.add('visible');
      }, { once: true });
    });

    var areaEls = svgEl.querySelectorAll('.area-fill');
    var areaDelays = [0, 0.25, 0.50, 0.75, 1.00];
    areaEls.forEach(function(el, i) {
      el.style.animation = 'dataFadeIn 0.8s cubic-bezier(0.4,0,0.2,1) ' + areaDelays[areaEls.length - 1 - i] + 's';
      el.addEventListener('animationend', function() {
        el.style.animation = 'none';
        el.classList.add('visible');
      }, { once: true });
    });

    setTimeout(function() { dataLayerEl.classList.add('ready'); }, (1.00 + 0.8) * 1000 + 100);
  };
  if (window.bootstrapChart) { window.bootstrapChart(svg); }
}());
]]></script>
</svg>


