<svg id="root" viewBox="40 80 1040 463" width="100%" height="100%" preserveAspectRatio="xMidYMid meet" xmlns="http://www.w3.org/2000/svg" font-family="'Roboto','Helvetica Neue',Arial,sans-serif">
<defs>
  <style>
    @import url('chart-shared.css');
  .chart-shell-hidden { display:none; }
  .card-bg, .border-light, .border-dark { display:none; }
    .card-bg        { fill:#FFFBFE; filter:drop-shadow(0 1px 2px rgba(0,0,0,0.10)); }
    .card-title     { font-size:18px; font-weight:500; fill:#1C1B1F; letter-spacing:-0.2px; }
    .card-subtitle  { font-size:11px; fill:#79747E; font-weight:400; }
    .tick-label     { font-size:10px; fill:#79747E; font-weight:400; }
    .category-label { font-size:10px; fill:#79747E; font-weight:500; }
    .legend-label   { font-size:11px; fill:#1C1B1F; font-weight:400; }
    .grid-line      { stroke:#E7E0EC; stroke-width:1; }
    .axis-line      { stroke:#79747E; stroke-width:1.5; }
    .legend-bg      { fill:#E7E0EC; stroke:#79747E; stroke-width:0.5; }
    .legend-divider { stroke:#79747E; stroke-width:0.5; opacity:0.3; }
    .legend-title   { font-size:10px; fill:#79747E; font-weight:500; letter-spacing:0.4px; }
    .footer         { font-size:10px; fill:#79747E; font-weight:400; }
    .toggle-wrap    { cursor:pointer; }
    .toggle-track   { fill:#E7E0EC; }
    .toggle-thumb   { fill:#ffffff; }
    .toggle-label   { font-size:11px; font-weight:500; fill:#49454F; }
    .print-track    { fill:#E7E0EC; transition:fill 0.3s; }
    .print-thumb    { fill:#ffffff; }
    .print-label    { font-size:11px; font-weight:500; fill:#49454F; }

    .legend-value   { font-size:11px; fill:#1C1B1F; font-weight:500; opacity:0; transition:opacity 0.2s; }
    svg.print .legend-value { opacity:1; }
    svg.print .print-track  { fill:#d97316; }

    /* Standard palette — fill and stroke unified */
    .series-1 { fill:#00D4E8; stroke:#00D4E8; } .series-2 { fill:#00B87A; stroke:#00B87A; }
    .series-3 { fill:#F59E0B; stroke:#F59E0B; } .series-4 { fill:#F43F5E; stroke:#F43F5E; }
    .series-5 { fill:#8B5CF6; stroke:#8B5CF6; } .series-6 { fill:#3B82F6; stroke:#3B82F6; }
    .series-7 { fill:#0D9488; stroke:#0D9488; } .series-8 { fill:#64748B; stroke:#64748B; }

    svg.dark .series-1 { fill:#22D3EE; stroke:#22D3EE; } svg.dark .series-2 { fill:#10B981; stroke:#10B981; }
    svg.dark .series-3 { fill:#FBB724; stroke:#FBB724; } svg.dark .series-4 { fill:#FB6181; stroke:#FB6181; }
    svg.dark .series-5 { fill:#A78BFA; stroke:#A78BFA; } svg.dark .series-6 { fill:#60A5FA; stroke:#60A5FA; }
    svg.dark .series-7 { fill:#2DD4BF; stroke:#2DD4BF; } svg.dark .series-8 { fill:#94A3B8; stroke:#94A3B8; }

    @keyframes dataFadeIn { from { opacity:0; } to { opacity:1; } }
    .data-body         { opacity:0; transition:opacity 0.2s ease; }
    .data-body.visible { opacity:1; }

    .data-item       { cursor:pointer; }
    .data-tip        { opacity:0; pointer-events:none; transition:opacity 0.2s ease; }
    .data-item.active .data-tip { opacity:1; }
    .data-layer.ready.hovering .data-item        { opacity:0.20; transition:opacity 0.2s ease; }
    .data-layer.ready.hovering .data-item.active { opacity:1; }
    svg.print .data-tip { opacity:0 !important; }
    svg.print .data-layer.hovering .data-item { opacity:1 !important; }

    .tip-bg     { fill:#FFFBFE; }
    .tip-border { fill:#FFFBFE; stroke:#79747E; stroke-width:1; }
    .tip-tail   { fill:#FFFBFE; stroke:#79747E; stroke-width:1; }
    .tip-value  { fill:#1C1B1F; font-size:12px; font-weight:500; }
    .tip-label  { fill:#49454F; font-size:10px; font-weight:400; }
    .whisker    { stroke-width:2; stroke-linecap:round; fill:none; }
    .median     { stroke:#FFFBFE; stroke-width:2.5; stroke-linecap:round; fill:none; }

    svg.dark .card-bg        { fill:#1C1B1F; filter:drop-shadow(0 1px 4px rgba(0,0,0,0.25)); }
    svg.dark .card-title     { fill:#E6E0E9; }
    svg.dark .card-subtitle  { fill:#938F99; }
    svg.dark .tick-label     { fill:#938F99; }
    svg.dark .category-label { fill:#938F99; }
    svg.dark .legend-label   { fill:#E6E0E9; }
    svg.dark .legend-value   { fill:#E6E0E9; }
    svg.dark .grid-line      { stroke:#49454F; }
    svg.dark .axis-line      { stroke:#938F99; }
    svg.dark .legend-bg      { fill:#49454F; stroke:#938F99; }
    svg.dark .legend-divider { stroke:#938F99; }
    svg.dark .legend-title   { fill:#938F99; }
    svg.dark .footer         { fill:#938F99; }
    svg.dark .toggle-track   { fill:#49454F; }
    svg.dark .toggle-label   { fill:#CAC4D0; }
    svg.dark .print-track    { fill:#49454F; }
    svg.dark .print-label    { fill:#CAC4D0; }
    svg.dark.print .print-track { fill:#d97316; }
    svg.dark .tip-bg     { fill:#1C1B1F; }
    svg.dark .tip-border { fill:#1C1B1F; stroke:#938F99; stroke-width:1; }
    svg.dark .tip-tail   { fill:#1C1B1F; stroke:#938F99; stroke-width:1; }
    svg.dark .tip-value  { fill:#E6E0E9; }
    svg.dark .tip-label  { fill:#CAC4D0; }
    svg.dark .median     { stroke:#1C1B1F; }

    .border-dark  { display:none; }
    .border-light { display:block; }
    svg.dark .border-dark  { display:block; }
    svg.dark .border-light { display:none; }
    .card-bg, .border-light, .border-dark, .card-title, .card-subtitle, .footer, .toggle-wrap { display:none !important; }
  </style>
</defs>

<rect class="card-bg" width="1100" height="620" rx="18"/>
<g class="border-dark">
  <rect x="0.75" y="0.75" width="1098.5" height="618.5" rx="17.5" fill="none" stroke="rgba(0,242,255,0.22)" stroke-width="1.5"/>
</g>
<g class="border-light">
  <rect x="0.75" y="0.75" width="1098.5" height="618.5" rx="17.5" fill="none" stroke="rgba(0,0,0,0.10)" stroke-width="1.5"/>
</g>

<text x="68" y="50" class="card-title">Revenue Distribution by Category - Boxplot</text>
<text x="68" y="70" class="card-subtitle">7 series + Other · box plot · hover to inspect · print for values</text>

<g class="toggle-wrap" id="dark-toggle" transform="translate(930,52)">
  <rect x="0" y="-13" width="68" height="26" rx="13" class="toggle-track"/>
  <circle id="tthumb" cx="16" cy="0" r="10" class="toggle-thumb"/>
  <text id="tlabel" x="44" y="4" class="toggle-label" text-anchor="middle">Dark</text>
</g>
<g class="toggle-wrap" id="print-toggle" transform="translate(1012,52)">
  <rect x="0" y="-13" width="68" height="26" rx="13" class="print-track"/>
  <circle id="pthumb" cx="16" cy="0" r="10" class="print-thumb"/>
  <text id="plabel" x="44" y="4" class="print-label" text-anchor="middle">Print</text>
</g>

<line x1="68" y1="500" x2="850" y2="500" class="axis-line"/>
<line x1="68" y1="400" x2="850" y2="400" class="grid-line"/>
<line x1="68" y1="300" x2="850" y2="300" class="grid-line"/>
<line x1="68" y1="200" x2="850" y2="200" class="grid-line"/>
<line x1="68" y1="100" x2="850" y2="100" class="grid-line"/>
<line x1="68" y1="100" x2="68"  y2="500" class="axis-line"/>

<text x="56" y="504" class="tick-label" text-anchor="end">$0</text>
<text x="56" y="404" class="tick-label" text-anchor="end">$25M</text>
<text x="56" y="304" class="tick-label" text-anchor="end">$50M</text>
<text x="56" y="204" class="tick-label" text-anchor="end">$75M</text>
<text x="56" y="104" class="tick-label" text-anchor="end">$100M</text>

<text x="130" y="522" class="category-label" text-anchor="middle">Cyan</text>
<text x="220" y="522" class="category-label" text-anchor="middle">Emerald</text>
<text x="310" y="522" class="category-label" text-anchor="middle">Amber</text>
<text x="400" y="522" class="category-label" text-anchor="middle">Rose</text>
<text x="490" y="522" class="category-label" text-anchor="middle">Violet</text>
<text x="580" y="522" class="category-label" text-anchor="middle">Blue</text>
<text x="670" y="522" class="category-label" text-anchor="middle">Teal</text>
<text x="760" y="522" class="category-label" text-anchor="middle">Other</text>

<g class="data-layer">

<!-- Cyan -->
<g class="data-item" id="bw1">
  <g class="data-body stagger-1">
    <line class="whisker series-1" x1="130" y1="124" x2="130" y2="164"/>
    <line class="whisker series-1" x1="110" y1="124" x2="150" y2="124"/>
    <line class="whisker series-1" x1="130" y1="268" x2="130" y2="332"/>
    <line class="whisker series-1" x1="110" y1="332" x2="150" y2="332"/>
    <rect class="series-1" x="102" y="164" width="56" height="104" rx="10" fill-opacity="0.85"/>
    <line class="median" x1="106" y1="212" x2="154" y2="212"/>
    <circle class="series-1" cx="130" cy="108" r="5" fill="none" stroke-width="2"/>
  </g>
  <g class="data-tip" transform="translate(130,140)">
    <rect x="-52" y="-80" width="104" height="76" rx="9" class="tip-bg"/>
    <path d="M-8,-4 L-43,-4 Q-52,-4 -52,-13 L-52,-71 Q-52,-80 -43,-80 L43,-80 Q52,-80 52,-71 L52,-13 Q52,-4 43,-4 L8,-4" class="tip-border"/>
    <path d="M8,-4 L0,10 L-8,-4" class="tip-tail"/>
    <text x="0" y="-62" text-anchor="middle" dominant-baseline="central" class="tip-value">$72M</text>
    <text x="0" y="-46" text-anchor="middle" dominant-baseline="central" class="tip-label">Median · Cyan</text>
    <text x="0" y="-32" text-anchor="middle" dominant-baseline="central" class="tip-label">IQR $58–$84M</text>
    <text x="0" y="-18" text-anchor="middle" dominant-baseline="central" class="tip-label">Range $42–$94M</text>
  </g>
</g>

<!-- Emerald -->
<g class="data-item" id="bw2">
  <g class="data-body stagger-2">
    <line class="whisker series-2" x1="220" y1="140" x2="220" y2="184"/>
    <line class="whisker series-2" x1="200" y1="140" x2="240" y2="140"/>
    <line class="whisker series-2" x1="220" y1="276" x2="220" y2="340"/>
    <line class="whisker series-2" x1="200" y1="340" x2="240" y2="340"/>
    <rect class="series-2" x="192" y="184" width="56" height="92" rx="10" fill-opacity="0.85"/>
    <line class="median" x1="196" y1="228" x2="244" y2="228"/>
    <circle class="series-2" cx="220" cy="116" r="5" fill="none" stroke-width="2"/>
  </g>
  <g class="data-tip" transform="translate(220,152)">
    <rect x="-55" y="-80" width="110" height="76" rx="9" class="tip-bg"/>
    <path d="M-8,-4 L-46,-4 Q-55,-4 -55,-13 L-55,-71 Q-55,-80 -46,-80 L46,-80 Q55,-80 55,-71 L55,-13 Q55,-4 46,-4 L8,-4" class="tip-border"/>
    <path d="M8,-4 L0,10 L-8,-4" class="tip-tail"/>
    <text x="0" y="-62" text-anchor="middle" dominant-baseline="central" class="tip-value">$68M</text>
    <text x="0" y="-46" text-anchor="middle" dominant-baseline="central" class="tip-label">Median · Emerald</text>
    <text x="0" y="-32" text-anchor="middle" dominant-baseline="central" class="tip-label">IQR $56–$79M</text>
    <text x="0" y="-18" text-anchor="middle" dominant-baseline="central" class="tip-label">Range $40–$90M</text>
  </g>
</g>

<!-- Amber -->
<g class="data-item" id="bw3">
  <g class="data-body stagger-3">
    <line class="whisker series-3" x1="310" y1="160" x2="310" y2="204"/>
    <line class="whisker series-3" x1="290" y1="160" x2="330" y2="160"/>
    <line class="whisker series-3" x1="310" y1="300" x2="310" y2="360"/>
    <line class="whisker series-3" x1="290" y1="360" x2="330" y2="360"/>
    <rect class="series-3" x="282" y="204" width="56" height="96" rx="10" fill-opacity="0.85"/>
    <line class="median" x1="286" y1="260" x2="334" y2="260"/>
    <circle class="series-3" cx="310" cy="372" r="5" fill="none" stroke-width="2"/>
  </g>
  <g class="data-tip" transform="translate(310,172)">
    <rect x="-52" y="-80" width="104" height="76" rx="9" class="tip-bg"/>
    <path d="M-8,-4 L-43,-4 Q-52,-4 -52,-13 L-52,-71 Q-52,-80 -43,-80 L43,-80 Q52,-80 52,-71 L52,-13 Q52,-4 43,-4 L8,-4" class="tip-border"/>
    <path d="M8,-4 L0,10 L-8,-4" class="tip-tail"/>
    <text x="0" y="-62" text-anchor="middle" dominant-baseline="central" class="tip-value">$60M</text>
    <text x="0" y="-46" text-anchor="middle" dominant-baseline="central" class="tip-label">Median · Amber</text>
    <text x="0" y="-32" text-anchor="middle" dominant-baseline="central" class="tip-label">IQR $50–$74M</text>
    <text x="0" y="-18" text-anchor="middle" dominant-baseline="central" class="tip-label">Range $35–$85M</text>
  </g>
</g>

<!-- Rose -->
<g class="data-item" id="bw4">
  <g class="data-body stagger-4">
    <line class="whisker series-4" x1="400" y1="180" x2="400" y2="228"/>
    <line class="whisker series-4" x1="380" y1="180" x2="420" y2="180"/>
    <line class="whisker series-4" x1="400" y1="316" x2="400" y2="380"/>
    <line class="whisker series-4" x1="380" y1="380" x2="420" y2="380"/>
    <rect class="series-4" x="372" y="228" width="56" height="88" rx="10" fill-opacity="0.85"/>
    <line class="median" x1="376" y1="280" x2="424" y2="280"/>
    <circle class="series-4" cx="400" cy="148" r="5" fill="none" stroke-width="2"/>
  </g>
  <g class="data-tip" transform="translate(400,192)">
    <rect x="-50" y="-80" width="100" height="76" rx="9" class="tip-bg"/>
    <path d="M-8,-4 L-41,-4 Q-50,-4 -50,-13 L-50,-71 Q-50,-80 -41,-80 L41,-80 Q50,-80 50,-71 L50,-13 Q50,-4 41,-4 L8,-4" class="tip-border"/>
    <path d="M8,-4 L0,10 L-8,-4" class="tip-tail"/>
    <text x="0" y="-62" text-anchor="middle" dominant-baseline="central" class="tip-value">$55M</text>
    <text x="0" y="-46" text-anchor="middle" dominant-baseline="central" class="tip-label">Median · Rose</text>
    <text x="0" y="-32" text-anchor="middle" dominant-baseline="central" class="tip-label">IQR $46–$68M</text>
    <text x="0" y="-18" text-anchor="middle" dominant-baseline="central" class="tip-label">Range $30–$80M</text>
  </g>
</g>

<!-- Violet -->
<g class="data-item" id="bw5">
  <g class="data-body stagger-5">
    <line class="whisker series-5" x1="490" y1="100" x2="490" y2="140"/>
    <line class="whisker series-5" x1="470" y1="100" x2="510" y2="100"/>
    <line class="whisker series-5" x1="490" y1="228" x2="490" y2="280"/>
    <line class="whisker series-5" x1="470" y1="280" x2="510" y2="280"/>
    <rect class="series-5" x="462" y="140" width="56" height="88" rx="10" fill-opacity="0.85"/>
    <line class="median" x1="466" y1="184" x2="514" y2="184"/>
    <circle class="series-5" cx="490" cy="292" r="5" fill="none" stroke-width="2"/>
  </g>
  <g class="data-tip" transform="translate(490,118)">
    <rect x="-50" y="-80" width="100" height="76" rx="9" class="tip-bg"/>
    <path d="M-8,-4 L-41,-4 Q-50,-4 -50,-13 L-50,-71 Q-50,-80 -41,-80 L41,-80 Q50,-80 50,-71 L50,-13 Q50,-4 41,-4 L8,-4" class="tip-border"/>
    <path d="M8,-4 L0,10 L-8,-4" class="tip-tail"/>
    <text x="0" y="-62" text-anchor="middle" dominant-baseline="central" class="tip-value">$79M</text>
    <text x="0" y="-46" text-anchor="middle" dominant-baseline="central" class="tip-label">Median · Violet</text>
    <text x="0" y="-32" text-anchor="middle" dominant-baseline="central" class="tip-label">IQR $68–$90M</text>
    <text x="0" y="-18" text-anchor="middle" dominant-baseline="central" class="tip-label">Range $55–$100M</text>
  </g>
</g>

<!-- Blue -->
<g class="data-item" id="bw6">
  <g class="data-body stagger-6">
    <line class="whisker series-6" x1="580" y1="152" x2="580" y2="196"/>
    <line class="whisker series-6" x1="560" y1="152" x2="600" y2="152"/>
    <line class="whisker series-6" x1="580" y1="280" x2="580" y2="348"/>
    <line class="whisker series-6" x1="560" y1="348" x2="600" y2="348"/>
    <rect class="series-6" x="552" y="196" width="56" height="84" rx="10" fill-opacity="0.85"/>
    <line class="median" x1="556" y1="244" x2="604" y2="244"/>
    <circle class="series-6" cx="580" cy="128" r="5" fill="none" stroke-width="2"/>
  </g>
  <g class="data-tip" transform="translate(580,166)">
    <rect x="-48" y="-80" width="96" height="76" rx="9" class="tip-bg"/>
    <path d="M-8,-4 L-39,-4 Q-48,-4 -48,-13 L-48,-71 Q-48,-80 -39,-80 L39,-80 Q48,-80 48,-71 L48,-13 Q48,-4 39,-4 L8,-4" class="tip-border"/>
    <path d="M8,-4 L0,10 L-8,-4" class="tip-tail"/>
    <text x="0" y="-62" text-anchor="middle" dominant-baseline="central" class="tip-value">$64M</text>
    <text x="0" y="-46" text-anchor="middle" dominant-baseline="central" class="tip-label">Median · Blue</text>
    <text x="0" y="-32" text-anchor="middle" dominant-baseline="central" class="tip-label">IQR $55–$76M</text>
    <text x="0" y="-18" text-anchor="middle" dominant-baseline="central" class="tip-label">Range $38–$87M</text>
  </g>
</g>

<!-- Teal -->
<g class="data-item" id="bw7">
  <g class="data-body stagger-7">
    <line class="whisker series-7" x1="670" y1="168" x2="670" y2="212"/>
    <line class="whisker series-7" x1="650" y1="168" x2="690" y2="168"/>
    <line class="whisker series-7" x1="670" y1="292" x2="670" y2="356"/>
    <line class="whisker series-7" x1="650" y1="356" x2="690" y2="356"/>
    <rect class="series-7" x="642" y="212" width="56" height="80" rx="10" fill-opacity="0.85"/>
    <line class="median" x1="646" y1="256" x2="694" y2="256"/>
    <circle class="series-7" cx="670" cy="380" r="5" fill="none" stroke-width="2"/>
  </g>
  <g class="data-tip" transform="translate(670,180)">
    <rect x="-48" y="-80" width="96" height="76" rx="9" class="tip-bg"/>
    <path d="M-8,-4 L-39,-4 Q-48,-4 -48,-13 L-48,-71 Q-48,-80 -39,-80 L39,-80 Q48,-80 48,-71 L48,-13 Q48,-4 39,-4 L8,-4" class="tip-border"/>
    <path d="M8,-4 L0,10 L-8,-4" class="tip-tail"/>
    <text x="0" y="-62" text-anchor="middle" dominant-baseline="central" class="tip-value">$61M</text>
    <text x="0" y="-46" text-anchor="middle" dominant-baseline="central" class="tip-label">Median · Teal</text>
    <text x="0" y="-32" text-anchor="middle" dominant-baseline="central" class="tip-label">IQR $52–$72M</text>
    <text x="0" y="-18" text-anchor="middle" dominant-baseline="central" class="tip-label">Range $36–$83M</text>
  </g>
</g>

<!-- Other -->
<g class="data-item" id="bw8">
  <g class="data-body stagger-8">
    <line class="whisker series-8" x1="760" y1="228" x2="760" y2="268"/>
    <line class="whisker series-8" x1="740" y1="228" x2="780" y2="228"/>
    <line class="whisker series-8" x1="760" y1="356" x2="760" y2="412"/>
    <line class="whisker series-8" x1="740" y1="412" x2="780" y2="412"/>
    <rect class="series-8" x="732" y="268" width="56" height="88" rx="10" fill-opacity="0.85"/>
    <line class="median" x1="736" y1="308" x2="784" y2="308"/>
    <circle class="series-8" cx="760" cy="212" r="5" fill="none" stroke-width="2"/>
  </g>
  <g class="data-tip" transform="translate(760,242)">
    <rect x="-50" y="-80" width="100" height="76" rx="9" class="tip-bg"/>
    <path d="M-8,-4 L-41,-4 Q-50,-4 -50,-13 L-50,-71 Q-50,-80 -41,-80 L41,-80 Q50,-80 50,-71 L50,-13 Q50,-4 41,-4 L8,-4" class="tip-border"/>
    <path d="M8,-4 L0,10 L-8,-4" class="tip-tail"/>
    <text x="0" y="-62" text-anchor="middle" dominant-baseline="central" class="tip-value">$48M</text>
    <text x="0" y="-46" text-anchor="middle" dominant-baseline="central" class="tip-label">Median · Other</text>
    <text x="0" y="-32" text-anchor="middle" dominant-baseline="central" class="tip-label">IQR $36–$58M</text>
    <text x="0" y="-18" text-anchor="middle" dominant-baseline="central" class="tip-label">Range $22–$68M</text>
  </g>
</g>

</g>

<!-- LEGEND -->
<rect x="870" y="100" width="210" height="420" rx="14" class="legend-bg" stroke-width="1"/>
<text x="888" y="124" class="legend-title">SERIES</text>
<g transform="translate(888,140)">
  <rect class="series-1" x="0" y="2" width="14" height="10" rx="2"/>
  <line class="series-1" x1="7" y1="0" x2="7" y2="2" stroke-width="1.5" fill="none"/>
  <line class="series-1" x1="7" y1="12" x2="7" y2="14" stroke-width="1.5" fill="none"/>
  <text x="22" y="11" class="legend-label">Cyan</text>
  <text x="188" y="11" class="legend-value" text-anchor="end">$72M med</text>
</g>
<g transform="translate(888,170)">
  <rect class="series-2" x="0" y="2" width="14" height="10" rx="2"/>
  <line class="series-2" x1="7" y1="0" x2="7" y2="2" stroke-width="1.5" fill="none"/>
  <line class="series-2" x1="7" y1="12" x2="7" y2="14" stroke-width="1.5" fill="none"/>
  <text x="22" y="11" class="legend-label">Emerald</text>
  <text x="188" y="11" class="legend-value" text-anchor="end">$68M med</text>
</g>
<g transform="translate(888,200)">
  <rect class="series-3" x="0" y="2" width="14" height="10" rx="2"/>
  <line class="series-3" x1="7" y1="0" x2="7" y2="2" stroke-width="1.5" fill="none"/>
  <line class="series-3" x1="7" y1="12" x2="7" y2="14" stroke-width="1.5" fill="none"/>
  <text x="22" y="11" class="legend-label">Amber</text>
  <text x="188" y="11" class="legend-value" text-anchor="end">$60M med</text>
</g>
<g transform="translate(888,230)">
  <rect class="series-4" x="0" y="2" width="14" height="10" rx="2"/>
  <line class="series-4" x1="7" y1="0" x2="7" y2="2" stroke-width="1.5" fill="none"/>
  <line class="series-4" x1="7" y1="12" x2="7" y2="14" stroke-width="1.5" fill="none"/>
  <text x="22" y="11" class="legend-label">Rose</text>
  <text x="188" y="11" class="legend-value" text-anchor="end">$55M med</text>
</g>
<g transform="translate(888,260)">
  <rect class="series-5" x="0" y="2" width="14" height="10" rx="2"/>
  <line class="series-5" x1="7" y1="0" x2="7" y2="2" stroke-width="1.5" fill="none"/>
  <line class="series-5" x1="7" y1="12" x2="7" y2="14" stroke-width="1.5" fill="none"/>
  <text x="22" y="11" class="legend-label">Violet</text>
  <text x="188" y="11" class="legend-value" text-anchor="end">$79M med</text>
</g>
<g transform="translate(888,290)">
  <rect class="series-6" x="0" y="2" width="14" height="10" rx="2"/>
  <line class="series-6" x1="7" y1="0" x2="7" y2="2" stroke-width="1.5" fill="none"/>
  <line class="series-6" x1="7" y1="12" x2="7" y2="14" stroke-width="1.5" fill="none"/>
  <text x="22" y="11" class="legend-label">Blue</text>
  <text x="188" y="11" class="legend-value" text-anchor="end">$64M med</text>
</g>
<g transform="translate(888,320)">
  <rect class="series-7" x="0" y="2" width="14" height="10" rx="2"/>
  <line class="series-7" x1="7" y1="0" x2="7" y2="2" stroke-width="1.5" fill="none"/>
  <line class="series-7" x1="7" y1="12" x2="7" y2="14" stroke-width="1.5" fill="none"/>
  <text x="22" y="11" class="legend-label">Teal</text>
  <text x="188" y="11" class="legend-value" text-anchor="end">$61M med</text>
</g>
<line x1="888" y1="352" x2="1062" y2="352" class="legend-divider"/>
<g transform="translate(888,364)">
  <rect class="series-8" x="0" y="2" width="14" height="10" rx="2"/>
  <line class="series-8" x1="7" y1="0" x2="7" y2="2" stroke-width="1.5" fill="none"/>
  <line class="series-8" x1="7" y1="12" x2="7" y2="14" stroke-width="1.5" fill="none"/>
  <text x="22" y="11" class="legend-label">Other</text>
  <text x="188" y="11" class="legend-value" text-anchor="end">$48M med</text>
</g>
<line x1="888" y1="395" x2="1062" y2="395" class="legend-divider"/>
<text x="888" y="413" class="legend-title">KEY</text>
<g transform="translate(888,422)">
  <rect x="0" y="3" width="12" height="8" rx="2" fill="#79747E" fill-opacity="0.5"/>
  <line x1="6" y1="0" x2="6" y2="3" stroke="#79747E" stroke-width="1.5"/>
  <line x1="6" y1="11" x2="6" y2="14" stroke="#79747E" stroke-width="1.5"/>
  <line x1="2" y1="7" x2="10" y2="7" stroke="#FFFBFE" stroke-width="1.5"/>
  <text x="22" y="10" class="legend-label" style="font-size:9px">Box = IQR (Q1–Q3)</text>
</g>
<g transform="translate(888,444)">
  <line x1="0" y1="7" x2="12" y2="7" stroke="#79747E" stroke-width="1.5"/>
  <line x1="6" y1="0" x2="6" y2="5" stroke="#79747E" stroke-width="1.5"/>
  <line x1="6" y1="9" x2="6" y2="14" stroke="#79747E" stroke-width="1.5"/>
  <text x="22" y="10" class="legend-label" style="font-size:9px">Whiskers = Min/Max</text>
</g>
<g transform="translate(888,466)">
  <circle cx="6" cy="7" r="4" fill="none" stroke="#79747E" stroke-width="1.5"/>
  <text x="22" y="10" class="legend-label" style="font-size:9px">&#9675; = Outlier</text>
</g>

<text x="68" y="600" class="footer">Revenue by Category · 7 series + Other · box plot distribution</text>

<script href="chart-shared.js"></script>
<script type="text/javascript"><![CDATA[
(function () {
  var svg = document.documentElement;
  svg._chartInit = function (svgEl, ctx) {
var svg         = document.getElementById('root');
  var dataLayerEl = document.querySelector('.data-layer');

  /* §2 — isDark hoisted before all build and animation code */

  var dataItemEls = Array.prototype.slice.call(document.querySelectorAll('.data-item'));
  dataItemEls.forEach(function(itemEl) {
    itemEl.addEventListener('mouseenter', function() {
      if (dataLayerEl) dataLayerEl.classList.add('hovering');
      dataItemEls.forEach(function(x) { x.classList.remove('active'); }); /* §4 clear stale */
      itemEl.classList.add('active');
    });
    itemEl.addEventListener('mouseleave', function() {
      itemEl.classList.remove('active');
      if (dataLayerEl) dataLayerEl.classList.remove('hovering');
    });
  });
  var bbDelays = [0, 0.25, 0.50, 0.75, 1.00, 1.25, 1.50, 1.75];
  document.querySelectorAll('.data-body').forEach(function(bb, i) {
    bb.style.animation = 'dataFadeIn 0.8s ease-out ' + bbDelays[i] + 's';
    bb.addEventListener('animationend', function() {
      bb.style.animation = 'none';
      bb.classList.add('visible');
    }, { once: true });
  });
  /* gate hover on .ready after last box animation: 1.75s + 0.8s + 100ms buffer */
  setTimeout(function() { if (dataLayerEl) dataLayerEl.classList.add('ready'); }, (1.75 + 0.8) * 1000 + 100);
  };
  if (window.bootstrapChart) { window.bootstrapChart(svg); }
}());
]]></script>
</svg>
