<svg id="root" viewBox="0 0 1100 620" width="100%" height="100%" preserveAspectRatio="xMidYMid meet" xmlns="http://www.w3.org/2000/svg" font-family="'Inter','Helvetica Neue',Arial,sans-serif">
<defs>
  <style>
    @import url('https://fonts.googleapis.com/css2?family=Inter:wght@400;500;600&amp;display=swap');
    .bg-main   { fill:#FFFBFE; filter:drop-shadow(0 1px 2px rgba(0,0,0,0.10)); }
    .ct        { font-size:18px; font-weight:500; fill:#1C1B1F; letter-spacing:-0.2px; }
    .cs        { font-size:11px; fill:#79747E; font-weight:400; }
    .an        { font-size:10px; fill:#79747E; font-weight:400; }
    .al        { font-size:10px; fill:#79747E; font-weight:500; }
    .lt        { font-size:11px; fill:#1C1B1F; font-weight:400; }
    .lv        { font-size:11px; fill:#1C1B1F; font-weight:500; }
    .gl        { stroke:#E7E0EC; stroke-width:1; }
    .bl        { stroke:#79747E; stroke-width:1.5; }
    .lgd-bg    { fill:#E7E0EC; stroke:#79747E; stroke-width:0.5; }
    .lgd-div   { stroke:#79747E; stroke-width:0.5; opacity:0.3; }
    .lgd-ttl   { font-size:10px; fill:#79747E; font-weight:500; letter-spacing:0.4px; }
    .footer    { font-size:10px; fill:#79747E; font-weight:400; }
    .t-wrap    { cursor:pointer; }
    .t-track   { fill:#E7E0EC; }
    .t-thumb   { fill:#ffffff; }
    .t-label   { font-size:11px; font-weight:500; fill:#49454F; }
    .pt-track  { fill:#E7E0EC; transition:fill 0.3s; }
    .pt-thumb  { fill:#ffffff; }
    .pt-label  { font-size:11px; font-weight:500; fill:#49454F; }

    .lgd-val   { opacity:0; transition:opacity 0.2s; }
    svg.print .lgd-val   { opacity:1; }
    svg.print .pt-track  { fill:#d97316; }

    .bw        { cursor:pointer; }
    .bubble    { opacity:0; pointer-events:none; transition:opacity 0.15s ease; }
    .bw:hover .bubble { opacity:1; }
    .ca:hover .bw .box-body  { opacity:0.55; }
    .ca:hover .bw:hover .box-body { opacity:1; }
    svg.print .bubble  { opacity:0 !important; }
    svg.print .ca:hover .bw .box-body { opacity:1 !important; }

    .bub-bg    { fill:#FFFBFE; }
    .bub-bdr   { fill:none; stroke:#79747E; stroke-width:1; }
    .bub-tip   { fill:none; stroke:#79747E; stroke-width:1; }
    .bub-val   { fill:#1C1B1F; font-size:12px; font-weight:500; }
    .bub-lbl   { fill:#49454F; font-size:10px; font-weight:400; }

    .whisker   { stroke-width:2; stroke-linecap:round; }
    .median    { stroke-width:2.5; stroke-linecap:round; }
    .outlier   { }

    svg.dark .bg-main   { fill:#1C1B1F; filter:drop-shadow(0 1px 4px rgba(0,0,0,0.25)); }
    svg.dark .ct        { fill:#E6E0E9; }
    svg.dark .cs        { fill:#938F99; }
    svg.dark .an        { fill:#938F99; }
    svg.dark .al        { fill:#938F99; }
    svg.dark .lt        { fill:#E6E0E9; }
    svg.dark .lv        { fill:#E6E0E9; }
    svg.dark .gl        { stroke:#49454F; }
    svg.dark .bl        { stroke:#938F99; }
    svg.dark .lgd-bg    { fill:#49454F; stroke:#938F99; }
    svg.dark .lgd-div   { stroke:#938F99; }
    svg.dark .lgd-ttl   { fill:#938F99; }
    svg.dark .footer    { fill:#938F99; }
    svg.dark .t-track   { fill:#49454F; }
    svg.dark .t-label   { fill:#CAC4D0; }
    svg.dark .pt-track  { fill:#49454F; }
    svg.dark .pt-label  { fill:#CAC4D0; }
    svg.dark.print .pt-track { fill:#d97316; }
    svg.dark .bub-bg    { fill:#1C1B1F; }
    svg.dark .bub-bdr   { fill:none; stroke:#938F99; stroke-width:1; }
    svg.dark .bub-tip   { fill:none; stroke:#938F99; stroke-width:1; }
    svg.dark .bub-val   { fill:#E6E0E9; }
    svg.dark .bub-lbl   { fill:#CAC4D0; }

    .border-dark      { display:none; }
    .border-light     { display:block; }
    svg.dark .border-dark  { display:block; }
    svg.dark .border-light { display:none; }
  </style>
</defs>

<!-- Background -->
<rect class="bg-main" width="1100" height="620" rx="18"/>
<g class="border-dark">
  <rect x="0.75" y="0.75" width="1098.5" height="618.5" rx="17.5"
    fill="none" stroke="rgba(0,242,255,0.22)" stroke-width="1.5"/>
</g>
<g class="border-light">
  <rect x="0.75" y="0.75" width="1098.5" height="618.5" rx="17.5"
    fill="none" stroke="rgba(0,0,0,0.10)" stroke-width="1.5"/>
</g>

<!-- Title -->
<text x="68" y="50" class="ct">Revenue Distribution by Category</text>
<text x="68" y="70" class="cs">7 series + Other · box plot · hover to inspect · print for values</text>

<!-- Dark toggle -->
<g class="t-wrap" id="dark-toggle" transform="translate(930,52)">
  <rect x="0" y="-13" width="68" height="26" rx="13" class="t-track"/>
  <circle id="tthumb" cx="52" cy="0" r="10" class="t-thumb"/>
  <text id="tlabel" x="44" y="4" class="t-label" text-anchor="middle">Light</text>
</g>

<!-- Print toggle -->
<g class="t-wrap" id="print-toggle" transform="translate(1012,52)">
  <rect x="0" y="-13" width="68" height="26" rx="13" class="pt-track"/>
  <circle id="pthumb" cx="16" cy="0" r="10" class="pt-thumb"/>
  <text id="plabel" x="44" y="4" class="pt-label" text-anchor="middle">Print</text>
</g>

<!-- Grid lines (y=500 baseline, y=100 top = $100M, each 100px = $25M) -->
<line x1="68" y1="500" x2="850" y2="500" class="bl"/>
<line x1="68" y1="400" x2="850" y2="400" class="gl"/>
<line x1="68" y1="300" x2="850" y2="300" class="gl"/>
<line x1="68" y1="200" x2="850" y2="200" class="gl"/>
<line x1="68" y1="100" x2="850" y2="100" class="gl"/>
<line x1="68" y1="100" x2="68"  y2="500" class="bl"/>

<!-- Y axis labels -->
<text x="56" y="504" class="an" text-anchor="end">$0</text>
<text x="56" y="404" class="an" text-anchor="end">$25M</text>
<text x="56" y="304" class="an" text-anchor="end">$50M</text>
<text x="56" y="204" class="an" text-anchor="end">$75M</text>
<text x="56" y="104" class="an" text-anchor="end">$100M</text>

<!-- X axis labels -->
<text x="130" y="522" class="al" text-anchor="middle">Cyan</text>
<text x="220" y="522" class="al" text-anchor="middle">Emerald</text>
<text x="310" y="522" class="al" text-anchor="middle">Amber</text>
<text x="400" y="522" class="al" text-anchor="middle">Rose</text>
<text x="490" y="522" class="al" text-anchor="middle">Violet</text>
<text x="580" y="522" class="al" text-anchor="middle">Blue</text>
<text x="670" y="522" class="al" text-anchor="middle">Teal</text>
<text x="760" y="522" class="al" text-anchor="middle">Other</text>

<!--
  Scale: 500px = $0, 100px = $100M → 4px per $1M
  Box plot data (all in $M, converted: y = 500 - val*4):
  Cyan:    min=42 w=42  Q1=58 q1=268  med=72 m=212  Q3=84 q3=164  max=94 mx=124  out=98 ot=108  color=#00D4E8
  Emerald: min=40 w=40  Q1=56 q1=276  med=68 m=228  Q3=79 q3=184  max=90 mx=140  out=96 ot=116  color=#00B87A
  Amber:   min=35 w=35  Q1=50 q1=300  med=60 m=260  Q3=74 q3=204  max=85 mx=160  out=32 ot=372  color=#F59E0B
  Rose:    min=30 w=30  Q1=46 q1=316  med=55 m=280  Q3=68 q3=228  max=80 mx=180  out=88 ot=148  color=#F43F5E
  Violet:  min=55 w=55  Q1=68 q1=228  med=79 m=184  Q3=90 q3=140  max=100 mx=100 out=52 ot=292  color=#8B5CF6
  Blue:    min=38 w=38  Q1=55 q1=280  med=64 m=244  Q3=76 q3=196  max=87 mx=152  out=93 ot=128  color=#3B82F6
  Teal:    min=36 w=36  Q1=52 q1=292  med=61 m=256  Q3=72 q3=212  max=83 mx=168  out=30 ot=380  color=#0D9488
  Other:   min=22 w=22  Q1=36 q1=356  med=48 m=308  Q3=58 q3=268  max=68 mx=228  out=72 ot=212  color=#64748B
-->

<g class="ca">

<!-- ══ Cyan ══ -->
<g class="bw" id="bw1">
  <!-- animation group anchored at baseline -->
  <g id="box-anim-1" transform="translate(130,500)" style="opacity:0; transform-origin:130px 500px">
    <animateTransform attributeName="transform" type="scale" from="1,0" to="1,1" dur="1.20s" begin="0.00s" fill="freeze" calcMode="spline" keySplines="0.34,1.4,0.64,1" keyTimes="0;1"/>
    <animate attributeName="opacity" from="0" to="1" dur="0.45s" begin="0.00s" fill="freeze"/>
    <!-- whisker top: Q3→max -->
    <line class="whisker" x1="0" y1="-376" x2="0" y2="-336" stroke="#00D4E8"/>
    <!-- whisker cap top -->
    <line class="whisker" x1="-20" y1="-376" x2="20" y2="-376" stroke="#00D4E8"/>
    <!-- whisker bottom: Q1→min -->
    <line class="whisker" x1="0" y1="-232" x2="0" y2="-168" stroke="#00D4E8"/>
    <!-- whisker cap bottom -->
    <line class="whisker" x1="-20" y1="-168" x2="20" y2="-168" stroke="#00D4E8"/>
    <!-- IQR box -->
    <g class="box-body">
      <rect x="-28" y="-336" width="56" height="104" rx="10" fill="#00D4E8" fill-opacity="0.85" id="boxr1"/>
      <line class="median" x1="-24" y1="-288" x2="24" y2="-288" stroke="#FFFBFE" id="med1"/>
    </g>
    <!-- outlier -->
    <circle class="outlier" id="out1" cx="0" cy="-392" r="5" fill="none" stroke="#00D4E8" stroke-width="2"/>
  </g>
  <!-- hover tooltip (absolute coords, outside animation group) -->
  <g class="bubble" transform="translate(130,140)">
    <rect x="-52" y="-80" width="104" height="76" rx="9" class="bub-bg"/>
    <path d="M-8,-4 L-43,-4 Q-52,-4 -52,-13 L-52,-71 Q-52,-80 -43,-80 L43,-80 Q52,-80 52,-71 L52,-13 Q52,-4 43,-4 L8,-4" class="bub-bdr"/>
    <path d="M8,-4 L0,10 L-8,-4" class="bub-tip"/>
    <text x="0" y="-62" text-anchor="middle" dominant-baseline="central" class="bub-val">$72M</text>
    <text x="0" y="-46" text-anchor="middle" dominant-baseline="central" class="bub-lbl">Median · Cyan</text>
    <text x="0" y="-32" text-anchor="middle" dominant-baseline="central" class="bub-lbl">IQR $58–$84M</text>
    <text x="0" y="-18" text-anchor="middle" dominant-baseline="central" class="bub-lbl">Range $42–$94M</text>
  </g>
</g>

<!-- ══ Emerald ══ -->
<g class="bw" id="bw2">
  <!-- animation group anchored at baseline -->
  <g id="box-anim-2" transform="translate(220,500)" style="opacity:0; transform-origin:220px 500px">
    <animateTransform attributeName="transform" type="scale" from="1,0" to="1,1" dur="1.20s" begin="0.12s" fill="freeze" calcMode="spline" keySplines="0.34,1.4,0.64,1" keyTimes="0;1"/>
    <animate attributeName="opacity" from="0" to="1" dur="0.45s" begin="0.12s" fill="freeze"/>
    <!-- whisker top: Q3→max -->
    <line class="whisker" x1="0" y1="-360" x2="0" y2="-316" stroke="#00B87A"/>
    <!-- whisker cap top -->
    <line class="whisker" x1="-20" y1="-360" x2="20" y2="-360" stroke="#00B87A"/>
    <!-- whisker bottom: Q1→min -->
    <line class="whisker" x1="0" y1="-224" x2="0" y2="-160" stroke="#00B87A"/>
    <!-- whisker cap bottom -->
    <line class="whisker" x1="-20" y1="-160" x2="20" y2="-160" stroke="#00B87A"/>
    <!-- IQR box -->
    <g class="box-body">
      <rect x="-28" y="-316" width="56" height="92" rx="10" fill="#00B87A" fill-opacity="0.85" id="boxr2"/>
      <line class="median" x1="-24" y1="-272" x2="24" y2="-272" stroke="#FFFBFE" id="med2"/>
    </g>
    <!-- outlier -->
    <circle class="outlier" id="out2" cx="0" cy="-384" r="5" fill="none" stroke="#00B87A" stroke-width="2"/>
  </g>
  <!-- hover tooltip (absolute coords, outside animation group) -->
  <g class="bubble" transform="translate(220,152)">
    <rect x="-55" y="-80" width="110" height="76" rx="9" class="bub-bg"/>
    <path d="M-8,-4 L-46,-4 Q-55,-4 -55,-13 L-55,-71 Q-55,-80 -46,-80 L46,-80 Q55,-80 55,-71 L55,-13 Q55,-4 46,-4 L8,-4" class="bub-bdr"/>
    <path d="M8,-4 L0,10 L-8,-4" class="bub-tip"/>
    <text x="0" y="-62" text-anchor="middle" dominant-baseline="central" class="bub-val">$68M</text>
    <text x="0" y="-46" text-anchor="middle" dominant-baseline="central" class="bub-lbl">Median · Emerald</text>
    <text x="0" y="-32" text-anchor="middle" dominant-baseline="central" class="bub-lbl">IQR $56–$79M</text>
    <text x="0" y="-18" text-anchor="middle" dominant-baseline="central" class="bub-lbl">Range $40–$90M</text>
  </g>
</g>

<!-- ══ Amber ══ -->
<g class="bw" id="bw3">
  <!-- animation group anchored at baseline -->
  <g id="box-anim-3" transform="translate(310,500)" style="opacity:0; transform-origin:310px 500px">
    <animateTransform attributeName="transform" type="scale" from="1,0" to="1,1" dur="1.20s" begin="0.24s" fill="freeze" calcMode="spline" keySplines="0.34,1.4,0.64,1" keyTimes="0;1"/>
    <animate attributeName="opacity" from="0" to="1" dur="0.45s" begin="0.24s" fill="freeze"/>
    <!-- whisker top: Q3→max -->
    <line class="whisker" x1="0" y1="-340" x2="0" y2="-296" stroke="#F59E0B"/>
    <!-- whisker cap top -->
    <line class="whisker" x1="-20" y1="-340" x2="20" y2="-340" stroke="#F59E0B"/>
    <!-- whisker bottom: Q1→min -->
    <line class="whisker" x1="0" y1="-200" x2="0" y2="-140" stroke="#F59E0B"/>
    <!-- whisker cap bottom -->
    <line class="whisker" x1="-20" y1="-140" x2="20" y2="-140" stroke="#F59E0B"/>
    <!-- IQR box -->
    <g class="box-body">
      <rect x="-28" y="-296" width="56" height="96" rx="10" fill="#F59E0B" fill-opacity="0.85" id="boxr3"/>
      <line class="median" x1="-24" y1="-240" x2="24" y2="-240" stroke="#FFFBFE" id="med3"/>
    </g>
    <!-- outlier -->
    <circle class="outlier" id="out3" cx="0" cy="-128" r="5" fill="none" stroke="#F59E0B" stroke-width="2"/>
  </g>
  <!-- hover tooltip (absolute coords, outside animation group) -->
  <g class="bubble" transform="translate(310,172)">
    <rect x="-52" y="-80" width="104" height="76" rx="9" class="bub-bg"/>
    <path d="M-8,-4 L-43,-4 Q-52,-4 -52,-13 L-52,-71 Q-52,-80 -43,-80 L43,-80 Q52,-80 52,-71 L52,-13 Q52,-4 43,-4 L8,-4" class="bub-bdr"/>
    <path d="M8,-4 L0,10 L-8,-4" class="bub-tip"/>
    <text x="0" y="-62" text-anchor="middle" dominant-baseline="central" class="bub-val">$60M</text>
    <text x="0" y="-46" text-anchor="middle" dominant-baseline="central" class="bub-lbl">Median · Amber</text>
    <text x="0" y="-32" text-anchor="middle" dominant-baseline="central" class="bub-lbl">IQR $50–$74M</text>
    <text x="0" y="-18" text-anchor="middle" dominant-baseline="central" class="bub-lbl">Range $35–$85M</text>
  </g>
</g>

<!-- ══ Rose ══ -->
<g class="bw" id="bw4">
  <!-- animation group anchored at baseline -->
  <g id="box-anim-4" transform="translate(400,500)" style="opacity:0; transform-origin:400px 500px">
    <animateTransform attributeName="transform" type="scale" from="1,0" to="1,1" dur="1.20s" begin="0.36s" fill="freeze" calcMode="spline" keySplines="0.34,1.4,0.64,1" keyTimes="0;1"/>
    <animate attributeName="opacity" from="0" to="1" dur="0.45s" begin="0.36s" fill="freeze"/>
    <!-- whisker top: Q3→max -->
    <line class="whisker" x1="0" y1="-320" x2="0" y2="-272" stroke="#F43F5E"/>
    <!-- whisker cap top -->
    <line class="whisker" x1="-20" y1="-320" x2="20" y2="-320" stroke="#F43F5E"/>
    <!-- whisker bottom: Q1→min -->
    <line class="whisker" x1="0" y1="-184" x2="0" y2="-120" stroke="#F43F5E"/>
    <!-- whisker cap bottom -->
    <line class="whisker" x1="-20" y1="-120" x2="20" y2="-120" stroke="#F43F5E"/>
    <!-- IQR box -->
    <g class="box-body">
      <rect x="-28" y="-272" width="56" height="88" rx="10" fill="#F43F5E" fill-opacity="0.85" id="boxr4"/>
      <line class="median" x1="-24" y1="-220" x2="24" y2="-220" stroke="#FFFBFE" id="med4"/>
    </g>
    <!-- outlier -->
    <circle class="outlier" id="out4" cx="0" cy="-352" r="5" fill="none" stroke="#F43F5E" stroke-width="2"/>
  </g>
  <!-- hover tooltip (absolute coords, outside animation group) -->
  <g class="bubble" transform="translate(400,192)">
    <rect x="-50" y="-80" width="100" height="76" rx="9" class="bub-bg"/>
    <path d="M-8,-4 L-41,-4 Q-50,-4 -50,-13 L-50,-71 Q-50,-80 -41,-80 L41,-80 Q50,-80 50,-71 L50,-13 Q50,-4 41,-4 L8,-4" class="bub-bdr"/>
    <path d="M8,-4 L0,10 L-8,-4" class="bub-tip"/>
    <text x="0" y="-62" text-anchor="middle" dominant-baseline="central" class="bub-val">$55M</text>
    <text x="0" y="-46" text-anchor="middle" dominant-baseline="central" class="bub-lbl">Median · Rose</text>
    <text x="0" y="-32" text-anchor="middle" dominant-baseline="central" class="bub-lbl">IQR $46–$68M</text>
    <text x="0" y="-18" text-anchor="middle" dominant-baseline="central" class="bub-lbl">Range $30–$80M</text>
  </g>
</g>

<!-- ══ Violet ══ -->
<g class="bw" id="bw5">
  <!-- animation group anchored at baseline -->
  <g id="box-anim-5" transform="translate(490,500)" style="opacity:0; transform-origin:490px 500px">
    <animateTransform attributeName="transform" type="scale" from="1,0" to="1,1" dur="1.20s" begin="0.48s" fill="freeze" calcMode="spline" keySplines="0.34,1.4,0.64,1" keyTimes="0;1"/>
    <animate attributeName="opacity" from="0" to="1" dur="0.45s" begin="0.48s" fill="freeze"/>
    <!-- whisker top: Q3→max -->
    <line class="whisker" x1="0" y1="-400" x2="0" y2="-360" stroke="#8B5CF6"/>
    <!-- whisker cap top -->
    <line class="whisker" x1="-20" y1="-400" x2="20" y2="-400" stroke="#8B5CF6"/>
    <!-- whisker bottom: Q1→min -->
    <line class="whisker" x1="0" y1="-272" x2="0" y2="-220" stroke="#8B5CF6"/>
    <!-- whisker cap bottom -->
    <line class="whisker" x1="-20" y1="-220" x2="20" y2="-220" stroke="#8B5CF6"/>
    <!-- IQR box -->
    <g class="box-body">
      <rect x="-28" y="-360" width="56" height="88" rx="10" fill="#8B5CF6" fill-opacity="0.85" id="boxr5"/>
      <line class="median" x1="-24" y1="-316" x2="24" y2="-316" stroke="#FFFBFE" id="med5"/>
    </g>
    <!-- outlier -->
    <circle class="outlier" id="out5" cx="0" cy="-208" r="5" fill="none" stroke="#8B5CF6" stroke-width="2"/>
  </g>
  <!-- hover tooltip (absolute coords, outside animation group) -->
  <g class="bubble" transform="translate(490,118)">
    <rect x="-50" y="-80" width="100" height="76" rx="9" class="bub-bg"/>
    <path d="M-8,-4 L-41,-4 Q-50,-4 -50,-13 L-50,-71 Q-50,-80 -41,-80 L41,-80 Q50,-80 50,-71 L50,-13 Q50,-4 41,-4 L8,-4" class="bub-bdr"/>
    <path d="M8,-4 L0,10 L-8,-4" class="bub-tip"/>
    <text x="0" y="-62" text-anchor="middle" dominant-baseline="central" class="bub-val">$79M</text>
    <text x="0" y="-46" text-anchor="middle" dominant-baseline="central" class="bub-lbl">Median · Violet</text>
    <text x="0" y="-32" text-anchor="middle" dominant-baseline="central" class="bub-lbl">IQR $68–$90M</text>
    <text x="0" y="-18" text-anchor="middle" dominant-baseline="central" class="bub-lbl">Range $55–$100M</text>
  </g>
</g>

<!-- ══ Blue ══ -->
<g class="bw" id="bw6">
  <!-- animation group anchored at baseline -->
  <g id="box-anim-6" transform="translate(580,500)" style="opacity:0; transform-origin:580px 500px">
    <animateTransform attributeName="transform" type="scale" from="1,0" to="1,1" dur="1.20s" begin="0.60s" fill="freeze" calcMode="spline" keySplines="0.34,1.4,0.64,1" keyTimes="0;1"/>
    <animate attributeName="opacity" from="0" to="1" dur="0.45s" begin="0.60s" fill="freeze"/>
    <!-- whisker top: Q3→max -->
    <line class="whisker" x1="0" y1="-348" x2="0" y2="-304" stroke="#3B82F6"/>
    <!-- whisker cap top -->
    <line class="whisker" x1="-20" y1="-348" x2="20" y2="-348" stroke="#3B82F6"/>
    <!-- whisker bottom: Q1→min -->
    <line class="whisker" x1="0" y1="-220" x2="0" y2="-152" stroke="#3B82F6"/>
    <!-- whisker cap bottom -->
    <line class="whisker" x1="-20" y1="-152" x2="20" y2="-152" stroke="#3B82F6"/>
    <!-- IQR box -->
    <g class="box-body">
      <rect x="-28" y="-304" width="56" height="84" rx="10" fill="#3B82F6" fill-opacity="0.85" id="boxr6"/>
      <line class="median" x1="-24" y1="-256" x2="24" y2="-256" stroke="#FFFBFE" id="med6"/>
    </g>
    <!-- outlier -->
    <circle class="outlier" id="out6" cx="0" cy="-372" r="5" fill="none" stroke="#3B82F6" stroke-width="2"/>
  </g>
  <!-- hover tooltip (absolute coords, outside animation group) -->
  <g class="bubble" transform="translate(580,166)">
    <rect x="-48" y="-80" width="96" height="76" rx="9" class="bub-bg"/>
    <path d="M-8,-4 L-39,-4 Q-48,-4 -48,-13 L-48,-71 Q-48,-80 -39,-80 L39,-80 Q48,-80 48,-71 L48,-13 Q48,-4 39,-4 L8,-4" class="bub-bdr"/>
    <path d="M8,-4 L0,10 L-8,-4" class="bub-tip"/>
    <text x="0" y="-62" text-anchor="middle" dominant-baseline="central" class="bub-val">$64M</text>
    <text x="0" y="-46" text-anchor="middle" dominant-baseline="central" class="bub-lbl">Median · Blue</text>
    <text x="0" y="-32" text-anchor="middle" dominant-baseline="central" class="bub-lbl">IQR $55–$76M</text>
    <text x="0" y="-18" text-anchor="middle" dominant-baseline="central" class="bub-lbl">Range $38–$87M</text>
  </g>
</g>

<!-- ══ Teal ══ -->
<g class="bw" id="bw7">
  <!-- animation group anchored at baseline -->
  <g id="box-anim-7" transform="translate(670,500)" style="opacity:0; transform-origin:670px 500px">
    <animateTransform attributeName="transform" type="scale" from="1,0" to="1,1" dur="1.20s" begin="0.72s" fill="freeze" calcMode="spline" keySplines="0.34,1.4,0.64,1" keyTimes="0;1"/>
    <animate attributeName="opacity" from="0" to="1" dur="0.45s" begin="0.72s" fill="freeze"/>
    <!-- whisker top: Q3→max -->
    <line class="whisker" x1="0" y1="-332" x2="0" y2="-288" stroke="#0D9488"/>
    <!-- whisker cap top -->
    <line class="whisker" x1="-20" y1="-332" x2="20" y2="-332" stroke="#0D9488"/>
    <!-- whisker bottom: Q1→min -->
    <line class="whisker" x1="0" y1="-208" x2="0" y2="-144" stroke="#0D9488"/>
    <!-- whisker cap bottom -->
    <line class="whisker" x1="-20" y1="-144" x2="20" y2="-144" stroke="#0D9488"/>
    <!-- IQR box -->
    <g class="box-body">
      <rect x="-28" y="-288" width="56" height="80" rx="10" fill="#0D9488" fill-opacity="0.85" id="boxr7"/>
      <line class="median" x1="-24" y1="-244" x2="24" y2="-244" stroke="#FFFBFE" id="med7"/>
    </g>
    <!-- outlier -->
    <circle class="outlier" id="out7" cx="0" cy="-120" r="5" fill="none" stroke="#0D9488" stroke-width="2"/>
  </g>
  <!-- hover tooltip (absolute coords, outside animation group) -->
  <g class="bubble" transform="translate(670,180)">
    <rect x="-48" y="-80" width="96" height="76" rx="9" class="bub-bg"/>
    <path d="M-8,-4 L-39,-4 Q-48,-4 -48,-13 L-48,-71 Q-48,-80 -39,-80 L39,-80 Q48,-80 48,-71 L48,-13 Q48,-4 39,-4 L8,-4" class="bub-bdr"/>
    <path d="M8,-4 L0,10 L-8,-4" class="bub-tip"/>
    <text x="0" y="-62" text-anchor="middle" dominant-baseline="central" class="bub-val">$61M</text>
    <text x="0" y="-46" text-anchor="middle" dominant-baseline="central" class="bub-lbl">Median · Teal</text>
    <text x="0" y="-32" text-anchor="middle" dominant-baseline="central" class="bub-lbl">IQR $52–$72M</text>
    <text x="0" y="-18" text-anchor="middle" dominant-baseline="central" class="bub-lbl">Range $36–$83M</text>
  </g>
</g>

<!-- ══ Other ══ -->
<g class="bw" id="bw8">
  <!-- animation group anchored at baseline -->
  <g id="box-anim-8" transform="translate(760,500)" style="opacity:0; transform-origin:760px 500px">
    <animateTransform attributeName="transform" type="scale" from="1,0" to="1,1" dur="1.20s" begin="0.84s" fill="freeze" calcMode="spline" keySplines="0.34,1.4,0.64,1" keyTimes="0;1"/>
    <animate attributeName="opacity" from="0" to="1" dur="0.45s" begin="0.84s" fill="freeze"/>
    <!-- whisker top: Q3→max -->
    <line class="whisker" x1="0" y1="-272" x2="0" y2="-232" stroke="#64748B"/>
    <!-- whisker cap top -->
    <line class="whisker" x1="-20" y1="-272" x2="20" y2="-272" stroke="#64748B"/>
    <!-- whisker bottom: Q1→min -->
    <line class="whisker" x1="0" y1="-144" x2="0" y2="-88" stroke="#64748B"/>
    <!-- whisker cap bottom -->
    <line class="whisker" x1="-20" y1="-88" x2="20" y2="-88" stroke="#64748B"/>
    <!-- IQR box -->
    <g class="box-body">
      <rect x="-28" y="-232" width="56" height="88" rx="10" fill="#64748B" fill-opacity="0.85" id="boxr8"/>
      <line class="median" x1="-24" y1="-192" x2="24" y2="-192" stroke="#FFFBFE" id="med8"/>
    </g>
    <!-- outlier -->
    <circle class="outlier" id="out8" cx="0" cy="-288" r="5" fill="none" stroke="#64748B" stroke-width="2"/>
  </g>
  <!-- hover tooltip (absolute coords, outside animation group) -->
  <g class="bubble" transform="translate(760,242)">
    <rect x="-50" y="-80" width="100" height="76" rx="9" class="bub-bg"/>
    <path d="M-8,-4 L-41,-4 Q-50,-4 -50,-13 L-50,-71 Q-50,-80 -41,-80 L41,-80 Q50,-80 50,-71 L50,-13 Q50,-4 41,-4 L8,-4" class="bub-bdr"/>
    <path d="M8,-4 L0,10 L-8,-4" class="bub-tip"/>
    <text x="0" y="-62" text-anchor="middle" dominant-baseline="central" class="bub-val">$48M</text>
    <text x="0" y="-46" text-anchor="middle" dominant-baseline="central" class="bub-lbl">Median · Other</text>
    <text x="0" y="-32" text-anchor="middle" dominant-baseline="central" class="bub-lbl">IQR $36–$58M</text>
    <text x="0" y="-18" text-anchor="middle" dominant-baseline="central" class="bub-lbl">Range $22–$68M</text>
  </g>
</g>

</g><!-- end .ca -->

<!-- LEGEND -->
<rect x="870" y="100" width="210" height="420" rx="14" class="lgd-bg" stroke-width="1"/>
<text x="888" y="124" class="lgd-ttl">SERIES</text>

<!-- Legend entries with box plot mini-glyphs -->
<g transform="translate(888,140)">
  <rect x="0" y="2" width="14" height="10" rx="2" fill="#00D4E8" fill-opacity="0.85"/>
  <line x1="7" y1="0" x2="7" y2="2" stroke="#00D4E8" stroke-width="1.5"/>
  <line x1="7" y1="12" x2="7" y2="14" stroke="#00D4E8" stroke-width="1.5"/>
  <text x="22" y="11" class="lt">Cyan</text>
  <text x="188" y="11" class="lv lgd-val" text-anchor="end">$72M med</text>
</g>
<g transform="translate(888,170)">
  <rect x="0" y="2" width="14" height="10" rx="2" fill="#00B87A" fill-opacity="0.85"/>
  <line x1="7" y1="0" x2="7" y2="2" stroke="#00B87A" stroke-width="1.5"/>
  <line x1="7" y1="12" x2="7" y2="14" stroke="#00B87A" stroke-width="1.5"/>
  <text x="22" y="11" class="lt">Emerald</text>
  <text x="188" y="11" class="lv lgd-val" text-anchor="end">$68M med</text>
</g>
<g transform="translate(888,200)">
  <rect x="0" y="2" width="14" height="10" rx="2" fill="#F59E0B" fill-opacity="0.85"/>
  <line x1="7" y1="0" x2="7" y2="2" stroke="#F59E0B" stroke-width="1.5"/>
  <line x1="7" y1="12" x2="7" y2="14" stroke="#F59E0B" stroke-width="1.5"/>
  <text x="22" y="11" class="lt">Amber</text>
  <text x="188" y="11" class="lv lgd-val" text-anchor="end">$60M med</text>
</g>
<g transform="translate(888,230)">
  <rect x="0" y="2" width="14" height="10" rx="2" fill="#F43F5E" fill-opacity="0.85"/>
  <line x1="7" y1="0" x2="7" y2="2" stroke="#F43F5E" stroke-width="1.5"/>
  <line x1="7" y1="12" x2="7" y2="14" stroke="#F43F5E" stroke-width="1.5"/>
  <text x="22" y="11" class="lt">Rose</text>
  <text x="188" y="11" class="lv lgd-val" text-anchor="end">$55M med</text>
</g>
<g transform="translate(888,260)">
  <rect x="0" y="2" width="14" height="10" rx="2" fill="#8B5CF6" fill-opacity="0.85"/>
  <line x1="7" y1="0" x2="7" y2="2" stroke="#8B5CF6" stroke-width="1.5"/>
  <line x1="7" y1="12" x2="7" y2="14" stroke="#8B5CF6" stroke-width="1.5"/>
  <text x="22" y="11" class="lt">Violet</text>
  <text x="188" y="11" class="lv lgd-val" text-anchor="end">$79M med</text>
</g>
<g transform="translate(888,290)">
  <rect x="0" y="2" width="14" height="10" rx="2" fill="#3B82F6" fill-opacity="0.85"/>
  <line x1="7" y1="0" x2="7" y2="2" stroke="#3B82F6" stroke-width="1.5"/>
  <line x1="7" y1="12" x2="7" y2="14" stroke="#3B82F6" stroke-width="1.5"/>
  <text x="22" y="11" class="lt">Blue</text>
  <text x="188" y="11" class="lv lgd-val" text-anchor="end">$64M med</text>
</g>
<g transform="translate(888,320)">
  <rect x="0" y="2" width="14" height="10" rx="2" fill="#0D9488" fill-opacity="0.85"/>
  <line x1="7" y1="0" x2="7" y2="2" stroke="#0D9488" stroke-width="1.5"/>
  <line x1="7" y1="12" x2="7" y2="14" stroke="#0D9488" stroke-width="1.5"/>
  <text x="22" y="11" class="lt">Teal</text>
  <text x="188" y="11" class="lv lgd-val" text-anchor="end">$61M med</text>
</g>

<line x1="888" y1="352" x2="1062" y2="352" class="lgd-div"/>
<g transform="translate(888,364)">
  <rect x="0" y="2" width="14" height="10" rx="2" fill="#64748B" fill-opacity="0.85"/>
  <line x1="7" y1="0" x2="7" y2="2" stroke="#64748B" stroke-width="1.5"/>
  <line x1="7" y1="12" x2="7" y2="14" stroke="#64748B" stroke-width="1.5"/>
  <text x="22" y="11" class="lt">Other</text>
  <text x="188" y="11" class="lv lgd-val" text-anchor="end">$48M med</text>
</g>

<!-- Legend key -->
<line x1="888" y1="395" x2="1062" y2="395" class="lgd-div"/>
<text x="888" y="413" class="lgd-ttl">KEY</text>
<g transform="translate(888,422)">
  <!-- mini box -->
  <rect x="0" y="3" width="12" height="8" rx="2" fill="#79747E" fill-opacity="0.5"/>
  <line x1="6" y1="0" x2="6" y2="3" stroke="#79747E" stroke-width="1.5"/>
  <line x1="6" y1="11" x2="6" y2="14" stroke="#79747E" stroke-width="1.5"/>
  <line x1="2" y1="7" x2="10" y2="7" stroke="#FFFBFE" stroke-width="1.5"/>
  <text x="22" y="10" class="lt" style="font-size:9px">Box = IQR (Q1–Q3)</text>
</g>
<g transform="translate(888,444)">
  <line x1="0" y1="7" x2="12" y2="7" stroke="#79747E" stroke-width="1.5"/>
  <line x1="6" y1="0" x2="6" y2="5" stroke="#79747E" stroke-width="1.5"/>
  <line x1="6" y1="9" x2="6" y2="14" stroke="#79747E" stroke-width="1.5"/>
  <text x="22" y="10" class="lt" style="font-size:9px">Whiskers = Min/Max</text>
</g>
<g transform="translate(888,466)">
  <circle cx="6" cy="7" r="4" fill="none" stroke="#79747E" stroke-width="1.5"/>
  <text x="22" y="10" class="lt" style="font-size:9px">○ = Outlier</text>
</g>

<text x="68" y="600" class="footer">Revenue by Category · 7 series + Other · box plot distribution</text>

<script type="text/javascript"><![CDATA[
(function() {
  var svg = document.getElementById('root');

  /* ── Dark mode toggle ── */
  var isDark = false;

  var boxes = [
    { id:1, color:'#00D4E8', darkColor:'#22D3EE' },
    { id:2, color:'#00B87A', darkColor:'#10B981' },
    { id:3, color:'#F59E0B', darkColor:'#FBB724' },
    { id:4, color:'#F43F5E', darkColor:'#FB6181' },
    { id:5, color:'#8B5CF6', darkColor:'#A78BFA' },
    { id:6, color:'#3B82F6', darkColor:'#60A5FA' },
    { id:7, color:'#0D9488', darkColor:'#2DD4BF' },
    { id:8, color:'#64748B', darkColor:'#94A3B8' },
  ];

  function swapColors(dark) {
    boxes.forEach(function(b) {
      var box = document.getElementById('boxr' + b.id);
      var med = document.getElementById('med' + b.id);
      var out = document.getElementById('out' + b.id);
      var wc  = dark ? b.darkColor : b.color;
      if (box) box.setAttribute('fill', wc);
      if (out) out.setAttribute('stroke', wc);
      // whiskers — find by traversing; simpler: set via color matching
      var bw = document.getElementById('bw' + b.id);
      if (bw) {
        var lines = bw.querySelectorAll('line.whisker');
        lines.forEach(function(l) { l.setAttribute('stroke', wc); });
      }
    });
  }

  function setMode(wantDark) {
    if (wantDark === isDark) return;
    isDark = wantDark;
    var thumb = document.getElementById('tthumb');
    var lbl   = document.getElementById('tlabel');
    if (wantDark) {
      svg.classList.add('dark');
      if (thumb) thumb.setAttribute('cx', '52');
      if (lbl)   lbl.textContent = 'Light';
    } else {
      svg.classList.remove('dark');
      if (thumb) thumb.setAttribute('cx', '16');
      if (lbl)   lbl.textContent = 'Dark';
    }
    swapColors(wantDark);
  }

  document.getElementById('dark-toggle').addEventListener('click', function() {
    setMode(!isDark);
  });

  document.getElementById('print-toggle').addEventListener('click', function() {
    var thumb = document.getElementById('pthumb'), lbl = document.getElementById('plabel');
    if (svg.classList.toggle('print')) { thumb.setAttribute('cx','52'); lbl.textContent='Screen'; }
    else                               { thumb.setAttribute('cx','16'); lbl.textContent='Print';  }
  });

  window.setMode = setMode;
  window.addEventListener('message', function(e) {
    if (e.data && e.data.type === 'setMode') setMode(e.data.dark);
  });

  (function() {
    var href = window.location.href;
    setMode(href.indexOf('theme=dark') !== -1);
  })();
})();
]]></script>
</svg>
