<svg id="root" viewBox="0 0 1100 620" width="100%" height="100%" preserveAspectRatio="xMidYMid meet" xmlns="http://www.w3.org/2000/svg" font-family="'Inter','Helvetica Neue',Arial,sans-serif">
<defs>
  <!-- Light Mode Gradients -->
  <linearGradient id="g1"><stop offset="0%" stop-color="#00D4E8"/></linearGradient>
  <linearGradient id="g2"><stop offset="0%" stop-color="#00B87A"/></linearGradient>
  <linearGradient id="g3"><stop offset="0%" stop-color="#F59E0B"/></linearGradient>
  <linearGradient id="g4"><stop offset="0%" stop-color="#F43F5E"/></linearGradient>
  <linearGradient id="g5"><stop offset="0%" stop-color="#8B5CF6"/></linearGradient>
  <linearGradient id="g6"><stop offset="0%" stop-color="#3B82F6"/></linearGradient>
  <linearGradient id="g7"><stop offset="0%" stop-color="#0D9488"/></linearGradient>
  <linearGradient id="goth"><stop offset="0%" stop-color="#64748B"/></linearGradient>

  <!-- Dark Mode Gradients -->
  <linearGradient id="g1d"><stop offset="0%" stop-color="#22D3EE"/></linearGradient>
  <linearGradient id="g2d"><stop offset="0%" stop-color="#10B981"/></linearGradient>
  <linearGradient id="g3d"><stop offset="0%" stop-color="#FBB724"/></linearGradient>
  <linearGradient id="g4d"><stop offset="0%" stop-color="#FB6181"/></linearGradient>
  <linearGradient id="g5d"><stop offset="0%" stop-color="#A78BFA"/></linearGradient>
  <linearGradient id="g6d"><stop offset="0%" stop-color="#60A5FA"/></linearGradient>
  <linearGradient id="g7d"><stop offset="0%" stop-color="#2DD4BF"/></linearGradient>
  <linearGradient id="gothd"><stop offset="0%" stop-color="#94A3B8"/></linearGradient>

  <!-- Legend Swatch Gradients -->
  <linearGradient id="c1"><stop offset="0%" stop-color="#00D4E8"/></linearGradient>
  <linearGradient id="c2"><stop offset="0%" stop-color="#00B87A"/></linearGradient>
  <linearGradient id="c3"><stop offset="0%" stop-color="#F59E0B"/></linearGradient>
  <linearGradient id="c4"><stop offset="0%" stop-color="#F43F5E"/></linearGradient>
  <linearGradient id="c5"><stop offset="0%" stop-color="#8B5CF6"/></linearGradient>
  <linearGradient id="c6"><stop offset="0%" stop-color="#3B82F6"/></linearGradient>
  <linearGradient id="c7"><stop offset="0%" stop-color="#0D9488"/></linearGradient>
  <linearGradient id="coth"><stop offset="0%" stop-color="#64748B"/></linearGradient>

  <style>
    @import url('https://fonts.googleapis.com/css2?family=Inter:wght@400;500;600&amp;display=swap');
    .bg-main   { fill:#FFFBFE; }
    .ct        { font-size:18px; font-weight:500; fill:#1C1B1F; letter-spacing:-0.2px; }
    .cs        { font-size:11px; fill:#79747E; }
    .an        { font-size:10px; fill:#79747E; }
    .ax        { font-size:10px; fill:#49454F; font-weight:500; }
    .lt        { font-size:11px; fill:#1C1B1F; }
    .lv        { font-size:11px; fill:#1C1B1F; font-weight:500; }
    .gl        { stroke:#E7E0EC; stroke-width:1; fill:none; }
    .bl        { stroke:#79747E; stroke-width:1.5; fill:none; }
    .lgd-bg    { fill:#E7E0EC; stroke:#79747E; stroke-width:0.5; }
    .lgd-div   { stroke:#79747E; stroke-width:0.5; opacity:0.3; }
    .lgd-ttl   { font-size:10px; fill:#79747E; font-weight:500; }
    .footer    { font-size:10px; fill:#79747E; }
    .t-wrap    { cursor:pointer; }
    .t-track   { fill:#E7E0EC; }
    .t-thumb   { fill:#ffffff; }
    .t-label   { font-size:11px; font-weight:500; fill:#49454F; }
    .pt-track  { fill:#E7E0EC; transition:fill 0.3s; }

    /* Interaction Logic */
    .bw        { cursor:pointer; }
    .bb        { transition:opacity 0.25s ease; }
    
    /* Only dim if the parent 'ca' has the 'dimming' class (added via JS on bubble hover) */
    .ca.dimming .bb { opacity: 0.20 !important; }
    .bw:hover .bb   { opacity: 1.0 !important; }

    /* Tooltip styling */
    .bubble    { opacity:0; pointer-events:none; transition:opacity 0.15s ease; }
    .bw:hover .bubble { opacity:1; }
    .bub-bg    { fill:#FFFBFE; }
    .bub-bdr   { fill:none; stroke:#79747E; stroke-width:1; }
    .bub-val   { fill:#1C1B1F; font-size:13px; font-weight:600; }
    .bub-lbl   { fill:#49454F; font-size:10px; }

    /* Dark Mode Overrides */
    svg.dark .bg-main { fill:#1C1B1F; }
    svg.dark .ct { fill:#E6E0E9; }
    svg.dark .ax, svg.dark .an, svg.dark .cs { fill:#938F99; }
    svg.dark .lt, svg.dark .lv { fill:#E6E0E9; }
    svg.dark .gl { stroke:#49454F; }
    svg.dark .lgd-bg { fill:#49454F; stroke:#938F99; }
    svg.dark .bub-bg { fill:#1C1B1F; }
    svg.dark .bub-bdr { stroke:#938F99; }
    svg.dark .bub-val { fill:#E6E0E9; }
    svg.dark .bub-lbl { fill:#CAC4D0; }
    svg.dark .t-track, svg.dark .pt-track { fill:#49454F; }
    svg.dark .t-label { fill:#CAC4D0; }

    .lgd-val   { opacity:0; transition:opacity 0.2s; }
    svg.print .lgd-val { opacity:1; }
    .border-dark { display:none; }
    svg.dark .border-dark { display:block; }
    svg.dark .border-light { display:none; }
  </style>
</defs>

<rect class="bg-main" width="1100" height="620" rx="18"/>
<g class="border-light"><rect x="0.75" y="0.75" width="1098.5" height="618.5" rx="17.5" fill="none" stroke="rgba(0,0,0,0.1)" stroke-width="1.5"/></g>
<g class="border-dark"><rect x="0.75" y="0.75" width="1098.5" height="618.5" rx="17.5" fill="none" stroke="rgba(0,242,255,0.2)" stroke-width="1.5"/></g>

<text x="68" y="50" class="ct">Revenue vs Growth by Category</text>
<text x="68" y="70" class="cs">Hover over a bubble to dim others</text>

<!-- Toggles -->
<g class="t-wrap" id="dark-toggle" transform="translate(930,52)">
  <rect x="0" y="-13" width="68" height="26" rx="13" class="t-track"/>
  <circle id="tthumb" cx="52" cy="0" r="10" class="t-thumb"/>
  <text id="tlabel" x="44" y="4" class="t-label" text-anchor="middle">Light</text>
</g>
<g class="t-wrap" id="print-toggle" transform="translate(1012,52)">
  <rect x="0" y="-13" width="68" height="26" rx="13" class="pt-track"/>
  <circle id="pthumb" cx="16" cy="0" r="10" class="pt-thumb"/>
  <text id="plabel" x="44" y="4" class="pt-label" text-anchor="middle">Print</text>
</g>

<!-- Grid -->
<g id="grid">
  <line x1="68" y1="500" x2="820" y2="500" class="bl"/><line x1="68" y1="100" x2="68" y2="500" class="bl"/>
  <line x1="68" y1="420" x2="820" y2="420" class="gl"/><line x1="68" y1="340" x2="820" y2="340" class="gl"/>
  <line x1="68" y1="260" x2="820" y2="260" class="gl"/><line x1="68" y1="180" x2="820" y2="180" class="gl"/>
  <line x1="68" y1="100" x2="820" y2="100" class="gl"/>
  <line x1="218" y1="100" x2="218" y2="500" class="gl"/><line x1="368" y1="100" x2="368" y2="500" class="gl"/>
  <line x1="518" y1="100" x2="518" y2="500" class="gl"/><line x1="668" y1="100" x2="668" y2="500" class="gl"/>
  <line x1="818" y1="100" x2="818" y2="500" class="gl"/>
</g>

<g class="ca" id="chart-area">
  <!-- Bubbles (1-8) -->
  <g class="bw"><g class="bb" style="opacity:0"><animate attributeName="opacity" from="0" to="1" dur="0.4s" fill="freeze"/><circle id="bubble-1" cx="609" cy="196" r="28" fill="url(#g1)"/></g>
    <g class="bubble" transform="translate(609,156)"><rect x="-34" y="-44" width="68" height="38" rx="9" class="bub-bg"/><path d="M-8,-6 L-25,-6 Q-34,-6 -34,-15 L-34,-35 Q-34,-44 -25,-44 L25,-44 Q34,-44 34,-35 L34,-15 Q34,-6 25,-6 L8,-6 L0,8 Z" class="bub-bdr"/><text x="0" y="-32" text-anchor="middle" class="bub-val">$72M</text><text x="0" y="-16" text-anchor="middle" class="bub-lbl">Cyan · 38%</text></g>
  </g>
  <g class="bw"><g class="bb" style="opacity:0"><animate attributeName="opacity" from="0" to="1" dur="0.4s" begin="0.1s" fill="freeze"/><circle id="bubble-2" cx="579" cy="324" r="26" fill="url(#g2)"/></g>
    <g class="bubble" transform="translate(579,284)"><rect x="-40" y="-44" width="80" height="38" rx="9" class="bub-bg"/><path d="M-8,-6 L-31,-6 Q-40,-6 -40,-15 L-40,-35 Q-40,-44 -31,-44 L31,-44 Q40,-44 40,-35 L40,-15 Q40,-6 31,-6 L8,-6 L0,8 Z" class="bub-bdr"/><text x="0" y="-32" text-anchor="middle" class="bub-val">$68M</text><text x="0" y="-16" text-anchor="middle" class="bub-lbl">Emerald · 22%</text></g>
  </g>
  <g class="bw"><g class="bb" style="opacity:0"><animate attributeName="opacity" from="0" to="1" dur="0.4s" begin="0.2s" fill="freeze"/><circle id="bubble-3" cx="519" cy="148" r="24" fill="url(#g3)"/></g>
    <g class="bubble" transform="translate(519,112)"><rect x="-34" y="-44" width="68" height="38" rx="9" class="bub-bg"/><path d="M-8,-6 L-25,-6 Q-34,-6 -34,-15 L-34,-35 Q-34,-44 -25,-44 L25,-44 Q34,-44 34,-35 L34,-15 Q34,-6 25,-6 L8,-6 L0,8 Z" class="bub-bdr"/><text x="0" y="-32" text-anchor="middle" class="bub-val">$60M</text><text x="0" y="-16" text-anchor="middle" class="bub-lbl">Amber · 44%</text></g>
  </g>
  <g class="bw"><g class="bb" style="opacity:0"><animate attributeName="opacity" from="0" to="1" dur="0.4s" begin="0.3s" fill="freeze"/><circle id="bubble-4" cx="482" cy="380" r="22" fill="url(#g4)"/></g>
    <g class="bubble" transform="translate(482,346)"><rect x="-34" y="-44" width="68" height="38" rx="9" class="bub-bg"/><path d="M-8,-6 L-25,-6 Q-34,-6 -34,-15 L-34,-35 Q-34,-44 -25,-44 L25,-44 Q34,-44 34,-35 L34,-15 Q34,-6 25,-6 L8,-6 L0,8 Z" class="bub-bdr"/><text x="0" y="-32" text-anchor="middle" class="bub-val">$55M</text><text x="0" y="-16" text-anchor="middle" class="bub-lbl">Rose · 15%</text></g>
  </g>
  <g class="bw"><g class="bb" style="opacity:0"><animate attributeName="opacity" from="0" to="1" dur="0.4s" begin="0.4s" fill="freeze"/><circle id="bubble-5" cx="661" cy="252" r="32" fill="url(#g5)"/></g>
    <g class="bubble" transform="translate(661,208)"><rect x="-34" y="-44" width="68" height="38" rx="9" class="bub-bg"/><path d="M-8,-6 L-25,-6 Q-34,-6 -34,-15 L-34,-35 Q-34,-44 -25,-44 L25,-44 Q34,-44 34,-35 L34,-15 Q34,-6 25,-6 L8,-6 L0,8 Z" class="bub-bdr"/><text x="0" y="-32" text-anchor="middle" class="bub-val">$79M</text><text x="0" y="-16" text-anchor="middle" class="bub-lbl">Violet · 31%</text></g>
  </g>
  <g class="bw"><g class="bb" style="opacity:0"><animate attributeName="opacity" from="0" to="1" dur="0.4s" begin="0.5s" fill="freeze"/><circle id="bubble-6" cx="549" cy="284" r="25" fill="url(#g6)"/></g>
    <g class="bubble" transform="translate(549,247)"><rect x="-34" y="-44" width="68" height="38" rx="9" class="bub-bg"/><path d="M-8,-6 L-25,-6 Q-34,-6 -34,-15 L-34,-35 Q-34,-44 -25,-44 L25,-44 Q34,-44 34,-35 L34,-15 Q34,-6 25,-6 L8,-6 L0,8 Z" class="bub-bdr"/><text x="0" y="-32" text-anchor="middle" class="bub-val">$64M</text><text x="0" y="-16" text-anchor="middle" class="bub-lbl">Blue · 27%</text></g>
  </g>
  <g class="bw"><g class="bb" style="opacity:0"><animate attributeName="opacity" from="0" to="1" dur="0.4s" begin="0.6s" fill="freeze"/><circle id="bubble-7" cx="527" cy="164" r="24" fill="url(#g7)"/></g>
    <g class="bubble" transform="translate(527,128)"><rect x="-34" y="-44" width="68" height="38" rx="9" class="bub-bg"/><path d="M-8,-6 L-25,-6 Q-34,-6 -34,-15 L-34,-35 Q-34,-44 -25,-44 L25,-44 Q34,-44 34,-35 L34,-15 Q34,-6 25,-6 L8,-6 L0,8 Z" class="bub-bdr"/><text x="0" y="-32" text-anchor="middle" class="bub-val">$61M</text><text x="0" y="-16" text-anchor="middle" class="bub-lbl">Teal · 42%</text></g>
  </g>
  <g class="bw"><g class="bb" style="opacity:0"><animate attributeName="opacity" from="0" to="1" dur="0.4s" begin="0.7s" fill="freeze"/><circle id="bubble-8" cx="429" cy="404" r="19" fill="url(#goth)"/></g>
    <g class="bubble" transform="translate(429,373)"><rect x="-38" y="-44" width="76" height="38" rx="9" class="bub-bg"/><path d="M-8,-6 L-29,-6 Q-38,-6 -38,-15 L-38,-35 Q-38,-44 -29,-44 L29,-44 Q38,-44 38,-35 L38,-15 Q38,-6 29,-6 L8,-6 L0,8 Z" class="bub-bdr"/><text x="0" y="-32" text-anchor="middle" class="bub-val">$48M</text><text x="0" y="-16" text-anchor="middle" class="bub-lbl">Other · 12%</text></g>
  </g>
</g>

<!-- Legend -->
<rect x="848" y="100" width="224" height="390" rx="14" class="lgd-bg"/>
<text x="866" y="124" class="lgd-ttl">SERIES</text>
<g transform="translate(866,140)"><rect width="14" height="14" rx="3" fill="url(#c1)"/><text x="22" y="11" class="lt">Cyan</text><text x="200" y="11" class="lv lgd-val" text-anchor="end">$72M · 38%</text></g>
<g transform="translate(866,170)"><rect width="14" height="14" rx="3" fill="url(#c2)"/><text x="22" y="11" class="lt">Emerald</text><text x="200" y="11" class="lv lgd-val" text-anchor="end">$68M · 22%</text></g>
<g transform="translate(866,200)"><rect width="14" height="14" rx="3" fill="url(#c3)"/><text x="22" y="11" class="lt">Amber</text><text x="200" y="11" class="lv lgd-val" text-anchor="end">$60M · 44%</text></g>
<g transform="translate(866,230)"><rect width="14" height="14" rx="3" fill="url(#c4)"/><text x="22" y="11" class="lt">Rose</text><text x="200" y="11" class="lv lgd-val" text-anchor="end">$55M · 15%</text></g>
<g transform="translate(866,260)"><rect width="14" height="14" rx="3" fill="url(#c5)"/><text x="22" y="11" class="lt">Violet</text><text x="200" y="11" class="lv lgd-val" text-anchor="end">$79M · 31%</text></g>
<g transform="translate(866,290)"><rect width="14" height="14" rx="3" fill="url(#c6)"/><text x="22" y="11" class="lt">Blue</text><text x="200" y="11" class="lv lgd-val" text-anchor="end">$64M · 27%</text></g>
<g transform="translate(866,320)"><rect width="14" height="14" rx="3" fill="url(#c7)"/><text x="22" y="11" class="lt">Teal</text><text x="200" y="11" class="lv lgd-val" text-anchor="end">$61M · 42%</text></g>
<line x1="866" y1="352" x2="1054" y2="352" class="lgd-div"/>
<g transform="translate(866,364)"><rect width="14" height="14" rx="3" fill="url(#coth)"/><text x="22" y="11" class="lt">Other</text><text x="200" y="11" class="lv lgd-val" text-anchor="end">$48M · 12%</text></g>

<text x="68" y="580" class="footer">Bubble size ∝ market share · Swatches &amp; tooltips restored</text>

<script type="text/javascript"><![CDATA[
(function() {
  var svg = document.getElementById('root');
  var chartArea = document.getElementById('chart-area');
  var items = [
    {id:1, light:'g1', dark:'g1d'}, {id:2, light:'g2', dark:'g2d'},
    {id:3, light:'g3', dark:'g3d'}, {id:4, light:'g4', dark:'g4d'},
    {id:5, light:'g5', dark:'g5d'}, {id:6, light:'g6', dark:'g6d'},
    {id:7, light:'g7', dark:'g7d'}, {id:8, light:'goth', dark:'gothd'}
  ];

  // Logic to only trigger dimming when HOVERING A BUBBLE
  var bubbleGroups = svg.querySelectorAll('.bw');
  bubbleGroups.forEach(function(g) {
    g.addEventListener('mouseenter', function() { chartArea.classList.add('dimming'); });
    g.addEventListener('mouseleave', function() { chartArea.classList.remove('dimming'); });
  });

  function swapColors(dark) {
    items.forEach(function(b) {
      var el = document.getElementById('bubble-' + b.id);
      if (el) el.setAttribute('fill', 'url(#' + (dark ? b.dark : b.light) + ')');
    });
  }

  function setMode(wantDark) {
    var thumb = document.getElementById('tthumb'), lbl = document.getElementById('tlabel');
    if (wantDark) { svg.classList.add('dark'); thumb.setAttribute('cx','52'); lbl.textContent='Light'; }
    else { svg.classList.remove('dark'); thumb.setAttribute('cx','16'); lbl.textContent='Dark'; }
    swapColors(wantDark);
  }

  document.getElementById('dark-toggle').addEventListener('click', function() { setMode(!svg.classList.contains('dark')); });
  document.getElementById('print-toggle').addEventListener('click', function() {
    var thumb = document.getElementById('pthumb'), lbl = document.getElementById('plabel');
    if (svg.classList.toggle('print')) { thumb.setAttribute('cx','52'); lbl.textContent='Screen'; }
    else { thumb.setAttribute('cx','16'); lbl.textContent='Print'; }
  });
  
  window.setMode = setMode;
  window.addEventListener('message', function(e) { if (e.data && e.data.type === 'setMode') setMode(e.data.dark); });
  (function() { setMode(window.location.href.indexOf('theme=dark') !== -1); })();
})();
]]></script>
</svg>