<svg id="root" viewBox="0 0 1100 620" width="100%" height="100%" preserveAspectRatio="xMidYMid meet" xmlns="http://www.w3.org/2000/svg" font-family="'Inter','Helvetica Neue',Arial,sans-serif">
<defs>
  <style>
    @import url('https://fonts.googleapis.com/css2?family=Inter:wght@400;500;600&amp;display=swap');
    .card-bg        { fill:#FFFBFE; filter:drop-shadow(0 1px 2px rgba(0,0,0,0.10)); }
    .card-title     { font-size:18px; font-weight:500; fill:#1C1B1F; letter-spacing:-0.2px; }
    .card-subtitle  { font-size:11px; fill:#79747E; }
    .tick-label     { font-size:10px; fill:#79747E; }
    .legend-label   { font-size:11px; fill:#1C1B1F; }
    .grid-line      { stroke:#E7E0EC; stroke-width:1; fill:none; }
    .axis-line      { stroke:#79747E; stroke-width:1.5; fill:none; }
    .legend-bg      { fill:#E7E0EC; stroke:#79747E; stroke-width:0.5; }
    .legend-divider { stroke:#79747E; stroke-width:0.5; opacity:0.3; }
    .legend-title   { font-size:10px; fill:#79747E; font-weight:500; }
    .footer         { font-size:10px; fill:#79747E; }
    .toggle-wrap    { cursor:pointer; }
    .toggle-track   { fill:#E7E0EC; }
    .toggle-thumb   { fill:#ffffff; }
    .toggle-label   { font-size:11px; font-weight:500; fill:#49454F; }
    .print-track    { fill:#E7E0EC; transition:fill 0.3s; }
    .print-thumb    { fill:#ffffff; }
    .print-label    { font-size:11px; font-weight:500; fill:#49454F; }
    .legend-value   { font-size:11px; fill:#1C1B1F; font-weight:500; opacity:0; transition:opacity 0.2s; }
    svg.print .legend-value { opacity:1; }

    /* Standard palette */
    .series-1 { fill:#00D4E8; stroke:#00D4E8; } .series-2 { fill:#00B87A; stroke:#00B87A; }
    .series-3 { fill:#F59E0B; stroke:#F59E0B; } .series-4 { fill:#F43F5E; stroke:#F43F5E; }
    .series-5 { fill:#8B5CF6; stroke:#8B5CF6; } .series-6 { fill:#3B82F6; stroke:#3B82F6; }
    .series-7 { fill:#0D9488; stroke:#0D9488; } .series-8 { fill:#64748B; stroke:#64748B; }

    svg.dark .series-1 { fill:#22D3EE; stroke:#22D3EE; } svg.dark .series-2 { fill:#10B981; stroke:#10B981; }
    svg.dark .series-3 { fill:#FBB724; stroke:#FBB724; } svg.dark .series-4 { fill:#FB6181; stroke:#FB6181; }
    svg.dark .series-5 { fill:#A78BFA; stroke:#A78BFA; } svg.dark .series-6 { fill:#60A5FA; stroke:#60A5FA; }
    svg.dark .series-7 { fill:#2DD4BF; stroke:#2DD4BF; } svg.dark .series-8 { fill:#94A3B8; stroke:#94A3B8; }

    /* Standard animation — rAF driven, no SMIL */
    .bub-g { opacity:0; }

    /* Hover */
    .data-item        { cursor:pointer; }
    .data-tip         { opacity:0; pointer-events:none; transition:opacity 0.2s ease; }
    .data-item.active .data-tip { opacity:1; }
    .data-layer.ready.hovering .data-item        { opacity:0.20; transition:opacity 0.2s ease; }
    .data-layer.ready.hovering .data-item.active { opacity:1; }
    svg.print .data-tip { opacity:0 !important; }

    .tip-bg     { fill:#FFFBFE; }
    .tip-border { fill:#FFFBFE; stroke:#79747E; stroke-width:1; }
    .tip-tail   { fill:#FFFBFE; stroke:#79747E; stroke-width:1; }
    .tip-value  { fill:#1C1B1F; font-size:13px; font-weight:600; }
    .tip-label  { fill:#49454F; font-size:10px; }

    svg.dark .card-bg        { fill:#1C1B1F; filter:drop-shadow(0 1px 4px rgba(0,0,0,0.25)); }
    svg.dark .card-title     { fill:#E6E0E9; }
    svg.dark .tick-label, svg.dark .card-subtitle { fill:#938F99; }
    svg.dark .legend-label, svg.dark .legend-value { fill:#E6E0E9; }
    svg.dark .grid-line      { stroke:#49454F; }
    svg.dark .axis-line      { stroke:#938F99; }
    svg.dark .legend-bg      { fill:#49454F; stroke:#938F99; }
    svg.dark .legend-divider { stroke:#938F99; }
    svg.dark .legend-title   { fill:#938F99; }
    svg.dark .footer         { fill:#938F99; }
    svg.dark .tip-bg         { fill:#1C1B1F; }
    svg.dark .tip-border     { fill:#1C1B1F; stroke:#938F99; }
    svg.dark .tip-tail       { fill:#1C1B1F; stroke:#938F99; stroke-width:1; }
    svg.dark .tip-value      { fill:#E6E0E9; }
    svg.dark .tip-label      { fill:#CAC4D0; }
    svg.dark .toggle-track, svg.dark .print-track { fill:#49454F; }
    svg.dark .toggle-label, svg.dark .print-label { fill:#CAC4D0; }
    .border-dark  { display:none; }
    .border-light { display:block; }
    svg.dark .border-dark  { display:block; }
    svg.dark .border-light { display:none; }
  </style>
</defs>

<rect class="card-bg" width="1100" height="620" rx="18"/>
<g class="border-light"><rect x="0.75" y="0.75" width="1098.5" height="618.5" rx="17.5" fill="none" stroke="rgba(0,0,0,0.1)" stroke-width="1.5"/></g>
<g class="border-dark"><rect x="0.75" y="0.75" width="1098.5" height="618.5" rx="17.5" fill="none" stroke="rgba(0,242,255,0.2)" stroke-width="1.5"/></g>

<text x="68" y="50" class="card-title">Revenue vs Growth by Category - Bubble/Point</text>
<text x="68" y="70" class="card-subtitle">Bubble size ∝ market share · hover to inspect</text>

<g class="toggle-wrap" id="dark-toggle" transform="translate(930,52)">
  <rect x="0" y="-13" width="68" height="26" rx="13" class="toggle-track"/>
  <circle id="tthumb" cx="16" cy="0" r="10" class="toggle-thumb"/>
  <text id="tlabel" x="44" y="4" class="toggle-label" text-anchor="middle">Dark</text>
</g>
<g class="toggle-wrap" id="print-toggle" transform="translate(1012,52)">
  <rect x="0" y="-13" width="68" height="26" rx="13" class="print-track"/>
  <circle id="pthumb" cx="16" cy="0" r="10" class="print-thumb"/>
  <text id="plabel" x="44" y="4" class="print-label" text-anchor="middle">Print</text>
</g>

<line x1="68" y1="500" x2="820" y2="500" class="axis-line"/>
<line x1="68" y1="100" x2="68"  y2="500" class="axis-line"/>
<line x1="68" y1="420" x2="820" y2="420" class="grid-line"/>
<line x1="68" y1="340" x2="820" y2="340" class="grid-line"/>
<line x1="68" y1="260" x2="820" y2="260" class="grid-line"/>
<line x1="68" y1="180" x2="820" y2="180" class="grid-line"/>
<line x1="68" y1="100" x2="820" y2="100" class="grid-line"/>
<line x1="218" y1="100" x2="218" y2="500" class="grid-line"/>
<line x1="368" y1="100" x2="368" y2="500" class="grid-line"/>
<line x1="518" y1="100" x2="518" y2="500" class="grid-line"/>
<line x1="668" y1="100" x2="668" y2="500" class="grid-line"/>
<line x1="818" y1="100" x2="818" y2="500" class="grid-line"/>

<g class="data-layer" id="chart-area">

  <g class="data-item" id="bw1">
    <g class="bub-g" id="bg1">
      <circle class="series-1" cx="609" cy="196" r="28" style="stroke:none"/>
    </g>
    <g class="data-tip" transform="translate(609,156)">
      <rect x="-34" y="-44" width="68" height="38" rx="9" class="tip-bg"/>
      <path d="M8,-6 L25,-6 Q34,-6 34,-15 L34,-44 Q34,-53 25,-53 L-25,-53 Q-34,-53 -34,-44 L-34,-15 Q-34,-6 -25,-6 L-8,-6" class="tip-border"/>
      <path d="M-8,-6 L0,8 L8,-6" class="tip-tail"/>
      <text x="0" y="-32" text-anchor="middle" class="tip-value">$72M</text>
      <text x="0" y="-16" text-anchor="middle" class="tip-label">Cyan · 38%</text>
    </g>
  </g>

  <g class="data-item" id="bw2">
    <g class="bub-g" id="bg2">
      <circle class="series-2" cx="579" cy="324" r="26" style="stroke:none"/>
    </g>
    <g class="data-tip" transform="translate(579,284)">
      <rect x="-40" y="-44" width="80" height="38" rx="9" class="tip-bg"/>
      <path d="M8,-6 L31,-6 Q40,-6 40,-15 L40,-44 Q40,-53 31,-53 L-31,-53 Q-40,-53 -40,-44 L-40,-15 Q-40,-6 -31,-6 L-8,-6" class="tip-border"/>
      <path d="M-8,-6 L0,8 L8,-6" class="tip-tail"/>
      <text x="0" y="-32" text-anchor="middle" class="tip-value">$68M</text>
      <text x="0" y="-16" text-anchor="middle" class="tip-label">Emerald · 22%</text>
    </g>
  </g>

  <g class="data-item" id="bw3">
    <g class="bub-g" id="bg3">
      <circle class="series-3" cx="519" cy="148" r="24" style="stroke:none"/>
    </g>
    <g class="data-tip" transform="translate(519,112)">
      <rect x="-34" y="-44" width="68" height="38" rx="9" class="tip-bg"/>
      <path d="M8,-6 L25,-6 Q34,-6 34,-15 L34,-44 Q34,-53 25,-53 L-25,-53 Q-34,-53 -34,-44 L-34,-15 Q-34,-6 -25,-6 L-8,-6" class="tip-border"/>
      <path d="M-8,-6 L0,8 L8,-6" class="tip-tail"/>
      <text x="0" y="-32" text-anchor="middle" class="tip-value">$60M</text>
      <text x="0" y="-16" text-anchor="middle" class="tip-label">Amber · 44%</text>
    </g>
  </g>

  <g class="data-item" id="bw4">
    <g class="bub-g" id="bg4">
      <circle class="series-4" cx="482" cy="380" r="22" style="stroke:none"/>
    </g>
    <g class="data-tip" transform="translate(482,346)">
      <rect x="-34" y="-44" width="68" height="38" rx="9" class="tip-bg"/>
      <path d="M8,-6 L25,-6 Q34,-6 34,-15 L34,-44 Q34,-53 25,-53 L-25,-53 Q-34,-53 -34,-44 L-34,-15 Q-34,-6 -25,-6 L-8,-6" class="tip-border"/>
      <path d="M-8,-6 L0,8 L8,-6" class="tip-tail"/>
      <text x="0" y="-32" text-anchor="middle" class="tip-value">$55M</text>
      <text x="0" y="-16" text-anchor="middle" class="tip-label">Rose · 15%</text>
    </g>
  </g>

  <g class="data-item" id="bw5">
    <g class="bub-g" id="bg5">
      <circle class="series-5" cx="661" cy="252" r="32" style="stroke:none"/>
    </g>
    <g class="data-tip" transform="translate(661,208)">
      <rect x="-34" y="-44" width="68" height="38" rx="9" class="tip-bg"/>
      <path d="M8,-6 L25,-6 Q34,-6 34,-15 L34,-44 Q34,-53 25,-53 L-25,-53 Q-34,-53 -34,-44 L-34,-15 Q-34,-6 -25,-6 L-8,-6" class="tip-border"/>
      <path d="M-8,-6 L0,8 L8,-6" class="tip-tail"/>
      <text x="0" y="-32" text-anchor="middle" class="tip-value">$79M</text>
      <text x="0" y="-16" text-anchor="middle" class="tip-label">Violet · 31%</text>
    </g>
  </g>

  <g class="data-item" id="bw6">
    <g class="bub-g" id="bg6">
      <circle class="series-6" cx="549" cy="284" r="25" style="stroke:none"/>
    </g>
    <g class="data-tip" transform="translate(549,247)">
      <rect x="-34" y="-44" width="68" height="38" rx="9" class="tip-bg"/>
      <path d="M8,-6 L25,-6 Q34,-6 34,-15 L34,-44 Q34,-53 25,-53 L-25,-53 Q-34,-53 -34,-44 L-34,-15 Q-34,-6 -25,-6 L-8,-6" class="tip-border"/>
      <path d="M-8,-6 L0,8 L8,-6" class="tip-tail"/>
      <text x="0" y="-32" text-anchor="middle" class="tip-value">$64M</text>
      <text x="0" y="-16" text-anchor="middle" class="tip-label">Blue · 27%</text>
    </g>
  </g>

  <g class="data-item" id="bw7">
    <g class="bub-g" id="bg7">
      <circle class="series-7" cx="527" cy="164" r="24" style="stroke:none"/>
    </g>
    <g class="data-tip" transform="translate(527,128)">
      <rect x="-34" y="-44" width="68" height="38" rx="9" class="tip-bg"/>
      <path d="M8,-6 L25,-6 Q34,-6 34,-15 L34,-44 Q34,-53 25,-53 L-25,-53 Q-34,-53 -34,-44 L-34,-15 Q-34,-6 -25,-6 L-8,-6" class="tip-border"/>
      <path d="M-8,-6 L0,8 L8,-6" class="tip-tail"/>
      <text x="0" y="-32" text-anchor="middle" class="tip-value">$61M</text>
      <text x="0" y="-16" text-anchor="middle" class="tip-label">Teal · 42%</text>
    </g>
  </g>

  <g class="data-item" id="bw8">
    <g class="bub-g" id="bg8">
      <circle class="series-8" cx="429" cy="404" r="19" style="stroke:none"/>
    </g>
    <g class="data-tip" transform="translate(429,373)">
      <rect x="-38" y="-44" width="76" height="38" rx="9" class="tip-bg"/>
      <path d="M8,-6 L29,-6 Q38,-6 38,-15 L38,-44 Q38,-53 29,-53 L-29,-53 Q-38,-53 -38,-44 L-38,-15 Q-38,-6 -29,-6 L-8,-6" class="tip-border"/>
      <path d="M-8,-6 L0,8 L8,-6" class="tip-tail"/>
      <text x="0" y="-32" text-anchor="middle" class="tip-value">$48M</text>
      <text x="0" y="-16" text-anchor="middle" class="tip-label">Other · 12%</text>
    </g>
  </g>

</g>

<!-- Legend -->
<rect x="848" y="100" width="224" height="390" rx="14" class="legend-bg"/>
<text x="866" y="124" class="legend-title">SERIES</text>
<g transform="translate(866,140)"><rect class="series-1" x="0" y="0" width="14" height="14" rx="3" style="stroke:none"/><text x="22" y="11" class="legend-label">Cyan</text><text x="200" y="11" class="legend-value" text-anchor="end">$72M · 38%</text></g>
<g transform="translate(866,170)"><rect class="series-2" x="0" y="0" width="14" height="14" rx="3" style="stroke:none"/><text x="22" y="11" class="legend-label">Emerald</text><text x="200" y="11" class="legend-value" text-anchor="end">$68M · 22%</text></g>
<g transform="translate(866,200)"><rect class="series-3" x="0" y="0" width="14" height="14" rx="3" style="stroke:none"/><text x="22" y="11" class="legend-label">Amber</text><text x="200" y="11" class="legend-value" text-anchor="end">$60M · 44%</text></g>
<g transform="translate(866,230)"><rect class="series-4" x="0" y="0" width="14" height="14" rx="3" style="stroke:none"/><text x="22" y="11" class="legend-label">Rose</text><text x="200" y="11" class="legend-value" text-anchor="end">$55M · 15%</text></g>
<g transform="translate(866,260)"><rect class="series-5" x="0" y="0" width="14" height="14" rx="3" style="stroke:none"/><text x="22" y="11" class="legend-label">Violet</text><text x="200" y="11" class="legend-value" text-anchor="end">$79M · 31%</text></g>
<g transform="translate(866,290)"><rect class="series-6" x="0" y="0" width="14" height="14" rx="3" style="stroke:none"/><text x="22" y="11" class="legend-label">Blue</text><text x="200" y="11" class="legend-value" text-anchor="end">$64M · 27%</text></g>
<g transform="translate(866,320)"><rect class="series-7" x="0" y="0" width="14" height="14" rx="3" style="stroke:none"/><text x="22" y="11" class="legend-label">Teal</text><text x="200" y="11" class="legend-value" text-anchor="end">$61M · 42%</text></g>
<line x1="866" y1="352" x2="1054" y2="352" class="legend-divider"/>
<g transform="translate(866,364)"><rect class="series-8" x="0" y="0" width="14" height="14" rx="3" style="stroke:none"/><text x="22" y="11" class="legend-label">Other</text><text x="200" y="11" class="legend-value" text-anchor="end">$48M · 12%</text></g>

<text x="68" y="580" class="footer">Bubble size ∝ market share · hover to inspect</text>

<script type="text/javascript"><![CDATA[
(function() {
  var svg       = document.getElementById('root');
  var chartArea = document.getElementById('chart-area');

  /* §2 — isDark hoisted before all build and animation code */
  var isDark = false;

  /* ── rAF bubble fade-in — standard 0.8s, 0.25s stagger ── */
  var FADE_DUR = 800;
  var STAGGER  = 250;
  var bubGrps  = [1,2,3,4,5,6,7,8].map(function(i) {
    return document.getElementById('bg' + i);
  });

  function easeInOutCubic(t) { return t < 0.5 ? 4*t*t*t : 1 - Math.pow(-2*t+2,3)/2; }

  var startTime = null;
  function animBubbles(ts) {
    if (!startTime) startTime = ts;
    var elapsed = ts - startTime;
    var done = true;
    bubGrps.forEach(function(g, i) {
      var t = Math.max(0, Math.min(1, (elapsed - i * STAGGER) / FADE_DUR));
      g.style.opacity = easeInOutCubic(t).toFixed(3);
      if (t < 1) done = false;
    });
    if (!done) requestAnimationFrame(animBubbles);
    else {
      bubGrps.forEach(function(g) { g.style.opacity = '1'; });
      chartArea.classList.add('ready');
    }
  }
  requestAnimationFrame(animBubbles);

  /* ── hover dimming ── */
  var dataItemEls = Array.prototype.slice.call(svg.querySelectorAll('.data-item'));
  dataItemEls.forEach(function(itemEl) {
    itemEl.addEventListener('mouseenter', function() {
      chartArea.classList.add('hovering');
      dataItemEls.forEach(function(x) { x.classList.remove('active'); }); /* §4 clear stale */
      itemEl.classList.add('active');
    });
    itemEl.addEventListener('mouseleave', function() {
      itemEl.classList.remove('active');
      chartArea.classList.remove('hovering');
    });
  });

  /* ── dark mode — pure CSS, no JS color swap needed ── */
  function setMode(wantDark) {
    if (wantDark === isDark) return;
    isDark = wantDark;
    var thumb = document.getElementById('tthumb'), lbl = document.getElementById('tlabel');
    if (wantDark) {
      svg.classList.add('dark');
      if (thumb) thumb.setAttribute('cx','52');
      if (lbl)   lbl.textContent = 'Light';
    } else {
      svg.classList.remove('dark');
      if (thumb) thumb.setAttribute('cx','16');
      if (lbl)   lbl.textContent = 'Dark';
    }
  }

  document.getElementById('dark-toggle').addEventListener('click', function() { setMode(!isDark); });
  document.getElementById('print-toggle').addEventListener('click', function() {
    var thumb = document.getElementById('pthumb'), lbl = document.getElementById('plabel');
    if (svg.classList.toggle('print')) { thumb.setAttribute('cx','52'); lbl.textContent='Screen'; }
    else                               { thumb.setAttribute('cx','16'); lbl.textContent='Print'; }
  });

  window.setMode = setMode;
  window.addEventListener('message', function(e) {
    if (e.data && e.data.type === 'setMode') setMode(e.data.dark);
  });
  setMode(window.location.href.indexOf('theme=dark') !== -1);
})();
]]></script>
</svg>
