


<svg id="root" class="chart-standard" viewBox="-40 88 1120 455" width="100%" height="100%" preserveAspectRatio="xMidYMid meet" xmlns="http://www.w3.org/2000/svg" font-family="'Roboto',Arial,sans-serif">
<defs>
  <style>
    @import url('chart-shared.css');

    .c-bull { fill:var(--series-2); }
    .c-bear { fill:var(--series-4); }
    .w-bull { stroke:var(--series-2); stroke-width:1.5; fill:none; }
    .w-bear { stroke:var(--series-4); stroke-width:1.5; fill:none; }

    @keyframes dataFadeIn { from{opacity:0} to{opacity:1} }
    .data-body { animation:dataFadeIn 0.8s ease-out both; }
    .stagger-1  { animation-delay:0.00s; } .stagger-2  { animation-delay:0.16s; }
    .stagger-3  { animation-delay:0.32s; } .stagger-4  { animation-delay:0.48s; }
    .stagger-5  { animation-delay:0.64s; } .stagger-6  { animation-delay:0.80s; }
    .stagger-7  { animation-delay:0.96s; } .stagger-8  { animation-delay:1.12s; }
    .stagger-9  { animation-delay:1.28s; } .stagger-10 { animation-delay:1.44s; }
    .stagger-11 { animation-delay:1.60s; } .stagger-12 { animation-delay:1.76s; }

    .legend-value { opacity:0; transition:opacity 0.3s; }
    svg.print .legend-value { opacity:1; }
  </style>
</defs>

<line x1="68" y1="500" x2="850" y2="500" class="axis-line"/>
<line x1="68" y1="100" x2="68"  y2="500" class="axis-line"/>
<line x1="68" y1="400" x2="850" y2="400" class="grid-line"/>
<line x1="68" y1="300" x2="850" y2="300" class="grid-line"/>
<line x1="68" y1="200" x2="850" y2="200" class="grid-line"/>
<line x1="68" y1="100" x2="850" y2="100" class="grid-line"/>
<text x="56" y="504" class="tick-label" text-anchor="end">$80</text>
<text x="56" y="404" class="tick-label" text-anchor="end">$105</text>
<text x="56" y="304" class="tick-label" text-anchor="end">$130</text>
<text x="56" y="204" class="tick-label" text-anchor="end">$155</text>
<text x="56" y="104" class="tick-label" text-anchor="end">$180</text>
<text x="128" y="530" class="category-label" text-anchor="middle">Oct</text>
<text x="188" y="530" class="category-label" text-anchor="middle">Nov</text>
<text x="249" y="530" class="category-label" text-anchor="middle">Dec</text>
<text x="309" y="530" class="category-label" text-anchor="middle">Jan</text>
<text x="369" y="530" class="category-label" text-anchor="middle">Feb</text>
<text x="429" y="530" class="category-label" text-anchor="middle">Mar</text>
<text x="489" y="530" class="category-label" text-anchor="middle">Apr</text>
<text x="549" y="530" class="category-label" text-anchor="middle">May</text>
<text x="609" y="530" class="category-label" text-anchor="middle">Jun</text>
<text x="670" y="530" class="category-label" text-anchor="middle">Jul</text>
<text x="730" y="530" class="category-label" text-anchor="middle">Aug</text>
<text x="790" y="530" class="category-label" text-anchor="middle">Sep</text>

<g class="data-layer" id="chart-area">
  <g class="data-item" id="cw1"  data-tip="data-tip-1" data-month="Oct" data-open="$132" data-high="$148" data-low="$125" data-close="$144" data-trend="Bullish"><g class="data-body stagger-1" ><line x1="128" y1="228" x2="128" y2="320" class="w-bull"/><rect class="c-bull" x="110" y="244" width="36" height="48"/></g></g>
  <g class="data-item" id="cw2"  data-tip="data-tip-2" data-month="Nov" data-open="$144" data-high="$155" data-low="$138" data-close="$139" data-trend="Bearish"><g class="data-body stagger-2" ><line x1="188" y1="200" x2="188" y2="268" class="w-bear"/><rect class="c-bear" x="170" y="244" width="36" height="20"/></g></g>
  <g class="data-item" id="cw3"  data-tip="data-tip-3" data-month="Dec" data-open="$139" data-high="$142" data-low="$118" data-close="$122" data-trend="Bearish"><g class="data-body stagger-3" ><line x1="249" y1="252" x2="249" y2="348" class="w-bear"/><rect class="c-bear" x="231" y="264" width="36" height="68"/></g></g>
  <g class="data-item" id="cw4"  data-tip="data-tip-4" data-month="Jan" data-open="$122" data-high="$135" data-low="$115" data-close="$131" data-trend="Bullish"><g class="data-body stagger-4" ><line x1="309" y1="280" x2="309" y2="360" class="w-bull"/><rect class="c-bull" x="291" y="296" width="36" height="36"/></g></g>
  <g class="data-item" id="cw5"  data-tip="data-tip-5" data-month="Feb" data-open="$131" data-high="$150" data-low="$128" data-close="$148" data-trend="Bullish"><g class="data-body stagger-5" ><line x1="369" y1="220" x2="369" y2="308" class="w-bull"/><rect class="c-bull" x="351" y="228" width="36" height="68"/></g></g>
  <g class="data-item" id="cw6"  data-tip="data-tip-6" data-month="Mar" data-open="$148" data-high="$162" data-low="$143" data-close="$158" data-trend="Bullish"><g class="data-body stagger-6" ><line x1="429" y1="172" x2="429" y2="248" class="w-bull"/><rect class="c-bull" x="411" y="188" width="36" height="40"/></g></g>
  <g class="data-item" id="cw7"  data-tip="data-tip-7" data-month="Apr" data-open="$158" data-high="$165" data-low="$144" data-close="$147" data-trend="Bearish"><g class="data-body stagger-7" ><line x1="489" y1="160" x2="489" y2="244" class="w-bear"/><rect class="c-bear" x="471" y="188" width="36" height="44"/></g></g>
  <g class="data-item" id="cw8"  data-tip="data-tip-8" data-month="May" data-open="$147" data-high="$152" data-low="$130" data-close="$134" data-trend="Bearish"><g class="data-body stagger-8" ><line x1="549" y1="212" x2="549" y2="300" class="w-bear"/><rect class="c-bear" x="531" y="232" width="36" height="52"/></g></g>
  <g class="data-item" id="cw9"  data-tip="data-tip-9" data-month="Jun" data-open="$134" data-high="$149" data-low="$129" data-close="$146" data-trend="Bullish"><g class="data-body stagger-9" ><line x1="609" y1="224" x2="609" y2="304" class="w-bull"/><rect class="c-bull" x="591" y="236" width="36" height="48"/></g></g>
  <g class="data-item" id="cw10" data-tip="data-tip-10" data-month="Jul" data-open="$146" data-high="$168" data-low="$140" data-close="$165" data-trend="Bullish"><g class="data-body stagger-10"><line x1="670" y1="148" x2="670" y2="260" class="w-bull"/><rect class="c-bull" x="652" y="160" width="36" height="76"/></g></g>
  <g class="data-item" id="cw11" data-tip="data-tip-11" data-month="Aug" data-open="$165" data-high="$172" data-low="$151" data-close="$155" data-trend="Bearish"><g class="data-body stagger-11"><line x1="730" y1="132" x2="730" y2="216" class="w-bear"/><rect class="c-bear" x="712" y="160" width="36" height="40"/></g></g>
  <g class="data-item" id="cw12" data-tip="data-tip-12" data-month="Sep" data-open="$155" data-high="$160" data-low="$138" data-close="$142" data-trend="Bearish"><g class="data-body stagger-12"><line x1="790" y1="180" x2="790" y2="268" class="w-bear"/><rect class="c-bear" x="772" y="200" width="36" height="52"/></g></g>
</g>

<!-- tooltips — each uses standard .tip-* classes.
     bull/bear value colors use inline fill on tspan since they are
     semantic (not categorical) and don't need dark mode class overrides
     — they use the same green/rose as the candles themselves. -->
<g id="tip-overlay">
  <g class="data-tip" id="data-tip-1"  transform="translate(128,228)">
    <rect x="-74" y="-106" width="148" height="96" rx="10" class="tip-bg"/>
    <path d="M8,-10 L65,-10 Q74,-10 74,-20 L74,-96 Q74,-106 65,-106 L-65,-106 Q-74,-106 -74,-96 L-74,-20 Q-74,-10 -65,-10 L-8,-10" class="tip-border"/>
    <path d="M-8,-10 L0,0 L8,-10" class="tip-tail"/>
    <text x="0" y="-88" text-anchor="middle" class="tip-label">Open <tspan class="tip-value">$132</tspan> · High <tspan class="tip-value">$148</tspan></text>
    <text x="0" y="-66" text-anchor="middle" class="tip-label">Low <tspan class="tip-value">$125</tspan> · Close <tspan class="tip-value">$144</tspan></text>
    <text x="0" y="-26" text-anchor="middle" class="tip-value">Oct · Bullish</text>
  </g>
  <g class="data-tip" id="data-tip-2"  transform="translate(188,200)">
    <rect x="-74" y="-106" width="148" height="96" rx="10" class="tip-bg"/>
    <path d="M8,-10 L65,-10 Q74,-10 74,-20 L74,-96 Q74,-106 65,-106 L-65,-106 Q-74,-106 -74,-96 L-74,-20 Q-74,-10 -65,-10 L-8,-10" class="tip-border"/>
    <path d="M-8,-10 L0,0 L8,-10" class="tip-tail"/>
    <text x="0" y="-88" text-anchor="middle" class="tip-label">Open <tspan class="tip-value">$144</tspan> · High <tspan class="tip-value">$155</tspan></text>
    <text x="0" y="-66" text-anchor="middle" class="tip-label">Low <tspan class="tip-value">$138</tspan> · Close <tspan class="tip-value">$139</tspan></text>
    <text x="0" y="-26" text-anchor="middle" class="tip-value">Nov · Bearish</text>
  </g>
  <g class="data-tip" id="data-tip-3"  transform="translate(249,252)">
    <rect x="-74" y="-106" width="148" height="96" rx="10" class="tip-bg"/>
    <path d="M8,-10 L65,-10 Q74,-10 74,-20 L74,-96 Q74,-106 65,-106 L-65,-106 Q-74,-106 -74,-96 L-74,-20 Q-74,-10 -65,-10 L-8,-10" class="tip-border"/>
    <path d="M-8,-10 L0,0 L8,-10" class="tip-tail"/>
    <text x="0" y="-88" text-anchor="middle" class="tip-label">Open <tspan class="tip-value">$139</tspan> · High <tspan class="tip-value">$142</tspan></text>
    <text x="0" y="-66" text-anchor="middle" class="tip-label">Low <tspan class="tip-value">$118</tspan> · Close <tspan class="tip-value">$122</tspan></text>
    <text x="0" y="-26" text-anchor="middle" class="tip-value">Dec · Bearish</text>
  </g>
  <g class="data-tip" id="data-tip-4"  transform="translate(309,280)">
    <rect x="-74" y="-106" width="148" height="96" rx="10" class="tip-bg"/>
    <path d="M8,-10 L65,-10 Q74,-10 74,-20 L74,-96 Q74,-106 65,-106 L-65,-106 Q-74,-106 -74,-96 L-74,-20 Q-74,-10 -65,-10 L-8,-10" class="tip-border"/>
    <path d="M-8,-10 L0,0 L8,-10" class="tip-tail"/>
    <text x="0" y="-88" text-anchor="middle" class="tip-label">Open <tspan class="tip-value">$122</tspan> · High <tspan class="tip-value">$135</tspan></text>
    <text x="0" y="-66" text-anchor="middle" class="tip-label">Low <tspan class="tip-value">$115</tspan> · Close <tspan class="tip-value">$131</tspan></text>
    <text x="0" y="-26" text-anchor="middle" class="tip-value">Jan · Bullish</text>
  </g>
  <g class="data-tip" id="data-tip-5"  transform="translate(369,220)">
    <rect x="-74" y="-106" width="148" height="96" rx="10" class="tip-bg"/>
    <path d="M8,-10 L65,-10 Q74,-10 74,-20 L74,-96 Q74,-106 65,-106 L-65,-106 Q-74,-106 -74,-96 L-74,-20 Q-74,-10 -65,-10 L-8,-10" class="tip-border"/>
    <path d="M-8,-10 L0,0 L8,-10" class="tip-tail"/>
    <text x="0" y="-88" text-anchor="middle" class="tip-label">Open <tspan class="tip-value">$131</tspan> · High <tspan class="tip-value">$150</tspan></text>
    <text x="0" y="-66" text-anchor="middle" class="tip-label">Low <tspan class="tip-value">$128</tspan> · Close <tspan class="tip-value">$148</tspan></text>
    <text x="0" y="-26" text-anchor="middle" class="tip-value">Feb · Bullish</text>
  </g>
  <g class="data-tip" id="data-tip-6"  transform="translate(429,172)">
    <rect x="-74" y="-106" width="148" height="96" rx="10" class="tip-bg"/>
    <path d="M8,-10 L65,-10 Q74,-10 74,-20 L74,-96 Q74,-106 65,-106 L-65,-106 Q-74,-106 -74,-96 L-74,-20 Q-74,-10 -65,-10 L-8,-10" class="tip-border"/>
    <path d="M-8,-10 L0,0 L8,-10" class="tip-tail"/>
    <text x="0" y="-88" text-anchor="middle" class="tip-label">Open <tspan class="tip-value">$148</tspan> · High <tspan class="tip-value">$162</tspan></text>
    <text x="0" y="-66" text-anchor="middle" class="tip-label">Low <tspan class="tip-value">$143</tspan> · Close <tspan class="tip-value">$158</tspan></text>
    <text x="0" y="-26" text-anchor="middle" class="tip-value">Mar · Bullish</text>
  </g>
  <g class="data-tip" id="data-tip-7"  transform="translate(489,160)">
    <rect x="-74" y="-106" width="148" height="96" rx="10" class="tip-bg"/>
    <path d="M8,-10 L65,-10 Q74,-10 74,-20 L74,-96 Q74,-106 65,-106 L-65,-106 Q-74,-106 -74,-96 L-74,-20 Q-74,-10 -65,-10 L-8,-10" class="tip-border"/>
    <path d="M-8,-10 L0,0 L8,-10" class="tip-tail"/>
    <text x="0" y="-88" text-anchor="middle" class="tip-label">Open <tspan class="tip-value">$158</tspan> · High <tspan class="tip-value">$165</tspan></text>
    <text x="0" y="-66" text-anchor="middle" class="tip-label">Low <tspan class="tip-value">$144</tspan> · Close <tspan class="tip-value">$147</tspan></text>
    <text x="0" y="-26" text-anchor="middle" class="tip-value">Apr · Bearish</text>
  </g>
  <g class="data-tip" id="data-tip-8"  transform="translate(549,212)">
    <rect x="-74" y="-106" width="148" height="96" rx="10" class="tip-bg"/>
    <path d="M8,-10 L65,-10 Q74,-10 74,-20 L74,-96 Q74,-106 65,-106 L-65,-106 Q-74,-106 -74,-96 L-74,-20 Q-74,-10 -65,-10 L-8,-10" class="tip-border"/>
    <path d="M-8,-10 L0,0 L8,-10" class="tip-tail"/>
    <text x="0" y="-88" text-anchor="middle" class="tip-label">Open <tspan class="tip-value">$147</tspan> · High <tspan class="tip-value">$152</tspan></text>
    <text x="0" y="-66" text-anchor="middle" class="tip-label">Low <tspan class="tip-value">$130</tspan> · Close <tspan class="tip-value">$134</tspan></text>
    <text x="0" y="-26" text-anchor="middle" class="tip-value">May · Bearish</text>
  </g>
  <g class="data-tip" id="data-tip-9"  transform="translate(609,224)">
    <rect x="-74" y="-106" width="148" height="96" rx="10" class="tip-bg"/>
    <path d="M8,-10 L65,-10 Q74,-10 74,-20 L74,-96 Q74,-106 65,-106 L-65,-106 Q-74,-106 -74,-96 L-74,-20 Q-74,-10 -65,-10 L-8,-10" class="tip-border"/>
    <path d="M-8,-10 L0,0 L8,-10" class="tip-tail"/>
    <text x="0" y="-88" text-anchor="middle" class="tip-label">Open <tspan class="tip-value">$134</tspan> · High <tspan class="tip-value">$149</tspan></text>
    <text x="0" y="-66" text-anchor="middle" class="tip-label">Low <tspan class="tip-value">$129</tspan> · Close <tspan class="tip-value">$146</tspan></text>
    <text x="0" y="-26" text-anchor="middle" class="tip-value">Jun · Bullish</text>
  </g>
  <g class="data-tip" id="data-tip-10" transform="translate(670,148)">
    <rect x="-74" y="-106" width="148" height="96" rx="10" class="tip-bg"/>
    <path d="M8,-10 L65,-10 Q74,-10 74,-20 L74,-96 Q74,-106 65,-106 L-65,-106 Q-74,-106 -74,-96 L-74,-20 Q-74,-10 -65,-10 L-8,-10" class="tip-border"/>
    <path d="M-8,-10 L0,0 L8,-10" class="tip-tail"/>
    <text x="0" y="-88" text-anchor="middle" class="tip-label">Open <tspan class="tip-value">$146</tspan> · High <tspan class="tip-value">$168</tspan></text>
    <text x="0" y="-66" text-anchor="middle" class="tip-label">Low <tspan class="tip-value">$140</tspan> · Close <tspan class="tip-value">$165</tspan></text>
    <text x="0" y="-26" text-anchor="middle" class="tip-value">Jul · Bullish</text>
  </g>
  <g class="data-tip" id="data-tip-11" transform="translate(730,132)">
    <rect x="-74" y="-106" width="148" height="96" rx="10" class="tip-bg"/>
    <path d="M8,-10 L65,-10 Q74,-10 74,-20 L74,-96 Q74,-106 65,-106 L-65,-106 Q-74,-106 -74,-96 L-74,-20 Q-74,-10 -65,-10 L-8,-10" class="tip-border"/>
    <path d="M-8,-10 L0,0 L8,-10" class="tip-tail"/>
    <text x="0" y="-88" text-anchor="middle" class="tip-label">Open <tspan class="tip-value">$165</tspan> · High <tspan class="tip-value">$172</tspan></text>
    <text x="0" y="-66" text-anchor="middle" class="tip-label">Low <tspan class="tip-value">$151</tspan> · Close <tspan class="tip-value">$155</tspan></text>
    <text x="0" y="-26" text-anchor="middle" class="tip-value">Aug · Bearish</text>
  </g>
  <g class="data-tip" id="data-tip-12" transform="translate(790,180)">
    <rect x="-74" y="-106" width="148" height="96" rx="10" class="tip-bg"/>
    <path d="M8,-10 L65,-10 Q74,-10 74,-20 L74,-96 Q74,-106 65,-106 L-65,-106 Q-74,-106 -74,-96 L-74,-20 Q-74,-10 -65,-10 L-8,-10" class="tip-border"/>
    <path d="M-8,-10 L0,0 L8,-10" class="tip-tail"/>
    <text x="0" y="-88" text-anchor="middle" class="tip-label">Open <tspan class="tip-value">$155</tspan> · High <tspan class="tip-value">$160</tspan></text>
    <text x="0" y="-66" text-anchor="middle" class="tip-label">Low <tspan class="tip-value">$138</tspan> · Close <tspan class="tip-value">$142</tspan></text>
    <text x="0" y="-26" text-anchor="middle" class="tip-value">Sep · Bearish</text>
  </g>
</g>

<rect x="858" y="88" width="214" height="455" rx="18" class="legend-bg"/>
<text x="878" y="118" class="legend-title">SERIES</text>
<g transform="translate(878,146)"><rect class="c-bull" x="0" y="0" width="14" height="14" rx="3"/><text x="22" y="7" class="legend-label" dominant-baseline="middle">Bullish</text><text x="174" y="7" class="legend-value" text-anchor="end" dominant-baseline="middle">$165</text></g>
<g transform="translate(878,194)"><rect class="c-bear" x="0" y="0" width="14" height="14" rx="3"/><text x="22" y="7" class="legend-label" dominant-baseline="middle">Bearish</text><text x="174" y="7" class="legend-value" text-anchor="end" dominant-baseline="middle">$142</text></g>
<g transform="translate(878,242)"><rect class="series-8" x="0" y="0" width="14" height="14" rx="3"/><text x="22" y="7" class="legend-label" dominant-baseline="middle">Year High</text><text x="174" y="7" class="legend-value" text-anchor="end" dominant-baseline="middle">$172</text></g>
<g transform="translate(878,290)"><rect class="series-3" x="0" y="0" width="14" height="14" rx="3"/><text x="22" y="7" class="legend-label" dominant-baseline="middle">Year Low</text><text x="174" y="7" class="legend-value" text-anchor="end" dominant-baseline="middle">$115</text></g>
<g transform="translate(878,338)"><rect class="series-1" x="0" y="0" width="14" height="14" rx="3"/><text x="22" y="7" class="legend-label" dominant-baseline="middle">Range</text><text x="174" y="7" class="legend-value" text-anchor="end" dominant-baseline="middle">$57</text></g>

<script href="chart-shared.js"></script>
<script type="text/javascript"><![CDATA[
(function () {
  var svg = document.documentElement;
  svg._chartInit = function (svgEl, ctx) {
    var chartArea   = svgEl.querySelector('#chart-area');
    var dataItemEls = ctx.$$all('.data-item');
    var plotL = 42;
    var plotR = 840;
    var plotT = 100;
    var plotB = 500;

    function placeTip(itemEl, tipEl) {
      var wickEl = itemEl.querySelector('line');
      var itemBounds = itemEl.getBBox();
      var anchorX = wickEl ? parseFloat(wickEl.getAttribute('x1')) : itemBounds.x + itemBounds.width / 2;
      var anchorY = itemBounds.y;
      ctx.layoutSideTooltip(tipEl, {
        anchorX: anchorX,
        anchorY: anchorY,
        anchorInset: 18,
        plotL: plotL,
        plotR: plotR,
        plotT: plotT,
        plotB: plotB,
        lines: [
          { text: itemEl.getAttribute('data-close'), className: 'tip-value' },
          { text: itemEl.getAttribute('data-month') + ' - ' + itemEl.getAttribute('data-trend'), className: 'tip-label' },
          { text: 'O ' + itemEl.getAttribute('data-open') + '  H ' + itemEl.getAttribute('data-high') + '  L ' + itemEl.getAttribute('data-low'), className: 'tip-label' }
        ],
        lineHeights: [48, 34, 30],
        minWidth: 280,
        paddingX: 20,
        paddingY: 16
      });
      tipEl.removeAttribute('transform');
    }

    /* Hover dimming + tooltip via data-tip attribute */
    dataItemEls.forEach(function (itemEl) {
      var tipEl = svgEl.querySelector('#' + itemEl.getAttribute('data-tip'));
      itemEl.addEventListener('mouseenter', function () {
        ctx.activateExclusive(dataItemEls, itemEl);
        chartArea.classList.add('hovering');
        if (tipEl) {
          placeTip(itemEl, tipEl);
          ctx.setOpacity(tipEl, 1);
        }
      });
      itemEl.addEventListener('mouseleave', function () {
        chartArea.classList.remove('hovering');
        itemEl.classList.remove('active');
        ctx.setOpacity(tipEl, null);
      });
    });
  };
  if (window.bootstrapChart) { window.bootstrapChart(svg); }
}());
]]></script>
</svg>


