<svg id="root" viewBox="0 0 1100 620" width="100%" height="100%" preserveAspectRatio="xMidYMid meet" xmlns="http://www.w3.org/2000/svg" font-family="'Inter','Helvetica Neue',Arial,sans-serif">
<defs>
  <style>
    @import url('https://fonts.googleapis.com/css2?family=Inter:wght@400;500;600&amp;display=swap');
    .bg-main  { fill:#FFFBFE; filter:drop-shadow(0 1px 2px rgba(0,0,0,0.10)); }
    .ct       { font-size:18px; font-weight:500; fill:#1C1B1F; letter-spacing:-0.2px; }
    .cs       { font-size:11px; fill:#79747E; font-weight:400; }
    .an       { font-size:10px; fill:#79747E; font-weight:400; }
    .al       { font-size:10px; fill:#79747E; font-weight:500; }
    .lt       { font-size:11px; fill:#1C1B1F; font-weight:400; }
    .lv       { font-size:11px; fill:#1C1B1F; font-weight:500; }
    .gl       { stroke:#E7E0EC; stroke-width:1; }
    .bl       { stroke:#79747E; stroke-width:1.5; }
    .lgd-bg   { fill:#E7E0EC; stroke:#79747E; stroke-width:0.5; }
    .lgd-div  { stroke:#79747E; stroke-width:0.5; opacity:0.3; }
    .lgd-ttl  { font-size:10px; fill:#79747E; font-weight:500; letter-spacing:0.4px; }
    .footer   { font-size:10px; fill:#79747E; font-weight:400; }
    .t-wrap   { cursor:pointer; }
    .t-track  { fill:#E7E0EC; }
    .t-thumb  { fill:#ffffff; }
    .t-label  { font-size:11px; font-weight:500; fill:#49454F; }
    .pt-track { fill:#E7E0EC; transition:fill 0.3s; }
    .pt-thumb { fill:#ffffff; }
    .pt-label { font-size:11px; font-weight:500; fill:#49454F; }

    .lgd-val  { opacity:0; transition:opacity 0.2s; }
    svg.print .lgd-val  { opacity:1; }
    svg.print .pt-track { fill:#d97316; }

    /* candle bodies */
    .c-bull   { fill:#00B87A; }
    .c-bear   { fill:#F43F5E; }
    .w-bull   { stroke:#00B87A; stroke-width:1.5; fill:none; }
    .w-bear   { stroke:#F43F5E; stroke-width:1.5; fill:none; }

    /* hover hit area */
    .cw       { cursor:pointer; }

    /* bubble overlay */
    .bubble   { opacity:0; pointer-events:none; transition:opacity 0.15s ease; }
    svg.print .bubble { opacity:0 !important; }
    .bub-fill { fill:#FFFBFE; }
    .bub-bdr  { fill:none; stroke:#79747E; stroke-width:1; }
    .bub-lbl  { fill:#49454F; font-size:10px; font-weight:400; }
    .bub-bull { fill:#00B87A; font-size:11px; font-weight:500; }
    .bub-bear { fill:#F43F5E; font-size:11px; font-weight:500; }
    .bub-neu  { fill:#1C1B1F; font-size:11px; font-weight:500; }

    .border-dark  { display:none; }
    .border-light { display:block; }

    svg.dark .bg-main  { fill:#1C1B1F; filter:drop-shadow(0 1px 4px rgba(0,0,0,0.25)); }
    svg.dark .ct       { fill:#E6E0E9; }
    svg.dark .cs       { fill:#938F99; }
    svg.dark .an       { fill:#938F99; }
    svg.dark .al       { fill:#938F99; }
    svg.dark .lt       { fill:#E6E0E9; }
    svg.dark .lv       { fill:#E6E0E9; }
    svg.dark .gl       { stroke:#49454F; }
    svg.dark .bl       { stroke:#938F99; }
    svg.dark .lgd-bg   { fill:#49454F; stroke:#938F99; }
    svg.dark .lgd-div  { stroke:#938F99; }
    svg.dark .lgd-ttl  { fill:#938F99; }
    svg.dark .footer   { fill:#938F99; }
    svg.dark .t-track  { fill:#49454F; }
    svg.dark .t-label  { fill:#CAC4D0; }
    svg.dark .pt-track { fill:#49454F; }
    svg.dark .pt-label { fill:#CAC4D0; }
    svg.dark.print .pt-track { fill:#d97316; }
    svg.dark .c-bull   { fill:#10B981; }
    svg.dark .c-bear   { fill:#FB6181; }
    svg.dark .w-bull   { stroke:#10B981; }
    svg.dark .w-bear   { stroke:#FB6181; }
    svg.dark .bub-fill { fill:#2C2B30; }
    svg.dark .bub-bdr  { stroke:#938F99; }
    svg.dark .bub-lbl  { fill:#CAC4D0; }
    svg.dark .bub-bull { fill:#10B981; }
    svg.dark .bub-bear { fill:#FB6181; }
    svg.dark .bub-neu  { fill:#E6E0E9; }
    svg.dark .border-dark  { display:block; }
    svg.dark .border-light { display:none; }
  </style>
</defs>

<!-- Background -->
<rect class="bg-main" width="1100" height="620" rx="18"/>
<g class="border-light">
  <rect x="0.75" y="0.75" width="1098.5" height="618.5" rx="17.5" fill="none" stroke="rgba(0,0,0,0.10)" stroke-width="1.5"/>
</g>
<g class="border-dark">
  <rect x="0.75" y="0.75" width="1098.5" height="618.5" rx="17.5" fill="none" stroke="rgba(0,242,255,0.22)" stroke-width="1.5"/>
</g>

<!-- Title -->
<text x="68" y="50" class="ct">OHLC Price Chart</text>
<text x="68" y="70" class="cs">12 months · open / high / low / close · hover to inspect · print for values</text>

<!-- Dark toggle -->
<g class="t-wrap" id="dark-toggle" transform="translate(930,52)">
  <rect x="0" y="-13" width="68" height="26" rx="13" class="t-track"/>
  <circle id="tthumb" cx="52" cy="0" r="10" class="t-thumb"/>
  <text id="tlabel" x="44" y="4" class="t-label" text-anchor="middle">Light</text>
</g>

<!-- Print toggle -->
<g class="t-wrap" id="print-toggle" transform="translate(1012,52)">
  <rect x="0" y="-13" width="68" height="26" rx="13" class="pt-track"/>
  <circle id="pthumb" cx="16" cy="0" r="10" class="pt-thumb"/>
  <text id="plabel" x="44" y="4" class="pt-label" text-anchor="middle">Print</text>
</g>

<!-- Grid lines — y axis: $80=500, $100=420, $120=340, $140=260, $160=180, $180=100 -->
<line x1="68" y1="500" x2="850" y2="500" class="bl"/>
<line x1="68" y1="420" x2="850" y2="420" class="gl"/>
<line x1="68" y1="340" x2="850" y2="340" class="gl"/>
<line x1="68" y1="260" x2="850" y2="260" class="gl"/>
<line x1="68" y1="180" x2="850" y2="180" class="gl"/>
<line x1="68" y1="100" x2="850" y2="100" class="gl"/>
<line x1="68" y1="100" x2="68"  y2="500" class="bl"/>

<!-- Y axis labels -->
<text x="56" y="504" class="an" text-anchor="end">$80</text>
<text x="56" y="424" class="an" text-anchor="end">$100</text>
<text x="56" y="344" class="an" text-anchor="end">$120</text>
<text x="56" y="264" class="an" text-anchor="end">$140</text>
<text x="56" y="184" class="an" text-anchor="end">$160</text>
<text x="56" y="104" class="an" text-anchor="end">$180</text>

<!-- X axis labels  cx values from python: step=60.15, cx_i = 68 + i*step -->
<text x="128"  y="522" class="al" text-anchor="middle">Oct</text>
<text x="188"  y="522" class="al" text-anchor="middle">Nov</text>
<text x="249"  y="522" class="al" text-anchor="middle">Dec</text>
<text x="309"  y="522" class="al" text-anchor="middle">Jan</text>
<text x="369"  y="522" class="al" text-anchor="middle">Feb</text>
<text x="429"  y="522" class="al" text-anchor="middle">Mar</text>
<text x="489"  y="522" class="al" text-anchor="middle">Apr</text>
<text x="549"  y="522" class="al" text-anchor="middle">May</text>
<text x="609"  y="522" class="al" text-anchor="middle">Jun</text>
<text x="670"  y="522" class="al" text-anchor="middle">Jul</text>
<text x="730"  y="522" class="al" text-anchor="middle">Aug</text>
<text x="790"  y="522" class="al" text-anchor="middle">Sep</text>

<!--
  CANDLES
  Each candle group: wick line + body rect, spring-scale entrance from body center.
  Body half-width = 18px, rx=3.
  Wick: x1=cx x2=cx y1=yH y2=yL
  Body: x=cx-18 y=yTop width=36 height=bodyH rx=3

  Computed values (from python):
  1 Oct  bull cx=128  yH=228 yL=320 yO=292 yC=244 yTop=244 bH=48
  2 Nov  bear cx=188  yH=200 yL=268 yO=244 yC=264 yTop=244 bH=20
  3 Dec  bear cx=249  yH=252 yL=348 yO=264 yC=332 yTop=264 bH=68
  4 Jan  bull cx=309  yH=280 yL=360 yO=332 yC=296 yTop=296 bH=36
  5 Feb  bull cx=369  yH=220 yL=308 yO=296 yC=228 yTop=228 bH=68
  6 Mar  bull cx=429  yH=172 yL=248 yO=228 yC=188 yTop=188 bH=40
  7 Apr  bear cx=489  yH=160 yL=244 yO=188 yC=232 yTop=188 bH=44
  8 May  bear cx=549  yH=212 yL=300 yO=232 yC=284 yTop=232 bH=52
  9 Jun  bull cx=609  yH=224 yL=304 yO=284 yC=236 yTop=236 bH=48
  10 Jul  bull cx=670  yH=148 yL=260 yO=236 yC=160 yTop=160 bH=76
  11 Aug  bear cx=730  yH=132 yL=216 yO=160 yC=200 yTop=160 bH=40
  12 Sep  bear cx=790  yH=180 yL=268 yO=200 yC=252 yTop=200 bH=52
-->

<!-- 1 Oct BULL -->
<g class="cw" id="cw1" data-bubble="b1">
  <line x1="128" y1="228" x2="128" y2="320" class="w-bull"/>
  <g id="cb1" style="">
    <rect class="c-bull" x="110" y="244" width="36" height="48" rx="3"/>
  </g>
</g>

<!-- 2 Nov BEAR -->
<g class="cw" id="cw2" data-bubble="b2">
  <line x1="188" y1="200" x2="188" y2="268" class="w-bear"/>
  <g id="cb2" style="">
    <rect class="c-bear" x="170" y="244" width="36" height="20" rx="3"/>
  </g>
</g>

<!-- 3 Dec BEAR -->
<g class="cw" id="cw3" data-bubble="b3">
  <line x1="249" y1="252" x2="249" y2="348" class="w-bear"/>
  <g id="cb3" style="">
    <rect class="c-bear" x="231" y="264" width="36" height="68" rx="3"/>
  </g>
</g>

<!-- 4 Jan BULL -->
<g class="cw" id="cw4" data-bubble="b4">
  <line x1="309" y1="280" x2="309" y2="360" class="w-bull"/>
  <g id="cb4" style="">
    <rect class="c-bull" x="291" y="296" width="36" height="36" rx="3"/>
  </g>
</g>

<!-- 5 Feb BULL -->
<g class="cw" id="cw5" data-bubble="b5">
  <line x1="369" y1="220" x2="369" y2="308" class="w-bull"/>
  <g id="cb5" style="">
    <rect class="c-bull" x="351" y="228" width="36" height="68" rx="3"/>
  </g>
</g>

<!-- 6 Mar BULL -->
<g class="cw" id="cw6" data-bubble="b6">
  <line x1="429" y1="172" x2="429" y2="248" class="w-bull"/>
  <g id="cb6" style="">
    <rect class="c-bull" x="411" y="188" width="36" height="40" rx="3"/>
  </g>
</g>

<!-- 7 Apr BEAR -->
<g class="cw" id="cw7" data-bubble="b7">
  <line x1="489" y1="160" x2="489" y2="244" class="w-bear"/>
  <g id="cb7" style="">
    <rect class="c-bear" x="471" y="188" width="36" height="44" rx="3"/>
  </g>
</g>

<!-- 8 May BEAR -->
<g class="cw" id="cw8" data-bubble="b8">
  <line x1="549" y1="212" x2="549" y2="300" class="w-bear"/>
  <g id="cb8" style="">
    <rect class="c-bear" x="531" y="232" width="36" height="52" rx="3"/>
  </g>
</g>

<!-- 9 Jun BULL -->
<g class="cw" id="cw9" data-bubble="b9">
  <line x1="609" y1="224" x2="609" y2="304" class="w-bull"/>
  <g id="cb9" style="">
    <rect class="c-bull" x="591" y="236" width="36" height="48" rx="3"/>
  </g>
</g>

<!-- 10 Jul BULL -->
<g class="cw" id="cw10" data-bubble="b10">
  <line x1="670" y1="148" x2="670" y2="260" class="w-bull"/>
  <g id="cb10" style="">
    <rect class="c-bull" x="652" y="160" width="36" height="76" rx="3"/>
  </g>
</g>

<!-- 11 Aug BEAR -->
<g class="cw" id="cw11" data-bubble="b11">
  <line x1="730" y1="132" x2="730" y2="216" class="w-bear"/>
  <g id="cb11" style="">
    <rect class="c-bear" x="712" y="160" width="36" height="40" rx="3"/>
  </g>
</g>

<!-- 12 Sep BEAR -->
<g class="cw" id="cw12" data-bubble="b12">
  <line x1="790" y1="180" x2="790" y2="268" class="w-bear"/>
  <g id="cb12" style="">
    <rect class="c-bear" x="772" y="200" width="36" height="52" rx="3"/>
  </g>
</g>

<!-- LEGEND -->
<rect x="870" y="100" width="210" height="230" rx="14" class="lgd-bg"/>
<text x="888" y="124" class="lgd-ttl">CANDLE</text>
<!-- Bull swatch -->
<g transform="translate(888,140)">
  <rect x="0" y="0" width="14" height="14" rx="3" class="c-bull"/>
  <text x="22" y="11" class="lt">Bullish (close ≥ open)</text>
</g>
<!-- Bear swatch -->
<g transform="translate(888,170)">
  <rect x="0" y="0" width="14" height="14" rx="3" class="c-bear"/>
  <text x="22" y="11" class="lt">Bearish (close &lt; open)</text>
</g>

<line x1="888" y1="198" x2="1062" y2="198" class="lgd-div"/>
<text x="888" y="217" class="lgd-ttl">STRUCTURE</text>
<!-- Wick diagram -->
<g transform="translate(888,232)">
  <line x1="7" y1="0" x2="7" y2="40" stroke="#79747E" stroke-width="1.5"/>
  <rect x="0" y="8" width="14" height="22" rx="2" fill="#79747E" opacity="0.35"/>
  <text x="22" y="10"  class="lt" font-size="10">High</text>
  <text x="22" y="21"  class="lt" font-size="10">Open / Close</text>
  <text x="22" y="32"  class="lt" font-size="10">Open / Close</text>
  <text x="22" y="43"  class="lt" font-size="10">Low</text>
</g>

<!-- VALUE LEGEND (print mode) -->
<rect x="870" y="348" width="210" height="120" rx="14" class="lgd-bg"/>
<text x="888" y="372" class="lgd-ttl">RANGE</text>
<g transform="translate(888,386)">
  <text x="0" y="0"  class="lt lgd-val">High  <tspan class="lv">$172</tspan></text>
  <text x="0" y="20" class="lt lgd-val">Low   <tspan class="lv">$115</tspan></text>
  <text x="0" y="40" class="lt lgd-val">Start <tspan class="lv">$132</tspan></text>
  <text x="0" y="60" class="lt lgd-val">End   <tspan class="lv">$142</tspan></text>
</g>

<text x="68" y="600" class="footer">OHLC Price Chart · 12 months · flat design · hover to inspect</text>

<!-- ═══ BUBBLE OVERLAY ═══
  Bubbles show above the high wick tip (yH).
  Box height = 68px (4 rows: O H L C), width = 100px, tip height = 10px
  Path: rounded rect from (-50, -78) to (50, -10), tip to (0,0)
  cx = candle cx, y = yH of that candle
  We clamp bubbles near right edge leftward.
-->
<g id="bubble-overlay">

  <!-- b1 Oct bull cx=128 yH=228  O=132 H=148 L=125 C=144 -->
  <g class="bubble" id="b1" transform="translate(128,228)">
    <path class="bub-fill" d="M-8,-10 L-42,-10 Q-52,-10 -52,-20 L-52,-86 Q-52,-96 -42,-96 L52,-96 Q62,-96 62,-86 L62,-20 Q62,-10 52,-10 L8,-10 L0,0 Z"/>
    <path class="bub-bdr"  d="M-8,-10 L-42,-10 Q-52,-10 -52,-20 L-52,-86 Q-52,-96 -42,-96 L52,-96 Q62,-96 62,-86 L62,-20 Q62,-10 52,-10 L8,-10 L0,0 Z"/>
    <text x="5" y="-78" class="bub-lbl">O<tspan dx="4" class="bub-bull">$132</tspan></text>
    <text x="5" y="-62" class="bub-lbl">H<tspan dx="4" class="bub-neu">$148</tspan></text>
    <text x="5" y="-46" class="bub-lbl">L<tspan dx="4" class="bub-neu">$125</tspan></text>
    <text x="5" y="-30" class="bub-lbl">C<tspan dx="4" class="bub-bull">$144</tspan></text>
    <text x="5" y="-14" class="bub-lbl" font-size="9">Oct · Bullish</text>
  </g>

  <!-- b2 Nov bear cx=188 yH=200  O=144 H=155 L=138 C=139 -->
  <g class="bubble" id="b2" transform="translate(188,200)">
    <path class="bub-fill" d="M-8,-10 L-42,-10 Q-52,-10 -52,-20 L-52,-86 Q-52,-96 -42,-96 L52,-96 Q62,-96 62,-86 L62,-20 Q62,-10 52,-10 L8,-10 L0,0 Z"/>
    <path class="bub-bdr"  d="M-8,-10 L-42,-10 Q-52,-10 -52,-20 L-52,-86 Q-52,-96 -42,-96 L52,-96 Q62,-96 62,-86 L62,-20 Q62,-10 52,-10 L8,-10 L0,0 Z"/>
    <text x="5" y="-78" class="bub-lbl">O<tspan dx="4" class="bub-bear">$144</tspan></text>
    <text x="5" y="-62" class="bub-lbl">H<tspan dx="4" class="bub-neu">$155</tspan></text>
    <text x="5" y="-46" class="bub-lbl">L<tspan dx="4" class="bub-neu">$138</tspan></text>
    <text x="5" y="-30" class="bub-lbl">C<tspan dx="4" class="bub-bear">$139</tspan></text>
    <text x="5" y="-14" class="bub-lbl" font-size="9">Nov · Bearish</text>
  </g>

  <!-- b3 Dec bear cx=249 yH=252  O=139 H=142 L=118 C=122 -->
  <g class="bubble" id="b3" transform="translate(249,252)">
    <path class="bub-fill" d="M-8,-10 L-42,-10 Q-52,-10 -52,-20 L-52,-86 Q-52,-96 -42,-96 L52,-96 Q62,-96 62,-86 L62,-20 Q62,-10 52,-10 L8,-10 L0,0 Z"/>
    <path class="bub-bdr"  d="M-8,-10 L-42,-10 Q-52,-10 -52,-20 L-52,-86 Q-52,-96 -42,-96 L52,-96 Q62,-96 62,-86 L62,-20 Q62,-10 52,-10 L8,-10 L0,0 Z"/>
    <text x="5" y="-78" class="bub-lbl">O<tspan dx="4" class="bub-bear">$139</tspan></text>
    <text x="5" y="-62" class="bub-lbl">H<tspan dx="4" class="bub-neu">$142</tspan></text>
    <text x="5" y="-46" class="bub-lbl">L<tspan dx="4" class="bub-neu">$118</tspan></text>
    <text x="5" y="-30" class="bub-lbl">C<tspan dx="4" class="bub-bear">$122</tspan></text>
    <text x="5" y="-14" class="bub-lbl" font-size="9">Dec · Bearish</text>
  </g>

  <!-- b4 Jan bull cx=309 yH=280  O=122 H=135 L=115 C=131 -->
  <g class="bubble" id="b4" transform="translate(309,280)">
    <path class="bub-fill" d="M-8,-10 L-42,-10 Q-52,-10 -52,-20 L-52,-86 Q-52,-96 -42,-96 L52,-96 Q62,-96 62,-86 L62,-20 Q62,-10 52,-10 L8,-10 L0,0 Z"/>
    <path class="bub-bdr"  d="M-8,-10 L-42,-10 Q-52,-10 -52,-20 L-52,-86 Q-52,-96 -42,-96 L52,-96 Q62,-96 62,-86 L62,-20 Q62,-10 52,-10 L8,-10 L0,0 Z"/>
    <text x="5" y="-78" class="bub-lbl">O<tspan dx="4" class="bub-bull">$122</tspan></text>
    <text x="5" y="-62" class="bub-lbl">H<tspan dx="4" class="bub-neu">$135</tspan></text>
    <text x="5" y="-46" class="bub-lbl">L<tspan dx="4" class="bub-neu">$115</tspan></text>
    <text x="5" y="-30" class="bub-lbl">C<tspan dx="4" class="bub-bull">$131</tspan></text>
    <text x="5" y="-14" class="bub-lbl" font-size="9">Jan · Bullish</text>
  </g>

  <!-- b5 Feb bull cx=369 yH=220  O=131 H=150 L=128 C=148 -->
  <g class="bubble" id="b5" transform="translate(369,220)">
    <path class="bub-fill" d="M-8,-10 L-42,-10 Q-52,-10 -52,-20 L-52,-86 Q-52,-96 -42,-96 L52,-96 Q62,-96 62,-86 L62,-20 Q62,-10 52,-10 L8,-10 L0,0 Z"/>
    <path class="bub-bdr"  d="M-8,-10 L-42,-10 Q-52,-10 -52,-20 L-52,-86 Q-52,-96 -42,-96 L52,-96 Q62,-96 62,-86 L62,-20 Q62,-10 52,-10 L8,-10 L0,0 Z"/>
    <text x="5" y="-78" class="bub-lbl">O<tspan dx="4" class="bub-bull">$131</tspan></text>
    <text x="5" y="-62" class="bub-lbl">H<tspan dx="4" class="bub-neu">$150</tspan></text>
    <text x="5" y="-46" class="bub-lbl">L<tspan dx="4" class="bub-neu">$128</tspan></text>
    <text x="5" y="-30" class="bub-lbl">C<tspan dx="4" class="bub-bull">$148</tspan></text>
    <text x="5" y="-14" class="bub-lbl" font-size="9">Feb · Bullish</text>
  </g>

  <!-- b6 Mar bull cx=429 yH=172  O=148 H=162 L=143 C=158 -->
  <g class="bubble" id="b6" transform="translate(429,172)">
    <path class="bub-fill" d="M-8,-10 L-42,-10 Q-52,-10 -52,-20 L-52,-86 Q-52,-96 -42,-96 L52,-96 Q62,-96 62,-86 L62,-20 Q62,-10 52,-10 L8,-10 L0,0 Z"/>
    <path class="bub-bdr"  d="M-8,-10 L-42,-10 Q-52,-10 -52,-20 L-52,-86 Q-52,-96 -42,-96 L52,-96 Q62,-96 62,-86 L62,-20 Q62,-10 52,-10 L8,-10 L0,0 Z"/>
    <text x="5" y="-78" class="bub-lbl">O<tspan dx="4" class="bub-bull">$148</tspan></text>
    <text x="5" y="-62" class="bub-lbl">H<tspan dx="4" class="bub-neu">$162</tspan></text>
    <text x="5" y="-46" class="bub-lbl">L<tspan dx="4" class="bub-neu">$143</tspan></text>
    <text x="5" y="-30" class="bub-lbl">C<tspan dx="4" class="bub-bull">$158</tspan></text>
    <text x="5" y="-14" class="bub-lbl" font-size="9">Mar · Bullish</text>
  </g>

  <!-- b7 Apr bear cx=489 yH=160  O=158 H=165 L=144 C=147 -->
  <g class="bubble" id="b7" transform="translate(489,160)">
    <path class="bub-fill" d="M-8,-10 L-42,-10 Q-52,-10 -52,-20 L-52,-86 Q-52,-96 -42,-96 L52,-96 Q62,-96 62,-86 L62,-20 Q62,-10 52,-10 L8,-10 L0,0 Z"/>
    <path class="bub-bdr"  d="M-8,-10 L-42,-10 Q-52,-10 -52,-20 L-52,-86 Q-52,-96 -42,-96 L52,-96 Q62,-96 62,-86 L62,-20 Q62,-10 52,-10 L8,-10 L0,0 Z"/>
    <text x="5" y="-78" class="bub-lbl">O<tspan dx="4" class="bub-bear">$158</tspan></text>
    <text x="5" y="-62" class="bub-lbl">H<tspan dx="4" class="bub-neu">$165</tspan></text>
    <text x="5" y="-46" class="bub-lbl">L<tspan dx="4" class="bub-neu">$144</tspan></text>
    <text x="5" y="-30" class="bub-lbl">C<tspan dx="4" class="bub-bear">$147</tspan></text>
    <text x="5" y="-14" class="bub-lbl" font-size="9">Apr · Bearish</text>
  </g>

  <!-- b8 May bear cx=549 yH=212  O=147 H=152 L=130 C=134 -->
  <g class="bubble" id="b8" transform="translate(549,212)">
    <path class="bub-fill" d="M-8,-10 L-42,-10 Q-52,-10 -52,-20 L-52,-86 Q-52,-96 -42,-96 L52,-96 Q62,-96 62,-86 L62,-20 Q62,-10 52,-10 L8,-10 L0,0 Z"/>
    <path class="bub-bdr"  d="M-8,-10 L-42,-10 Q-52,-10 -52,-20 L-52,-86 Q-52,-96 -42,-96 L52,-96 Q62,-96 62,-86 L62,-20 Q62,-10 52,-10 L8,-10 L0,0 Z"/>
    <text x="5" y="-78" class="bub-lbl">O<tspan dx="4" class="bub-bear">$147</tspan></text>
    <text x="5" y="-62" class="bub-lbl">H<tspan dx="4" class="bub-neu">$152</tspan></text>
    <text x="5" y="-46" class="bub-lbl">L<tspan dx="4" class="bub-neu">$130</tspan></text>
    <text x="5" y="-30" class="bub-lbl">C<tspan dx="4" class="bub-bear">$134</tspan></text>
    <text x="5" y="-14" class="bub-lbl" font-size="9">May · Bearish</text>
  </g>

  <!-- b9 Jun bull cx=609 yH=224  O=134 H=149 L=129 C=146 -->
  <g class="bubble" id="b9" transform="translate(609,224)">
    <path class="bub-fill" d="M-8,-10 L-42,-10 Q-52,-10 -52,-20 L-52,-86 Q-52,-96 -42,-96 L52,-96 Q62,-96 62,-86 L62,-20 Q62,-10 52,-10 L8,-10 L0,0 Z"/>
    <path class="bub-bdr"  d="M-8,-10 L-42,-10 Q-52,-10 -52,-20 L-52,-86 Q-52,-96 -42,-96 L52,-96 Q62,-96 62,-86 L62,-20 Q62,-10 52,-10 L8,-10 L0,0 Z"/>
    <text x="5" y="-78" class="bub-lbl">O<tspan dx="4" class="bub-bull">$134</tspan></text>
    <text x="5" y="-62" class="bub-lbl">H<tspan dx="4" class="bub-neu">$149</tspan></text>
    <text x="5" y="-46" class="bub-lbl">L<tspan dx="4" class="bub-neu">$129</tspan></text>
    <text x="5" y="-30" class="bub-lbl">C<tspan dx="4" class="bub-bull">$146</tspan></text>
    <text x="5" y="-14" class="bub-lbl" font-size="9">Jun · Bullish</text>
  </g>

  <!-- b10 Jul bull cx=670 yH=148  O=146 H=168 L=140 C=165 -->
  <g class="bubble" id="b10" transform="translate(670,148)">
    <path class="bub-fill" d="M-8,-10 L-42,-10 Q-52,-10 -52,-20 L-52,-86 Q-52,-96 -42,-96 L52,-96 Q62,-96 62,-86 L62,-20 Q62,-10 52,-10 L8,-10 L0,0 Z"/>
    <path class="bub-bdr"  d="M-8,-10 L-42,-10 Q-52,-10 -52,-20 L-52,-86 Q-52,-96 -42,-96 L52,-96 Q62,-96 62,-86 L62,-20 Q62,-10 52,-10 L8,-10 L0,0 Z"/>
    <text x="5" y="-78" class="bub-lbl">O<tspan dx="4" class="bub-bull">$146</tspan></text>
    <text x="5" y="-62" class="bub-lbl">H<tspan dx="4" class="bub-neu">$168</tspan></text>
    <text x="5" y="-46" class="bub-lbl">L<tspan dx="4" class="bub-neu">$140</tspan></text>
    <text x="5" y="-30" class="bub-lbl">C<tspan dx="4" class="bub-bull">$165</tspan></text>
    <text x="5" y="-14" class="bub-lbl" font-size="9">Jul · Bullish</text>
  </g>

  <!-- b11 Aug bear cx=730 yH=132  O=165 H=172 L=151 C=155 -->
  <g class="bubble" id="b11" transform="translate(730,132)">
    <path class="bub-fill" d="M-8,-10 L-42,-10 Q-52,-10 -52,-20 L-52,-86 Q-52,-96 -42,-96 L52,-96 Q62,-96 62,-86 L62,-20 Q62,-10 52,-10 L8,-10 L0,0 Z"/>
    <path class="bub-bdr"  d="M-8,-10 L-42,-10 Q-52,-10 -52,-20 L-52,-86 Q-52,-96 -42,-96 L52,-96 Q62,-96 62,-86 L62,-20 Q62,-10 52,-10 L8,-10 L0,0 Z"/>
    <text x="5" y="-78" class="bub-lbl">O<tspan dx="4" class="bub-bear">$165</tspan></text>
    <text x="5" y="-62" class="bub-lbl">H<tspan dx="4" class="bub-neu">$172</tspan></text>
    <text x="5" y="-46" class="bub-lbl">L<tspan dx="4" class="bub-neu">$151</tspan></text>
    <text x="5" y="-30" class="bub-lbl">C<tspan dx="4" class="bub-bear">$155</tspan></text>
    <text x="5" y="-14" class="bub-lbl" font-size="9">Aug · Bearish</text>
  </g>

  <!-- b12 Sep bear cx=790 yH=180  O=155 H=160 L=138 C=142 — shift left so bubble stays in frame -->
  <g class="bubble" id="b12" transform="translate(730,180)">
    <path class="bub-fill" d="M-8,-10 L-42,-10 Q-52,-10 -52,-20 L-52,-86 Q-52,-96 -42,-96 L52,-96 Q62,-96 62,-86 L62,-20 Q62,-10 52,-10 L8,-10 L0,0 Z"/>
    <path class="bub-bdr"  d="M-8,-10 L-42,-10 Q-52,-10 -52,-20 L-52,-86 Q-52,-96 -42,-96 L52,-96 Q62,-96 62,-86 L62,-20 Q62,-10 52,-10 L8,-10 L0,0 Z"/>
    <text x="5" y="-78" class="bub-lbl">O<tspan dx="4" class="bub-bear">$155</tspan></text>
    <text x="5" y="-62" class="bub-lbl">H<tspan dx="4" class="bub-neu">$160</tspan></text>
    <text x="5" y="-46" class="bub-lbl">L<tspan dx="4" class="bub-neu">$138</tspan></text>
    <text x="5" y="-30" class="bub-lbl">C<tspan dx="4" class="bub-bear">$142</tspan></text>
    <text x="5" y="-14" class="bub-lbl" font-size="9">Sep · Bearish</text>
  </g>

</g>

<script type="text/javascript"><![CDATA[
(function () {
  var svg = document.getElementById('root');

  /* ── Entrance animation: fade in body + wick together, staggered 90ms ── */
  var candle_ids = [1,2,3,4,5,6,7,8,9,10,11,12];
  candle_ids.forEach(function(i, idx) {
    var body = document.getElementById('cb' + i);
    var wrap = document.getElementById('cw' + i);
    /* fade the whole candle group (wick + body) via the cw wrapper */
    if (wrap) {
      wrap.style.transition = 'none';
      wrap.style.opacity    = '0';
      setTimeout(function() {
        wrap.style.transition = 'opacity 1.2s ease';
        wrap.style.opacity    = '1';
      }, 80 + idx * 200);
    }
  });

  /* ── Hover bubbles ── */
  var candles = svg.querySelectorAll('.cw');
  candles.forEach(function(cw) {
    var bubId = cw.getAttribute('data-bubble');
    var bub = bubId ? document.getElementById(bubId) : null;
    cw.addEventListener('mouseenter', function() { if (bub) bub.style.opacity = '1'; });
    cw.addEventListener('mouseleave', function() { if (bub) bub.style.opacity = '0'; });
  });

  /* ── Dark / print toggles ── */
  function setMode(wantDark) {
    var currently = svg.classList.contains('dark');
    if (wantDark === currently) return;
    var thumb = document.getElementById('tthumb');
    var lbl   = document.getElementById('tlabel');
    if (wantDark) {
      svg.classList.add('dark');
      if (thumb) thumb.setAttribute('cx','52');
      if (lbl)   lbl.textContent = 'Light';
    } else {
      svg.classList.remove('dark');
      if (thumb) thumb.setAttribute('cx','16');
      if (lbl)   lbl.textContent = 'Dark';
    }
  }

  document.getElementById('dark-toggle').addEventListener('click', function() {
    setMode(!svg.classList.contains('dark'));
  });
  document.getElementById('print-toggle').addEventListener('click', function() {
    var thumb = document.getElementById('pthumb'), lbl = document.getElementById('plabel');
    if (svg.classList.toggle('print')) { thumb.setAttribute('cx','52'); lbl.textContent='Screen'; }
    else                               { thumb.setAttribute('cx','16'); lbl.textContent='Print';  }
  });

  window.setMode = setMode;
  window.addEventListener('message', function(e) {
    if (e.data && e.data.type === 'setMode') setMode(e.data.dark);
  });

  (function() {
    setMode(window.location.href.indexOf('theme=dark') !== -1);
  })();
})();
]]></script>
</svg>
