<svg id="root" class="chart-standard" viewBox="-40 88 1120 455" width="100%" height="100%" preserveAspectRatio="xMidYMid meet" xmlns="http://www.w3.org/2000/svg" font-family="'Roboto','Helvetica Neue',Arial,sans-serif">
  <script type="text/javascript">
    <![CDATA[
    (function () {
      if (window.location.href.indexOf('theme=dark') !== -1) {
       document.documentElement.classList.add('dark');
      }
    }());
    ]]>
  </script>
<defs>
  <style>
    @import url('chart-shared.css');
    /* prevent first paint in wrong color before shared css load */
    svg {
    --critical-tick-fill: #79747E;
    --critical-grid-stroke: #E7E0EC;
    --critical-axis-stroke: #79747E;
    }
    svg.dark {
    --critical-tick-fill: #938F99;
    --critical-grid-stroke: #3A3940;
    --critical-axis-stroke: #938F99;
    }
    .tick-label, .category-label { fill: var(--critical-tick-fill); }
    .grid-line { stroke: var(--critical-grid-stroke); }
    .axis-line { stroke: var(--critical-axis-stroke); }

    .line-path { animation:drawLine 1.2s cubic-bezier(0.4,0,0.2,1) both; }

    .data-layer.ready.hovering .col-dot.active { opacity:1; }
  </style>
</defs>

<line x1="68" y1="500" x2="832" y2="500" class="axis-line"/>
<line x1="68" y1="411" x2="832" y2="411" class="grid-line"/>
<line x1="68" y1="322" x2="832" y2="322" class="grid-line"/>
<line x1="68" y1="233" x2="832" y2="233" class="grid-line"/>
<line x1="68" y1="144" x2="832" y2="144" class="grid-line"/>
<line x1="68" y1="100" x2="832" y2="100" class="grid-line"/>
<line x1="68" y1="100" x2="68"  y2="500" class="axis-line"/>

<text x="56" y="504" class="tick-label" text-anchor="end">$0</text>
<text x="56" y="415" class="tick-label" text-anchor="end">$50M</text>
<text x="56" y="326" class="tick-label" text-anchor="end">$100M</text>
<text x="56" y="237" class="tick-label" text-anchor="end">$150M</text>
<text x="56" y="148" class="tick-label" text-anchor="end">$200M</text>
<text x="56" y="104" class="tick-label" text-anchor="end">$225M</text>

<text x="68"  y="530" class="category-label" text-anchor="middle">Q1 '22</text>
<text x="171" y="530" class="category-label" text-anchor="middle">Q2 '22</text>
<text x="274" y="530" class="category-label" text-anchor="middle">Q3 '22</text>
<text x="377" y="530" class="category-label" text-anchor="middle">Q4 '22</text>
<text x="480" y="530" class="category-label" text-anchor="middle">Q1 '23</text>
<text x="583" y="530" class="category-label" text-anchor="middle">Q2 '23</text>
<text x="686" y="530" class="category-label" text-anchor="middle">Q3 '23</text>
<text x="789" y="530" class="category-label" text-anchor="middle">Q4 '23</text>

<line x1="429" y1="100" x2="429" y2="510" stroke="#c0b8a8" stroke-width="1" stroke-dasharray="5,4" opacity="0.6"/>
<text x="223" y="90" class="tick-label" text-anchor="middle">2022</text>
<text x="635" y="90" class="tick-label" text-anchor="middle">2023</text>

<g class="data-layer" id="data-layer">
  <path id="band-base" class="area-path series-5" data-series="5" stroke="none" fill-opacity="0.17" d="M68,482.2 L171,476.9 L274,480.4 L377,473.3 L480,476.9 L583,469.8 L686,473.3 L789,466.2 L789,500 L68,500 Z"/>
  <path id="band-4-5" class="area-path series-4" data-series="4" stroke="none" fill-opacity="0.24" d="M68,460.9 L171,450.2 L274,448.4 L377,448.4 L480,446.7 L583,434.2 L686,444.9 L789,427.1 L789,466.2 L686,473.3 L583,469.8 L480,476.9 L377,473.3 L274,480.4 L171,476.9 L68,482.2 Z"/>
  <path id="band-3-4" class="area-path series-3" data-series="3" stroke="none" fill-opacity="0.33" d="M68,428.9 L171,411.1 L274,404.0 L377,396.9 L480,402.2 L583,384.4 L686,389.8 L789,364.9 L789,427.1 L686,444.9 L583,434.2 L480,446.7 L377,448.4 L274,448.4 L171,450.2 L68,460.9 Z"/>
  <path id="band-2-3" class="area-path series-2" data-series="2" stroke="none" fill-opacity="0.43" d="M68,379.1 L171,356.0 L274,341.8 L377,325.8 L480,324.0 L583,297.3 L686,292.0 L789,254.7 L789,364.9 L686,389.8 L583,384.4 L480,402.2 L377,396.9 L274,404.0 L171,411.1 L68,428.9 Z"/>
  <path id="band-1-2" class="area-path series-1" data-series="1" stroke="none" fill-opacity="0.55" d="M68,322.2 L171,288.4 L274,268.9 L377,240.4 L480,231.6 L583,188.9 L686,171.1 L789,126.7 L789,254.7 L686,292.0 L583,297.3 L480,324.0 L377,325.8 L274,341.8 L171,356.0 L68,379.1 Z"/>

<path id="line-5" class="line-path series-5 use-series-stroke" data-series="5" style="--len:900;fill:none" stroke-width="2" stroke-linejoin="round" stroke-linecap="round" stroke-dasharray="7,4" d="M68,482.2 L171,476.9 L274,480.4 L377,473.3 L480,476.9 L583,469.8 L686,473.3 L789,466.2"/>
<path id="line-4" class="line-path series-4 use-series-stroke" data-series="4" style="--len:900;fill:none" stroke-width="2.5" stroke-linejoin="round" stroke-linecap="round" d="M68,460.9 L171,450.2 L274,448.4 L377,448.4 L480,446.7 L583,434.2 L686,444.9 L789,427.1"/>
<path id="line-3" class="line-path series-3 use-series-stroke" data-series="3" style="--len:900;fill:none" stroke-width="2.5" stroke-linejoin="round" stroke-linecap="round" d="M68,428.9 L171,411.1 L274,404.0 L377,396.9 L480,402.2 L583,384.4 L686,389.8 L789,364.9"/>
<path id="line-2" class="line-path series-2 use-series-stroke" data-series="2" style="--len:900;fill:none" stroke-width="2.5" stroke-linejoin="round" stroke-linecap="round" d="M68,379.1 L171,356.0 L274,341.8 L377,325.8 L480,324.0 L583,297.3 L686,292.0 L789,254.7"/>
<path id="line-1" class="line-path series-1 use-series-stroke" data-series="1" style="--len:900;fill:none" stroke-width="2.5" stroke-linejoin="round" stroke-linecap="round" d="M68,322.2 L171,288.4 L274,268.9 L377,240.4 L480,231.6 L583,188.9 L686,171.1 L789,126.7"/>

  <g id="crosshairs">
    <line id="ch0" class="crosshair" x1="68" y1="100" x2="68" y2="500"/>
    <line id="ch1" class="crosshair" x1="171" y1="100" x2="171" y2="500"/>
    <line id="ch2" class="crosshair" x1="274" y1="100" x2="274" y2="500"/>
    <line id="ch3" class="crosshair" x1="377" y1="100" x2="377" y2="500"/>
    <line id="ch4" class="crosshair" x1="480" y1="100" x2="480" y2="500"/>
    <line id="ch5" class="crosshair" x1="583" y1="100" x2="583" y2="500"/>
    <line id="ch6" class="crosshair" x1="686" y1="100" x2="686" y2="500"/>
    <line id="ch7" class="crosshair" x1="789" y1="100" x2="789" y2="500"/>
  </g>
  <g id="dots-layer"></g>
  <g id="hit-layer"></g>
  <g id="tip-layer"></g>
</g>

<rect x="858" y="88" width="214" height="455" rx="18" class="legend-bg legend-panel"/>
<text x="878" y="118" class="legend-title legend-heading">SERIES</text>
<g class="legend-row" transform="translate(878,146)"><rect class="series-1" x="0" y="0" width="14" height="14" rx="3"/><text x="22" y="7" class="legend-label legend-row-label" dominant-baseline="middle">Cyan</text><text x="174" y="7" class="legend-value legend-row-value" text-anchor="end" dominant-baseline="middle">$210M</text></g>
<g class="legend-row" transform="translate(878,194)"><rect class="series-2" x="0" y="0" width="14" height="14" rx="3"/><text x="22" y="7" class="legend-label legend-row-label" dominant-baseline="middle">Emerald</text><text x="174" y="7" class="legend-value legend-row-value" text-anchor="end" dominant-baseline="middle">$138M</text></g>
<g class="legend-row" transform="translate(878,242)"><rect class="series-3" x="0" y="0" width="14" height="14" rx="3"/><text x="22" y="7" class="legend-label legend-row-label" dominant-baseline="middle">Amber</text><text x="174" y="7" class="legend-value legend-row-value" text-anchor="end" dominant-baseline="middle">$76M</text></g>
<g class="legend-row" transform="translate(878,290)"><rect class="series-4" x="0" y="0" width="14" height="14" rx="3"/><text x="22" y="7" class="legend-label legend-row-label" dominant-baseline="middle">Rose</text><text x="174" y="7" class="legend-value legend-row-value" text-anchor="end" dominant-baseline="middle">$41M</text></g>
<g class="legend-row" transform="translate(878,338)"><rect class="series-5" x="0" y="0" width="14" height="14" rx="3"/><text x="22" y="7" class="legend-label legend-row-label" dominant-baseline="middle">Violet</text><text x="174" y="7" class="legend-value legend-row-value" text-anchor="end" dominant-baseline="middle">$19M</text></g>

<script href="chart-shared.js"></script>
<script type="text/javascript"><![CDATA[
(function () {
  var svg = document.documentElement;
  svg._chartInit = function (svgEl, ctx) {
    var ns          = 'http://www.w3.org/2000/svg';
    var dataLayerEl = svgEl.querySelector('#data-layer');
    var dotsLayer   = svgEl.querySelector('#dots-layer');
    var hitLayer    = svgEl.querySelector('#hit-layer');
    var tipLayer    = svgEl.querySelector('#tip-layer');
    var defs        = svgEl.querySelector('defs');
    var plot        = { x:68, y:100, width:772, height:400 };
    var plotL = 42, plotR = 840, plotT = 100;

    var series = [
      { id:1, cls:'series-1', label:'Cyan',    vals:[100,119,130,146,151,175,185,210], ys:[322.2,288.4,268.9,240.4,231.6,188.9,171.1,126.7] },
      { id:2, cls:'series-2', label:'Emerald', vals:[68,81,89,98,99,114,117,138],      ys:[379.1,356.0,341.8,325.8,324.0,297.3,292.0,254.7] },
      { id:3, cls:'series-3', label:'Amber',   vals:[40,50,54,58,55,65,62,76],         ys:[428.9,411.1,404.0,396.9,402.2,384.4,389.8,364.9] },
      { id:4, cls:'series-4', label:'Rose',    vals:[22,28,29,29,30,37,31,41],         ys:[460.9,450.2,448.4,448.4,446.7,434.2,444.9,427.1] },
      { id:5, cls:'series-5', label:'Violet',  vals:[10,13,11,15,13,17,15,19],         ys:[482.2,476.9,480.4,473.3,476.9,469.8,473.3,466.2] }
    ];
    var quarters = ["Q1 '22","Q2 '22","Q3 '22","Q4 '22","Q1 '23","Q2 '23","Q3 '23","Q4 '23"];
    var xs = [68,171,274,377,480,583,686,789];
    var totals = xs.map(function(_, qi) {
      return series.reduce(function(sum, s) { return sum + s.vals[qi]; }, 0);
    });
    var dotTravelSeconds = 0.96;
    var revealTiming = ctx.getStaggerTiming(series.length, { duration: 1.2 }, svgEl);
    var el = ctx.el;

    [
      { selector:'#band-1-2', id:1 },
      { selector:'#band-2-3', id:2 },
      { selector:'#band-3-4', id:3 },
      { selector:'#band-4-5', id:4 },
      { selector:'#band-base', id:5 }
    ].forEach(function(band, i) {
      var area = svgEl.querySelector(band.selector);
      var line = svgEl.querySelector('#line-' + band.id);
      var revealDelay = ctx.getStaggerDelay(i, series.length, null, svgEl);
      if (area) {
        ctx.initAreaClipReveal({
          defs: defs,
          area: area,
          clipId: 'line-stack-reveal-' + band.id,
          x: plot.x,
          y: plot.y,
          width: plot.width,
          height: plot.height,
          delay: revealDelay,
          duration: 1200
        });
      }
      if (line) ctx.initStrokeReveal(line, { delay: revealDelay });
    });

    series.forEach(function(s) {
      xs.forEach(function(x, qi) {
        var y = s.ys[qi];
        var key = s.id + '_' + qi;
        var delaySeconds = ctx.getStaggerDelay(s.id - 1, series.length, null, svgEl) + qi * (dotTravelSeconds / Math.max(1, xs.length - 1));

        var dg = el('g', {'class':'dot-g', id:'d'+key});
        var inner = el('g', {'class':'dot-inner', style:'transform-origin:'+x+'px '+y+'px'});
        ctx.animateAndMarkVisible(inner, 'popDot 0.35s cubic-bezier(0.34,1.4,0.64,1) ' + delaySeconds + 's');
        inner.appendChild(el('circle', { cx:x, cy:y, r:5, 'class':s.cls, stroke:'none' }));
        dg.appendChild(inner);
        dotsLayer.appendChild(dg);

        dotsLayer.appendChild(el('circle', { cx:x, cy:y, r:4, 'class':'col-dot ' + s.cls, 'data-col':qi, stroke:'none' }));
      });
    });

    // Activate the nearest series for a hovered quarter and sync stacked-only dot states.
    function setColumnHover(qi, mouseY) {
      var bestSid = ctx.getNearestSeriesIdAtColumn(series, qi, mouseY);
      dataLayerEl.classList.add('hovering');
      ctx.setSeriesHoverState({
        activeSid: bestSid,
        seriesIds: series.map(function(s) { return s.id; }),
        pointIndices: [qi],
        lineSelector: '#line-{id}',
        areaSelector: '.area-path[data-series="{id}"]',
        dotSelector: '#d{id}_{qi} .dot-inner'
      });
      dotsLayer.querySelectorAll('.col-dot').forEach(function(dot) { dot.classList.remove('active'); });
      dotsLayer.querySelectorAll('.col-dot[data-col="'+qi+'"]').forEach(function(dot) {
        dot.classList.toggle('active', dot.getAttribute('class').indexOf('series-'+bestSid) !== -1);
      });
    }

    // Clear stacked-line hover state for both the series traces and the column markers.
    function clearColumnHover() {
      dataLayerEl.classList.remove('hovering');
      ctx.setSeriesHoverState({
        activeSid: null,
        seriesIds: series.map(function(s) { return s.id; }),
        pointCount: xs.length,
        lineSelector: '#line-{id}',
        areaSelector: '.area-path[data-series="{id}"]',
        dotSelector: '#d{id}_{qi} .dot-inner'
      });
      dotsLayer.querySelectorAll('.col-dot').forEach(function(dot) { dot.classList.remove('active'); });
    }

    ctx.initStackedColumnHover({
      xs: xs,
      quarters: quarters,
      series: series,
      totals: totals,
      tipLayer: tipLayer,
      hitLayer: hitLayer,
      plotL: plotL,
      plotR: plotR,
      plotT: plotT,
      plotB: 500,
      anchorY: 300,
      hitTop: 100,
      hitHeight: 400,
      hitHalfWidth: 56,
      hitMinX: 68,
      hitMaxX: 832,
      onEnter: function(qi, sp, tipG, ch) {
        setColumnHover(qi, sp.y);
        ctx.setOpacity(tipG, 1);
        ctx.setOpacity(ch, 1);
      },
      onMove: function(qi, sp) {
        setColumnHover(qi, sp.y);
      },
      onLeave: function(qi, tipG, ch) {
        clearColumnHover();
        ctx.setOpacity(tipG, null);
        ctx.setOpacity(ch, null);
      }
    });

    var dotLastDelay = ctx.getStaggerDelay(series.length - 1, series.length, null, svgEl) + dotTravelSeconds;
    var readyDelayMs = Math.max(revealTiming.readyDelayMs, (dotLastDelay + 0.35 + 0.1) * 1000);
    setTimeout(function(){ dataLayerEl.classList.add('ready'); }, readyDelayMs);
  };
  if (window.bootstrapChart) { window.bootstrapChart(svg); }
}());
]]></script>
</svg>
