<svg id="root" viewBox="0 0 1100 620" width="100%" height="100%" preserveAspectRatio="xMidYMid meet" xmlns="http://www.w3.org/2000/svg" font-family="'Inter','Helvetica Neue',Arial,sans-serif">
<defs>
  <style>
    @import url('https://fonts.googleapis.com/css2?family=Inter:wght@400;500;600&amp;display=swap');
    .bg-main   { fill:#FFFBFE; filter:drop-shadow(0 1px 2px rgba(0,0,0,0.10)); }
    .ct        { font-size:18px; font-weight:500; fill:#1C1B1F; letter-spacing:-0.2px; }
    .cs        { font-size:11px; fill:#79747E; font-weight:400; }
    .an        { font-size:10px; fill:#79747E; font-weight:400; }
    .an-r      { font-size:10px; fill:#6366F1; font-weight:500; }
    .al        { font-size:10px; fill:#79747E; font-weight:500; }
    .lt        { font-size:11px; fill:#1C1B1F; font-weight:400; }
    .lv        { font-size:11px; fill:#1C1B1F; font-weight:500; }
    .gl        { stroke:#E7E0EC; stroke-width:1; }
    .gl-r      { stroke:#C7C0F0; stroke-width:1; stroke-dasharray:4 3; opacity:0.7; }
    .bl        { stroke:#79747E; stroke-width:1.5; }
    .lgd-bg    { fill:#E7E0EC; stroke:#79747E; stroke-width:0.5; }
    .lgd-div   { stroke:#79747E; stroke-width:0.5; opacity:0.3; }
    .lgd-ttl   { font-size:10px; fill:#79747E; font-weight:500; letter-spacing:0.4px; }
    .footer    { font-size:10px; fill:#79747E; font-weight:400; }
    .t-wrap    { cursor:pointer; }
    .t-track   { fill:#E7E0EC; }
    .t-thumb   { fill:#ffffff; }
    .t-label   { font-size:11px; font-weight:500; fill:#49454F; }
    .pt-track  { fill:#E7E0EC; transition:fill 0.3s; }
    .pt-thumb  { fill:#ffffff; }
    .pt-label  { font-size:11px; font-weight:500; fill:#49454F; }

    .lgd-val   { opacity:0; transition:opacity 0.2s; }
    svg.print .lgd-val   { opacity:1; }
    svg.print .pt-track  { fill:#d97316; }

    .bw        { cursor:pointer; }
    .bubble    { opacity:0; pointer-events:none; transition:opacity 0.15s ease; }
    .bw:hover .bubble { opacity:1; }
    .ca:hover .bw .bb  { opacity:0.20; }
    .ca:hover .bw:hover .bb { opacity:1; }
    svg.print .bubble  { opacity:0 !important; }
    svg.print .ca:hover .bw .bb { opacity:1 !important; }

    .pareto-line { fill:none; stroke:#6366F1; stroke-width:2.5; stroke-linejoin:round; stroke-linecap:round; }
    .pareto-dot  { fill:#6366F1; stroke:#FFFBFE; stroke-width:2; }
    .p80-line    { stroke:#6366F1; stroke-width:1.2; stroke-dasharray:5 4; opacity:0.55; }

    svg.dark .pareto-line { stroke:#818CF8; }
    svg.dark .pareto-dot  { fill:#818CF8; stroke:#1C1B1F; }
    svg.dark .p80-line    { stroke:#818CF8; }
    svg.dark .gl-r        { stroke:#4F4A8A; }
    svg.dark .an-r        { fill:#818CF8; }

    .bub-bg    { fill:#FFFBFE; }
    .bub-bdr   { fill:none; stroke:#79747E; stroke-width:1; }
    .bub-tip   { fill:none; stroke:#79747E; stroke-width:1; }
    .bub-val   { fill:#1C1B1F; font-size:13px; font-weight:500; }
    .bub-lbl   { fill:#49454F; font-size:10px; font-weight:400; }
    .bub-cum   { fill:#6366F1; font-size:10px; font-weight:500; }

    svg.dark .bg-main   { fill:#1C1B1F; filter:drop-shadow(0 1px 4px rgba(0,0,0,0.25)); }
    svg.dark .ct        { fill:#E6E0E9; }
    svg.dark .cs        { fill:#938F99; }
    svg.dark .an        { fill:#938F99; }
    svg.dark .al        { fill:#938F99; }
    svg.dark .lt        { fill:#E6E0E9; }
    svg.dark .lv        { fill:#E6E0E9; }
    svg.dark .gl        { stroke:#49454F; }
    svg.dark .bl        { stroke:#938F99; }
    svg.dark .lgd-bg    { fill:#49454F; stroke:#938F99; }
    svg.dark .lgd-div   { stroke:#938F99; }
    svg.dark .lgd-ttl   { fill:#938F99; }
    svg.dark .footer    { fill:#938F99; }
    svg.dark .t-track   { fill:#49454F; }
    svg.dark .t-label   { fill:#CAC4D0; }
    svg.dark .pt-track  { fill:#49454F; }
    svg.dark .pt-label  { fill:#CAC4D0; }
    svg.dark.print .pt-track { fill:#d97316; }
    svg.dark .bub-bg    { fill:#1C1B1F; }
    svg.dark .bub-bdr   { stroke:#938F99; }
    svg.dark .bub-tip   { stroke:#938F99; }
    svg.dark .bub-val   { fill:#E6E0E9; }
    svg.dark .bub-lbl   { fill:#CAC4D0; }
    svg.dark .bub-cum   { fill:#818CF8; }

    .border-dark  { display:none; }
    .border-light { display:block; }
    svg.dark .border-dark  { display:block; }
    svg.dark .border-light { display:none; }
  </style>
</defs>

<!-- Background -->
<rect class="bg-main" width="1100" height="620" rx="18"/>
<g class="border-dark">
  <rect x="0.75" y="0.75" width="1098.5" height="618.5" rx="17.5"
    fill="none" stroke="rgba(0,242,255,0.22)" stroke-width="1.5"/>
</g>
<g class="border-light">
  <rect x="0.75" y="0.75" width="1098.5" height="618.5" rx="17.5"
    fill="none" stroke="rgba(0,0,0,0.10)" stroke-width="1.5"/>
</g>

<!-- Title -->
<text x="68" y="50" class="ct">Revenue Pareto by Category</text>
<text x="68" y="70" class="cs">Sorted descending · cumulative % line · hover to inspect · print for values</text>

<!-- Dark toggle -->
<g class="t-wrap" id="dark-toggle" transform="translate(930,52)">
  <rect x="0" y="-13" width="68" height="26" rx="13" class="t-track"/>
  <circle id="tthumb" cx="52" cy="0" r="10" class="t-thumb"/>
  <text id="tlabel" x="44" y="4" class="t-label" text-anchor="middle">Light</text>
</g>

<!-- Print toggle -->
<g class="t-wrap" id="print-toggle" transform="translate(1012,52)">
  <rect x="0" y="-13" width="68" height="26" rx="13" class="pt-track"/>
  <circle id="pthumb" cx="16" cy="0" r="10" class="pt-thumb"/>
  <text id="plabel" x="44" y="4" class="pt-label" text-anchor="middle">Print</text>
</g>

<!--
  Pareto: bars sorted descending by value
  Violet $79M, Cyan $72M, Emerald $68M, Blue $64M, Teal $61M, Amber $60M, Rose $55M, Other $48M
  Total = $507M

  Cumulative %:
  Violet:  79/507 = 15.6%
  Cyan:   151/507 = 29.8%
  Emerald:219/507 = 43.2%
  Blue:   283/507 = 55.8%
  Teal:   344/507 = 67.9%
  Amber:  404/507 = 79.7%  ← ~80% line
  Rose:   459/507 = 90.5%
  Other:  507/507 = 100%

  Left axis: $0–$100M, 400px range → 4px/$1M, baseline y=500, top y=100
  Right axis: 0–100%, 400px range → 4px/1%, y=500 at 0%, y=100 at 100%
  Right axis label x=840

  Bar centers: 130,220,310,400,490,580,670,760
  Bar width: 56

  Bar heights (4px/$1M):
  Violet:  79*4=316  → y=500-316=184
  Cyan:    72*4=288  → y=500-288=212
  Emerald: 68*4=272  → y=500-272=228
  Blue:    64*4=256  → y=500-256=244
  Teal:    61*4=244  → y=500-244=256
  Amber:   60*4=240  → y=500-240=260
  Rose:    55*4=220  → y=500-220=280
  Other:   48*4=192  → y=500-192=308

  Dot y positions (cumulative %, 4px/1%, y=500-pct*4):
  After Violet  15.6%: y=500-62.4=437.6 → 438
  After Cyan    29.8%: y=500-119.1=380.9 → 381
  After Emerald 43.2%: y=500-172.8=327.2 → 327
  After Blue    55.8%: y=500-223.1=276.9 → 277
  After Teal    67.9%: y=500-271.5=228.5 → 229
  After Amber   79.7%: y=500-318.7=181.3 → 181
  After Rose    90.5%: y=500-362.0=138.0 → 138
  After Other  100.0%: y=500-400=100

  80% reference line: y=500-320=180
-->

<!-- Left grid lines -->
<line x1="68" y1="500" x2="820" y2="500" class="bl"/>
<line x1="68" y1="400" x2="820" y2="400" class="gl"/>
<line x1="68" y1="300" x2="820" y2="300" class="gl"/>
<line x1="68" y1="200" x2="820" y2="200" class="gl"/>
<line x1="68" y1="100" x2="820" y2="100" class="gl"/>
<line x1="68" y1="100" x2="68"  y2="500" class="bl"/>
<!-- Right axis line -->
<line x1="820" y1="100" x2="820" y2="500" class="bl" style="stroke-opacity:0.4"/>

<!-- Right axis % gridlines (dashed) -->
<line x1="68" y1="340" x2="820" y2="340" class="gl-r"/><!-- 40% -->
<line x1="68" y1="180" x2="820" y2="180" class="gl-r"/><!-- 80% -->

<!-- 80% reference line (horizontal) -->
<line x1="68" y1="180" x2="820" y2="180" class="p80-line"/>
<text x="824" y="183" class="an-r" dominant-baseline="middle">80%</text>

<!-- Left Y axis labels -->
<text x="56" y="504" class="an" text-anchor="end">$0</text>
<text x="56" y="404" class="an" text-anchor="end">$25M</text>
<text x="56" y="304" class="an" text-anchor="end">$50M</text>
<text x="56" y="204" class="an" text-anchor="end">$75M</text>
<text x="56" y="104" class="an" text-anchor="end">$100M</text>

<!-- Right Y axis labels -->
<text x="828" y="504" class="an-r">0%</text>
<text x="828" y="344" class="an-r">40%</text>
<text x="828" y="184" class="an-r">80%</text>
<text x="828" y="104" class="an-r">100%</text>

<!-- X axis labels (sorted desc) -->
<text x="130" y="522" class="al" text-anchor="middle">Violet</text>
<text x="220" y="522" class="al" text-anchor="middle">Cyan</text>
<text x="310" y="522" class="al" text-anchor="middle">Emerald</text>
<text x="400" y="522" class="al" text-anchor="middle">Blue</text>
<text x="490" y="522" class="al" text-anchor="middle">Teal</text>
<text x="580" y="522" class="al" text-anchor="middle">Amber</text>
<text x="670" y="522" class="al" text-anchor="middle">Rose</text>
<text x="760" y="522" class="al" text-anchor="middle">Other</text>

<!-- ── Bars ── -->
<g class="ca">

<!-- Violet $79M h=316 -->
<g class="bw" id="bw1">
  <g class="bb">
    <g id="bar-anim-1" transform="translate(130,500)" style="opacity:0; transform-origin:130px 500px">
      <animateTransform attributeName="transform" type="scale" from="1,0" to="1,1" dur="1.20s" begin="0.00s" fill="freeze" calcMode="spline" keySplines="0.34,1.4,0.64,1" keyTimes="0;1"/>
      <animate attributeName="opacity" from="0" to="1" dur="0.45s" begin="0.00s" fill="freeze"/>
      <rect id="bar-1" x="-28" y="-316" width="56" height="316" rx="10" fill="#8B5CF6"/>
    </g>
  </g>
  <g class="bubble" transform="translate(130,326)">
    <rect x="-42" y="-58" width="84" height="52" rx="9" class="bub-bg"/>
    <path d="M-8,-6 L-33,-6 Q-42,-6 -42,-15 L-42,-49 Q-42,-58 -33,-58 L33,-58 Q42,-58 42,-49 L42,-15 Q42,-6 33,-6 L8,-6" class="bub-bdr"/>
    <path d="M8,-6 L0,8 L-8,-6" class="bub-tip"/>
    <text x="0" y="-44" text-anchor="middle" dominant-baseline="central" class="bub-val">$79M</text>
    <text x="0" y="-28" text-anchor="middle" dominant-baseline="central" class="bub-lbl">Violet · 15.6%</text>
    <text x="0" y="-14" text-anchor="middle" dominant-baseline="central" class="bub-cum">cum. 15.6%</text>
  </g>
</g>

<!-- Cyan $72M h=288 -->
<g class="bw" id="bw2">
  <g class="bb">
    <g id="bar-anim-2" transform="translate(220,500)" style="opacity:0; transform-origin:220px 500px">
      <animateTransform attributeName="transform" type="scale" from="1,0" to="1,1" dur="1.20s" begin="0.12s" fill="freeze" calcMode="spline" keySplines="0.34,1.4,0.64,1" keyTimes="0;1"/>
      <animate attributeName="opacity" from="0" to="1" dur="0.45s" begin="0.12s" fill="freeze"/>
      <rect id="bar-2" x="-28" y="-288" width="56" height="288" rx="10" fill="#00D4E8"/>
    </g>
  </g>
  <g class="bubble" transform="translate(220,356)">
    <rect x="-40" y="-58" width="80" height="52" rx="9" class="bub-bg"/>
    <path d="M-8,-6 L-31,-6 Q-40,-6 -40,-15 L-40,-49 Q-40,-58 -31,-58 L31,-58 Q40,-58 40,-49 L40,-15 Q40,-6 31,-6 L8,-6" class="bub-bdr"/>
    <path d="M8,-6 L0,8 L-8,-6" class="bub-tip"/>
    <text x="0" y="-44" text-anchor="middle" dominant-baseline="central" class="bub-val">$72M</text>
    <text x="0" y="-28" text-anchor="middle" dominant-baseline="central" class="bub-lbl">Cyan · 14.2%</text>
    <text x="0" y="-14" text-anchor="middle" dominant-baseline="central" class="bub-cum">cum. 29.8%</text>
  </g>
</g>

<!-- Emerald $68M h=272 -->
<g class="bw" id="bw3">
  <g class="bb">
    <g id="bar-anim-3" transform="translate(310,500)" style="opacity:0; transform-origin:310px 500px">
      <animateTransform attributeName="transform" type="scale" from="1,0" to="1,1" dur="1.20s" begin="0.24s" fill="freeze" calcMode="spline" keySplines="0.34,1.4,0.64,1" keyTimes="0;1"/>
      <animate attributeName="opacity" from="0" to="1" dur="0.45s" begin="0.24s" fill="freeze"/>
      <rect id="bar-3" x="-28" y="-272" width="56" height="272" rx="10" fill="#00B87A"/>
    </g>
  </g>
  <g class="bubble" transform="translate(310,372)">
    <rect x="-44" y="-58" width="88" height="52" rx="9" class="bub-bg"/>
    <path d="M-8,-6 L-35,-6 Q-44,-6 -44,-15 L-44,-49 Q-44,-58 -35,-58 L35,-58 Q44,-58 44,-49 L44,-15 Q44,-6 35,-6 L8,-6" class="bub-bdr"/>
    <path d="M8,-6 L0,8 L-8,-6" class="bub-tip"/>
    <text x="0" y="-44" text-anchor="middle" dominant-baseline="central" class="bub-val">$68M</text>
    <text x="0" y="-28" text-anchor="middle" dominant-baseline="central" class="bub-lbl">Emerald · 13.4%</text>
    <text x="0" y="-14" text-anchor="middle" dominant-baseline="central" class="bub-cum">cum. 43.2%</text>
  </g>
</g>

<!-- Blue $64M h=256 -->
<g class="bw" id="bw4">
  <g class="bb">
    <g id="bar-anim-4" transform="translate(400,500)" style="opacity:0; transform-origin:400px 500px">
      <animateTransform attributeName="transform" type="scale" from="1,0" to="1,1" dur="1.20s" begin="0.36s" fill="freeze" calcMode="spline" keySplines="0.34,1.4,0.64,1" keyTimes="0;1"/>
      <animate attributeName="opacity" from="0" to="1" dur="0.45s" begin="0.36s" fill="freeze"/>
      <rect id="bar-4" x="-28" y="-256" width="56" height="256" rx="10" fill="#3B82F6"/>
    </g>
  </g>
  <g class="bubble" transform="translate(400,388)">
    <rect x="-40" y="-58" width="80" height="52" rx="9" class="bub-bg"/>
    <path d="M-8,-6 L-31,-6 Q-40,-6 -40,-15 L-40,-49 Q-40,-58 -31,-58 L31,-58 Q40,-58 40,-49 L40,-15 Q40,-6 31,-6 L8,-6" class="bub-bdr"/>
    <path d="M8,-6 L0,8 L-8,-6" class="bub-tip"/>
    <text x="0" y="-44" text-anchor="middle" dominant-baseline="central" class="bub-val">$64M</text>
    <text x="0" y="-28" text-anchor="middle" dominant-baseline="central" class="bub-lbl">Blue · 12.6%</text>
    <text x="0" y="-14" text-anchor="middle" dominant-baseline="central" class="bub-cum">cum. 55.8%</text>
  </g>
</g>

<!-- Teal $61M h=244 -->
<g class="bw" id="bw5">
  <g class="bb">
    <g id="bar-anim-5" transform="translate(490,500)" style="opacity:0; transform-origin:490px 500px">
      <animateTransform attributeName="transform" type="scale" from="1,0" to="1,1" dur="1.20s" begin="0.48s" fill="freeze" calcMode="spline" keySplines="0.34,1.4,0.64,1" keyTimes="0;1"/>
      <animate attributeName="opacity" from="0" to="1" dur="0.45s" begin="0.48s" fill="freeze"/>
      <rect id="bar-5" x="-28" y="-244" width="56" height="244" rx="10" fill="#0D9488"/>
    </g>
  </g>
  <g class="bubble" transform="translate(490,400)">
    <rect x="-40" y="-58" width="80" height="52" rx="9" class="bub-bg"/>
    <path d="M-8,-6 L-31,-6 Q-40,-6 -40,-15 L-40,-49 Q-40,-58 -31,-58 L31,-58 Q40,-58 40,-49 L40,-15 Q40,-6 31,-6 L8,-6" class="bub-bdr"/>
    <path d="M8,-6 L0,8 L-8,-6" class="bub-tip"/>
    <text x="0" y="-44" text-anchor="middle" dominant-baseline="central" class="bub-val">$61M</text>
    <text x="0" y="-28" text-anchor="middle" dominant-baseline="central" class="bub-lbl">Teal · 12.0%</text>
    <text x="0" y="-14" text-anchor="middle" dominant-baseline="central" class="bub-cum">cum. 67.9%</text>
  </g>
</g>

<!-- Amber $60M h=240 -->
<g class="bw" id="bw6">
  <g class="bb">
    <g id="bar-anim-6" transform="translate(580,500)" style="opacity:0; transform-origin:580px 500px">
      <animateTransform attributeName="transform" type="scale" from="1,0" to="1,1" dur="1.20s" begin="0.60s" fill="freeze" calcMode="spline" keySplines="0.34,1.4,0.64,1" keyTimes="0;1"/>
      <animate attributeName="opacity" from="0" to="1" dur="0.45s" begin="0.60s" fill="freeze"/>
      <rect id="bar-6" x="-28" y="-240" width="56" height="240" rx="10" fill="#F59E0B"/>
    </g>
  </g>
  <g class="bubble" transform="translate(580,404)">
    <rect x="-40" y="-58" width="80" height="52" rx="9" class="bub-bg"/>
    <path d="M-8,-6 L-31,-6 Q-40,-6 -40,-15 L-40,-49 Q-40,-58 -31,-58 L31,-58 Q40,-58 40,-49 L40,-15 Q40,-6 31,-6 L8,-6" class="bub-bdr"/>
    <path d="M8,-6 L0,8 L-8,-6" class="bub-tip"/>
    <text x="0" y="-44" text-anchor="middle" dominant-baseline="central" class="bub-val">$60M</text>
    <text x="0" y="-28" text-anchor="middle" dominant-baseline="central" class="bub-lbl">Amber · 11.8%</text>
    <text x="0" y="-14" text-anchor="middle" dominant-baseline="central" class="bub-cum">cum. 79.7%</text>
  </g>
</g>

<!-- Rose $55M h=220 -->
<g class="bw" id="bw7">
  <g class="bb">
    <g id="bar-anim-7" transform="translate(670,500)" style="opacity:0; transform-origin:670px 500px">
      <animateTransform attributeName="transform" type="scale" from="1,0" to="1,1" dur="1.20s" begin="0.72s" fill="freeze" calcMode="spline" keySplines="0.34,1.4,0.64,1" keyTimes="0;1"/>
      <animate attributeName="opacity" from="0" to="1" dur="0.45s" begin="0.72s" fill="freeze"/>
      <rect id="bar-7" x="-28" y="-220" width="56" height="220" rx="10" fill="#F43F5E"/>
    </g>
  </g>
  <g class="bubble" transform="translate(670,424)">
    <rect x="-40" y="-58" width="80" height="52" rx="9" class="bub-bg"/>
    <path d="M-8,-6 L-31,-6 Q-40,-6 -40,-15 L-40,-49 Q-40,-58 -31,-58 L31,-58 Q40,-58 40,-49 L40,-15 Q40,-6 31,-6 L8,-6" class="bub-bdr"/>
    <path d="M8,-6 L0,8 L-8,-6" class="bub-tip"/>
    <text x="0" y="-44" text-anchor="middle" dominant-baseline="central" class="bub-val">$55M</text>
    <text x="0" y="-28" text-anchor="middle" dominant-baseline="central" class="bub-lbl">Rose · 10.8%</text>
    <text x="0" y="-14" text-anchor="middle" dominant-baseline="central" class="bub-cum">cum. 90.5%</text>
  </g>
</g>

<!-- Other $48M h=192 -->
<g class="bw" id="bw8">
  <g class="bb">
    <g id="bar-anim-8" transform="translate(760,500)" style="opacity:0; transform-origin:760px 500px">
      <animateTransform attributeName="transform" type="scale" from="1,0" to="1,1" dur="1.20s" begin="0.84s" fill="freeze" calcMode="spline" keySplines="0.34,1.4,0.64,1" keyTimes="0;1"/>
      <animate attributeName="opacity" from="0" to="1" dur="0.45s" begin="0.84s" fill="freeze"/>
      <rect id="bar-8" x="-28" y="-192" width="56" height="192" rx="10" fill="#64748B"/>
    </g>
  </g>
  <g class="bubble" transform="translate(760,440)">
    <rect x="-40" y="-58" width="80" height="52" rx="9" class="bub-bg"/>
    <path d="M-8,-6 L-31,-6 Q-40,-6 -40,-15 L-40,-49 Q-40,-58 -31,-58 L31,-58 Q40,-58 40,-49 L40,-15 Q40,-6 31,-6 L8,-6" class="bub-bdr"/>
    <path d="M8,-6 L0,8 L-8,-6" class="bub-tip"/>
    <text x="0" y="-44" text-anchor="middle" dominant-baseline="central" class="bub-val">$48M</text>
    <text x="0" y="-28" text-anchor="middle" dominant-baseline="central" class="bub-lbl">Other · 9.5%</text>
    <text x="0" y="-14" text-anchor="middle" dominant-baseline="central" class="bub-cum">cum. 100%</text>
  </g>
</g>

</g><!-- end .ca -->

<!-- ── Pareto cumulative % line (drawn on top of bars) ── -->
<!-- Dots at right edge of each bar: x = center+28 -->
<!-- Violet end x=158, Cyan end x=248, Emerald end x=338, Blue x=428, Teal x=518, Amber x=608, Rose x=698, Other x=788 -->
<polyline id="pareto-line" class="pareto-line" style="opacity:0"
  points="130,438  220,381  310,327  400,277  490,229  580,181  670,138  760,100"/>

<!-- Dots -->
<circle id="pd1" class="pareto-dot" cx="130" cy="438" r="5" style="opacity:0"/>
<circle id="pd2" class="pareto-dot" cx="220" cy="381" r="5" style="opacity:0"/>
<circle id="pd3" class="pareto-dot" cx="310" cy="327" r="5" style="opacity:0"/>
<circle id="pd4" class="pareto-dot" cx="400" cy="277" r="5" style="opacity:0"/>
<circle id="pd5" class="pareto-dot" cx="490" cy="229" r="5" style="opacity:0"/>
<circle id="pd6" class="pareto-dot" cx="580" cy="181" r="5" style="opacity:0"/>
<circle id="pd7" class="pareto-dot" cx="670" cy="138" r="5" style="opacity:0"/>
<circle id="pd8" class="pareto-dot" cx="760" cy="100" r="5" style="opacity:0"/>

<!-- LEGEND -->
<rect x="870" y="100" width="210" height="390" rx="14" class="lgd-bg" stroke-width="1"/>
<text x="888" y="124" class="lgd-ttl">SERIES (sorted)</text>
<g transform="translate(888,140)">
  <rect x="0" y="0" width="14" height="14" rx="3" fill="#8B5CF6"/>
  <text x="22" y="11" class="lt">Violet</text>
  <text x="188" y="11" class="lv lgd-val" text-anchor="end">$79M</text>
</g>
<g transform="translate(888,170)">
  <rect x="0" y="0" width="14" height="14" rx="3" fill="#00D4E8"/>
  <text x="22" y="11" class="lt">Cyan</text>
  <text x="188" y="11" class="lv lgd-val" text-anchor="end">$72M</text>
</g>
<g transform="translate(888,200)">
  <rect x="0" y="0" width="14" height="14" rx="3" fill="#00B87A"/>
  <text x="22" y="11" class="lt">Emerald</text>
  <text x="188" y="11" class="lv lgd-val" text-anchor="end">$68M</text>
</g>
<g transform="translate(888,230)">
  <rect x="0" y="0" width="14" height="14" rx="3" fill="#3B82F6"/>
  <text x="22" y="11" class="lt">Blue</text>
  <text x="188" y="11" class="lv lgd-val" text-anchor="end">$64M</text>
</g>
<g transform="translate(888,260)">
  <rect x="0" y="0" width="14" height="14" rx="3" fill="#0D9488"/>
  <text x="22" y="11" class="lt">Teal</text>
  <text x="188" y="11" class="lv lgd-val" text-anchor="end">$61M</text>
</g>
<g transform="translate(888,290)">
  <rect x="0" y="0" width="14" height="14" rx="3" fill="#F59E0B"/>
  <text x="22" y="11" class="lt">Amber</text>
  <text x="188" y="11" class="lv lgd-val" text-anchor="end">$60M</text>
</g>
<g transform="translate(888,320)">
  <rect x="0" y="0" width="14" height="14" rx="3" fill="#F43F5E"/>
  <text x="22" y="11" class="lt">Rose</text>
  <text x="188" y="11" class="lv lgd-val" text-anchor="end">$55M</text>
</g>
<line x1="888" y1="352" x2="1062" y2="352" class="lgd-div"/>
<g transform="translate(888,364)">
  <rect x="0" y="0" width="14" height="14" rx="3" fill="#64748B"/>
  <text x="22" y="11" class="lt">Other</text>
  <text x="188" y="11" class="lv lgd-val" text-anchor="end">$48M</text>
</g>
<line x1="888" y1="392" x2="1062" y2="392" class="lgd-div"/>
<!-- Pareto line legend entry -->
<g transform="translate(888,406)">
  <line x1="0" y1="7" x2="14" y2="7" stroke="#6366F1" stroke-width="2.5" stroke-linecap="round"/>
  <circle cx="7" cy="7" r="3.5" fill="#6366F1" stroke="#E7E0EC" stroke-width="1.5"/>
  <text x="22" y="11" class="lt" style="fill:#6366F1;font-weight:500">Cumulative %</text>
</g>
<!-- 80% rule note -->
<line x1="888" y1="432" x2="1062" y2="432" class="lgd-div"/>
<text x="888" y="449" class="lgd-ttl">PARETO INSIGHT</text>
<text x="888" y="466" class="lt" style="font-size:10px">Top 6 of 8 = 79.7%</text>
<text x="888" y="481" class="lt" style="font-size:10px">of total revenue</text>

<text x="68" y="600" class="footer">Revenue by Category · sorted descending · Pareto 80/20 analysis · total $507M</text>

<script type="text/javascript"><![CDATA[
(function() {
  var svg = document.getElementById('root');

  var bars = [
    { id:1, light:'#8B5CF6', dark:'#A78BFA' },
    { id:2, light:'#00D4E8', dark:'#22D3EE' },
    { id:3, light:'#00B87A', dark:'#10B981' },
    { id:4, light:'#3B82F6', dark:'#60A5FA' },
    { id:5, light:'#0D9488', dark:'#2DD4BF' },
    { id:6, light:'#F59E0B', dark:'#FBB724' },
    { id:7, light:'#F43F5E', dark:'#FB6181' },
    { id:8, light:'#64748B', dark:'#94A3B8' },
  ];

  /* Fade in pareto line and dots after bars finish */
  setTimeout(function() {
    var line = document.getElementById('pareto-line');
    if (line) { line.style.transition = 'opacity 0.5s ease'; line.style.opacity = '1'; }
    for (var i = 1; i <= 8; i++) {
      (function(idx) {
        setTimeout(function() {
          var dot = document.getElementById('pd' + idx);
          if (dot) { dot.style.transition = 'opacity 0.25s ease'; dot.style.opacity = '1'; }
        }, idx * 80);
      })(i);
    }
  }, 1100);

  function swapColors(dark) {
    bars.forEach(function(b) {
      var bar = document.getElementById('bar-' + b.id);
      if (bar) bar.setAttribute('fill', dark ? b.dark : b.light);
    });
  }

  function setMode(wantDark) {
    var currently = svg.classList.contains('dark');
    if (wantDark === currently) return;
    var thumb = document.getElementById('tthumb');
    var lbl   = document.getElementById('tlabel');
    if (wantDark) {
      svg.classList.add('dark');
      if (thumb) thumb.setAttribute('cx', '52');
      if (lbl)   lbl.textContent = 'Light';
    } else {
      svg.classList.remove('dark');
      if (thumb) thumb.setAttribute('cx', '16');
      if (lbl)   lbl.textContent = 'Dark';
    }
    swapColors(wantDark);
  }

  document.getElementById('dark-toggle').addEventListener('click', function() {
    setMode(!svg.classList.contains('dark'));
  });
  document.getElementById('print-toggle').addEventListener('click', function() {
    var thumb = document.getElementById('pthumb'), lbl = document.getElementById('plabel');
    if (svg.classList.toggle('print')) { thumb.setAttribute('cx','52'); lbl.textContent='Screen'; }
    else                               { thumb.setAttribute('cx','16'); lbl.textContent='Print';  }
  });

  window.setMode = setMode;
  window.addEventListener('message', function(e) {
    if (e.data && e.data.type === 'setMode') setMode(e.data.dark);
  });

  (function() {
    setMode(window.location.href.indexOf('theme=dark') !== -1);
  })();
})();
]]></script>
</svg>
