


<svg id="root" viewBox="40 80 1040 463" width="100%" height="100%" preserveAspectRatio="xMidYMid meet" xmlns="http://www.w3.org/2000/svg" font-family="'Roboto','Helvetica Neue',Arial,sans-serif">
<defs>
  <style>
    @import url('chart-shared.css');
  .chart-shell-hidden { display:none; }
  .card-bg, .border-light, .border-dark { display:none; }
    .card-bg    { fill:#FFFBFE; filter:drop-shadow(0 1px 2px rgba(0,0,0,0.10)); }
    .card-title { font-size:18px; font-weight:500; fill:#1C1B1F; letter-spacing:-0.2px; }
    .card-subtitle { font-size:11px; fill:#79747E; font-weight:400; }
    .tick-label { font-size:10px; fill:#79747E; font-weight:400; }
    .category-label { font-size:11px; fill:#1C1B1F; font-weight:500; }
    .legend-label { font-size:11px; fill:#1C1B1F; font-weight:400; }
    .legend-value { font-size:11px; fill:#1C1B1F; font-weight:500; opacity:0; transition:opacity 0.2s; }
    .grid-line  { stroke:#E7E0EC; stroke-width:1; fill:none; }
    .axis-line  { stroke:#79747E; stroke-width:1.5; fill:none; }
    .rl        { stroke:#C4BECE; stroke-width:0.75; fill:none; }
    .spk       { stroke:#79747E; stroke-width:1; opacity:0.25; fill:none; }
    .legend-bg  { fill:#E7E0EC; stroke:#79747E; stroke-width:0.5; }
    .legend-divider { stroke:#79747E; stroke-width:0.5; opacity:0.3; }
    .legend-title { font-size:10px; fill:#79747E; font-weight:500; letter-spacing:0.4px; }
    .footer    { font-size:10px; fill:#79747E; font-weight:400; }
    .toggle-wrap  { cursor:pointer; }
    .toggle-track { fill:#E7E0EC; }
    .toggle-thumb { fill:#ffffff; }
    .toggle-label { font-size:11px; font-weight:500; fill:#49454F; }
    .print-track  { fill:#E7E0EC; transition:fill 0.3s; }
    .print-thumb  { fill:#ffffff; }
    .print-label  { font-size:11px; font-weight:500; fill:#49454F; }
    svg.print .legend-value { opacity:1; }
    svg.print .print-track { fill:#d97316; }

    /* §1 — Standard palette */
    .series-1 { fill:#00D4E8; } .series-2 { fill:#00B87A; }
    .series-3 { fill:#F59E0B; } .series-4 { fill:#F43F5E; }
    .series-5 { fill:#8B5CF6; } .series-6 { fill:#3B82F6; }
    .series-7 { fill:#0D9488; } .series-8 { fill:#64748B; }
    svg.dark .series-1 { fill:#22D3EE; } svg.dark .series-2 { fill:#10B981; }
    svg.dark .series-3 { fill:#FBB724; } svg.dark .series-4 { fill:#FB6181; }
    svg.dark .series-5 { fill:#A78BFA; } svg.dark .series-6 { fill:#60A5FA; }
    svg.dark .series-7 { fill:#2DD4BF; } svg.dark .series-8 { fill:#94A3B8; }

    /* §1 — Semantic: polygon uses currentColor so fill/stroke inherit from .series-N on the same element */
    /* §1 — radar polygon: one element per series. .series-N provides fill color.
       .sp-poly adds fill-opacity + stroke-width. .sp-poly-N maps stroke to palette. */
    .sp-poly   { fill-opacity:0.18; stroke-width:2; stroke-linejoin:round; }
    .sp-poly-1 { stroke:#00D4E8; } svg.dark .sp-poly-1 { stroke:#22D3EE; }
    .sp-poly-2 { stroke:#00B87A; } svg.dark .sp-poly-2 { stroke:#10B981; }
    .sp-poly-5 { stroke:#8B5CF6; } svg.dark .sp-poly-5 { stroke:#A78BFA; }

    /* §3 — Animation: geometry + opacity → rAF method.
       Initial state set via JS inline style (opacity:0, scale). CSS class .sa
       provides transform-box/origin only — no animation declaration here. */
    .sa {
      transform-box: fill-box;
      transform-origin: center;
    }

    /* §4 — Hover: JS-driven .hovering/.active, gated on .ready */
    .data-item { cursor:pointer; }
    .data-layer.ready.hovering .data-item        { opacity:0.20; transition:opacity 0.2s ease; }
    .data-layer.ready.hovering .data-item.active { opacity:1;    transition:opacity 0.2s ease; }
    .dw  { cursor:pointer; }
    /* Dot hit targets — invisible circles in a top-layer group, pointer-events only */
    .dht { fill:transparent; cursor:pointer; pointer-events:all; }

    /* §4 — Tooltip bubble */
    .data-tip  { opacity:0; pointer-events:none; transition:opacity 0.15s ease; }
    svg.print .data-tip { opacity:0 !important; }
    .tip-bg     { fill:#FFFBFE; }
    .tip-border { fill:#FFFBFE; stroke:#79747E; stroke-width:1; }
    .tip-tail   { fill:#FFFBFE; stroke:#79747E; stroke-width:1; }
    .tip-value  { fill:#1C1B1F; font-size:28px; font-weight:700; }
    .tip-label  { fill:#49454F; font-size:22px; font-weight:400; }
    .tip-pct    { fill:#79747E; font-size:22px; font-weight:400; }
    svg.dark .tip-value { fill:#E6E0E9; }
    svg.dark .tip-label { fill:#CAC4D0; }

    svg.dark .card-bg    { fill:#1C1B1F; filter:drop-shadow(0 1px 4px rgba(0,0,0,0.25)); }
    svg.dark .card-title { fill:#E6E0E9; }
    svg.dark .card-subtitle { fill:#938F99; }
    svg.dark .tick-label { fill:#938F99; }
    svg.dark .category-label { fill:#E6E0E9; }
    svg.dark .legend-label { fill:#E6E0E9; }
    svg.dark .legend-value { fill:#E6E0E9; }
    svg.dark .grid-line  { stroke:#49454F; }
    svg.dark .axis-line  { stroke:#938F99; }
    svg.dark .rl        { stroke:#6B6572; }
    svg.dark .spk       { stroke:#938F99; }
    svg.dark .legend-bg  { fill:#49454F; stroke:#938F99; }
    svg.dark .legend-divider { stroke:#938F99; }
    svg.dark .legend-title { fill:#938F99; }
    svg.dark .footer    { fill:#938F99; }
    svg.dark .toggle-track { fill:#49454F; }
    svg.dark .toggle-label { fill:#CAC4D0; }
    svg.dark .print-track  { fill:#49454F; }
    svg.dark .print-label  { fill:#CAC4D0; }
    svg.dark.print .print-track { fill:#d97316; }
    svg.dark .tip-bg    { fill:#1C1B1F; }
    svg.dark .tip-border { fill:#1C1B1F; stroke:#938F99; }
    svg.dark .tip-tail  { fill:#1C1B1F; stroke:#938F99; }
    svg.dark .tip-value { fill:#E6E0E9; }
    svg.dark .tip-label { fill:#CAC4D0; }
    svg.dark .tip-pct   { fill:#938F99; }
    .border-dark  { display:none; }
    .border-light { display:block; }
    svg.dark .border-dark  { display:block; }
    svg.dark .border-light { display:none; }
    .card-bg, .border-light, .border-dark, .card-title, .card-subtitle, .footer, .toggle-wrap { display:none !important; }
  </style>
</defs>

<!--
  GEOMETRY: Centre cx=430, cy=305  R=200  7 axes
  cy=305 (not 310) compensates for 7-polygon vertical asymmetry:
  top vertex is R above cy, bottom vertices only R*sin(64.3°)=180px below —
  shifting cy up by 5px visually centres the ring in its available space.

  Axis tip coords at R=200:
    a0(Revenue):      (430,   105)
    a1(Growth):       (586.4, 180.3)
    a2(Margin):       (625,   349.5)
    a3(Satisfaction): (516.8, 485.2)
    a4(Retention):    (343.2, 485.2)
    a5(Innovation):   (235,   349.5)
    a6(Quality):      (273.6, 180.3)
-->

<rect class="card-bg" width="1100" height="620" rx="18"/>
<g class="border-dark">
  <rect x="0.75" y="0.75" width="1098.5" height="618.5" rx="17.5" fill="none" stroke="rgba(0,242,255,0.22)" stroke-width="1.5"/>
</g>
<g class="border-light">
  <rect x="0.75" y="0.75" width="1098.5" height="618.5" rx="17.5" fill="none" stroke="rgba(0,0,0,0.10)" stroke-width="1.5"/>
</g>

<text x="68" y="50" class="card-title">Product Performance Scorecard - Radar</text>
<text x="68" y="70" class="card-subtitle">3 series · 7 axes · score 0–100 · hover to inspect · print for values</text>

<g class="toggle-wrap" id="dark-toggle" transform="translate(930,52)">
  <rect x="0" y="-13" width="68" height="26" rx="13" class="toggle-track"/>
  <circle id="tthumb" cx="16" cy="0" r="10" class="toggle-thumb"/>
  <text id="tlabel" x="44" y="4" class="toggle-label" text-anchor="middle">Dark</text>
</g>
<g class="toggle-wrap" id="print-toggle" transform="translate(1012,52)">
  <rect x="0" y="-13" width="68" height="26" rx="13" class="print-track"/>
  <circle id="pthumb" cx="16" cy="0" r="10" class="print-thumb"/>
  <text id="plabel" x="44" y="4" class="print-label" text-anchor="middle">Print</text>
</g>

<!-- ── RADAR RINGS (cx=430, cy=305, R=200) ── -->
<polygon class="grid-line" points="430.0,265.0 461.3,280.1 469.0,313.9 447.4,341.0 412.6,341.0 391.0,313.9 398.7,280.1"/>
<polygon class="grid-line" points="430.0,225.0 492.5,255.1 508.0,322.8 464.7,377.1 395.3,377.1 352.0,322.8 367.5,255.1"/>
<polygon class="grid-line" points="430.0,185.0 523.8,230.2 547.0,331.7 482.1,413.1 377.9,413.1 313.0,331.7 336.2,230.2"/>
<polygon class="grid-line" points="430.0,145.0 555.1,205.2 586.0,340.6 499.4,449.2 360.6,449.2 274.0,340.6 304.9,205.2"/>
<polygon class="rl" points="430.0,105.0 586.4,180.3 625.0,349.5 516.8,485.2 343.2,485.2 235.0,349.5 273.6,180.3"/>

<!-- ── SPOKES ── -->
<line x1="430" y1="305" x2="430.0" y2="105.0" class="spk"/>
<line x1="430" y1="305" x2="586.4" y2="180.3" class="spk"/>
<line x1="430" y1="305" x2="625.0" y2="349.5" class="spk"/>
<line x1="430" y1="305" x2="516.8" y2="485.2" class="spk"/>
<line x1="430" y1="305" x2="343.2" y2="485.2" class="spk"/>
<line x1="430" y1="305" x2="235.0" y2="349.5" class="spk"/>
<line x1="430" y1="305" x2="273.6" y2="180.3" class="spk"/>

<!-- ── RING VALUE LABELS ── -->
<text x="435" y="265" class="tick-label">20</text>
<text x="435" y="225" class="tick-label">40</text>
<text x="435" y="185" class="tick-label">60</text>
<text x="435" y="145" class="tick-label">80</text>
<text x="435" y="109" class="tick-label">100</text>

<!-- ── AXIS LABELS ── -->
<text x="430.0" y="91"  class="category-label" text-anchor="middle">Revenue</text>
<text x="598.4" y="174" class="category-label" text-anchor="start">Growth</text>
<text x="637.0" y="356" class="category-label" text-anchor="start">Margin</text>
<text x="516.8" y="501" class="category-label" text-anchor="middle">Satisfaction</text>
<text x="343.2" y="501" class="category-label" text-anchor="middle">Retention</text>
<text x="223.0" y="356" class="category-label" text-anchor="end">Innovation</text>
<text x="261.6" y="174" class="category-label" text-anchor="end">Quality</text>

<!-- ══════════════════════════════════════
     SERIES — drawn back-to-front
     ══════════════════════════════════════ -->
<g class="data-layer" id="data-layer">

<!-- ── Series C: Emerald (back layer) ── -->
<g class="data-item" id="bw3">
  <g class="data-body">
    <g id="series-anim-3" class="sa" style="opacity:0;transform:scale(0)">
      <polygon class="series-2 sp-poly sp-poly-2" points="430.0,177.0 508.2,242.7 595.7,342.8 491.6,432.9 358.8,452.8 309.1,332.6 289.3,192.8"/>
      <circle cx="430.0" cy="177.0" r="6" class="series-2"/>
      <circle cx="508.2" cy="242.7" r="6" class="series-2"/>
      <circle cx="595.7" cy="342.8" r="6" class="series-2"/>
      <circle cx="491.6" cy="432.9" r="6" class="series-2"/>
      <circle cx="358.8" cy="452.8" r="6" class="series-2"/>
      <circle cx="309.1" cy="332.6" r="6" class="series-2"/>
      <circle cx="289.3" cy="192.8" r="6" class="series-2"/>
    </g>
  </g>
</g>

<!-- ── Series B: Violet (middle layer) ── -->
<g class="data-item" id="bw2">
  <g class="data-body">
    <g id="series-anim-2" class="sa" style="opacity:0;transform:scale(0)">
      <polygon class="series-5 sp-poly sp-poly-5" points="430.0,195.0 558.2,202.7 566.5,336.2 484.7,418.5 379.7,409.5 258.4,344.2 317.4,215.2"/>
      <circle cx="430.0" cy="195.0" r="6" class="series-5"/>
      <circle cx="558.2" cy="202.7" r="6" class="series-5"/>
      <circle cx="566.5" cy="336.2" r="6" class="series-5"/>
      <circle cx="484.7" cy="418.5" r="6" class="series-5"/>
      <circle cx="379.7" cy="409.5" r="6" class="series-5"/>
      <circle cx="258.4" cy="344.2" r="6" class="series-5"/>
      <circle cx="317.4" cy="215.2" r="6" class="series-5"/>
    </g>
  </g>
</g>

<!-- ── Series A: Cyan (front layer) ── -->
<g class="data-item" id="bw1">
  <g class="data-body">
    <g id="series-anim-1" class="sa" style="opacity:0;transform:scale(0)">
      <polygon class="series-1 sp-poly sp-poly-1" points="430.0,161.0 531.6,223.9 543.1,330.8 499.4,449.2 365.8,438.3 322.8,329.5 323.7,220.2"/>
      <circle cx="430.0" cy="161.0" r="6" class="series-1"/>
      <circle cx="531.6" cy="223.9" r="6" class="series-1"/>
      <circle cx="543.1" cy="330.8" r="6" class="series-1"/>
      <circle cx="499.4" cy="449.2" r="6" class="series-1"/>
      <circle cx="365.8" cy="438.3" r="6" class="series-1"/>
      <circle cx="322.8" cy="329.5" r="6" class="series-1"/>
      <circle cx="323.7" cy="220.2" r="6" class="series-1"/>
    </g>
  </g>
</g>

</g><!-- /data-layer -->

<!-- ── Bubble overlay — drawn above all series ── -->
<g id="bubble-overlay">
  <!-- Emerald bubbles (canonical positions = dot coords in .data-layer) -->
  <g class="data-tip" id="b3d1-bub" transform="translate(430,196)">
    <rect x="-125" y="-114" width="250" height="100" rx="12" class="tip-bg"/>
    <path d="M8,-14 L113,-14 Q125,-14 125,-26 L125,-102 Q125,-114 113,-114 L-113,-114 Q-125,-114 -125,-102 L-125,-26 Q-125,-14 -113,-14 L-8,-14" class="tip-border"/>
    <path d="M8,-14 L0,0 L-8,-14" class="tip-tail"/>
    <text x="0" y="-84" text-anchor="middle" dominant-baseline="central" class="tip-value">64</text>
    <text x="0" y="-44" text-anchor="middle" dominant-baseline="central" class="tip-label">Revenue · Emerald</text>
  </g>
  <g class="data-tip" id="b3d2-bub" transform="translate(508.2,242.7)">
    <rect x="-125" y="-114" width="250" height="100" rx="12" class="tip-bg"/>
    <path d="M8,-14 L113,-14 Q125,-14 125,-26 L125,-102 Q125,-114 113,-114 L-113,-114 Q-125,-114 -125,-102 L-125,-26 Q-125,-14 -113,-14 L-8,-14" class="tip-border"/>
    <path d="M8,-14 L0,0 L-8,-14" class="tip-tail"/>
    <text x="0" y="-84" text-anchor="middle" dominant-baseline="central" class="tip-value">50</text>
    <text x="0" y="-44" text-anchor="middle" dominant-baseline="central" class="tip-label">Growth · Emerald</text>
  </g>
  <g class="data-tip" id="b3d3-bub" transform="translate(595.7,342.8)">
    <rect x="-125" y="-114" width="250" height="100" rx="12" class="tip-bg"/>
    <path d="M8,-14 L113,-14 Q125,-14 125,-26 L125,-102 Q125,-114 113,-114 L-113,-114 Q-125,-114 -125,-102 L-125,-26 Q-125,-14 -113,-14 L-8,-14" class="tip-border"/>
    <path d="M8,-14 L0,0 L-8,-14" class="tip-tail"/>
    <text x="0" y="-84" text-anchor="middle" dominant-baseline="central" class="tip-value">85</text>
    <text x="0" y="-44" text-anchor="middle" dominant-baseline="central" class="tip-label">Margin · Emerald</text>
  </g>
  <g class="data-tip" id="b3d4-bub" transform="translate(491.6,432.9)">
    <rect x="-125" y="-114" width="250" height="100" rx="12" class="tip-bg"/>
    <path d="M8,-14 L113,-14 Q125,-14 125,-26 L125,-102 Q125,-114 113,-114 L-113,-114 Q-125,-114 -125,-102 L-125,-26 Q-125,-14 -113,-14 L-8,-14" class="tip-border"/>
    <path d="M8,-14 L0,0 L-8,-14" class="tip-tail"/>
    <text x="0" y="-84" text-anchor="middle" dominant-baseline="central" class="tip-value">71</text>
    <text x="0" y="-44" text-anchor="middle" dominant-baseline="central" class="tip-label">Satisfaction · Emerald</text>
  </g>
  <g class="data-tip" id="b3d5-bub" transform="translate(358.8,452.8)">
    <rect x="-125" y="-114" width="250" height="100" rx="12" class="tip-bg"/>
    <path d="M8,-14 L113,-14 Q125,-14 125,-26 L125,-102 Q125,-114 113,-114 L-113,-114 Q-125,-114 -125,-102 L-125,-26 Q-125,-14 -113,-14 L-8,-14" class="tip-border"/>
    <path d="M8,-14 L0,0 L-8,-14" class="tip-tail"/>
    <text x="0" y="-84" text-anchor="middle" dominant-baseline="central" class="tip-value">82</text>
    <text x="0" y="-44" text-anchor="middle" dominant-baseline="central" class="tip-label">Retention · Emerald</text>
  </g>
  <g class="data-tip" id="b3d6-bub" transform="translate(309.1,332.6)">
    <rect x="-125" y="-114" width="250" height="100" rx="12" class="tip-bg"/>
    <path d="M8,-14 L113,-14 Q125,-14 125,-26 L125,-102 Q125,-114 113,-114 L-113,-114 Q-125,-114 -125,-102 L-125,-26 Q-125,-14 -113,-14 L-8,-14" class="tip-border"/>
    <path d="M8,-14 L0,0 L-8,-14" class="tip-tail"/>
    <text x="0" y="-84" text-anchor="middle" dominant-baseline="central" class="tip-value">62</text>
    <text x="0" y="-44" text-anchor="middle" dominant-baseline="central" class="tip-label">Innovation · Emerald</text>
  </g>
  <g class="data-tip" id="b3d7-bub" transform="translate(289.3,196)">
    <rect x="-125" y="-114" width="250" height="100" rx="12" class="tip-bg"/>
    <path d="M8,-14 L113,-14 Q125,-14 125,-26 L125,-102 Q125,-114 113,-114 L-113,-114 Q-125,-114 -125,-102 L-125,-26 Q-125,-14 -113,-14 L-8,-14" class="tip-border"/>
    <path d="M8,-14 L0,0 L-8,-14" class="tip-tail"/>
    <text x="0" y="-84" text-anchor="middle" dominant-baseline="central" class="tip-value">90</text>
    <text x="0" y="-44" text-anchor="middle" dominant-baseline="central" class="tip-label">Quality · Emerald</text>
  </g>
  <g class="data-tip" id="b2d1-bub" transform="translate(430.0,195.0)">
    <rect x="-125" y="-114" width="250" height="100" rx="12" class="tip-bg"/>
    <path d="M8,-14 L113,-14 Q125,-14 125,-26 L125,-102 Q125,-114 113,-114 L-113,-114 Q-125,-114 -125,-102 L-125,-26 Q-125,-14 -113,-14 L-8,-14" class="tip-border"/>
    <path d="M8,-14 L0,0 L-8,-14" class="tip-tail"/>
    <text x="0" y="-84" text-anchor="middle" dominant-baseline="central" class="tip-value">55</text>
    <text x="0" y="-44" text-anchor="middle" dominant-baseline="central" class="tip-label">Revenue · Violet</text>
  </g>
  <g class="data-tip" id="b2d2-bub" transform="translate(558.2,202.7)">
    <rect x="-125" y="-114" width="250" height="100" rx="12" class="tip-bg"/>
    <path d="M8,-14 L113,-14 Q125,-14 125,-26 L125,-102 Q125,-114 113,-114 L-113,-114 Q-125,-114 -125,-102 L-125,-26 Q-125,-14 -113,-14 L-8,-14" class="tip-border"/>
    <path d="M8,-14 L0,0 L-8,-14" class="tip-tail"/>
    <text x="0" y="-84" text-anchor="middle" dominant-baseline="central" class="tip-value">82</text>
    <text x="0" y="-44" text-anchor="middle" dominant-baseline="central" class="tip-label">Growth · Violet</text>
  </g>
  <g class="data-tip" id="b2d3-bub" transform="translate(566.5,336.2)">
    <rect x="-125" y="-114" width="250" height="100" rx="12" class="tip-bg"/>
    <path d="M8,-14 L113,-14 Q125,-14 125,-26 L125,-102 Q125,-114 113,-114 L-113,-114 Q-125,-114 -125,-102 L-125,-26 Q-125,-14 -113,-14 L-8,-14" class="tip-border"/>
    <path d="M8,-14 L0,0 L-8,-14" class="tip-tail"/>
    <text x="0" y="-84" text-anchor="middle" dominant-baseline="central" class="tip-value">70</text>
    <text x="0" y="-44" text-anchor="middle" dominant-baseline="central" class="tip-label">Margin · Violet</text>
  </g>
  <g class="data-tip" id="b2d4-bub" transform="translate(484.7,418.5)">
    <rect x="-125" y="-114" width="250" height="100" rx="12" class="tip-bg"/>
    <path d="M8,-14 L113,-14 Q125,-14 125,-26 L125,-102 Q125,-114 113,-114 L-113,-114 Q-125,-114 -125,-102 L-125,-26 Q-125,-14 -113,-14 L-8,-14" class="tip-border"/>
    <path d="M8,-14 L0,0 L-8,-14" class="tip-tail"/>
    <text x="0" y="-84" text-anchor="middle" dominant-baseline="central" class="tip-value">63</text>
    <text x="0" y="-44" text-anchor="middle" dominant-baseline="central" class="tip-label">Satisfaction · Violet</text>
  </g>
  <g class="data-tip" id="b2d5-bub" transform="translate(379.7,409.5)">
    <rect x="-125" y="-114" width="250" height="100" rx="12" class="tip-bg"/>
    <path d="M8,-14 L113,-14 Q125,-14 125,-26 L125,-102 Q125,-114 113,-114 L-113,-114 Q-125,-114 -125,-102 L-125,-26 Q-125,-14 -113,-14 L-8,-14" class="tip-border"/>
    <path d="M8,-14 L0,0 L-8,-14" class="tip-tail"/>
    <text x="0" y="-84" text-anchor="middle" dominant-baseline="central" class="tip-value">58</text>
    <text x="0" y="-44" text-anchor="middle" dominant-baseline="central" class="tip-label">Retention · Violet</text>
  </g>
  <g class="data-tip" id="b2d6-bub" transform="translate(258.4,344.2)">
    <rect x="-125" y="-114" width="250" height="100" rx="12" class="tip-bg"/>
    <path d="M8,-14 L113,-14 Q125,-14 125,-26 L125,-102 Q125,-114 113,-114 L-113,-114 Q-125,-114 -125,-102 L-125,-26 Q-125,-14 -113,-14 L-8,-14" class="tip-border"/>
    <path d="M8,-14 L0,0 L-8,-14" class="tip-tail"/>
    <text x="0" y="-84" text-anchor="middle" dominant-baseline="central" class="tip-value">88</text>
    <text x="0" y="-44" text-anchor="middle" dominant-baseline="central" class="tip-label">Innovation · Violet</text>
  </g>
  <g class="data-tip" id="b2d7-bub" transform="translate(317.4,215.2)">
    <rect x="-125" y="-114" width="250" height="100" rx="12" class="tip-bg"/>
    <path d="M8,-14 L113,-14 Q125,-14 125,-26 L125,-102 Q125,-114 113,-114 L-113,-114 Q-125,-114 -125,-102 L-125,-26 Q-125,-14 -113,-14 L-8,-14" class="tip-border"/>
    <path d="M8,-14 L0,0 L-8,-14" class="tip-tail"/>
    <text x="0" y="-84" text-anchor="middle" dominant-baseline="central" class="tip-value">72</text>
    <text x="0" y="-44" text-anchor="middle" dominant-baseline="central" class="tip-label">Quality · Violet</text>
  </g>
  <g class="data-tip" id="b1d1-bub" transform="translate(430,196)">
    <rect x="-125" y="-114" width="250" height="100" rx="12" class="tip-bg"/>
    <path d="M8,-14 L113,-14 Q125,-14 125,-26 L125,-102 Q125,-114 113,-114 L-113,-114 Q-125,-114 -125,-102 L-125,-26 Q-125,-14 -113,-14 L-8,-14" class="tip-border"/>
    <path d="M8,-14 L0,0 L-8,-14" class="tip-tail"/>
    <text x="0" y="-84" text-anchor="middle" dominant-baseline="central" class="tip-value">72</text>
    <text x="0" y="-44" text-anchor="middle" dominant-baseline="central" class="tip-label">Revenue · Cyan</text>
  </g>
  <g class="data-tip" id="b1d2-bub" transform="translate(531.6,223.9)">
    <rect x="-125" y="-114" width="250" height="100" rx="12" class="tip-bg"/>
    <path d="M8,-14 L113,-14 Q125,-14 125,-26 L125,-102 Q125,-114 113,-114 L-113,-114 Q-125,-114 -125,-102 L-125,-26 Q-125,-14 -113,-14 L-8,-14" class="tip-border"/>
    <path d="M8,-14 L0,0 L-8,-14" class="tip-tail"/>
    <text x="0" y="-84" text-anchor="middle" dominant-baseline="central" class="tip-value">65</text>
    <text x="0" y="-44" text-anchor="middle" dominant-baseline="central" class="tip-label">Growth · Cyan</text>
  </g>
  <g class="data-tip" id="b1d3-bub" transform="translate(543.1,330.8)">
    <rect x="-125" y="-114" width="250" height="100" rx="12" class="tip-bg"/>
    <path d="M8,-14 L113,-14 Q125,-14 125,-26 L125,-102 Q125,-114 113,-114 L-113,-114 Q-125,-114 -125,-102 L-125,-26 Q-125,-14 -113,-14 L-8,-14" class="tip-border"/>
    <path d="M8,-14 L0,0 L-8,-14" class="tip-tail"/>
    <text x="0" y="-84" text-anchor="middle" dominant-baseline="central" class="tip-value">58</text>
    <text x="0" y="-44" text-anchor="middle" dominant-baseline="central" class="tip-label">Margin · Cyan</text>
  </g>
  <g class="data-tip" id="b1d4-bub" transform="translate(499.4,449.2)">
    <rect x="-125" y="-114" width="250" height="100" rx="12" class="tip-bg"/>
    <path d="M8,-14 L113,-14 Q125,-14 125,-26 L125,-102 Q125,-114 113,-114 L-113,-114 Q-125,-114 -125,-102 L-125,-26 Q-125,-14 -113,-14 L-8,-14" class="tip-border"/>
    <path d="M8,-14 L0,0 L-8,-14" class="tip-tail"/>
    <text x="0" y="-84" text-anchor="middle" dominant-baseline="central" class="tip-value">80</text>
    <text x="0" y="-44" text-anchor="middle" dominant-baseline="central" class="tip-label">Satisfaction · Cyan</text>
  </g>
  <g class="data-tip" id="b1d5-bub" transform="translate(365.8,438.3)">
    <rect x="-125" y="-114" width="250" height="100" rx="12" class="tip-bg"/>
    <path d="M8,-14 L113,-14 Q125,-14 125,-26 L125,-102 Q125,-114 113,-114 L-113,-114 Q-125,-114 -125,-102 L-125,-26 Q-125,-14 -113,-14 L-8,-14" class="tip-border"/>
    <path d="M8,-14 L0,0 L-8,-14" class="tip-tail"/>
    <text x="0" y="-84" text-anchor="middle" dominant-baseline="central" class="tip-value">74</text>
    <text x="0" y="-44" text-anchor="middle" dominant-baseline="central" class="tip-label">Retention · Cyan</text>
  </g>
  <g class="data-tip" id="b1d6-bub" transform="translate(322.8,329.5)">
    <rect x="-125" y="-114" width="250" height="100" rx="12" class="tip-bg"/>
    <path d="M8,-14 L113,-14 Q125,-14 125,-26 L125,-102 Q125,-114 113,-114 L-113,-114 Q-125,-114 -125,-102 L-125,-26 Q-125,-14 -113,-14 L-8,-14" class="tip-border"/>
    <path d="M8,-14 L0,0 L-8,-14" class="tip-tail"/>
    <text x="0" y="-84" text-anchor="middle" dominant-baseline="central" class="tip-value">55</text>
    <text x="0" y="-44" text-anchor="middle" dominant-baseline="central" class="tip-label">Innovation · Cyan</text>
  </g>
  <g class="data-tip" id="b1d7-bub" transform="translate(323.7,220.2)">
    <rect x="-125" y="-114" width="250" height="100" rx="12" class="tip-bg"/>
    <path d="M8,-14 L113,-14 Q125,-14 125,-26 L125,-102 Q125,-114 113,-114 L-113,-114 Q-125,-114 -125,-102 L-125,-26 Q-125,-14 -113,-14 L-8,-14" class="tip-border"/>
    <path d="M8,-14 L0,0 L-8,-14" class="tip-tail"/>
    <text x="0" y="-84" text-anchor="middle" dominant-baseline="central" class="tip-value">68</text>
    <text x="0" y="-44" text-anchor="middle" dominant-baseline="central" class="tip-label">Quality · Cyan</text>
  </g>
</g><!-- /bubble-overlay -->

<!-- ── Dot hit-target layer — painted last, above all polygons and bubbles ──
     Invisible r=12 circles guarantee pointer events reach every dot regardless
     of which series polygon is rendered on top. Order: back-to-front so that
     when dots from different series are stacked, the frontmost series (Cyan)
     wins the hit, matching visual expectation. -->
<g id="dot-hit-layer">
  <!-- Emerald hits (back) -->
  <circle class="dht" id="b3d1" cx="430.0" cy="177.0" r="12"/>
  <circle class="dht" id="b3d2" cx="508.2" cy="242.7" r="12"/>
  <circle class="dht" id="b3d3" cx="595.7" cy="342.8" r="12"/>
  <circle class="dht" id="b3d4" cx="491.6" cy="432.9" r="12"/>
  <circle class="dht" id="b3d5" cx="358.8" cy="452.8" r="12"/>
  <circle class="dht" id="b3d6" cx="309.1" cy="332.6" r="12"/>
  <circle class="dht" id="b3d7" cx="289.3" cy="192.8" r="12"/>
  <!-- Violet hits (middle) -->
  <circle class="dht" id="b2d1" cx="430.0" cy="195.0" r="12"/>
  <circle class="dht" id="b2d2" cx="558.2" cy="202.7" r="12"/>
  <circle class="dht" id="b2d3" cx="566.5" cy="336.2" r="12"/>
  <circle class="dht" id="b2d4" cx="484.7" cy="418.5" r="12"/>
  <circle class="dht" id="b2d5" cx="379.7" cy="409.5" r="12"/>
  <circle class="dht" id="b2d6" cx="258.4" cy="344.2" r="12"/>
  <circle class="dht" id="b2d7" cx="317.4" cy="215.2" r="12"/>
  <!-- Cyan hits (front — painted last so Cyan wins stacked positions) -->
  <circle class="dht" id="b1d1" cx="430.0" cy="161.0" r="12"/>
  <circle class="dht" id="b1d2" cx="531.6" cy="223.9" r="12"/>
  <circle class="dht" id="b1d3" cx="543.1" cy="330.8" r="12"/>
  <circle class="dht" id="b1d4" cx="499.4" cy="449.2" r="12"/>
  <circle class="dht" id="b1d5" cx="365.8" cy="438.3" r="12"/>
  <circle class="dht" id="b1d6" cx="322.8" cy="329.5" r="12"/>
  <circle class="dht" id="b1d7" cx="323.7" cy="220.2" r="12"/>
</g><!-- /dot-hit-layer -->

<!-- ── LEGEND ── -->
<rect x="870" y="100" width="200" height="240" rx="14" class="legend-bg"/>
<text x="888" y="124" class="legend-title">SERIES</text>
<g transform="translate(888,140)">
  <rect x="0" y="0" width="14" height="14" rx="3" class="series-1"/>
  <text x="22" y="11" class="legend-label">Cyan</text>
  <text x="178" y="11" class="legend-value" text-anchor="end">A</text>
</g>
<g transform="translate(888,170)">
  <rect x="0" y="0" width="14" height="14" rx="3" class="series-5"/>
  <text x="22" y="11" class="legend-label">Violet</text>
  <text x="178" y="11" class="legend-value" text-anchor="end">B</text>
</g>
<g transform="translate(888,200)">
  <rect x="0" y="0" width="14" height="14" rx="3" class="series-2"/>
  <text x="22" y="11" class="legend-label">Emerald</text>
  <text x="178" y="11" class="legend-value" text-anchor="end">C</text>
</g>
<line x1="888" y1="226" x2="1052" y2="226" class="legend-divider"/>
<text x="888" y="246" class="legend-title">AXES (score 0–100)</text>
<text x="888" y="264" class="tick-label">Revenue · Growth · Margin</text>
<text x="888" y="280" class="tick-label">Satisfaction · Retention</text>
<text x="888" y="296" class="tick-label">Innovation · Quality</text>

<!-- Values table (visible in print mode) -->
<rect x="870" y="356" width="200" height="200" rx="14" class="legend-bg legend-value"/>
<text x="888" y="380" class="legend-title legend-value">VALUES (Rev·Grw·Mar·Sat·Ret·Inn·Qua)</text>
<g transform="translate(888,396)">
  <rect x="0" y="0" width="10" height="10" rx="2" class="series-1 legend-value"/>
  <text x="16" y="9" class="tick-label legend-value">Cyan    72·65·58·80·74·55·68</text>
</g>
<g transform="translate(888,416)">
  <rect x="0" y="0" width="10" height="10" rx="2" class="series-5 legend-value"/>
  <text x="16" y="9" class="tick-label legend-value">Violet  55·82·70·63·58·88·72</text>
</g>
<g transform="translate(888,436)">
  <rect x="0" y="0" width="10" height="10" rx="2" class="series-2 legend-value"/>
  <text x="16" y="9" class="tick-label legend-value">Emerald 64·50·85·71·82·62·90</text>
</g>

<text x="68" y="600" class="footer">Product Performance Scorecard · 3 series · 7 axes · score 0–100</text>

<script href="chart-shared.js"></script>
<script type="text/javascript"><![CDATA[
(function () {
  var svg = document.documentElement;
  svg._chartInit = function (svgEl, ctx) {
var svg  = document.getElementById('root');
  var dataLayerEl = document.getElementById('data-layer');

  /* §3 — rAF animation: geometry (scale) + opacity together → rAF method required.
     Duration: 0.8s (fixed). Easing: ease-out (fixed). Stagger: 0.20s (<=0.25 max).
     Hover-dimmed elements: clear inline style on completion so CSS hover takes over. */
  var animDuration = 0.8;
  var animDelays   = { 'series-anim-3': 0.00, 'series-anim-2': 0.20, 'series-anim-1': 0.40 };
  var lastDelay    = 0.40;
  var readyDelay   = (lastDelay + animDuration + 0.1) * 1000; /* 1300ms */

  Object.keys(animDelays).forEach(function(id) {
    var el = document.getElementById(id);
    if (!el) return;
    el.style.opacity   = '0';
    el.style.transform = 'scale(0)';

    var delay = animDelays[id] * 1000;
    setTimeout(function() {
      var start = null;
      var dur   = animDuration * 1000;
      function easeOut(t) { return 1 - Math.pow(1 - t, 3); }
      function step(ts) {
        if (!start) start = ts;
        var p = Math.min((ts - start) / dur, 1);
        var e = easeOut(p);
        el.style.opacity   = e;
        el.style.transform = 'scale(' + e + ')';
        if (p < 1) { requestAnimationFrame(step); }
        else {
          /* hover-dimmed element: clear inline style so CSS .hovering rule takes over */
          el.style.opacity   = '';
          el.style.transform = '';
        }
      }
      requestAnimationFrame(step);
    }, delay);
  });

  /* §3 — .ready gate fires after last animation completes + 100ms buffer */
  setTimeout(function() { dataLayerEl.classList.add('ready'); }, readyDelay);

  /* §4 — Series hover: container-level mouseleave (adjacent/overlapping polygon targets).
     Stale-clear on every mouseenter is not optional. */
  var dataItemEls = Array.prototype.slice.call(dataLayerEl.querySelectorAll('.data-item'));
  dataItemEls.forEach(function(itemEl) {
    itemEl.addEventListener('mouseenter', function() {
      /* clear all stale .active before setting new one */
      dataItemEls.forEach(function(el) { el.classList.remove('active'); });
      dataLayerEl.classList.add('hovering');
      itemEl.classList.add('active');
    });
  });
  /* container-level mouseleave: adjacent polygons fire element mouseleave before
     next mouseenter, causing flicker — container removal prevents this */
  dataLayerEl.addEventListener('mouseleave', function() {
    dataItemEls.forEach(function(el) { el.classList.remove('active'); });
    dataLayerEl.classList.remove('hovering');
  });

  /* §4 — Dot hover: hit targets are in #dot-hit-layer, painted above all polygons.
     Each circle's id maps to a bubble via id + '-bub'. */
  var hitLayer = document.getElementById('dot-hit-layer');
  var dws = Array.prototype.slice.call(hitLayer.querySelectorAll('circle'));
  dws.forEach(function(dw) {
    var bubId = dw.id + '-bub';
    var bub = document.getElementById(bubId);
    dw.addEventListener('mouseenter', function() {
      if (bub) bub.style.opacity = '1';
    });
    dw.addEventListener('mouseleave', function() {
      if (bub) bub.style.opacity = '';
    });
  });

  /* §2 — Dark mode: isDark boolean, CSS handles palette swap automatically */
  };
  if (window.bootstrapChart) { window.bootstrapChart(svg); }
}());
]]></script>
</svg>
