

<svg id="root" viewBox="0 0 1100 620" width="100%" height="100%" preserveAspectRatio="xMidYMid meet" xmlns="http://www.w3.org/2000/svg" font-family="'Inter','Helvetica Neue',Arial,sans-serif">
<defs>
<style>
  @import url('https://fonts.googleapis.com/css2?family=Inter:wght@400;500;600&amp;display=swap');
  .bg-main  { fill:#FFFBFE; filter:drop-shadow(0 1px 2px rgba(0,0,0,0.10)); }
  .ct       { font-size:18px;font-weight:500;fill:#1C1B1F;letter-spacing:-.2px; }
  .cs       { font-size:11px;fill:#79747E;font-weight:400; }
  .lt       { font-size:11px;fill:#1C1B1F;font-weight:400; }
  .lv       { font-size:11px;fill:#1C1B1F;font-weight:500; }
  .lgd-bg   { fill:#E7E0EC;stroke:#79747E;stroke-width:.5; }
  .lgd-div  { stroke:#79747E;stroke-width:.5;opacity:.3; }
  .lgd-ttl  { font-size:10px;fill:#79747E;font-weight:500;letter-spacing:.4px; }
  .footer   { font-size:10px;fill:#79747E;font-weight:400; }
  .t-wrap   { cursor:pointer; }
  .t-track  { fill:#E7E0EC; } .t-thumb { fill:#fff; }
  .t-label  { font-size:11px;font-weight:500;fill:#49454F; }
  .pt-track { fill:#E7E0EC;transition:fill .3s; } .pt-thumb { fill:#fff; }
  .pt-label { font-size:11px;font-weight:500;fill:#49454F; }
  .lgd-val  { opacity:0;transition:opacity .2s; }
  svg.print .lgd-val  { opacity:1; }
  svg.print .pt-track { fill:#d97316; }

  .bar-1{fill:#00D4E8;} .bar-2{fill:#00B87A;}
  .bar-3{fill:#F59E0B;} .bar-4{fill:#F43F5E;}
  .bar-5{fill:#8B5CF6;} .bar-6{fill:#3B82F6;}
  .bar-7{fill:#0D9488;} .bar-8{fill:#64748B;}
  svg.dark .bar-1{fill:#22D3EE;} svg.dark .bar-2{fill:#10B981;}
  svg.dark .bar-3{fill:#FBB724;} svg.dark .bar-4{fill:#FB6181;}
  svg.dark .bar-5{fill:#A78BFA;} svg.dark .bar-6{fill:#60A5FA;}
  svg.dark .bar-7{fill:#2DD4BF;} svg.dark .bar-8{fill:#94A3B8;}

  .tm-lbl { font-size:13px;font-weight:500;fill:#fff;pointer-events:none; }
  .tm-sub { font-size:10px;font-weight:400;fill:rgba(255,255,255,0.80);pointer-events:none; }

  @keyframes tileFade { from{opacity:0} to{opacity:1} }
  .tm-tile         { opacity:0;cursor:pointer;transition:opacity .2s ease; }
  .tm-tile.visible { opacity:1; }
  .ca.ready.hovering .tm-tile.visible         { opacity:0.20;transition:opacity .2s ease; }
  .ca.ready.hovering .tm-tile.visible.hovered { opacity:1;   transition:opacity .2s ease; }

  .bubble    { opacity:0;pointer-events:none;transition:opacity 0.15s ease; }
  svg.print .bubble { opacity:0 !important; }
  .bub-bg  { fill:#FFFBFE; }
  .bub-bdr { fill:#FFFBFE;stroke:#79747E;stroke-width:1; }
  .bub-tip { fill:#FFFBFE;stroke:#79747E;stroke-width:1; }
  .bub-val { fill:#1C1B1F;font-size:13px;font-weight:500; }
  .bub-lbl { fill:#49454F;font-size:10px;font-weight:400; }
  .bub-pct { fill:#79747E;font-size:10px;font-weight:400; }
  svg.dark .bub-bg  { fill:#1C1B1F; }
  svg.dark .bub-bdr { fill:#1C1B1F;stroke:#938F99; }
  svg.dark .bub-tip { fill:#1C1B1F;stroke:#938F99; }
  svg.dark .bub-val { fill:#E6E0E9; }
  svg.dark .bub-lbl { fill:#CAC4D0; }
  svg.dark .bub-pct { fill:#938F99; }

  svg.dark .bg-main  { fill:#1C1B1F;filter:drop-shadow(0 1px 4px rgba(0,0,0,0.25)); }
  svg.dark .ct       { fill:#E6E0E9; } svg.dark .cs { fill:#938F99; }
  svg.dark .lt       { fill:#E6E0E9; } svg.dark .lv { fill:#E6E0E9; }
  svg.dark .lgd-bg   { fill:#49454F;stroke:#938F99; }
  svg.dark .lgd-div  { stroke:#938F99; } svg.dark .lgd-ttl { fill:#938F99; }
  svg.dark .footer   { fill:#938F99; }
  svg.dark .t-track  { fill:#49454F; } svg.dark .t-label  { fill:#CAC4D0; }
  svg.dark .pt-track { fill:#49454F; } svg.dark .pt-label { fill:#CAC4D0; }
  svg.dark.print .pt-track { fill:#d97316; }
  .border-dark  { display:none; } .border-light { display:block; }
  svg.dark .border-dark  { display:block; } svg.dark .border-light { display:none; }
</style>
</defs>

<rect class="bg-main" width="1100" height="620" rx="18"/>
<g class="border-light"><rect x=".75" y=".75" width="1098.5" height="618.5" rx="17.5" fill="none" stroke="rgba(0,0,0,.10)" stroke-width="1.5"/></g>
<g class="border-dark"><rect x=".75" y=".75" width="1098.5" height="618.5" rx="17.5" fill="none" stroke="rgba(0,242,255,.22)" stroke-width="1.5"/></g>

<text x="68" y="46" class="ct">Revenue by Category</text>
<text x="68" y="66" class="cs">8 segments · area ∝ revenue · hover to inspect</text>

<g class="t-wrap" id="dark-toggle" transform="translate(930,52)">
  <rect x="0" y="-13" width="68" height="26" rx="13" class="t-track"/>
  <circle id="tthumb" cx="16" cy="0" r="10" class="t-thumb"/>
  <text id="tlabel" x="44" y="4" class="t-label" text-anchor="middle">Dark</text>
</g>
<g class="t-wrap" id="print-toggle" transform="translate(1012,52)">
  <rect x="0" y="-13" width="68" height="26" rx="13" class="pt-track"/>
  <circle id="pthumb" cx="16" cy="0" r="10" class="pt-thumb"/>
  <text id="plabel" x="44" y="4" class="pt-label" text-anchor="middle">Print</text>
</g>

<!--
  Plot: x=40 y=100 W=810 H=400 bottom=500  [matches bar chart right edge x=850]
  Top gap (subtitle baseline 66 → plot top 100) = 34px
  Bottom gap (plot bottom 500 → footer baseline 600) = 100px

  STRIP 1  h=207  y=100..307   Violet x=40 w=488 | Cyan x=528 w=322
  STRIP 2  h=106  y=307..413   Emerald x=40 w=450 | Amber x=490 w=360
  STRIP 3  h=87   y=413..500   Blue x=40 w=306 | Teal x=346 w=234 | Rose x=580 w=162 | Other x=742 w=108
-->

<g class="ca" id="ca">
  <g class="tm-tile" id="tg1" data-bubble="bub1">
    <rect class="bar-5" x="40"  y="100" width="488" height="207" rx="0"/>
    <text x="284" y="194" text-anchor="middle" class="tm-lbl">Violet</text>
    <text x="284" y="212" text-anchor="middle" class="tm-sub">$320M · 31.2%</text>
  </g>
  <g class="tm-tile" id="tg2" data-bubble="bub2">
    <rect class="bar-1" x="528" y="100" width="322" height="207" rx="0"/>
    <text x="689" y="194" text-anchor="middle" class="tm-lbl">Cyan</text>
    <text x="689" y="212" text-anchor="middle" class="tm-sub">$210M · 20.5%</text>
  </g>
  <g class="tm-tile" id="tg3" data-bubble="bub3">
    <rect class="bar-2" x="40"  y="307" width="450" height="106" rx="0"/>
    <text x="265" y="351" text-anchor="middle" class="tm-lbl">Emerald</text>
    <text x="265" y="369" text-anchor="middle" class="tm-sub">$150M · 14.6%</text>
  </g>
  <g class="tm-tile" id="tg4" data-bubble="bub4">
    <rect class="bar-3" x="490" y="307" width="360" height="106" rx="0"/>
    <text x="670" y="351" text-anchor="middle" class="tm-lbl">Amber</text>
    <text x="670" y="369" text-anchor="middle" class="tm-sub">$120M · 11.7%</text>
  </g>
  <g class="tm-tile" id="tg5" data-bubble="bub5">
    <rect class="bar-6" x="40"  y="413" width="306" height="87" rx="0"/>
    <text x="193" y="447" text-anchor="middle" class="tm-lbl">Blue</text>
    <text x="193" y="465" text-anchor="middle" class="tm-sub">$85M · 8.3%</text>
  </g>
  <g class="tm-tile" id="tg6" data-bubble="bub6">
    <rect class="bar-7" x="346" y="413" width="234" height="87" rx="0"/>
    <text x="463" y="447" text-anchor="middle" class="tm-lbl">Teal</text>
    <text x="463" y="465" text-anchor="middle" class="tm-sub">$65M · 6.3%</text>
  </g>
  <g class="tm-tile" id="tg7" data-bubble="bub7">
    <rect class="bar-4" x="580" y="413" width="162" height="87" rx="0"/>
    <text x="661" y="447" text-anchor="middle" class="tm-lbl">Rose</text>
    <text x="661" y="465" text-anchor="middle" class="tm-sub">$45M · 4.4%</text>
  </g>
  <g class="tm-tile" id="tg8" data-bubble="bub8">
    <rect class="bar-8" x="742" y="413" width="108" height="87" rx="0"/>
    <text x="796" y="447" text-anchor="middle" class="tm-lbl">Other</text>
    <text x="796" y="465" text-anchor="middle" class="tm-sub">$30M</text>
  </g>
</g>

<g stroke="white" stroke-width="2" fill="none">
  <line x1="40"  y1="307" x2="850" y2="307"/>
  <line x1="40"  y1="413" x2="850" y2="413"/>
  <line x1="528" y1="100" x2="528" y2="307"/>
  <line x1="490" y1="307" x2="490" y2="413"/>
  <line x1="346" y1="413" x2="346" y2="500"/>
  <line x1="580" y1="413" x2="580" y2="500"/>
  <line x1="742" y1="413" x2="742" y2="500"/>
</g>

<rect x="870" y="100" width="210" height="340" rx="14" class="lgd-bg"/>
<text x="888" y="124" class="lgd-ttl">SERIES</text>
<g transform="translate(888,140)"><rect class="bar-5" x="0" y="0" width="12" height="12" rx="2"/><text x="18" y="10" class="lt">Violet</text>  <text x="188" y="10" class="lv lgd-val" text-anchor="end">$320M</text></g>
<g transform="translate(888,162)"><rect class="bar-1" x="0" y="0" width="12" height="12" rx="2"/><text x="18" y="10" class="lt">Cyan</text>    <text x="188" y="10" class="lv lgd-val" text-anchor="end">$210M</text></g>
<g transform="translate(888,184)"><rect class="bar-2" x="0" y="0" width="12" height="12" rx="2"/><text x="18" y="10" class="lt">Emerald</text> <text x="188" y="10" class="lv lgd-val" text-anchor="end">$150M</text></g>
<g transform="translate(888,206)"><rect class="bar-3" x="0" y="0" width="12" height="12" rx="2"/><text x="18" y="10" class="lt">Amber</text>   <text x="188" y="10" class="lv lgd-val" text-anchor="end">$120M</text></g>
<g transform="translate(888,228)"><rect class="bar-6" x="0" y="0" width="12" height="12" rx="2"/><text x="18" y="10" class="lt">Blue</text>    <text x="188" y="10" class="lv lgd-val" text-anchor="end">$85M</text></g>
<g transform="translate(888,250)"><rect class="bar-7" x="0" y="0" width="12" height="12" rx="2"/><text x="18" y="10" class="lt">Teal</text>    <text x="188" y="10" class="lv lgd-val" text-anchor="end">$65M</text></g>
<g transform="translate(888,272)"><rect class="bar-4" x="0" y="0" width="12" height="12" rx="2"/><text x="18" y="10" class="lt">Rose</text>    <text x="188" y="10" class="lv lgd-val" text-anchor="end">$45M</text></g>
<line x1="888" y1="298" x2="1062" y2="298" class="lgd-div"/>
<g transform="translate(888,310)"><rect class="bar-8" x="0" y="0" width="12" height="12" rx="2"/><text x="18" y="10" class="lt">Other</text>   <text x="188" y="10" class="lv lgd-val" text-anchor="end">$30M</text></g>

<!--
  Bubble construction — identical pattern to bar chart:
  1. bub-bg  plain fill rect (no stroke) — background
  2. bub-bdr open path (no Z) — U-shape border, top+sides+bottom stubs, gap left for tail
  3. bub-tip small filled+stroked triangle — the tail
-->
<g id="bubble-overlay">

  <!-- Violet $320M — anchor (284,100) -->
  <g class="bubble" id="bub1" transform="translate(284,100)">
    <rect class="bub-bg"  x="-44" y="-62" width="88" height="53" rx="8"/>
    <path class="bub-bdr" d="M8,-9 L36,-9 Q44,-9 44,-17 L44,-54 Q44,-62 36,-62 L-36,-62 Q-44,-62 -44,-54 L-44,-17 Q-44,-9 -36,-9 L-8,-9"/>
    <path class="bub-tip" d="M8,-9 L0,0 L-8,-9"/>
    <text x="0" y="-43" text-anchor="middle" dominant-baseline="central" class="bub-val">$320M</text>
    <text x="0" y="-25" text-anchor="middle" dominant-baseline="central" class="bub-lbl">Violet · 31.2%</text>
  </g>

  <!-- Cyan $210M — anchor (689,100) -->
  <g class="bubble" id="bub2" transform="translate(689,100)">
    <rect class="bub-bg"  x="-40" y="-62" width="80" height="53" rx="8"/>
    <path class="bub-bdr" d="M8,-9 L32,-9 Q40,-9 40,-17 L40,-54 Q40,-62 32,-62 L-32,-62 Q-40,-62 -40,-54 L-40,-17 Q-40,-9 -32,-9 L-8,-9"/>
    <path class="bub-tip" d="M8,-9 L0,0 L-8,-9"/>
    <text x="0" y="-43" text-anchor="middle" dominant-baseline="central" class="bub-val">$210M</text>
    <text x="0" y="-25" text-anchor="middle" dominant-baseline="central" class="bub-lbl">Cyan · 20.5%</text>
  </g>

  <!-- Emerald $150M — anchor (265,307) -->
  <g class="bubble" id="bub3" transform="translate(265,307)">
    <rect class="bub-bg"  x="-46" y="-62" width="92" height="53" rx="8"/>
    <path class="bub-bdr" d="M8,-9 L38,-9 Q46,-9 46,-17 L46,-54 Q46,-62 38,-62 L-38,-62 Q-46,-62 -46,-54 L-46,-17 Q-46,-9 -38,-9 L-8,-9"/>
    <path class="bub-tip" d="M8,-9 L0,0 L-8,-9"/>
    <text x="0" y="-43" text-anchor="middle" dominant-baseline="central" class="bub-val">$150M</text>
    <text x="0" y="-25" text-anchor="middle" dominant-baseline="central" class="bub-lbl">Emerald · 14.6%</text>
  </g>

  <!-- Amber $120M — anchor (670,307) -->
  <g class="bubble" id="bub4" transform="translate(670,307)">
    <rect class="bub-bg"  x="-42" y="-62" width="84" height="53" rx="8"/>
    <path class="bub-bdr" d="M8,-9 L34,-9 Q42,-9 42,-17 L42,-54 Q42,-62 34,-62 L-34,-62 Q-42,-62 -42,-54 L-42,-17 Q-42,-9 -34,-9 L-8,-9"/>
    <path class="bub-tip" d="M8,-9 L0,0 L-8,-9"/>
    <text x="0" y="-43" text-anchor="middle" dominant-baseline="central" class="bub-val">$120M</text>
    <text x="0" y="-25" text-anchor="middle" dominant-baseline="central" class="bub-lbl">Amber · 11.7%</text>
  </g>

  <!-- Blue $85M — anchor (193,413) -->
  <g class="bubble" id="bub5" transform="translate(193,413)">
    <rect class="bub-bg"  x="-36" y="-62" width="72" height="53" rx="8"/>
    <path class="bub-bdr" d="M8,-9 L28,-9 Q36,-9 36,-17 L36,-54 Q36,-62 28,-62 L-28,-62 Q-36,-62 -36,-54 L-36,-17 Q-36,-9 -28,-9 L-8,-9"/>
    <path class="bub-tip" d="M8,-9 L0,0 L-8,-9"/>
    <text x="0" y="-43" text-anchor="middle" dominant-baseline="central" class="bub-val">$85M</text>
    <text x="0" y="-25" text-anchor="middle" dominant-baseline="central" class="bub-lbl">Blue · 8.3%</text>
  </g>

  <!-- Teal $65M — anchor (463,413) -->
  <g class="bubble" id="bub6" transform="translate(463,413)">
    <rect class="bub-bg"  x="-36" y="-62" width="72" height="53" rx="8"/>
    <path class="bub-bdr" d="M8,-9 L28,-9 Q36,-9 36,-17 L36,-54 Q36,-62 28,-62 L-28,-62 Q-36,-62 -36,-54 L-36,-17 Q-36,-9 -28,-9 L-8,-9"/>
    <path class="bub-tip" d="M8,-9 L0,0 L-8,-9"/>
    <text x="0" y="-43" text-anchor="middle" dominant-baseline="central" class="bub-val">$65M</text>
    <text x="0" y="-25" text-anchor="middle" dominant-baseline="central" class="bub-lbl">Teal · 6.3%</text>
  </g>

  <!-- Rose $45M — anchor (661,413) -->
  <g class="bubble" id="bub7" transform="translate(661,413)">
    <rect class="bub-bg"  x="-36" y="-62" width="72" height="53" rx="8"/>
    <path class="bub-bdr" d="M8,-9 L28,-9 Q36,-9 36,-17 L36,-54 Q36,-62 28,-62 L-28,-62 Q-36,-62 -36,-54 L-36,-17 Q-36,-9 -28,-9 L-8,-9"/>
    <path class="bub-tip" d="M8,-9 L0,0 L-8,-9"/>
    <text x="0" y="-43" text-anchor="middle" dominant-baseline="central" class="bub-val">$45M</text>
    <text x="0" y="-25" text-anchor="middle" dominant-baseline="central" class="bub-lbl">Rose · 4.4%</text>
  </g>

  <!-- Other $30M — anchor (796,413) -->
  <g class="bubble" id="bub8" transform="translate(796,413)">
    <rect class="bub-bg"  x="-36" y="-62" width="72" height="53" rx="8"/>
    <path class="bub-bdr" d="M8,-9 L28,-9 Q36,-9 36,-17 L36,-54 Q36,-62 28,-62 L-28,-62 Q-36,-62 -36,-54 L-36,-17 Q-36,-9 -28,-9 L-8,-9"/>
    <path class="bub-tip" d="M8,-9 L0,0 L-8,-9"/>
    <text x="0" y="-43" text-anchor="middle" dominant-baseline="central" class="bub-val">$30M</text>
    <text x="0" y="-25" text-anchor="middle" dominant-baseline="central" class="bub-lbl">Other · 2.9%</text>
  </g>

</g>

<text x="68" y="600" class="footer">Revenue by Category · 8 segments · treemap · area ∝ revenue</text>

<script type="text/javascript"><![CDATA[
(function() {
  var svg   = document.getElementById('root');
  var ca    = document.getElementById('ca');
  var tiles = Array.prototype.slice.call(ca.querySelectorAll('.tm-tile'));
  var isDark = false;

  tiles.forEach(function(tile, i) {
    tile.style.animation = 'tileFade 0.6s ease-out ' + (i*0.12).toFixed(2) + 's';
    tile.addEventListener('animationend', function() {
      tile.style.animation = 'none';
      tile.classList.add('visible');
    }, { once: true });
  });

  setTimeout(function(){ ca.classList.add('ready'); }, (tiles.length-1)*120 + 700);

  tiles.forEach(function(tile) {
    var bub = document.getElementById(tile.getAttribute('data-bubble'));
    tile.addEventListener('mouseenter', function() {
      tiles.forEach(function(t){ t.classList.remove('hovered'); });
      ca.classList.add('hovering');
      tile.classList.add('hovered');
      if (bub) bub.style.opacity = '1';
    });
    tile.addEventListener('mouseleave', function() {
      ca.classList.remove('hovering');
      tile.classList.remove('hovered');
      if (bub) bub.style.opacity = '';
    });
  });

  function setMode(wantDark) {
    if (wantDark === isDark) return;
    isDark = wantDark;
    var thumb=document.getElementById('tthumb'), lbl=document.getElementById('tlabel');
    if (wantDark){ svg.classList.add('dark');   thumb.setAttribute('cx','52'); lbl.textContent='Light'; }
    else         { svg.classList.remove('dark'); thumb.setAttribute('cx','16'); lbl.textContent='Dark';  }
  }
  document.getElementById('dark-toggle').addEventListener('click', function(){ setMode(!isDark); });
  document.getElementById('print-toggle').addEventListener('click', function(){
    var thumb=document.getElementById('pthumb'), lbl=document.getElementById('plabel');
    if (svg.classList.toggle('print')){ thumb.setAttribute('cx','52'); lbl.textContent='Screen'; }
    else                              { thumb.setAttribute('cx','16'); lbl.textContent='Print';  }
  });
  window.setMode = setMode;
  window.addEventListener('message', function(e){
    if (e.data && e.data.type==='setMode') setMode(e.data.dark);
  });
  setMode(window.location.href.indexOf('theme=dark') !== -1);
})();
]]></script>
</svg>
