

<svg id="root" class="chart-standard" viewBox="-40 88 1120 455" width="100%" height="100%" preserveAspectRatio="xMidYMid meet" xmlns="http://www.w3.org/2000/svg" font-family="'Roboto','Helvetica Neue',Arial,sans-serif">
<script type="text/javascript">
  <![CDATA[
  (function () {
    if (window.location.href.indexOf('theme=dark') !== -1) {
      document.documentElement.classList.add('dark');
    }
  }());
  ]]>
</script>
<defs>
<style>
  @import url('chart-shared.css');
  /* prevent first paint in wrong color before shared css load */
  svg {
    --critical-legend-text: #1C1B1F;
    --critical-legend-muted: #79747E;
    --critical-legend-panel: #E7E0EC;
    --critical-legend-stroke: #79747E;
    --critical-tile-label: #FFFFFF;
    --critical-tile-sub: rgba(255,255,255,0.80);
  }
  svg.dark {
    --critical-legend-text: #E6E0E9;
    --critical-legend-muted: #938F99;
    --critical-legend-panel: #49454F;
    --critical-legend-stroke: #938F99;
    --critical-tile-label: #FFFFFF;
    --critical-tile-sub: rgba(255,255,255,0.80);
  }
  .legend-bg, .legend-panel { fill: var(--critical-legend-panel); stroke: var(--critical-legend-stroke); }
  .legend-title, .legend-heading { fill: var(--critical-legend-muted); }
  .legend-label, .legend-value, .legend-row-label, .legend-row-value { fill: var(--critical-legend-text); }
  .tile-label { fill: var(--critical-tile-label); }
  .tile-sub { fill: var(--critical-tile-sub); }
  .tile-node { opacity: 0; }
  .tile-node.visible { opacity: 1; }
</style>
</defs>


<!--
  Plot: x=24 y=100 W=810 H=400 bottom=500
  Top gap (subtitle baseline 66 → plot top 100) = 34px
  Bottom gap (plot bottom 500 → footer baseline 600) = 100px

  STRIP 1  h=207  y=100..307   Violet x=24 w=488 | Cyan x=512 w=322
  STRIP 2  h=106  y=307..413   Emerald x=24 w=450 | Amber x=474 w=360
  STRIP 3  h=87   y=413..500   Blue x=24 w=306 | Teal x=330 w=234 | Rose x=564 w=162 | Other x=726 w=108
-->

<g class="data-layer" id="data-layer">
  <g class="data-item tile-node" id="tg1" data-bubble="bub1">
    <rect class="series-5" x="52"  y="100" width="470" height="206" rx="0"/>
    <text x="287" y="194" text-anchor="middle" class="tile-label">Violet</text>
    <text x="287" y="212" text-anchor="middle" class="tile-sub">$320M · 31.2%</text>
  </g>
  <g class="data-item tile-node" id="tg2" data-bubble="bub2">
    <rect class="series-1" x="524" y="100" width="310" height="206" rx="0"/>
    <text x="679" y="194" text-anchor="middle" class="tile-label">Cyan</text>
    <text x="678" y="212" text-anchor="middle" class="tile-sub">$210M · 20.5%</text>
  </g>
  <g class="data-item tile-node" id="tg3" data-bubble="bub3">
    <rect class="series-2" x="52"  y="308" width="433" height="104" rx="0"/>
    <text x="269" y="351" text-anchor="middle" class="tile-label">Emerald</text>
    <text x="269" y="369" text-anchor="middle" class="tile-sub">$150M · 14.6%</text>
  </g>
  <g class="data-item tile-node" id="tg4" data-bubble="bub4">
    <rect class="series-3" x="487" y="308" width="347" height="104" rx="0"/>
    <text x="661" y="351" text-anchor="middle" class="tile-label">Amber</text>
    <text x="660" y="369" text-anchor="middle" class="tile-sub">$120M · 11.7%</text>
  </g>
  <g class="data-item tile-node" id="tg5" data-bubble="bub5">
    <rect class="series-6" x="52"  y="414" width="294" height="86" rx="0"/>
    <text x="199" y="447" text-anchor="middle" class="tile-label">Blue</text>
    <text x="199" y="465" text-anchor="middle" class="tile-sub">$85M · 8.3%</text>
  </g>
  <g class="data-item tile-node" id="tg6" data-bubble="bub6">
    <rect class="series-7" x="348" y="414" width="224" height="86" rx="0"/>
    <text x="460" y="447" text-anchor="middle" class="tile-label">Teal</text>
    <text x="460" y="465" text-anchor="middle" class="tile-sub">$65M · 6.3%</text>
  </g>
  <g class="data-item tile-node" id="tg7" data-bubble="bub7">
    <rect class="series-4" x="574" y="414" width="154" height="86" rx="0"/>
    <text x="651" y="447" text-anchor="middle" class="tile-label">Rose</text>
    <text x="651" y="465" text-anchor="middle" class="tile-sub">$45M · 4.4%</text>
  </g>
  <g class="data-item tile-node" id="tg8" data-bubble="bub8">
    <rect class="series-8" x="730" y="414" width="104" height="86" rx="0"/>
    <text x="782" y="447" text-anchor="middle" class="tile-label">Other</text>
    <text x="782" y="465" text-anchor="middle" class="tile-sub">$30M</text>
  </g>
</g>

<rect x="864" y="88" width="208" height="455" rx="18" class="legend-bg legend-panel"/>
<text x="884" y="118" class="legend-title legend-heading">SERIES</text>
<g class="legend-row" transform="translate(884,146)"><rect class="series-5" x="0" y="0" width="14" height="14" rx="3"/><text x="22" y="7" class="legend-label legend-row-label" dominant-baseline="middle">Violet</text><text x="168" y="7" class="legend-value legend-row-value" text-anchor="end" dominant-baseline="middle">$320M</text></g>
<g class="legend-row" transform="translate(884,188)"><rect class="series-1" x="0" y="0" width="14" height="14" rx="3"/><text x="22" y="7" class="legend-label legend-row-label" dominant-baseline="middle">Cyan</text><text x="168" y="7" class="legend-value legend-row-value" text-anchor="end" dominant-baseline="middle">$210M</text></g>
<g class="legend-row" transform="translate(884,230)"><rect class="series-2" x="0" y="0" width="14" height="14" rx="3"/><text x="22" y="7" class="legend-label legend-row-label" dominant-baseline="middle">Emerald</text><text x="168" y="7" class="legend-value legend-row-value" text-anchor="end" dominant-baseline="middle">$150M</text></g>
<g class="legend-row" transform="translate(884,272)"><rect class="series-3" x="0" y="0" width="14" height="14" rx="3"/><text x="22" y="7" class="legend-label legend-row-label" dominant-baseline="middle">Amber</text><text x="168" y="7" class="legend-value legend-row-value" text-anchor="end" dominant-baseline="middle">$120M</text></g>
<g class="legend-row" transform="translate(884,314)"><rect class="series-6" x="0" y="0" width="14" height="14" rx="3"/><text x="22" y="7" class="legend-label legend-row-label" dominant-baseline="middle">Blue</text><text x="168" y="7" class="legend-value legend-row-value" text-anchor="end" dominant-baseline="middle">$85M</text></g>
<g class="legend-row" transform="translate(884,356)"><rect class="series-7" x="0" y="0" width="14" height="14" rx="3"/><text x="22" y="7" class="legend-label legend-row-label" dominant-baseline="middle">Teal</text><text x="168" y="7" class="legend-value legend-row-value" text-anchor="end" dominant-baseline="middle">$65M</text></g>
<g class="legend-row" transform="translate(884,398)"><rect class="series-4" x="0" y="0" width="14" height="14" rx="3"/><text x="22" y="7" class="legend-label legend-row-label" dominant-baseline="middle">Rose</text><text x="168" y="7" class="legend-value legend-row-value" text-anchor="end" dominant-baseline="middle">$45M</text></g>
<g class="legend-row" transform="translate(884,440)"><rect class="series-8" x="0" y="0" width="14" height="14" rx="3"/><text x="22" y="7" class="legend-label legend-row-label" dominant-baseline="middle">Other</text><text x="168" y="7" class="legend-value legend-row-value" text-anchor="end" dominant-baseline="middle">$30M</text></g>

<!--
  Bubble construction — identical pattern to bar chart:
  1. tip-bg  plain fill rect (no stroke) — background
  2. tip-border open path (no Z) — U-shape border, top+sides+bottom stubs, gap left for tail
  3. tip-tail small filled+stroked triangle — the tail
-->
<g id="bubble-overlay">

  <!-- Violet $320M — anchor (284,100) -->
  <g class="data-tip" id="bub1" transform="translate(287,170)">
    <rect class="tip-bg"  x="-110" y="12" width="220" height="100" rx="12"/>
    <path class="tip-border" d="M-10,12 L-98,12 Q-110,12 -110,24 L-110,100 Q-110,112 -98,112 L98,112 Q110,112 110,100 L110,24 Q110,12 98,12 L10,12"/>
    <path class="tip-tail" d="M-10,12 L0,0 L10,12"/>
    <text x="0" y="42" text-anchor="middle" dominant-baseline="central" class="tip-value">$320M</text>
    <text x="0" y="78" text-anchor="middle" dominant-baseline="central" class="tip-label">Violet 31.2%</text>
  </g>

  <!-- Cyan $210M — anchor (689,100) -->
  <g class="data-tip" id="bub2" transform="translate(679,170)">
    <rect class="tip-bg"  x="-95" y="12" width="190" height="100" rx="12"/>
    <path class="tip-border" d="M-10,12 L-83,12 Q-95,12 -95,24 L-95,100 Q-95,112 -83,112 L83,112 Q95,112 95,100 L95,24 Q95,12 83,12 L10,12"/>
    <path class="tip-tail" d="M-10,12 L0,0 L10,12"/>
    <text x="0" y="42" text-anchor="middle" dominant-baseline="central" class="tip-value">$210M</text>
    <text x="0" y="78" text-anchor="middle" dominant-baseline="central" class="tip-label">Cyan 20.5%</text>
  </g>

  <!-- Emerald $150M — anchor (265,307) -->
  <g class="data-tip" id="bub3" transform="translate(269,307)">
    <rect class="tip-bg"  x="-115" y="-112" width="230" height="100" rx="12"/>
    <path class="tip-border" d="M10,-12 L103,-12 Q115,-12 115,-24 L115,-100 Q115,-112 103,-112 L-103,-112 Q-115,-112 -115,-100 L-115,-24 Q-115,-12 -103,-12 L-10,-12"/>
    <path class="tip-tail" d="M-10,-12 L0,0 L10,-12"/>
    <text x="0" y="-82" text-anchor="middle" dominant-baseline="central" class="tip-value">$150M</text>
    <text x="0" y="-42" text-anchor="middle" dominant-baseline="central" class="tip-label">Emerald · 14.6%</text>
  </g>

  <!-- Amber $120M — anchor (670,307) -->
  <g class="data-tip" id="bub4" transform="translate(661,307)">
    <rect class="tip-bg"  x="-105" y="-112" width="210" height="100" rx="12"/>
    <path class="tip-border" d="M10,-12 L93,-12 Q105,-12 105,-24 L105,-100 Q105,-112 93,-112 L-93,-112 Q-105,-112 -105,-100 L-105,-24 Q-105,-12 -93,-12 L-10,-12"/>
    <path class="tip-tail" d="M-10,-12 L0,0 L10,-12"/>
    <text x="0" y="-82" text-anchor="middle" dominant-baseline="central" class="tip-value">$120M</text>
    <text x="0" y="-42" text-anchor="middle" dominant-baseline="central" class="tip-label">Amber · 11.7%</text>
  </g>

  <!-- Blue $85M — anchor (193,413) -->
  <g class="data-tip" id="bub5" transform="translate(199,413)">
    <rect class="tip-bg"  x="-90" y="-112" width="180" height="100" rx="12"/>
    <path class="tip-border" d="M10,-12 L78,-12 Q90,-12 90,-24 L90,-100 Q90,-112 78,-112 L-78,-112 Q-90,-112 -90,-100 L-90,-24 Q-90,-12 -78,-12 L-10,-12"/>
    <path class="tip-tail" d="M-10,-12 L0,0 L10,-12"/>
    <text x="0" y="-82" text-anchor="middle" dominant-baseline="central" class="tip-value">$85M</text>
    <text x="0" y="-42" text-anchor="middle" dominant-baseline="central" class="tip-label">Blue · 8.3%</text>
  </g>

  <!-- Teal $65M — anchor (463,413) -->
  <g class="data-tip" id="bub6" transform="translate(460,413)">
    <rect class="tip-bg"  x="-85" y="-112" width="170" height="100" rx="12"/>
    <path class="tip-border" d="M10,-12 L73,-12 Q85,-12 85,-24 L85,-100 Q85,-112 73,-112 L-73,-112 Q-85,-112 -85,-100 L-85,-24 Q-85,-12 -73,-12 L-10,-12"/>
    <path class="tip-tail" d="M-10,-12 L0,0 L10,-12"/>
    <text x="0" y="-82" text-anchor="middle" dominant-baseline="central" class="tip-value">$65M</text>
    <text x="0" y="-42" text-anchor="middle" dominant-baseline="central" class="tip-label">Teal · 6.3%</text>
  </g>

  <!-- Rose $45M — anchor (661,413) -->
  <g class="data-tip" id="bub7" transform="translate(651,413)">
    <rect class="tip-bg"  x="-85" y="-112" width="170" height="100" rx="12"/>
    <path class="tip-border" d="M10,-12 L73,-12 Q85,-12 85,-24 L85,-100 Q85,-112 73,-112 L-73,-112 Q-85,-112 -85,-100 L-85,-24 Q-85,-12 -73,-12 L-10,-12"/>
    <path class="tip-tail" d="M-10,-12 L0,0 L10,-12"/>
    <text x="0" y="-82" text-anchor="middle" dominant-baseline="central" class="tip-value">$45M</text>
    <text x="0" y="-42" text-anchor="middle" dominant-baseline="central" class="tip-label">Rose · 4.4%</text>
  </g>

  <!-- Other $30M — anchor (796,413) -->
  <g class="data-tip" id="bub8" transform="translate(782,413)">
    <rect class="tip-bg"  x="-70" y="-112" width="140" height="100" rx="12"/>
    <path class="tip-border" d="M10,-12 L58,-12 Q70,-12 70,-24 L70,-100 Q70,-112 58,-112 L-58,-112 Q-70,-112 -70,-100 L-70,-24 Q-70,-12 -58,-12 L-10,-12"/>
    <path class="tip-tail" d="M-10,-12 L0,0 L10,-12"/>
    <text x="0" y="-82" text-anchor="middle" dominant-baseline="central" class="tip-value">$30M</text>
    <text x="0" y="-42" text-anchor="middle" dominant-baseline="central" class="tip-label">Other · 2.9%</text>
  </g>

</g>

<script href="chart-shared.js"></script>
<script type="text/javascript"><![CDATA[
(function () {
  var svg = document.documentElement;
  svg._chartInit = function (svgEl, ctx) {
    var dataLayerEl = ctx.$$("#data-layer");
    var bubbleOverlayEl = ctx.$$("#bubble-overlay");
    var legendPanelEl = ctx.$$(".legend-panel");
    var tiles = ctx.$$all(".tile-node");
    if (!dataLayerEl || !tiles.length) return;

    ctx.rebalancePlotArea({
      legendEl: legendPanelEl,
      measureNodes: [dataLayerEl],
      moveNodes: [dataLayerEl, bubbleOverlayEl],
      outerLeft: 24,
      legendGap: 32
    });

    var tileTiming = ctx.getStaggerTiming(tiles.length, null, svgEl);
    var tileDelays = tiles.map(function (_, index) {
      return ctx.getStaggerDelay(index, tiles.length, null, svgEl);
    });
    ctx.initRevealSequence(tiles, {
      animationName: 'tileFade',
      duration: tileTiming.duration,
      easing: 'ease-out',
      delays: tileDelays
    });

    setTimeout(function() {
      dataLayerEl.classList.add('ready');
    }, ctx.getRevealReadyDelayMs({
      delays: tileDelays,
      duration: tileTiming.duration,
      buffer: tileTiming.buffer
    }));

    ctx.initExclusiveHoverTips(dataLayerEl, tiles, {
      leaveTarget: dataLayerEl,
      resolveTip: function (tile) {
        var bubbleId = tile && tile.getAttribute('data-bubble');
        return bubbleId ? svgEl.querySelector('#' + bubbleId) : null;
      }
    });
  };
  if (window.bootstrapChart) { window.bootstrapChart(svg); }
}());
]]></script>
</svg>
