<svg id="root" viewBox="0 0 1100 620" width="100%" height="100%" preserveAspectRatio="xMidYMid meet" xmlns="http://www.w3.org/2000/svg" font-family="'Inter','Helvetica Neue',Arial,sans-serif">
<defs>
  <style>
    @import url('https://fonts.googleapis.com/css2?family=Inter:wght@400;500;600&amp;display=swap');
    .bg-main   { fill:#FFFBFE; filter:drop-shadow(0 1px 2px rgba(0,0,0,0.10)); }
    .ct        { font-size:18px; font-weight:500; fill:#1C1B1F; letter-spacing:-0.2px; }
    .cs        { font-size:11px; fill:#79747E; font-weight:400; }
    .lt        { font-size:11px; fill:#1C1B1F; font-weight:400; }
    .lv        { font-size:11px; fill:#1C1B1F; font-weight:500; }
    .lgd-bg    { fill:#E7E0EC; stroke:#79747E; stroke-width:0.5; }
    .lgd-div   { stroke:#79747E; stroke-width:0.5; opacity:0.3; }
    .lgd-ttl   { font-size:10px; fill:#79747E; font-weight:500; letter-spacing:0.4px; }
    .footer    { font-size:10px; fill:#79747E; font-weight:400; }
    .t-wrap    { cursor:pointer; }
    .t-track   { fill:#E7E0EC; }
    .t-thumb   { fill:#ffffff; }
    .t-label   { font-size:11px; font-weight:500; fill:#49454F; }
    .pt-track  { fill:#E7E0EC; }
    .pt-thumb  { fill:#ffffff; }
    .pt-label  { font-size:11px; font-weight:500; fill:#49454F; }

    .lgd-val   { opacity:0; transition:opacity 0.2s; }
    svg.print .lgd-val { opacity:1; }

    .tm-tile   { cursor:pointer; }
    .tm-lbl-main { font-size:13px; font-weight:500; fill:#ffffff; }
    .tm-lbl-val  { font-size:11px; font-weight:400; fill:rgba(255,255,255,0.85); }
    .tm-lbl-pct  { font-size:10px; font-weight:400; fill:rgba(255,255,255,0.68); }

    .tile-g { opacity:0; }

    /* Bubbles live in a top-level overlay; shown via JS on tile hover */
    .bubble    { opacity:0; pointer-events:none; transition:opacity 0.15s ease; }
    svg.print .bubble { opacity:0 !important; }
    /* bub-fill is the solid background shape — exactly matches the border path */
    .bub-fill  { fill:#FFFBFE; }
    .bub-bdr   { fill:none; stroke:#79747E; stroke-width:1; }
    .bub-tip   { fill:#FFFBFE; stroke:#79747E; stroke-width:1; }
    .bub-val   { fill:#1C1B1F; font-size:13px; font-weight:500; }
    .bub-lbl   { fill:#49454F; font-size:10px; font-weight:400; }

    svg.dark .bg-main  { fill:#1C1B1F; }
    svg.dark .ct       { fill:#E6E0E9; }
    svg.dark .cs       { fill:#938F99; }
    svg.dark .lt       { fill:#E6E0E9; }
    svg.dark .lv       { fill:#E6E0E9; }
    svg.dark .lgd-bg   { fill:#49454F; stroke:#938F99; }
    svg.dark .lgd-div  { stroke:#938F99; }
    svg.dark .lgd-ttl  { fill:#938F99; }
    svg.dark .footer   { fill:#938F99; }
    svg.dark .t-track  { fill:#49454F; }
    svg.dark .t-label  { fill:#CAC4D0; }
    svg.dark .pt-track { fill:#49454F; }
    svg.dark .pt-label { fill:#CAC4D0; }
    svg.dark .bub-fill { fill:#2C2B30; }
    svg.dark .bub-tip  { fill:#2C2B30; stroke:#938F99; }
    svg.dark .bub-bdr  { stroke:#938F99; }
    svg.dark .bub-val  { fill:#E6E0E9; }
    svg.dark .bub-lbl  { fill:#CAC4D0; }

    .border-dark  { display:none; }
    .border-light { display:block; }
    svg.dark .border-dark  { display:block; }
    svg.dark .border-light { display:none; }
  </style>
</defs>

<!-- Background -->
<rect class="bg-main" width="1100" height="620" rx="18"/>
<g class="border-dark">
  <rect x="0.75" y="0.75" width="1098.5" height="618.5" rx="17.5" fill="none" stroke="rgba(0,242,255,0.22)" stroke-width="1.5"/>
</g>
<g class="border-light">
  <rect x="0.75" y="0.75" width="1098.5" height="618.5" rx="17.5" fill="none" stroke="rgba(0,0,0,0.10)" stroke-width="1.5"/>
</g>

<!-- Title -->
<text x="68" y="50" class="ct">Revenue by Category</text>
<text x="68" y="70" class="cs">7 series + Other · hover to inspect · print for values</text>

<!-- Dark toggle -->
<g class="t-wrap" id="dark-toggle" transform="translate(930,52)">
  <rect x="0" y="-13" width="68" height="26" rx="13" class="t-track"/>
  <circle id="tthumb" cx="52" cy="0" r="10" class="t-thumb"/>
  <text id="tlabel" x="44" y="4" class="t-label" text-anchor="middle">Light</text>
</g>

<!-- Print toggle -->
<g class="t-wrap" id="print-toggle" transform="translate(1012,52)">
  <rect x="0" y="-13" width="68" height="26" rx="13" class="pt-track"/>
  <circle id="pthumb" cx="16" cy="0" r="10" class="pt-thumb"/>
  <text id="plabel" x="44" y="4" class="pt-label" text-anchor="middle">Print</text>
</g>

<!-- ═══════════════════════════════════════
     TILES  (no bubbles here)
     ═══════════════════════════════════════ -->

<!-- ROW 1 -->
<g class="tm-tile tile-g" id="tg5" style="transform-origin:207px 196px" data-bubble="bub5">
  <rect id="tmr5" x="68"  y="90" width="279" height="212" rx="10" fill="#8B5CF6"/>
  <text x="207" y="185" text-anchor="middle" class="tm-lbl-main">Violet</text>
  <text x="207" y="202" text-anchor="middle" class="tm-lbl-val">$79M</text>
  <text x="207" y="217" text-anchor="middle" class="tm-lbl-pct">15.6%</text>
</g>

<g class="tm-tile tile-g" id="tg1" style="transform-origin:477px 196px" data-bubble="bub1">
  <rect id="tmr1" x="350" y="90" width="254" height="212" rx="10" fill="#00D4E8"/>
  <text x="477" y="185" text-anchor="middle" class="tm-lbl-main">Cyan</text>
  <text x="477" y="202" text-anchor="middle" class="tm-lbl-val">$72M</text>
  <text x="477" y="217" text-anchor="middle" class="tm-lbl-pct">14.2%</text>
</g>

<g class="tm-tile tile-g" id="tg2" style="transform-origin:728px 196px" data-bubble="bub2">
  <rect id="tmr2" x="607" y="90" width="243" height="212" rx="10" fill="#00B87A"/>
  <text x="728" y="185" text-anchor="middle" class="tm-lbl-main">Emerald</text>
  <text x="728" y="202" text-anchor="middle" class="tm-lbl-val">$68M</text>
  <text x="728" y="217" text-anchor="middle" class="tm-lbl-pct">13.4%</text>
</g>

<!-- ROW 2 -->
<g class="tm-tile tile-g" id="tg6" style="transform-origin:203px 393px" data-bubble="bub6">
  <rect id="tmr6" x="68"  y="305" width="270" height="176" rx="10" fill="#3B82F6"/>
  <text x="203" y="386" text-anchor="middle" class="tm-lbl-main">Blue</text>
  <text x="203" y="403" text-anchor="middle" class="tm-lbl-val">$64M</text>
  <text x="203" y="418" text-anchor="middle" class="tm-lbl-pct">12.6%</text>
</g>

<g class="tm-tile tile-g" id="tg7" style="transform-origin:469px 393px" data-bubble="bub7">
  <rect id="tmr7" x="341" y="305" width="257" height="176" rx="10" fill="#0D9488"/>
  <text x="469" y="386" text-anchor="middle" class="tm-lbl-main">Teal</text>
  <text x="469" y="403" text-anchor="middle" class="tm-lbl-val">$61M</text>
  <text x="469" y="418" text-anchor="middle" class="tm-lbl-pct">12.0%</text>
</g>

<g class="tm-tile tile-g" id="tg3" style="transform-origin:725px 393px" data-bubble="bub3">
  <rect id="tmr3" x="601" y="305" width="249" height="176" rx="10" fill="#F59E0B"/>
  <text x="725" y="386" text-anchor="middle" class="tm-lbl-main">Amber</text>
  <text x="725" y="403" text-anchor="middle" class="tm-lbl-val">$60M</text>
  <text x="725" y="418" text-anchor="middle" class="tm-lbl-pct">11.8%</text>
</g>

<!-- ROW 3 -->
<g class="tm-tile tile-g" id="tg4" style="transform-origin:275px 532px" data-bubble="bub4">
  <rect id="tmr4" x="68"  y="484" width="414" height="96" rx="10" fill="#F43F5E"/>
  <text x="275" y="527" text-anchor="middle" class="tm-lbl-main">Rose</text>
  <text x="275" y="544" text-anchor="middle" class="tm-lbl-val">$55M</text>
  <text x="275" y="559" text-anchor="middle" class="tm-lbl-pct">10.8%</text>
</g>

<g class="tm-tile tile-g" id="tg8" style="transform-origin:667px 532px" data-bubble="bub8">
  <rect id="tmr8" x="485" y="484" width="365" height="96" rx="10" fill="#64748B"/>
  <text x="667" y="527" text-anchor="middle" class="tm-lbl-main">Other</text>
  <text x="667" y="544" text-anchor="middle" class="tm-lbl-val">$48M</text>
  <text x="667" y="559" text-anchor="middle" class="tm-lbl-pct">9.5%</text>
</g>

<!-- LEGEND -->
<rect x="870" y="100" width="210" height="370" rx="14" class="lgd-bg"/>
<text x="888" y="124" class="lgd-ttl">SERIES</text>
<g transform="translate(888,140)"><rect x="0" y="0" width="14" height="14" rx="3" fill="#8B5CF6"/><text x="22" y="11" class="lt">Violet</text><text x="188" y="11" class="lv lgd-val" text-anchor="end">$79M</text></g>
<g transform="translate(888,170)"><rect x="0" y="0" width="14" height="14" rx="3" fill="#00D4E8"/><text x="22" y="11" class="lt">Cyan</text><text x="188" y="11" class="lv lgd-val" text-anchor="end">$72M</text></g>
<g transform="translate(888,200)"><rect x="0" y="0" width="14" height="14" rx="3" fill="#00B87A"/><text x="22" y="11" class="lt">Emerald</text><text x="188" y="11" class="lv lgd-val" text-anchor="end">$68M</text></g>
<g transform="translate(888,230)"><rect x="0" y="0" width="14" height="14" rx="3" fill="#3B82F6"/><text x="22" y="11" class="lt">Blue</text><text x="188" y="11" class="lv lgd-val" text-anchor="end">$64M</text></g>
<g transform="translate(888,260)"><rect x="0" y="0" width="14" height="14" rx="3" fill="#0D9488"/><text x="22" y="11" class="lt">Teal</text><text x="188" y="11" class="lv lgd-val" text-anchor="end">$61M</text></g>
<g transform="translate(888,290)"><rect x="0" y="0" width="14" height="14" rx="3" fill="#F59E0B"/><text x="22" y="11" class="lt">Amber</text><text x="188" y="11" class="lv lgd-val" text-anchor="end">$60M</text></g>
<g transform="translate(888,320)"><rect x="0" y="0" width="14" height="14" rx="3" fill="#F43F5E"/><text x="22" y="11" class="lt">Rose</text><text x="188" y="11" class="lv lgd-val" text-anchor="end">$55M</text></g>
<line x1="888" y1="352" x2="1062" y2="352" class="lgd-div"/>
<g transform="translate(888,364)"><rect x="0" y="0" width="14" height="14" rx="3" fill="#64748B"/><text x="22" y="11" class="lt">Other</text><text x="188" y="11" class="lv lgd-val" text-anchor="end">$48M</text></g>

<text x="68" y="600" class="footer">Revenue by Category · 7 series + Other · treemap · area ∝ revenue</text>

<!-- ═══════════════════════════════════════
     BUBBLE OVERLAY — rendered last so always on top.
     Each bubble is a single unified path (fill + stroke together)
     so there's no rect behind a path causing white bleed.
     The tip triangle is drawn with a filled+stroked path that
     exactly connects to the bottom of the rounded rect.
     ═══════════════════════════════════════ -->
<!--
  Bubble anatomy (origin = tip point at bottom):
    Rounded rect: top-left corner at (-W, -H-TH) size 2W × H, rx=9
    Tip triangle: from (-8, -TH) → (0, 0) → (8, -TH)
    TH = tip height = 10, H = box height = 38, W = half-width

  We draw ONE closed path for fill, then same path again for stroke.
  No separate <rect> that would have a wider fill footprint.

  Bubble positions are centre-x of the tile, top edge of tile (y = tile.y)
-->

<g id="bubble-overlay">

  <!-- bub5 Violet  cx=207  tile-top=90  → tip at (207, 90) -->
  <g class="bubble" id="bub5" transform="translate(207,90)">
    <!-- fill layer -->
    <path class="bub-fill" d="M-8,-10 L-33,-10 Q-42,-10 -42,-19 L-42,-39 Q-42,-48 -33,-48 L33,-48 Q42,-48 42,-39 L42,-19 Q42,-10 33,-10 L8,-10 L0,0 Z"/>
    <!-- stroke layer (no fill so it doesn't re-cover) -->
    <path class="bub-bdr" d="M-8,-10 L-33,-10 Q-42,-10 -42,-19 L-42,-39 Q-42,-48 -33,-48 L33,-48 Q42,-48 42,-39 L42,-19 Q42,-10 33,-10 L8,-10 L0,0 Z"/>
    <text x="0" y="-33" text-anchor="middle" dominant-baseline="central" class="bub-val">$79M</text>
    <text x="0" y="-19" text-anchor="middle" dominant-baseline="central" class="bub-lbl">Violet · 15.6%</text>
  </g>

  <!-- bub1 Cyan  cx=477  tile-top=90 -->
  <g class="bubble" id="bub1" transform="translate(477,90)">
    <path class="bub-fill" d="M-8,-10 L-33,-10 Q-42,-10 -42,-19 L-42,-39 Q-42,-48 -33,-48 L33,-48 Q42,-48 42,-39 L42,-19 Q42,-10 33,-10 L8,-10 L0,0 Z"/>
    <path class="bub-bdr"  d="M-8,-10 L-33,-10 Q-42,-10 -42,-19 L-42,-39 Q-42,-48 -33,-48 L33,-48 Q42,-48 42,-39 L42,-19 Q42,-10 33,-10 L8,-10 L0,0 Z"/>
    <text x="0" y="-33" text-anchor="middle" dominant-baseline="central" class="bub-val">$72M</text>
    <text x="0" y="-19" text-anchor="middle" dominant-baseline="central" class="bub-lbl">Cyan · 14.2%</text>
  </g>

  <!-- bub2 Emerald  cx=728  tile-top=90 -->
  <g class="bubble" id="bub2" transform="translate(728,90)">
    <path class="bub-fill" d="M-8,-10 L-37,-10 Q-46,-10 -46,-19 L-46,-39 Q-46,-48 -37,-48 L37,-48 Q46,-48 46,-39 L46,-19 Q46,-10 37,-10 L8,-10 L0,0 Z"/>
    <path class="bub-bdr"  d="M-8,-10 L-37,-10 Q-46,-10 -46,-19 L-46,-39 Q-46,-48 -37,-48 L37,-48 Q46,-48 46,-39 L46,-19 Q46,-10 37,-10 L8,-10 L0,0 Z"/>
    <text x="0" y="-33" text-anchor="middle" dominant-baseline="central" class="bub-val">$68M</text>
    <text x="0" y="-19" text-anchor="middle" dominant-baseline="central" class="bub-lbl">Emerald · 13.4%</text>
  </g>

  <!-- bub6 Blue  cx=203  tile-top=305 -->
  <g class="bubble" id="bub6" transform="translate(203,305)">
    <path class="bub-fill" d="M-8,-10 L-33,-10 Q-42,-10 -42,-19 L-42,-39 Q-42,-48 -33,-48 L33,-48 Q42,-48 42,-39 L42,-19 Q42,-10 33,-10 L8,-10 L0,0 Z"/>
    <path class="bub-bdr"  d="M-8,-10 L-33,-10 Q-42,-10 -42,-19 L-42,-39 Q-42,-48 -33,-48 L33,-48 Q42,-48 42,-39 L42,-19 Q42,-10 33,-10 L8,-10 L0,0 Z"/>
    <text x="0" y="-33" text-anchor="middle" dominant-baseline="central" class="bub-val">$64M</text>
    <text x="0" y="-19" text-anchor="middle" dominant-baseline="central" class="bub-lbl">Blue · 12.6%</text>
  </g>

  <!-- bub7 Teal  cx=469  tile-top=305 -->
  <g class="bubble" id="bub7" transform="translate(469,305)">
    <path class="bub-fill" d="M-8,-10 L-33,-10 Q-42,-10 -42,-19 L-42,-39 Q-42,-48 -33,-48 L33,-48 Q42,-48 42,-39 L42,-19 Q42,-10 33,-10 L8,-10 L0,0 Z"/>
    <path class="bub-bdr"  d="M-8,-10 L-33,-10 Q-42,-10 -42,-19 L-42,-39 Q-42,-48 -33,-48 L33,-48 Q42,-48 42,-39 L42,-19 Q42,-10 33,-10 L8,-10 L0,0 Z"/>
    <text x="0" y="-33" text-anchor="middle" dominant-baseline="central" class="bub-val">$61M</text>
    <text x="0" y="-19" text-anchor="middle" dominant-baseline="central" class="bub-lbl">Teal · 12.0%</text>
  </g>

  <!-- bub3 Amber  cx=725  tile-top=305 -->
  <g class="bubble" id="bub3" transform="translate(725,305)">
    <path class="bub-fill" d="M-8,-10 L-35,-10 Q-44,-10 -44,-19 L-44,-39 Q-44,-48 -35,-48 L35,-48 Q44,-48 44,-39 L44,-19 Q44,-10 35,-10 L8,-10 L0,0 Z"/>
    <path class="bub-bdr"  d="M-8,-10 L-35,-10 Q-44,-10 -44,-19 L-44,-39 Q-44,-48 -35,-48 L35,-48 Q44,-48 44,-39 L44,-19 Q44,-10 35,-10 L8,-10 L0,0 Z"/>
    <text x="0" y="-33" text-anchor="middle" dominant-baseline="central" class="bub-val">$60M</text>
    <text x="0" y="-19" text-anchor="middle" dominant-baseline="central" class="bub-lbl">Amber · 11.8%</text>
  </g>

  <!-- bub4 Rose  cx=275  tile-top=484 -->
  <g class="bubble" id="bub4" transform="translate(275,484)">
    <path class="bub-fill" d="M-8,-10 L-33,-10 Q-42,-10 -42,-19 L-42,-39 Q-42,-48 -33,-48 L33,-48 Q42,-48 42,-39 L42,-19 Q42,-10 33,-10 L8,-10 L0,0 Z"/>
    <path class="bub-bdr"  d="M-8,-10 L-33,-10 Q-42,-10 -42,-19 L-42,-39 Q-42,-48 -33,-48 L33,-48 Q42,-48 42,-39 L42,-19 Q42,-10 33,-10 L8,-10 L0,0 Z"/>
    <text x="0" y="-33" text-anchor="middle" dominant-baseline="central" class="bub-val">$55M</text>
    <text x="0" y="-19" text-anchor="middle" dominant-baseline="central" class="bub-lbl">Rose · 10.8%</text>
  </g>

  <!-- bub8 Other  cx=667  tile-top=484 -->
  <g class="bubble" id="bub8" transform="translate(667,484)">
    <path class="bub-fill" d="M-8,-10 L-33,-10 Q-42,-10 -42,-19 L-42,-39 Q-42,-48 -33,-48 L33,-48 Q42,-48 42,-39 L42,-19 Q42,-10 33,-10 L8,-10 L0,0 Z"/>
    <path class="bub-bdr"  d="M-8,-10 L-33,-10 Q-42,-10 -42,-19 L-42,-39 Q-42,-48 -33,-48 L33,-48 Q42,-48 42,-39 L42,-19 Q42,-10 33,-10 L8,-10 L0,0 Z"/>
    <text x="0" y="-33" text-anchor="middle" dominant-baseline="central" class="bub-val">$48M</text>
    <text x="0" y="-19" text-anchor="middle" dominant-baseline="central" class="bub-lbl">Other · 9.5%</text>
  </g>

</g>

<script type="text/javascript"><![CDATA[
(function () {
  var svg = document.getElementById('root');

  var lightColors = { 1:'#00D4E8', 2:'#00B87A', 3:'#F59E0B', 4:'#F43F5E', 5:'#8B5CF6', 6:'#3B82F6', 7:'#0D9488', 8:'#64748B' };
  var darkColors  = { 1:'#22D3EE', 2:'#10B981', 3:'#FBB724', 4:'#FB6181', 5:'#A78BFA', 6:'#60A5FA', 7:'#2DD4BF', 8:'#94A3B8' };

  function swapColors(dark) {
    var palette = dark ? darkColors : lightColors;
    for (var id in palette) {
      var r = document.getElementById('tmr' + id);
      if (r) r.setAttribute('fill', palette[id]);
    }
  }

  /* ── Option B: spring scale from center, staggered 110ms ── */
  var tileOrder = ['tg5','tg1','tg2','tg6','tg7','tg3','tg4','tg8'];

  function runEntrance() {
    tileOrder.forEach(function(id, i) {
      var el = document.getElementById(id);
      if (!el) return;
      el.style.transition = 'none';
      el.style.transform  = 'scale(0)';
      el.style.opacity    = '0';
      setTimeout(function() {
        el.style.transition = 'transform 1.2s cubic-bezier(0.34,1.4,0.64,1), opacity 0.35s ease';
        el.style.transform  = 'scale(1)';
        el.style.opacity    = '1';
      }, 80 + i * 110);
    });
  }

  runEntrance();

  /* ── Hover: show matching bubble from overlay ── */
  var tiles = svg.querySelectorAll('.tm-tile');
  tiles.forEach(function(tile) {
    var bubId = tile.getAttribute('data-bubble');
    var bub   = bubId ? document.getElementById(bubId) : null;

    tile.addEventListener('mouseenter', function() {
      if (bub) bub.style.opacity = '1';
    });
    tile.addEventListener('mouseleave', function() {
      if (bub) bub.style.opacity = '0';
    });
  });

  /* ── Dark / print toggles ── */
  function setMode(wantDark) {
    var currently = svg.classList.contains('dark');
    if (wantDark === currently) return;
    var thumb = document.getElementById('tthumb');
    var lbl   = document.getElementById('tlabel');
    if (wantDark) {
      svg.classList.add('dark');
      if (thumb) thumb.setAttribute('cx','52');
      if (lbl)   lbl.textContent = 'Light';
    } else {
      svg.classList.remove('dark');
      if (thumb) thumb.setAttribute('cx','16');
      if (lbl)   lbl.textContent = 'Dark';
    }
    swapColors(wantDark);
  }

  document.getElementById('dark-toggle').addEventListener('click', function() {
    setMode(!svg.classList.contains('dark'));
  });
  document.getElementById('print-toggle').addEventListener('click', function() {
    var thumb = document.getElementById('pthumb'), lbl = document.getElementById('plabel');
    if (svg.classList.toggle('print')) { thumb.setAttribute('cx','52'); lbl.textContent='Screen'; }
    else                               { thumb.setAttribute('cx','16'); lbl.textContent='Print';  }
  });

  window.setMode = setMode;
  window.addEventListener('message', function(e) {
    if (e.data && e.data.type === 'setMode') setMode(e.data.dark);
  });

  (function() {
    setMode(window.location.href.indexOf('theme=dark') !== -1);
  })();
})();
]]></script>
</svg>
