<svg id="root" viewBox="0 0 1100 620" width="100%" height="100%" preserveAspectRatio="xMidYMid meet" xmlns="http://www.w3.org/2000/svg" font-family="'Inter','Helvetica Neue',Arial,sans-serif">
<defs>
  <style>
    @import url('https://fonts.googleapis.com/css2?family=Inter:wght@400;500;600&amp;display=swap');
    .bg-main   { fill:#FFFBFE; filter:drop-shadow(0 1px 2px rgba(0,0,0,0.10)); }
    .ct        { font-size:18px; font-weight:500; fill:#1C1B1F; letter-spacing:-0.2px; }
    .cs        { font-size:11px; fill:#79747E; font-weight:400; }
    .an        { font-size:10px; fill:#79747E; font-weight:400; }
    .al        { font-size:10px; fill:#79747E; font-weight:500; }
    .lt        { font-size:11px; fill:#1C1B1F; font-weight:400; }
    .lv        { font-size:11px; fill:#1C1B1F; font-weight:500; }
    .gl        { stroke:#E7E0EC; stroke-width:1; }
    .bl        { stroke:#79747E; stroke-width:1.5; }
    .lgd-bg    { fill:#E7E0EC; stroke:#79747E; stroke-width:0.5; }
    .lgd-div   { stroke:#79747E; stroke-width:0.5; opacity:0.3; }
    .lgd-ttl   { font-size:10px; fill:#79747E; font-weight:500; letter-spacing:0.4px; }
    .footer    { font-size:10px; fill:#79747E; font-weight:400; }
    .t-wrap    { cursor:pointer; }
    .t-track   { fill:#E7E0EC; }
    .t-thumb   { fill:#ffffff; }
    .t-label   { font-size:11px; font-weight:500; fill:#49454F; }
    .pt-track  { fill:#E7E0EC; transition:fill 0.3s; }
    .pt-thumb  { fill:#ffffff; }
    .pt-label  { font-size:11px; font-weight:500; fill:#49454F; }

    .lgd-val   { opacity:0; transition:opacity 0.2s; }
    svg.print .lgd-val   { opacity:1; }
    svg.print .pt-track  { fill:#d97316; }

    .bw        { cursor:pointer; }
    .bubble    { opacity:0; pointer-events:none; transition:opacity 0.15s ease; }
    .bw:hover .bubble { opacity:1; }
    .ca:hover .bw .bb  { opacity:0.45; }
    .ca:hover .bw:hover .bb { opacity:1; }
    svg.print .bubble  { opacity:0 !important; }
    svg.print .ca:hover .bw .bb { opacity:1 !important; }

    .conn      { stroke:#B0A8B9; stroke-width:1; stroke-dasharray:4 3; }
    svg.dark .conn { stroke:#49454F; }

    .bub-bg    { fill:#FFFBFE; }
    .bub-bdr   { fill:none; stroke:#79747E; stroke-width:1; }
    .bub-tip   { fill:none; stroke:#79747E; stroke-width:1; }
    .bub-val   { fill:#1C1B1F; font-size:13px; font-weight:500; }
    .bub-lbl   { fill:#49454F; font-size:10px; font-weight:400; }

    svg.dark .bg-main   { fill:#1C1B1F; filter:drop-shadow(0 1px 4px rgba(0,0,0,0.25)); }
    svg.dark .ct        { fill:#E6E0E9; }
    svg.dark .cs        { fill:#938F99; }
    svg.dark .an        { fill:#938F99; }
    svg.dark .al        { fill:#938F99; }
    svg.dark .lt        { fill:#E6E0E9; }
    svg.dark .lv        { fill:#E6E0E9; }
    svg.dark .gl        { stroke:#49454F; }
    svg.dark .bl        { stroke:#938F99; }
    svg.dark .lgd-bg    { fill:#49454F; stroke:#938F99; }
    svg.dark .lgd-div   { stroke:#938F99; }
    svg.dark .lgd-ttl   { fill:#938F99; }
    svg.dark .footer    { fill:#938F99; }
    svg.dark .t-track   { fill:#49454F; }
    svg.dark .t-label   { fill:#CAC4D0; }
    svg.dark .pt-track  { fill:#49454F; }
    svg.dark .pt-label  { fill:#CAC4D0; }
    svg.dark.print .pt-track { fill:#d97316; }
    svg.dark .bub-bg    { fill:#1C1B1F; }
    svg.dark .bub-bdr   { fill:none; stroke:#938F99; stroke-width:1; }
    svg.dark .bub-tip   { fill:none; stroke:#938F99; stroke-width:1; }
    svg.dark .bub-val   { fill:#E6E0E9; }
    svg.dark .bub-lbl   { fill:#CAC4D0; }

    .border-dark      { display:none; }
    .border-light     { display:block; }
    svg.dark .border-dark  { display:block; }
    svg.dark .border-light { display:none; }
  </style>
</defs>

<!-- Background -->
<rect class="bg-main" width="1100" height="620" rx="18"/>
<g class="border-dark">
  <rect x="0.75" y="0.75" width="1098.5" height="618.5" rx="17.5"
    fill="none" stroke="rgba(0,242,255,0.22)" stroke-width="1.5"/>
</g>
<g class="border-light">
  <rect x="0.75" y="0.75" width="1098.5" height="618.5" rx="17.5"
    fill="none" stroke="rgba(0,0,0,0.10)" stroke-width="1.5"/>
</g>

<!-- Title -->
<text x="68" y="50" class="ct">Revenue Waterfall by Category</text>
<text x="68" y="70" class="cs">Cumulative build · 7 series + Other · hover to inspect · print for values</text>

<!-- Dark toggle -->
<g class="t-wrap" id="dark-toggle" transform="translate(930,52)">
  <rect x="0" y="-13" width="68" height="26" rx="13" class="t-track"/>
  <circle id="tthumb" cx="52" cy="0" r="10" class="t-thumb"/>
  <text id="tlabel" x="44" y="4" class="t-label" text-anchor="middle">Light</text>
</g>

<!-- Print toggle -->
<g class="t-wrap" id="print-toggle" transform="translate(1012,52)">
  <rect x="0" y="-13" width="68" height="26" rx="13" class="pt-track"/>
  <circle id="pthumb" cx="16" cy="0" r="10" class="pt-thumb"/>
  <text id="plabel" x="44" y="4" class="pt-label" text-anchor="middle">Print</text>
</g>

<!--
  Scale: baseline y=500, top y=100 → 400px = $507M total
  Each $1M ≈ 400/507 ≈ 0.789px. Round to nice numbers:
  Use scale: 400px = $500M → 0.8px per $1M

  Waterfall segments (running total):
  Start  : $0      → y=500, h=0   (anchor)
  Cyan   : +$72M   → base=0,   top=72,   barY=500-57.6=442.4, h=57.6
  Emerald: +$68M   → base=72,  top=140,  barY=500-112=388, h=54.4
  Amber  : +$60M   → base=140, top=200,  barY=500-160=340, h=48
  Rose   : +$55M   → base=200, top=255,  barY=500-204=296, h=44
  Violet : +$79M   → base=255, top=334,  barY=500-267.2=232.8, h=63.2
  Blue   : +$64M   → base=334, top=398,  barY=500-318.4=181.6, h=51.2
  Teal   : +$61M   → base=398, top=459,  barY=500-367.2=132.8, h=48.8
  Other  : +$48M   → base=459, top=507,  barY=500-405.6=94.4,  h=38.4
  Total  : $507M   → full bar 0→507, barY=94.4, h=405.6

  Pixel math (scale 0.8px/$1M, baseline=500):
  yPx(val) = 500 - val*0.8

  Cyan:    base=500,    top=442.4,  h=57.6
  Emerald: base=442.4,  top=388,    h=54.4
  Amber:   base=388,    top=340,    h=48
  Rose:    base=340,    top=296,    h=44
  Violet:  base=296,    top=232.8,  h=63.2
  Blue:    base=232.8,  top=181.6,  h=51.2
  Teal:    base=181.6,  top=132.8,  h=48.8
  Other:   base=132.8,  top=94.4,   h=38.4
  Total:   base=500,    top=94.4,   h=405.6

  Bar x centers: 82,166,250,334,418,502,586,670,760
  Bar width: 56, gap connector to right edge of bar
-->

<!-- Grid lines -->
<line x1="68" y1="500" x2="820" y2="500" class="bl"/>
<line x1="68" y1="420" x2="820" y2="420" class="gl"/>
<line x1="68" y1="340" x2="820" y2="340" class="gl"/>
<line x1="68" y1="260" x2="820" y2="260" class="gl"/>
<line x1="68" y1="180" x2="820" y2="180" class="gl"/>
<line x1="68" y1="100" x2="820" y2="100" class="gl"/>
<line x1="68" y1="100" x2="68"  y2="500" class="bl"/>

<!-- Y axis labels ($0–$500M, steps $100M = 80px) -->
<text x="56" y="504" class="an" text-anchor="end">$0</text>
<text x="56" y="424" class="an" text-anchor="end">$100M</text>
<text x="56" y="344" class="an" text-anchor="end">$200M</text>
<text x="56" y="264" class="an" text-anchor="end">$300M</text>
<text x="56" y="184" class="an" text-anchor="end">$400M</text>
<text x="56" y="104" class="an" text-anchor="end">$500M</text>

<!-- X axis labels -->
<text x="96"  y="522" class="al" text-anchor="middle">Cyan</text>
<text x="180" y="522" class="al" text-anchor="middle">Emerald</text>
<text x="264" y="522" class="al" text-anchor="middle">Amber</text>
<text x="348" y="522" class="al" text-anchor="middle">Rose</text>
<text x="432" y="522" class="al" text-anchor="middle">Violet</text>
<text x="516" y="522" class="al" text-anchor="middle">Blue</text>
<text x="600" y="522" class="al" text-anchor="middle">Teal</text>
<text x="684" y="522" class="al" text-anchor="middle">Other</text>
<text x="768" y="522" class="al" text-anchor="middle">Total</text>

<!-- Connector dashed lines (drawn before bars so bars sit on top) -->
<!-- Cyan→Emerald: y=442.4, x from 124 to 152 -->
<line class="conn" x1="124" y1="442" x2="152" y2="442"/>
<!-- Emerald→Amber: y=388, x from 208 to 236 -->
<line class="conn" x1="208" y1="388" x2="236" y2="388"/>
<!-- Amber→Rose: y=340, x from 292 to 320 -->
<line class="conn" x1="292" y1="340" x2="320" y2="340"/>
<!-- Rose→Violet: y=296, x from 376 to 404 -->
<line class="conn" x1="376" y1="296" x2="404" y2="296"/>
<!-- Violet→Blue: y=232.8, x from 460 to 488 -->
<line class="conn" x1="460" y1="233" x2="488" y2="233"/>
<!-- Blue→Teal: y=181.6, x from 544 to 572 -->
<line class="conn" x1="544" y1="182" x2="572" y2="182"/>
<!-- Teal→Other: y=132.8, x from 628 to 656 -->
<line class="conn" x1="628" y1="133" x2="656" y2="133"/>
<!-- Other→Total: y=94.4, x from 712 to 740 -->
<line class="conn" x1="712" y1="94" x2="740" y2="94"/>

<g class="ca">

<!-- ══ Cyan +$72M ══ barX=68, center=96, top=442.4, h=57.6 -->
<g class="bw" id="bw1">
  <g class="bb">
    <g id="bar-anim-1" transform="translate(96,500)" style="opacity:0; transform-origin:96px 500px">
      <animateTransform attributeName="transform" type="scale" from="1,0" to="1,1" dur="1.10s" begin="0.00s" fill="freeze" calcMode="spline" keySplines="0.34,1.4,0.64,1" keyTimes="0;1"/>
      <animate attributeName="opacity" from="0" to="1" dur="0.40s" begin="0.00s" fill="freeze"/>
      <rect id="bar-1" x="-28" y="-57.6" width="56" height="57.6" rx="10" fill="#00D4E8"/>
    </g>
  </g>
  <g class="bubble" transform="translate(96,420)">
    <rect x="-38" y="-44" width="76" height="38" rx="9" class="bub-bg"/>
    <path d="M-8,-6 L-29,-6 Q-38,-6 -38,-15 L-38,-35 Q-38,-44 -29,-44 L29,-44 Q38,-44 38,-35 L38,-15 Q38,-6 29,-6 L8,-6" class="bub-bdr"/>
    <path d="M8,-6 L0,8 L-8,-6" class="bub-tip"/>
    <text x="0" y="-32" text-anchor="middle" dominant-baseline="central" class="bub-val">+$72M</text>
    <text x="0" y="-16" text-anchor="middle" dominant-baseline="central" class="bub-lbl">Cyan</text>
  </g>
</g>

<!-- ══ Emerald +$68M ══ center=180, base=442.4, top=388, h=54.4 -->
<g class="bw" id="bw2">
  <g class="bb">
    <g id="bar-anim-2" transform="translate(180,442)" style="opacity:0; transform-origin:180px 442px">
      <animateTransform attributeName="transform" type="scale" from="1,0" to="1,1" dur="1.10s" begin="0.12s" fill="freeze" calcMode="spline" keySplines="0.34,1.4,0.64,1" keyTimes="0;1"/>
      <animate attributeName="opacity" from="0" to="1" dur="0.40s" begin="0.12s" fill="freeze"/>
      <rect id="bar-2" x="-28" y="-54.4" width="56" height="54.4" rx="10" fill="#00B87A"/>
    </g>
  </g>
  <g class="bubble" transform="translate(180,368)">
    <rect x="-42" y="-44" width="84" height="38" rx="9" class="bub-bg"/>
    <path d="M-8,-6 L-33,-6 Q-42,-6 -42,-15 L-42,-35 Q-42,-44 -33,-44 L33,-44 Q42,-44 42,-35 L42,-15 Q42,-6 33,-6 L8,-6" class="bub-bdr"/>
    <path d="M8,-6 L0,8 L-8,-6" class="bub-tip"/>
    <text x="0" y="-32" text-anchor="middle" dominant-baseline="central" class="bub-val">+$68M</text>
    <text x="0" y="-16" text-anchor="middle" dominant-baseline="central" class="bub-lbl">Emerald</text>
  </g>
</g>

<!-- ══ Amber +$60M ══ center=264, base=388, top=340, h=48 -->
<g class="bw" id="bw3">
  <g class="bb">
    <g id="bar-anim-3" transform="translate(264,388)" style="opacity:0; transform-origin:264px 388px">
      <animateTransform attributeName="transform" type="scale" from="1,0" to="1,1" dur="1.10s" begin="0.24s" fill="freeze" calcMode="spline" keySplines="0.34,1.4,0.64,1" keyTimes="0;1"/>
      <animate attributeName="opacity" from="0" to="1" dur="0.40s" begin="0.24s" fill="freeze"/>
      <rect id="bar-3" x="-28" y="-48" width="56" height="48" rx="10" fill="#F59E0B"/>
    </g>
  </g>
  <g class="bubble" transform="translate(264,316)">
    <rect x="-38" y="-44" width="76" height="38" rx="9" class="bub-bg"/>
    <path d="M-8,-6 L-29,-6 Q-38,-6 -38,-15 L-38,-35 Q-38,-44 -29,-44 L29,-44 Q38,-44 38,-35 L38,-15 Q38,-6 29,-6 L8,-6" class="bub-bdr"/>
    <path d="M8,-6 L0,8 L-8,-6" class="bub-tip"/>
    <text x="0" y="-32" text-anchor="middle" dominant-baseline="central" class="bub-val">+$60M</text>
    <text x="0" y="-16" text-anchor="middle" dominant-baseline="central" class="bub-lbl">Amber</text>
  </g>
</g>

<!-- ══ Rose +$55M ══ center=348, base=340, top=296, h=44 -->
<g class="bw" id="bw4">
  <g class="bb">
    <g id="bar-anim-4" transform="translate(348,340)" style="opacity:0; transform-origin:348px 340px">
      <animateTransform attributeName="transform" type="scale" from="1,0" to="1,1" dur="1.10s" begin="0.36s" fill="freeze" calcMode="spline" keySplines="0.34,1.4,0.64,1" keyTimes="0;1"/>
      <animate attributeName="opacity" from="0" to="1" dur="0.40s" begin="0.36s" fill="freeze"/>
      <rect id="bar-4" x="-28" y="-44" width="56" height="44" rx="10" fill="#F43F5E"/>
    </g>
  </g>
  <g class="bubble" transform="translate(348,270)">
    <rect x="-36" y="-44" width="72" height="38" rx="9" class="bub-bg"/>
    <path d="M-8,-6 L-27,-6 Q-36,-6 -36,-15 L-36,-35 Q-36,-44 -27,-44 L27,-44 Q36,-44 36,-35 L36,-15 Q36,-6 27,-6 L8,-6" class="bub-bdr"/>
    <path d="M8,-6 L0,8 L-8,-6" class="bub-tip"/>
    <text x="0" y="-32" text-anchor="middle" dominant-baseline="central" class="bub-val">+$55M</text>
    <text x="0" y="-16" text-anchor="middle" dominant-baseline="central" class="bub-lbl">Rose</text>
  </g>
</g>

<!-- ══ Violet +$79M ══ center=432, base=296, top=232.8, h=63.2 -->
<g class="bw" id="bw5">
  <g class="bb">
    <g id="bar-anim-5" transform="translate(432,296)" style="opacity:0; transform-origin:432px 296px">
      <animateTransform attributeName="transform" type="scale" from="1,0" to="1,1" dur="1.10s" begin="0.48s" fill="freeze" calcMode="spline" keySplines="0.34,1.4,0.64,1" keyTimes="0;1"/>
      <animate attributeName="opacity" from="0" to="1" dur="0.40s" begin="0.48s" fill="freeze"/>
      <rect id="bar-5" x="-28" y="-63.2" width="56" height="63.2" rx="10" fill="#8B5CF6"/>
    </g>
  </g>
  <g class="bubble" transform="translate(432,210)">
    <rect x="-38" y="-44" width="76" height="38" rx="9" class="bub-bg"/>
    <path d="M-8,-6 L-29,-6 Q-38,-6 -38,-15 L-38,-35 Q-38,-44 -29,-44 L29,-44 Q38,-44 38,-35 L38,-15 Q38,-6 29,-6 L8,-6" class="bub-bdr"/>
    <path d="M8,-6 L0,8 L-8,-6" class="bub-tip"/>
    <text x="0" y="-32" text-anchor="middle" dominant-baseline="central" class="bub-val">+$79M</text>
    <text x="0" y="-16" text-anchor="middle" dominant-baseline="central" class="bub-lbl">Violet</text>
  </g>
</g>

<!-- ══ Blue +$64M ══ center=516, base=232.8, top=181.6, h=51.2 -->
<g class="bw" id="bw6">
  <g class="bb">
    <g id="bar-anim-6" transform="translate(516,233)" style="opacity:0; transform-origin:516px 233px">
      <animateTransform attributeName="transform" type="scale" from="1,0" to="1,1" dur="1.10s" begin="0.60s" fill="freeze" calcMode="spline" keySplines="0.34,1.4,0.64,1" keyTimes="0;1"/>
      <animate attributeName="opacity" from="0" to="1" dur="0.40s" begin="0.60s" fill="freeze"/>
      <rect id="bar-6" x="-28" y="-51.2" width="56" height="51.2" rx="10" fill="#3B82F6"/>
    </g>
  </g>
  <g class="bubble" transform="translate(516,158)">
    <rect x="-36" y="-44" width="72" height="38" rx="9" class="bub-bg"/>
    <path d="M-8,-6 L-27,-6 Q-36,-6 -36,-15 L-36,-35 Q-36,-44 -27,-44 L27,-44 Q36,-44 36,-35 L36,-15 Q36,-6 27,-6 L8,-6" class="bub-bdr"/>
    <path d="M8,-6 L0,8 L-8,-6" class="bub-tip"/>
    <text x="0" y="-32" text-anchor="middle" dominant-baseline="central" class="bub-val">+$64M</text>
    <text x="0" y="-16" text-anchor="middle" dominant-baseline="central" class="bub-lbl">Blue</text>
  </g>
</g>

<!-- ══ Teal +$61M ══ center=600, base=181.6, top=132.8, h=48.8 -->
<g class="bw" id="bw7">
  <g class="bb">
    <g id="bar-anim-7" transform="translate(600,182)" style="opacity:0; transform-origin:600px 182px">
      <animateTransform attributeName="transform" type="scale" from="1,0" to="1,1" dur="1.10s" begin="0.72s" fill="freeze" calcMode="spline" keySplines="0.34,1.4,0.64,1" keyTimes="0;1"/>
      <animate attributeName="opacity" from="0" to="1" dur="0.40s" begin="0.72s" fill="freeze"/>
      <rect id="bar-7" x="-28" y="-48.8" width="56" height="48.8" rx="10" fill="#0D9488"/>
    </g>
  </g>
  <g class="bubble" transform="translate(600,110)">
    <rect x="-36" y="-44" width="72" height="38" rx="9" class="bub-bg"/>
    <path d="M-8,-6 L-27,-6 Q-36,-6 -36,-15 L-36,-35 Q-36,-44 -27,-44 L27,-44 Q36,-44 36,-35 L36,-15 Q36,-6 27,-6 L8,-6" class="bub-bdr"/>
    <path d="M8,-6 L0,8 L-8,-6" class="bub-tip"/>
    <text x="0" y="-32" text-anchor="middle" dominant-baseline="central" class="bub-val">+$61M</text>
    <text x="0" y="-16" text-anchor="middle" dominant-baseline="central" class="bub-lbl">Teal</text>
  </g>
</g>

<!-- ══ Other +$48M ══ center=684, base=132.8, top=94.4, h=38.4 -->
<g class="bw" id="bw8">
  <g class="bb">
    <g id="bar-anim-8" transform="translate(684,133)" style="opacity:0; transform-origin:684px 133px">
      <animateTransform attributeName="transform" type="scale" from="1,0" to="1,1" dur="1.10s" begin="0.84s" fill="freeze" calcMode="spline" keySplines="0.34,1.4,0.64,1" keyTimes="0;1"/>
      <animate attributeName="opacity" from="0" to="1" dur="0.40s" begin="0.84s" fill="freeze"/>
      <rect id="bar-8" x="-28" y="-38.4" width="56" height="38.4" rx="10" fill="#64748B"/>
    </g>
  </g>
  <g class="bubble" transform="translate(684,112)">
    <rect x="-38" y="-44" width="76" height="38" rx="9" class="bub-bg"/>
    <path d="M-8,-6 L-29,-6 Q-38,-6 -38,-15 L-38,-35 Q-38,-44 -29,-44 L29,-44 Q38,-44 38,-35 L38,-15 Q38,-6 29,-6 L8,-6" class="bub-bdr"/>
    <path d="M8,-6 L0,8 L-8,-6" class="bub-tip"/>
    <text x="0" y="-32" text-anchor="middle" dominant-baseline="central" class="bub-val">+$48M</text>
    <text x="0" y="-16" text-anchor="middle" dominant-baseline="central" class="bub-lbl">Other</text>
  </g>
</g>

<!-- ══ Total $507M ══ center=768, full bar from baseline, top=94.4, h=405.6 -->
<g class="bw" id="bw9">
  <g class="bb">
    <g id="bar-anim-9" transform="translate(768,500)" style="opacity:0; transform-origin:768px 500px">
      <animateTransform attributeName="transform" type="scale" from="1,0" to="1,1" dur="1.20s" begin="1.00s" fill="freeze" calcMode="spline" keySplines="0.34,1.4,0.64,1" keyTimes="0;1"/>
      <animate attributeName="opacity" from="0" to="1" dur="0.45s" begin="1.00s" fill="freeze"/>
      <rect id="bar-9" x="-28" y="-405.6" width="56" height="405.6" rx="10" fill="#6366F1"/>
    </g>
  </g>
  <g class="bubble" transform="translate(768,270)">
    <rect x="-40" y="-44" width="80" height="38" rx="9" class="bub-bg"/>
    <path d="M-8,-6 L-31,-6 Q-40,-6 -40,-15 L-40,-35 Q-40,-44 -31,-44 L31,-44 Q40,-44 40,-35 L40,-15 Q40,-6 31,-6 L8,-6" class="bub-bdr"/>
    <path d="M8,-6 L0,8 L-8,-6" class="bub-tip"/>
    <text x="0" y="-32" text-anchor="middle" dominant-baseline="central" class="bub-val">$507M</text>
    <text x="0" y="-16" text-anchor="middle" dominant-baseline="central" class="bub-lbl">Total</text>
  </g>
</g>

</g><!-- end .ca -->

<!-- LEGEND -->
<rect x="870" y="100" width="210" height="370" rx="14" class="lgd-bg" stroke-width="1"/>
<text x="888" y="124" class="lgd-ttl">SERIES</text>
<g transform="translate(888,140)">
  <rect x="0" y="0" width="14" height="14" rx="3" fill="#00D4E8"/>
  <text x="22" y="11" class="lt">Cyan</text>
  <text x="188" y="11" class="lv lgd-val" text-anchor="end">+$72M</text>
</g>
<g transform="translate(888,170)">
  <rect x="0" y="0" width="14" height="14" rx="3" fill="#00B87A"/>
  <text x="22" y="11" class="lt">Emerald</text>
  <text x="188" y="11" class="lv lgd-val" text-anchor="end">+$68M</text>
</g>
<g transform="translate(888,200)">
  <rect x="0" y="0" width="14" height="14" rx="3" fill="#F59E0B"/>
  <text x="22" y="11" class="lt">Amber</text>
  <text x="188" y="11" class="lv lgd-val" text-anchor="end">+$60M</text>
</g>
<g transform="translate(888,230)">
  <rect x="0" y="0" width="14" height="14" rx="3" fill="#F43F5E"/>
  <text x="22" y="11" class="lt">Rose</text>
  <text x="188" y="11" class="lv lgd-val" text-anchor="end">+$55M</text>
</g>
<g transform="translate(888,260)">
  <rect x="0" y="0" width="14" height="14" rx="3" fill="#8B5CF6"/>
  <text x="22" y="11" class="lt">Violet</text>
  <text x="188" y="11" class="lv lgd-val" text-anchor="end">+$79M</text>
</g>
<g transform="translate(888,290)">
  <rect x="0" y="0" width="14" height="14" rx="3" fill="#3B82F6"/>
  <text x="22" y="11" class="lt">Blue</text>
  <text x="188" y="11" class="lv lgd-val" text-anchor="end">+$64M</text>
</g>
<g transform="translate(888,320)">
  <rect x="0" y="0" width="14" height="14" rx="3" fill="#0D9488"/>
  <text x="22" y="11" class="lt">Teal</text>
  <text x="188" y="11" class="lv lgd-val" text-anchor="end">+$61M</text>
</g>
<line x1="888" y1="352" x2="1062" y2="352" class="lgd-div"/>
<g transform="translate(888,364)">
  <rect x="0" y="0" width="14" height="14" rx="3" fill="#64748B"/>
  <text x="22" y="11" class="lt">Other</text>
  <text x="188" y="11" class="lv lgd-val" text-anchor="end">+$48M</text>
</g>
<line x1="888" y1="390" x2="1062" y2="390" class="lgd-div"/>
<g transform="translate(888,402)">
  <rect x="0" y="0" width="14" height="14" rx="3" fill="#6366F1"/>
  <text x="22" y="11" class="lt" style="font-weight:600">Total</text>
  <text x="188" y="11" class="lv lgd-val" text-anchor="end" style="font-weight:600">$507M</text>
</g>

<text x="68" y="600" class="footer">Revenue by Category · 7 series + Other · cumulative waterfall</text>

<script type="text/javascript"><![CDATA[
(function() {
  var svg = document.getElementById('root');

  var bars = [
    { id:1, light:'#00D4E8', dark:'#22D3EE' },
    { id:2, light:'#00B87A', dark:'#10B981' },
    { id:3, light:'#F59E0B', dark:'#FBB724' },
    { id:4, light:'#F43F5E', dark:'#FB6181' },
    { id:5, light:'#8B5CF6', dark:'#A78BFA' },
    { id:6, light:'#3B82F6', dark:'#60A5FA' },
    { id:7, light:'#0D9488', dark:'#2DD4BF' },
    { id:8, light:'#64748B', dark:'#94A3B8' },
    { id:9, light:'#6366F1', dark:'#818CF8' },
  ];

  function swapColors(dark) {
    bars.forEach(function(b) {
      var bar = document.getElementById('bar-' + b.id);
      if (bar) bar.setAttribute('fill', dark ? b.dark : b.light);
    });
  }

  function setMode(wantDark) {
    var currently = svg.classList.contains('dark');
    if (wantDark === currently) return;
    var thumb = document.getElementById('tthumb');
    var lbl   = document.getElementById('tlabel');
    if (wantDark) {
      svg.classList.add('dark');
      if (thumb) thumb.setAttribute('cx', '52');
      if (lbl)   lbl.textContent = 'Light';
    } else {
      svg.classList.remove('dark');
      if (thumb) thumb.setAttribute('cx', '16');
      if (lbl)   lbl.textContent = 'Dark';
    }
    swapColors(wantDark);
  }

  document.getElementById('dark-toggle').addEventListener('click', function() {
    setMode(!svg.classList.contains('dark'));
  });
  document.getElementById('print-toggle').addEventListener('click', function() {
    var thumb = document.getElementById('pthumb'), lbl = document.getElementById('plabel');
    if (svg.classList.toggle('print')) { thumb.setAttribute('cx','52'); lbl.textContent='Screen'; }
    else                               { thumb.setAttribute('cx','16'); lbl.textContent='Print';  }
  });

  window.setMode = setMode;
  window.addEventListener('message', function(e) {
    if (e.data && e.data.type === 'setMode') setMode(e.data.dark);
  });

  (function() {
    setMode(window.location.href.indexOf('theme=dark') !== -1);
  })();
})();
]]></script>
</svg>
